<svg width="20" height="14" viewBox="0 0 20 14" fill="none" xmlns="http://www.w3.org/2000/svg">
<path d="M13.7367 6.97967L18.8625 2.52634V11.3822L13.7367 6.97967ZM7.13167 7.73384L8.93167 9.29634C9.21417 9.53634 9.5825 9.68134 9.985 9.68134H9.99917H10.01C10.4133 9.68134 10.7817 9.53551 11.0675 9.29384L11.065 9.29551L12.865 7.73301L18.3367 12.4322H1.6625L7.13167 7.73384ZM1.655 1.47051H18.3467L10.3292 8.43384C10.239 8.50514 10.1274 8.5439 10.0125 8.54384H10.0008H9.99C9.87466 8.54399 9.76269 8.5049 9.6725 8.43301L9.67333 8.43384L1.655 1.47051ZM1.1375 2.52551L6.2625 6.97884L1.1375 11.3788V2.52551ZM19.1375 0.491341C18.9375 0.391341 18.7025 0.333008 18.4533 0.333008H1.54917C1.30763 0.333066 1.06942 0.389267 0.853333 0.497175L0.8625 0.493008C0.603811 0.6206 0.385956 0.81799 0.233545 1.06288C0.0811339 1.30777 0.000239457 1.5904 0 1.87884L0 12.0222C0.00044117 12.4327 0.16371 12.8263 0.453984 13.1165C0.744257 13.4068 1.13783 13.5701 1.54833 13.5705H18.4508C18.8613 13.5701 19.2549 13.4068 19.5452 13.1165C19.8355 12.8263 19.9987 12.4327 19.9992 12.0222V1.87884C19.9992 1.27301 19.65 0.748008 19.1417 0.495508L19.1325 0.491341H19.1375Z" fill="#8857F1"/>
</svg>
