<svg width="16" height="9" viewBox="0 0 16 9" fill="none" xmlns="http://www.w3.org/2000/svg">
<path d="M14.2475 0.657644L8.00003 6.74764L1.75253 0.657644C1.64091 0.548616 1.49107 0.487578 1.33503 0.487578C1.179 0.487578 1.02916 0.548616 0.917534 0.657644C0.863487 0.7106 0.820549 0.773807 0.791237 0.843564C0.761925 0.913322 0.746826 0.988228 0.746826 1.06389C0.746826 1.13956 0.761925 1.21447 0.791237 1.28422C0.820549 1.35398 0.863487 1.41719 0.917534 1.47014L7.56378 7.95014C7.6805 8.06391 7.83704 8.12758 8.00003 8.12758C8.16302 8.12758 8.31957 8.06391 8.43628 7.95014L15.0825 1.47139C15.137 1.4184 15.1802 1.35504 15.2098 1.28505C15.2393 1.21506 15.2545 1.13986 15.2545 1.06389C15.2545 0.987927 15.2393 0.912729 15.2098 0.84274C15.1802 0.772751 15.137 0.709389 15.0825 0.656394C14.9709 0.547366 14.8211 0.486328 14.665 0.486328C14.509 0.486328 14.3592 0.547366 14.2475 0.656394V0.657644Z" fill="#282C37"/>
</svg>
