<svg width="15" height="18" viewBox="0 0 15 18" fill="none" xmlns="http://www.w3.org/2000/svg">
<path d="M7.5 0.75C4.60875 0.75 2.25 3.10875 2.25 6C2.25 7.8075 3.1725 9.4125 4.5705 10.3597C1.89525 11.5072 0 14.1622 0 17.25H1.5C1.5 13.9275 4.1775 11.25 7.5 11.25C10.8225 11.25 13.5 13.9275 13.5 17.25H15C15 14.1622 13.1047 11.508 10.4295 10.359C11.143 9.87733 11.7276 9.22815 12.1321 8.46824C12.5367 7.70834 12.7488 6.86087 12.75 6C12.75 3.10875 10.3912 0.75 7.5 0.75ZM7.5 2.25C9.57975 2.25 11.25 3.92025 11.25 6C11.25 8.07975 9.57975 9.75 7.5 9.75C5.42025 9.75 3.75 8.07975 3.75 6C3.75 3.92025 5.42025 2.25 7.5 2.25Z" fill="#004299"/>
</svg>
