<svg width="24" height="24" viewBox="0 0 24 24" fill="none" xmlns="http://www.w3.org/2000/svg">
<g clip-path="url(#clip0_2127_44445)">
<path d="M18 2.475C16.2375 1.3875 14.2125 0.75 12 0.75V2.475H18Z" fill="#ED4C5C"/>
<path d="M12 4.2001H20.1C19.4625 3.5626 18.75 2.9626 18 2.4751H12V4.2001Z" fill="white"/>
<path d="M12 5.92495H21.4875C21.075 5.28745 20.625 4.72495 20.1375 4.19995H12V5.92495Z" fill="#ED4C5C"/>
<path d="M12 7.65005H22.3875C22.125 7.05005 21.825 6.45005 21.4875 5.92505H12V7.65005Z" fill="white"/>
<path d="M12 9.3749H22.95C22.8 8.7749 22.6125 8.2124 22.3875 7.6499H12V9.3749Z" fill="#ED4C5C"/>
<path d="M12 11.1376H23.2125C23.175 10.5376 23.0625 9.9751 22.95 9.4126H12V11.1376Z" fill="white"/>
<path d="M23.2125 11.1375H12V12H0.75C0.75 12.3 0.75 12.5625 0.7875 12.8625H23.2125C23.25 12.5625 23.25 12.3 23.25 12C23.25 11.7 23.25 11.4 23.2125 11.1375Z" fill="#ED4C5C"/>
<path d="M1.05156 14.5875H22.9516C23.1016 14.025 23.1766 13.4625 23.2141 12.8625H0.789062C0.826563 13.425 0.939063 14.025 1.05156 14.5875Z" fill="white"/>
<path d="M1.61328 16.3124H22.3883C22.6133 15.7499 22.8008 15.1874 22.9508 14.5874H1.05078C1.20078 15.1874 1.38828 15.7499 1.61328 16.3124Z" fill="#ED4C5C"/>
<path d="M2.51328 18.0375H21.4883C21.8258 17.475 22.1258 16.9125 22.3883 16.3125H1.61328C1.87578 16.9125 2.17578 17.475 2.51328 18.0375Z" fill="white"/>
<path d="M3.86172 19.7626H20.1367C20.6242 19.2376 21.1117 18.6376 21.4867 18.0376H2.51172C2.88672 18.6751 3.37422 19.2376 3.86172 19.7626Z" fill="#ED4C5C"/>
<path d="M5.96328 21.4875H18.0383C18.8258 21 19.5008 20.4 20.1383 19.7625H3.86328C4.50078 20.4375 5.21328 21 5.96328 21.4875Z" fill="white"/>
<path d="M11.9984 23.25C14.2109 23.25 16.2734 22.6125 18.0359 21.4875H5.96094C7.72344 22.6125 9.78594 23.25 11.9984 23.25Z" fill="#ED4C5C"/>
<path d="M6 2.475C5.2125 2.9625 4.5 3.5625 3.8625 4.2C3.3375 4.725 2.8875 5.325 2.5125 5.925C2.175 6.4875 1.8375 7.05 1.6125 7.65C1.3875 8.2125 1.2 8.775 1.05 9.375C0.9 9.9375 0.825 10.5 0.7875 11.1C0.75 11.4 0.75 11.7 0.75 12H12V0.75C9.7875 0.75 7.7625 1.3875 6 2.475Z" fill="#428BC1"/>
<path d="M9.37344 1.125L9.56094 1.6875H10.1234L9.67344 2.0625L9.82344 2.625L9.37344 2.2875L8.92344 2.625L9.07344 2.0625L8.62344 1.6875H9.18594L9.37344 1.125ZM10.8734 3.375L11.0609 3.9375H11.6234L11.1734 4.3125L11.3234 4.875L10.8734 4.5375L10.4234 4.875L10.5734 4.3125L10.1234 3.9375H10.6859L10.8734 3.375ZM7.87344 3.375L8.06094 3.9375H8.62344L8.17344 4.3125L8.32344 4.875L7.87344 4.5375L7.42344 4.875L7.57344 4.3125L7.12344 3.9375H7.68594L7.87344 3.375ZM9.37344 5.625L9.56094 6.1875H10.1234L9.67344 6.5625L9.82344 7.125L9.37344 6.7875L8.92344 7.125L9.07344 6.5625L8.62344 6.1875H9.18594L9.37344 5.625ZM6.37344 5.625L6.56094 6.1875H7.12344L6.67344 6.5625L6.82344 7.125L6.37344 6.7875L5.92344 7.125L6.07344 6.5625L5.62344 6.1875H6.18594L6.37344 5.625ZM3.37344 5.625L3.56094 6.1875H4.12344L3.67344 6.5625L3.82344 7.125L3.37344 6.7875L2.92344 7.125L3.07344 6.5625L2.62344 6.1875H3.18594L3.37344 5.625ZM10.8734 7.875L11.0609 8.4375H11.6234L11.1734 8.8125L11.3234 9.375L10.8734 9.0375L10.4234 9.375L10.5734 8.8125L10.1234 8.4375H10.6859L10.8734 7.875ZM7.87344 7.875L8.06094 8.4375H8.62344L8.17344 8.8125L8.32344 9.375L7.87344 9.0375L7.42344 9.375L7.57344 8.8125L7.12344 8.4375H7.68594L7.87344 7.875ZM4.87344 7.875L5.06094 8.4375H5.62344L5.17344 8.8125L5.32344 9.375L4.87344 9.0375L4.42344 9.375L4.57344 8.8125L4.12344 8.4375H4.68594L4.87344 7.875ZM9.37344 10.125L9.56094 10.6875H10.1234L9.67344 11.0625L9.82344 11.625L9.37344 11.2875L8.92344 11.625L9.07344 11.0625L8.62344 10.6875H9.18594L9.37344 10.125ZM6.37344 10.125L6.56094 10.6875H7.12344L6.67344 11.0625L6.82344 11.625L6.37344 11.2875L5.92344 11.625L6.07344 11.0625L5.62344 10.6875H6.18594L6.37344 10.125ZM3.37344 10.125L3.56094 10.6875H4.12344L3.67344 11.0625L3.82344 11.625L3.37344 11.2875L2.92344 11.625L3.07344 11.0625L2.62344 10.6875H3.18594L3.37344 10.125ZM4.42344 4.875L4.87344 4.5375L5.32344 4.875L5.13594 4.3125L5.58594 3.9375H5.02344L4.87344 3.375L4.68594 3.9375H4.16094L4.61094 4.275L4.42344 4.875ZM1.42344 9.375L1.87344 9.0375L2.32344 9.375L2.13594 8.8125L2.58594 8.4375H2.06094L1.87344 7.875L1.68594 8.4375H1.31094C1.31094 8.475 1.27344 8.5125 1.27344 8.55L1.57344 8.775L1.42344 9.375Z" fill="white"/>
</g>
<defs>
<clipPath id="clip0_2127_44445">
<rect width="24" height="24" fill="white"/>
</clipPath>
</defs>
</svg>
