<svg width="24" height="24" viewBox="0 0 24 24" fill="none" xmlns="http://www.w3.org/2000/svg">
<g clip-path="url(#clip0_2127_44463)">
<path d="M16.6875 21.1875L7.50002 12H16.5L7.01252 2.51245H5.96252C4.36277 3.52456 3.04561 4.9256 2.13408 6.58472C1.22255 8.24384 0.746369 10.1069 0.750021 12C0.750021 18.225 5.77502 23.25 12 23.25C13.65 23.25 15.2625 22.875 16.6875 22.2374V21.1875Z" fill="#ED4C5C"/>
<path d="M12 0.75C10.35 0.75 8.7375 1.125 7.3125 1.7625V3.5625L15.1875 11.4375H7.3125V12.6375L16.1625 21.4875H18.0375C21.1875 19.5 23.25 15.975 23.25 12C23.25 5.775 18.225 0.75 12 0.75Z" fill="#F9F9F9"/>
<path d="M7.31172 1.76245C6.82422 1.98745 6.37422 2.21245 5.92422 2.51245L14.6992 11.25H5.69922L16.6867 22.2374C17.1742 22.0124 17.6242 21.7874 18.0742 21.4874L9.29922 12.75H18.2992L7.31172 1.76245Z" fill="#428BC1"/>
<path d="M7.35 8.175C7.4625 7.9875 7.5 7.725 7.5 7.5C7.5 6.675 6.825 6 6 6C5.175 6 4.5 6.675 4.5 7.5C4.5 7.7625 4.575 7.9875 4.65 8.175C3.9375 7.875 3.375 7.5 3.375 7.5C3.375 7.5 3.9375 9.75 6 9.75C8.1 9.75 8.625 7.5 8.625 7.5C8.625 7.5 8.0625 7.875 7.35 8.175ZM6 14.85L6.6 14.25L6.825 15.075L7.65 14.85L7.425 15.675L8.25 15.9L7.65 16.5L8.25 17.1L7.425 17.325L7.65 18.15L6.825 17.925L6.6 18.75L6 18.15L5.4 18.75L5.175 17.925L4.35 18.15L4.575 17.325L3.75 17.1L4.35 16.5L3.75 15.9L4.575 15.675L4.35 14.85L5.175 15.075L5.4 14.25L6 14.85Z" fill="white"/>
</g>
<defs>
<clipPath id="clip0_2127_44463">
<rect width="24" height="24" fill="white"/>
</clipPath>
</defs>
</svg>
