<svg width="25" height="24" viewBox="0 0 25 24" fill="none" xmlns="http://www.w3.org/2000/svg">
<g opacity="0.5">
<path d="M15 12.25C14.2583 12.25 13.5333 12.0301 12.9166 11.618C12.2999 11.206 11.8193 10.6203 11.5355 9.93506C11.2516 9.24984 11.1774 8.49584 11.3221 7.76841C11.4667 7.04098 11.8239 6.3728 12.3483 5.84835C12.8728 5.3239 13.541 4.96675 14.2684 4.82206C14.9958 4.67736 15.7498 4.75162 16.4351 5.03545C17.1203 5.31928 17.706 5.79993 18.118 6.41661C18.5301 7.0333 18.75 7.75832 18.75 8.5C18.75 9.49456 18.3549 10.4484 17.6517 11.1517C16.9484 11.8549 15.9946 12.25 15 12.25ZM15 6.25C14.555 6.25 14.12 6.38196 13.75 6.62919C13.38 6.87643 13.0916 7.22783 12.9213 7.63896C12.751 8.0501 12.7064 8.5025 12.7932 8.93895C12.88 9.37541 13.0943 9.77632 13.409 10.091C13.7237 10.4057 14.1246 10.62 14.561 10.7068C14.9975 10.7936 15.4499 10.749 15.861 10.5787C16.2722 10.4084 16.6236 10.12 16.8708 9.75003C17.118 9.38002 17.25 8.94501 17.25 8.5C17.25 7.90326 17.0129 7.33097 16.591 6.90901C16.169 6.48705 15.5967 6.25 15 6.25ZM22 19.25C21.8019 19.2474 21.6126 19.1676 21.4725 19.0275C21.3324 18.8874 21.2526 18.6981 21.25 18.5C21.25 16.55 20.19 15.25 15 15.25C9.81 15.25 8.75 16.55 8.75 18.5C8.75 18.6989 8.67098 18.8897 8.53033 19.0303C8.38968 19.171 8.19891 19.25 8 19.25C7.80109 19.25 7.61032 19.171 7.46967 19.0303C7.32902 18.8897 7.25 18.6989 7.25 18.5C7.25 13.75 12.68 13.75 15 13.75C17.32 13.75 22.75 13.75 22.75 18.5C22.7474 18.6981 22.6676 18.8874 22.5275 19.0275C22.3874 19.1676 22.1981 19.2474 22 19.25ZM9.32 13.06H9C8.20435 12.9831 7.47184 12.5933 6.96362 11.9763C6.4554 11.3593 6.21309 10.5657 6.29 9.77C6.36691 8.97435 6.75675 8.24184 7.37374 7.73362C7.99074 7.2254 8.78435 6.98309 9.58 7.06C9.68202 7.06439 9.78207 7.08956 9.87402 7.13397C9.96597 7.17839 10.0479 7.24111 10.1147 7.3183C10.1816 7.39549 10.232 7.48552 10.2628 7.58287C10.2936 7.68021 10.3043 7.78283 10.294 7.88443C10.2838 7.98603 10.2529 8.08448 10.2033 8.17372C10.1537 8.26297 10.0864 8.34115 10.0055 8.40347C9.92459 8.46578 9.83182 8.51092 9.73286 8.53612C9.63391 8.56132 9.53085 8.56604 9.43 8.55C9.23479 8.53054 9.03766 8.55061 8.85038 8.60903C8.66311 8.66745 8.48952 8.76301 8.34 8.89C8.18813 9.01251 8.06216 9.16402 7.96945 9.33571C7.87674 9.50739 7.81914 9.69582 7.8 9.89C7.77932 10.0866 7.79798 10.2854 7.85488 10.4747C7.91179 10.664 8.0058 10.8402 8.13145 10.9928C8.2571 11.1454 8.41186 11.2715 8.58673 11.3638C8.7616 11.456 8.95307 11.5125 9.15 11.53C9.47554 11.5578 9.80144 11.4808 10.08 11.31C10.2497 11.2052 10.4541 11.1722 10.6482 11.2181C10.8423 11.2641 11.0102 11.3853 11.115 11.555C11.2198 11.7247 11.2528 11.9291 11.2069 12.1232C11.1609 12.3173 11.0397 12.4852 10.87 12.59C10.4062 12.8858 9.86999 13.0484 9.32 13.06ZM4 18.5C3.80189 18.4974 3.61263 18.4176 3.47253 18.2775C3.33244 18.1374 3.25259 17.9481 3.25 17.75C3.25 15.05 3.97 13.25 7.5 13.25C7.69891 13.25 7.88968 13.329 8.03033 13.4697C8.17098 13.6103 8.25 13.8011 8.25 14C8.25 14.1989 8.17098 14.3897 8.03033 14.5303C7.88968 14.671 7.69891 14.75 7.5 14.75C5.15 14.75 4.75 15.5 4.75 17.75C4.74741 17.9481 4.66756 18.1374 4.52747 18.2775C4.38737 18.4176 4.19811 18.4974 4 18.5Z" fill="white"/>
</g>
</svg>
