<svg width="29" height="31" viewBox="0 0 29 31" fill="none" xmlns="http://www.w3.org/2000/svg">
<path d="M17.3892 15.3614C16.5253 15.3614 15.6808 15.0865 14.9625 14.5714C14.2442 14.0564 13.6844 13.3243 13.3538 12.4678C13.0232 11.6112 12.9367 10.6687 13.1052 9.75944C13.2738 8.85015 13.6898 8.01492 14.3006 7.35936C14.9115 6.7038 15.6898 6.25736 16.5371 6.07649C17.3844 5.89562 18.2626 5.98845 19.0607 6.34324C19.8589 6.69802 20.541 7.29883 21.021 8.06969C21.5009 8.84054 21.7571 9.74682 21.7571 10.6739C21.7571 11.9171 21.2969 13.1094 20.4778 13.9885C19.6586 14.8676 18.5476 15.3614 17.3892 15.3614ZM17.3892 7.86142C16.8709 7.86142 16.3642 8.02637 15.9332 8.33541C15.5022 8.64445 15.1663 9.08371 14.968 9.59762C14.7696 10.1115 14.7177 10.677 14.8188 11.2226C14.9199 11.7682 15.1695 12.2693 15.5361 12.6627C15.9026 13.056 16.3695 13.3239 16.8779 13.4324C17.3863 13.5409 17.9132 13.4852 18.3921 13.2723C18.871 13.0595 19.2803 12.699 19.5683 12.2365C19.8562 11.774 20.0099 11.2302 20.0099 10.6739C20.0099 9.928 19.7338 9.21263 19.2423 8.68518C18.7509 8.15774 18.0843 7.86142 17.3892 7.86142ZM25.5426 24.1114C25.3119 24.1082 25.0914 24.0084 24.9282 23.8333C24.7651 23.6581 24.672 23.4216 24.669 23.1739C24.669 20.7364 23.4344 19.1114 17.3892 19.1114C11.344 19.1114 10.1094 20.7364 10.1094 23.1739C10.1094 23.4226 10.0173 23.661 9.85351 23.8368C9.68968 24.0127 9.46748 24.1114 9.23579 24.1114C9.00411 24.1114 8.78191 24.0127 8.61808 23.8368C8.45425 23.661 8.36222 23.4226 8.36222 23.1739C8.36222 17.2364 14.6869 17.2364 17.3892 17.2364C20.0915 17.2364 26.4162 17.2364 26.4162 23.1739C26.4132 23.4216 26.3202 23.6581 26.157 23.8333C25.9938 24.0084 25.7734 24.1082 25.5426 24.1114ZM10.7733 16.3739H10.4006C9.47382 16.2778 8.62061 15.7905 8.02865 15.0192C7.43668 14.248 7.15445 13.256 7.24403 12.2614C7.33362 11.2669 7.78769 10.3512 8.50634 9.71595C9.225 9.08067 10.1494 8.77778 11.0761 8.87392C11.195 8.8794 11.3115 8.91087 11.4186 8.96639C11.5257 9.02191 11.6211 9.10031 11.699 9.1968C11.7768 9.29328 11.8355 9.40582 11.8714 9.5275C11.9073 9.64919 11.9197 9.77746 11.9078 9.90446C11.8959 10.0315 11.8599 10.1545 11.8022 10.2661C11.7444 10.3776 11.6659 10.4754 11.5717 10.5533C11.4775 10.6311 11.3694 10.6876 11.2542 10.7191C11.1389 10.7506 11.0189 10.7565 10.9014 10.7364C10.674 10.7121 10.4444 10.7372 10.2263 10.8102C10.0082 10.8832 9.80598 11.0027 9.63182 11.1614C9.45492 11.3146 9.3082 11.5039 9.20021 11.7186C9.09222 11.9332 9.02513 12.1687 9.00284 12.4114C8.97875 12.6572 9.00049 12.9056 9.06677 13.1423C9.13305 13.379 9.24255 13.5991 9.3889 13.7899C9.53525 13.9807 9.71552 14.1384 9.9192 14.2536C10.1229 14.3689 10.3459 14.4396 10.5753 14.4614C10.9545 14.4962 11.3341 14.3999 11.6585 14.1864C11.8562 14.0555 12.0943 14.0142 12.3204 14.0716C12.5465 14.129 12.742 14.2805 12.8641 14.4927C12.9861 14.7048 13.0246 14.9603 12.9711 15.203C12.9175 15.4456 12.7764 15.6555 12.5787 15.7864C12.0385 16.1562 11.4139 16.3594 10.7733 16.3739ZM4.5767 23.1739C4.34595 23.1707 4.1255 23.0709 3.96233 22.8958C3.79915 22.7206 3.70614 22.4841 3.70312 22.2364C3.70312 18.8614 4.54176 16.6114 8.65341 16.6114C8.8851 16.6114 9.10729 16.7102 9.27112 16.886C9.43495 17.0618 9.52699 17.3003 9.52699 17.5489C9.52699 17.7976 9.43495 18.036 9.27112 18.2118C9.10729 18.3877 8.8851 18.4864 8.65341 18.4864C5.91619 18.4864 5.45028 19.4239 5.45028 22.2364C5.44727 22.4841 5.35426 22.7206 5.19108 22.8958C5.0279 23.0709 4.80745 23.1707 4.5767 23.1739Z" fill="white"/>
</svg>
