<svg width="26" height="30" viewBox="0 0 26 30" fill="none" xmlns="http://www.w3.org/2000/svg">
<g filter="url(#filter0_d_9464_6805)">
<path d="M7.133 20.8779C5.955 20.8779 5 19.8262 5 18.5277V9.08162C5 8.36796 5.295 7.69187 5.8 7.2465L11.667 2.07597C12.0419 1.74283 12.5133 1.56055 13 1.56055C13.4867 1.56055 13.9581 1.74283 14.333 2.07597L20.199 7.2465C20.705 7.69187 21 8.36796 21 9.08162V18.5277C21 19.8262 20.045 20.8779 18.867 20.8779H7.133Z" stroke="white" stroke-width="1.5" stroke-linecap="round" stroke-linejoin="round"/>
<path d="M10.5 20.8779V14.9754C10.5 14.4062 10.7107 13.8603 11.0858 13.4578C11.4609 13.0552 11.9696 12.8291 12.5 12.8291H13.5C14.0304 12.8291 14.5391 13.0552 14.9142 13.4578C15.2893 13.8603 15.5 14.4062 15.5 14.9754V20.8779" stroke="white" stroke-width="1.5" stroke-linecap="round" stroke-linejoin="round"/>
</g>
<defs>
<filter id="filter0_d_9464_6805" x="0.25" y="0.810547" width="25.5" height="28.8174" filterUnits="userSpaceOnUse" color-interpolation-filters="sRGB">
<feFlood flood-opacity="0" result="BackgroundImageFix"/>
<feColorMatrix in="SourceAlpha" type="matrix" values="0 0 0 0 0 0 0 0 0 0 0 0 0 0 0 0 0 0 127 0" result="hardAlpha"/>
<feOffset dy="4"/>
<feGaussianBlur stdDeviation="2"/>
<feComposite in2="hardAlpha" operator="out"/>
<feColorMatrix type="matrix" values="0 0 0 0 0 0 0 0 0 0 0 0 0 0 0 0 0 0 0.25 0"/>
<feBlend mode="normal" in2="BackgroundImageFix" result="effect1_dropShadow_9464_6805"/>
<feBlend mode="normal" in="SourceGraphic" in2="effect1_dropShadow_9464_6805" result="shape"/>
</filter>
</defs>
</svg>
