<svg width="39" height="38" viewBox="0 0 39 38" fill="none" xmlns="http://www.w3.org/2000/svg">
<g filter="url(#filter0_d_9782_1338)">
<path fill-rule="evenodd" clip-rule="evenodd" d="M24.2979 9.84302L32.5663 10.5605C34.0696 10.6801 34.6675 12.5593 33.523 13.5501L27.2534 18.9826L29.1325 27.063C29.4742 28.5322 27.8855 29.6939 26.5871 28.908L19.4975 24.6201L12.4079 28.8909C11.1096 29.6768 9.52086 28.5151 9.86253 27.0459L11.7417 18.9826L5.47211 13.5501C4.32753 12.5593 4.94253 10.6801 6.44586 10.5605L14.6971 9.8601L17.9259 2.24094C18.5067 0.857188 20.4884 0.857188 21.0692 2.24094L24.2979 9.84302ZM13.0742 25.3034L19.4975 21.4255L25.9379 25.3205L24.2296 18.0089L29.9013 13.0889L22.4188 12.4397L19.4975 5.53802L16.5934 12.4226L9.11086 13.0718L14.7825 17.9918L13.0742 25.3034Z" fill="#FFFEFE"/>
<path d="M32.5663 10.5605L32.5231 11.0587L32.5266 11.0589L32.5663 10.5605ZM24.2979 9.84302L23.8377 10.0385L23.9552 10.3152L24.2547 10.3411L24.2979 9.84302ZM33.523 13.5501L33.1957 13.1721L33.1955 13.1722L33.523 13.5501ZM27.2534 18.9826L26.9259 18.6047L26.6981 18.8022L26.7664 19.0959L27.2534 18.9826ZM29.1325 27.063L28.6455 27.1763L29.1325 27.063ZM26.5871 28.908L26.846 28.4803L26.8459 28.4802L26.5871 28.908ZM19.4975 24.6201L19.7563 24.1923L19.498 24.0361L19.2395 24.1918L19.4975 24.6201ZM12.4079 28.8909L12.1499 28.4626L12.149 28.4632L12.4079 28.8909ZM9.86253 27.0459L9.37558 26.9324L9.37553 26.9327L9.86253 27.0459ZM11.7417 18.9826L12.2286 19.0961L12.2971 18.8023L12.0691 18.6047L11.7417 18.9826ZM5.47211 13.5501L5.79954 13.1722L5.79936 13.1721L5.47211 13.5501ZM6.44586 10.5605L6.48551 11.059L6.48815 11.0587L6.44586 10.5605ZM14.6971 9.8601L14.7394 10.3583L15.0398 10.3328L15.1575 10.0552L14.6971 9.8601ZM17.9259 2.24094L18.3862 2.43603L18.3869 2.43446L17.9259 2.24094ZM21.0692 2.24094L20.6082 2.43446L20.609 2.4364L21.0692 2.24094ZM19.4975 21.4255L19.7563 20.9977L19.4978 20.8413L19.2391 20.9975L19.4975 21.4255ZM13.0742 25.3034L12.5873 25.1897L12.3175 26.3443L13.3326 25.7315L13.0742 25.3034ZM25.9379 25.3205L25.6792 25.7484L26.6949 26.3626L26.4248 25.2068L25.9379 25.3205ZM24.2296 18.0089L23.902 17.6312L23.6741 17.8288L23.7427 18.1226L24.2296 18.0089ZM29.9013 13.0889L30.2289 13.4665L31.1209 12.6928L29.9445 12.5907L29.9013 13.0889ZM22.4188 12.4397L21.9583 12.6346L22.0757 12.9118L22.3756 12.9378L22.4188 12.4397ZM19.4975 5.53802L19.958 5.34313L19.4967 4.25343L19.0368 5.34369L19.4975 5.53802ZM16.5934 12.4226L16.6366 12.9207L16.9369 12.8947L17.0541 12.6169L16.5934 12.4226ZM9.11086 13.0718L9.06765 12.5736L7.89125 12.6757L8.78322 13.4495L9.11086 13.0718ZM14.7825 17.9918L15.2694 18.1055L15.3381 17.8118L15.1102 17.6141L14.7825 17.9918ZM32.6095 10.0624L24.3412 9.34489L24.2547 10.3411L32.5231 11.0586L32.6095 10.0624ZM33.8502 13.9281C35.3197 12.656 34.5653 10.218 32.6059 10.0621L32.5266 11.0589C33.574 11.1423 34.0153 12.4625 33.1957 13.1721L33.8502 13.9281ZM27.5808 19.3605L33.8504 13.928L33.1955 13.1722L26.9259 18.6047L27.5808 19.3605ZM29.6195 26.9498L27.7404 18.8693L26.7664 19.0959L28.6455 27.1763L29.6195 26.9498ZM26.3282 29.3358C28.0069 30.3518 30.0609 28.8477 29.6195 26.9498L28.6455 27.1763C28.8875 28.2167 27.764 29.0359 26.846 28.4803L26.3282 29.3358ZM19.2388 25.0479L26.3284 29.3359L26.8459 28.4802L19.7563 24.1923L19.2388 25.0479ZM12.666 29.3192L19.7555 25.0484L19.2395 24.1918L12.1499 28.4626L12.666 29.3192ZM9.37553 26.9327C8.93415 28.8306 10.9881 30.3348 12.6668 29.3187L12.149 28.4632C11.2311 29.0188 10.1076 28.1996 10.3495 27.1592L9.37553 26.9327ZM11.2547 18.8691L9.37558 26.9324L10.3495 27.1594L12.2286 19.0961L11.2547 18.8691ZM5.14469 13.928L11.4143 19.3605L12.0691 18.6047L5.79954 13.1722L5.14469 13.928ZM6.40622 10.0621C4.45779 10.2171 3.66701 12.6488 5.14486 13.9281L5.79936 13.1721C4.98805 12.4697 5.42727 11.1431 6.48551 11.0589L6.40622 10.0621ZM14.6548 9.3619L6.40357 10.0623L6.48815 11.0587L14.7394 10.3583L14.6548 9.3619ZM17.4655 2.04585L14.2367 9.66501L15.1575 10.0552L18.3862 2.43603L17.4655 2.04585ZM21.5302 2.04742C20.7779 0.255027 18.2172 0.255027 17.4648 2.04742L18.3869 2.43446C18.7962 1.45935 20.1989 1.45935 20.6082 2.43446L21.5302 2.04742ZM24.7582 9.64756L21.5294 2.04548L20.609 2.4364L23.8377 10.0385L24.7582 9.64756ZM19.2391 20.9975L12.8158 24.8754L13.3326 25.7315L19.7559 21.8536L19.2391 20.9975ZM26.1967 24.8927L19.7563 20.9977L19.2388 21.8534L25.6792 25.7484L26.1967 24.8927ZM23.7427 18.1226L25.4511 25.4343L26.4248 25.2068L24.7165 17.8951L23.7427 18.1226ZM29.5736 12.7112L23.902 17.6312L24.5573 18.3866L30.2289 13.4665L29.5736 12.7112ZM22.3756 12.9378L29.8581 13.587L29.9445 12.5907L22.462 11.9416L22.3756 12.9378ZM19.0371 5.73291L21.9583 12.6346L22.8792 12.2448L19.958 5.34313L19.0371 5.73291ZM17.0541 12.6169L19.9582 5.73236L19.0368 5.34369L16.1327 12.2283L17.0541 12.6169ZM9.15408 13.5699L16.6366 12.9207L16.5501 11.9245L9.06765 12.5736L9.15408 13.5699ZM15.1102 17.6141L9.4385 12.6941L8.78322 13.4495L14.4549 18.3695L15.1102 17.6141ZM13.5611 25.4172L15.2694 18.1055L14.2956 17.878L12.5873 25.1897L13.5611 25.4172Z" fill="black"/>
</g>
<defs>
<filter id="filter0_d_9782_1338" x="0.378906" y="0.703125" width="38.2412" height="36.96" filterUnits="userSpaceOnUse" color-interpolation-filters="sRGB">
<feFlood flood-opacity="0" result="BackgroundImageFix"/>
<feColorMatrix in="SourceAlpha" type="matrix" values="0 0 0 0 0 0 0 0 0 0 0 0 0 0 0 0 0 0 127 0" result="hardAlpha"/>
<feOffset dy="4"/>
<feGaussianBlur stdDeviation="2"/>
<feComposite in2="hardAlpha" operator="out"/>
<feColorMatrix type="matrix" values="0 0 0 0 0 0 0 0 0 0 0 0 0 0 0 0 0 0 0.25 0"/>
<feBlend mode="normal" in2="BackgroundImageFix" result="effect1_dropShadow_9782_1338"/>
<feBlend mode="normal" in="SourceGraphic" in2="effect1_dropShadow_9782_1338" result="shape"/>
</filter>
</defs>
</svg>
