<svg width="35" height="31" viewBox="0 0 35 31" fill="none" xmlns="http://www.w3.org/2000/svg">
<path d="M8.84007 6.01349C10.3803 6.01349 11.6289 4.6905 11.6289 3.0585C11.6289 1.42651 10.3803 0.103516 8.84007 0.103516C7.29986 0.103516 6.05127 1.42651 6.05127 3.0585C6.05127 4.6905 7.29986 6.01349 8.84007 6.01349Z" fill="#FFFDFC"/>
<path d="M9.21139 15.2716C9.21139 18.216 11.0873 28.9411 17.6179 29.0049C24.1485 28.9411 26.0244 18.2054 26.0244 15.2716H23.4162L29.1944 6.04529L34.9325 15.2716H32.0634C32.0634 22.0001 28.3016 30.3336 17.6681 30.5462C17.638 30.5462 17.6079 30.5462 17.5778 30.5462C6.94424 30.3336 3.07204 22.0001 3.07204 15.2716H0.152832L5.84076 6.04529L11.8196 15.2716H9.21139Z" fill="#FFFDFC"/>
<path d="M23.5664 3.0585C23.5664 1.42157 24.8204 0.103516 26.3552 0.103516C27.9001 0.103516 29.144 1.4322 29.144 3.0585C29.144 4.68481 27.89 6.01349 26.3552 6.01349C24.8103 6.01349 23.5664 4.69544 23.5664 3.0585Z" fill="#FFFDFC"/>
</svg>
