<svg width="25" height="24" viewBox="0 0 25 24" fill="none" xmlns="http://www.w3.org/2000/svg">
<g opacity="0.5">
<path d="M13 3.75C10.1087 3.75 7.75 6.10875 7.75 9C7.75 10.8075 8.6725 12.4125 10.0705 13.3597C7.39525 14.5072 5.5 17.1622 5.5 20.25H7C7 16.9275 9.6775 14.25 13 14.25C16.3225 14.25 19 16.9275 19 20.25H20.5C20.5 17.1622 18.6047 14.508 15.9295 13.359C16.643 12.8773 17.2276 12.2281 17.6321 11.4682C18.0367 10.7083 18.2488 9.86087 18.25 9C18.25 6.10875 15.8912 3.75 13 3.75ZM13 5.25C15.0798 5.25 16.75 6.92025 16.75 9C16.75 11.0798 15.0798 12.75 13 12.75C10.9202 12.75 9.25 11.0798 9.25 9C9.25 6.92025 10.9202 5.25 13 5.25Z" fill="white"/>
</g>
</svg>
