<svg width="18" height="18" viewBox="0 0 18 18" fill="none" xmlns="http://www.w3.org/2000/svg">
<path fill-rule="evenodd" clip-rule="evenodd" d="M11.5 0.0419922H8.12C6.58833 0.0419922 5.375 0.0419922 4.42583 0.169492C3.44917 0.301159 2.65833 0.577825 2.03417 1.20116C1.41083 1.82533 1.13417 2.61616 1.0025 3.59283C0.875 4.54283 0.875 5.75533 0.875 7.28699V12.3337C0.87502 13.0782 1.14078 13.7982 1.62445 14.3642C2.10812 14.9303 2.77793 15.305 3.51333 15.4212C3.6275 16.0578 3.84833 16.6012 4.29 17.0437C4.79167 17.5453 5.42333 17.7603 6.17333 17.862C6.89583 17.9587 7.815 17.9587 8.95417 17.9587H11.5458C12.685 17.9587 13.6042 17.9587 14.3267 17.862C15.0767 17.7603 15.7083 17.5453 16.21 17.0437C16.7117 16.542 16.9267 15.9103 17.0283 15.1603C17.125 14.4378 17.125 13.5187 17.125 12.3795V8.12116C17.125 6.98199 17.125 6.06283 17.0283 5.34033C16.9267 4.59033 16.7117 3.95866 16.21 3.45699C15.7675 3.01533 15.2242 2.79449 14.5875 2.68033C14.4714 1.94492 14.0966 1.27511 13.5306 0.79144C12.9646 0.307772 12.2445 0.0420123 11.5 0.0419922ZM13.275 2.55949C13.1483 2.18949 12.909 1.86838 12.5908 1.6411C12.2725 1.41382 11.8911 1.29175 11.5 1.29199H8.16667C6.5775 1.29199 5.44917 1.29366 4.59167 1.40866C3.75417 1.52116 3.27083 1.73283 2.91833 2.08533C2.56583 2.43783 2.35417 2.92116 2.24167 3.75949C2.12667 4.61616 2.125 5.74449 2.125 7.33366V12.3337C2.12476 12.7248 2.24683 13.1061 2.4741 13.4244C2.70138 13.7427 3.0225 13.9819 3.3925 14.1087C3.375 13.6003 3.375 13.0253 3.375 12.3795V8.12116C3.375 6.98199 3.375 6.06283 3.4725 5.34033C3.5725 4.59033 3.78917 3.95866 4.29 3.45699C4.79167 2.95533 5.42333 2.74033 6.17333 2.63949C6.89583 2.54199 7.815 2.54199 8.95417 2.54199H11.5458C12.1917 2.54199 12.7667 2.54199 13.275 2.55949ZM5.17333 4.34199C5.40417 4.11116 5.7275 3.96116 6.34 3.87866C6.96833 3.79449 7.80333 3.79283 8.99917 3.79283H11.4992C12.695 3.79283 13.5292 3.79449 14.1592 3.87866C14.7708 3.96116 15.0942 4.11199 15.325 4.34199C15.5558 4.57283 15.7058 4.89616 15.7883 5.50866C15.8725 6.13699 15.8742 6.97199 15.8742 8.16783V12.3345C15.8742 13.5303 15.8725 14.3645 15.7883 14.9945C15.7058 15.6062 15.555 15.9295 15.325 16.1603C15.0942 16.3912 14.7708 16.5412 14.1583 16.6237C13.5292 16.7078 12.695 16.7095 11.4992 16.7095H8.99917C7.80333 16.7095 6.96833 16.7078 6.33917 16.6237C5.7275 16.5412 5.40417 16.3903 5.17333 16.1603C4.9425 15.9295 4.7925 15.6062 4.71 14.9937C4.62583 14.3645 4.62417 13.5303 4.62417 12.3345V8.16783C4.62417 6.97199 4.62583 6.13699 4.71 5.50783C4.7925 4.89616 4.94333 4.57283 5.17333 4.34199Z" fill="#424242"/>
</svg>
