<svg width="61" height="60" viewBox="0 0 61 60" fill="none" xmlns="http://www.w3.org/2000/svg">
<path d="M54.2732 40C53.6041 40 53.0465 40.5747 53.0465 41.2644V46.5517C53.0465 49.8276 50.4814 52.4713 47.303 52.4713H41.7268C41.0576 52.4713 40.5 53.046 40.5 53.7356C40.5 54.4253 41.0576 55 41.7268 55H47.303C51.8197 55 55.5 51.2069 55.5 46.5517V41.2644C55.5 40.5747 54.9424 40 54.2732 40Z" fill="#3045B3"/>
<path d="M47.303 5H41.7268C41.0576 5 40.5 5.54348 40.5 6.19565C40.5 6.84783 41.0576 7.3913 41.7268 7.3913H47.303C50.4814 7.3913 53.0465 9.8913 53.0465 12.9891V18.8043C53.0465 19.4565 53.6041 20 54.2732 20C54.9424 20 55.5 19.4565 55.5 18.8043V12.9891C55.5 8.58696 51.8197 5 47.303 5Z" fill="#3045B3"/>
<path d="M41.75 30C42.4196 30 42.9554 29.2913 43 28.4055V24.1535C43 23.2087 42.4643 22.5 41.75 22.5C41.0357 22.5 40.5 23.2677 40.5 24.1535V28.3465C40.5 29.2913 41.0804 30 41.75 30Z" fill="#3045B3"/>
<path d="M38.3398 40.3162C36.2797 42.0023 33.5329 42.9391 30.7289 42.9391H30.2711C27.4099 42.9391 24.7203 42.0023 22.6602 40.3162C22.2024 39.8946 21.4013 39.8946 20.8863 40.3162C20.3712 40.6909 20.3712 41.3466 20.8863 41.7681C23.4614 43.8759 26.7804 45 30.2711 45H30.7289C34.2196 45 37.5959 43.8759 40.1137 41.7681C40.6288 41.3934 40.6288 40.7377 40.1137 40.3162C39.6559 39.8946 38.8548 39.8946 38.3398 40.3162Z" fill="#3045B3"/>
<path d="M27.0278 37.5H27.375C30.5 37.5 33 35.374 33 32.7756V23.7992C33 23.0906 32.3056 22.5 31.4722 22.5C30.6389 22.5 29.9444 23.0906 29.9444 23.7992V32.7165C29.9444 33.9567 28.7639 34.9016 27.375 34.9016H27.0278C26.1944 34.9016 25.5 35.4921 25.5 36.2008C25.5 36.9094 26.1944 37.5 27.0278 37.5Z" fill="#3045B3"/>
<path d="M19.25 22.5C18.5357 22.5 18 23.2677 18 24.1535V28.3465C18 29.2913 18.5804 30 19.25 30C19.9643 30 20.5 29.2913 20.5 28.4055V24.1535C20.5 23.2087 19.9196 22.5 19.25 22.5Z" fill="#3045B3"/>
<path d="M6.72677 20C7.39591 20 7.95353 19.4565 7.95353 18.8043V12.9891C7.95353 9.8913 10.5186 7.3913 13.697 7.3913H19.2732C19.9424 7.3913 20.5 6.84783 20.5 6.19565C20.5 5.54348 19.9424 5 19.2732 5H13.697C9.1803 5 5.5 8.58696 5.5 12.9891V18.8043C5.5 19.4565 6.05762 20 6.72677 20Z" fill="#3045B3"/>
<path d="M19.2732 52.4713H13.697C10.5186 52.4713 7.95353 49.8276 7.95353 46.5517V41.2644C7.95353 40.5747 7.39591 40 6.72677 40C6.05762 40 5.5 40.5747 5.5 41.2644V46.5517C5.5 51.2069 9.1803 55 13.697 55H19.2732C19.9981 55 20.5 54.4253 20.5 53.7356C20.5 53.046 19.9424 52.4713 19.2732 52.4713Z" fill="#3045B3"/>
</svg>
