<svg width="26" height="26" viewBox="0 0 26 26" fill="none" xmlns="http://www.w3.org/2000/svg">
<path d="M12.7832 0.5C5.8957 0.5 0.283203 6.1125 0.283203 13C0.283203 19.8875 5.8957 25.5 12.7832 25.5C19.6707 25.5 25.2832 19.8875 25.2832 13C25.2832 6.1125 19.6707 0.5 12.7832 0.5ZM18.7582 10.125L11.6707 17.2125C11.4957 17.3875 11.2582 17.4875 11.0082 17.4875C10.7582 17.4875 10.5207 17.3875 10.3457 17.2125L6.8082 13.675C6.4457 13.3125 6.4457 12.7125 6.8082 12.35C7.1707 11.9875 7.7707 11.9875 8.1332 12.35L11.0082 15.225L17.4332 8.8C17.7957 8.4375 18.3957 8.4375 18.7582 8.8C19.1207 9.1625 19.1207 9.75 18.7582 10.125Z" fill="#3FC555"/>
</svg>
