<svg width="10" height="15" viewBox="0 0 10 15" fill="none" xmlns="http://www.w3.org/2000/svg">
<path d="M5.93958 7.05834L1.21958 11.7783C0.971246 12.0282 0.831857 12.3661 0.831857 12.7183C0.831857 13.0706 0.971246 13.4085 1.21958 13.6583C1.34353 13.7833 1.491 13.8825 1.65348 13.9502C1.81596 14.0179 1.99023 14.0527 2.16625 14.0527C2.34226 14.0527 2.51654 14.0179 2.67902 13.9502C2.8415 13.8825 2.98896 13.7833 3.11291 13.6583L8.76625 8.005C8.89122 7.88105 8.99041 7.73358 9.0581 7.57111C9.12579 7.40863 9.16064 7.23435 9.16064 7.05834C9.16064 6.88232 9.12579 6.70805 9.0581 6.54557C8.99041 6.38309 8.89122 6.23562 8.76625 6.11167L3.11291 0.39167C2.98833 0.268095 2.84057 0.170328 2.67812 0.103975C2.51567 0.0376225 2.34172 0.00398731 2.16625 0.00500202C1.99077 0.00398731 1.81682 0.0376225 1.65437 0.103975C1.49192 0.170328 1.34417 0.268095 1.21958 0.39167C0.971246 0.641486 0.831857 0.979423 0.831857 1.33167C0.831857 1.68392 0.971246 2.02185 1.21958 2.27167L5.93958 7.05834Z" fill="#282C37"/>
</svg>
