<svg xmlns="http://www.w3.org/2000/svg" width="238" height="67" viewBox="0 0 238 67">
    <g fill="none" fill-rule="evenodd">
        <g fill="#FFF">
            <g>
                <g>
                    <path d="M7.588 21c2.014 0 3.946.761 5.368 2.115L29.28 38.602c2.96 2.857 2.96 7.439 0 10.296L12.956 64.385C11.534 65.739 9.602 66.5 7.588 66.5c-2.015 0-3.946-.761-5.368-2.115l-.19-.186c-2.768-2.826-2.706-7.246.19-10L13.233 43.75 2.22 33.3c-2.96-2.814-2.96-7.37 0-10.185l.228-.209C3.845 21.683 5.68 21 7.588 21zM178.37 10.5c.068.003.126.054.14.124l6.845 41.058c.017.063.072.107.135.107.063 0 .118-.044.136-.107l6.855-41.058c.01-.06.052-.108.108-.124h6.769c.042.003.081.024.108.058.027.034.039.079.032.122l-9.324 55.82h-9.346l-9.324-55.82c-.01-.042-.001-.087.024-.122.025-.034.064-.056.106-.058zm59.482 0c.082 0 .148.066.148.147v7.014c0 .08-.066.146-.148.146H220.99c-.082 0-.148.066-.148.147V34.7c0 .08.066.146.148.146h16.862c.082 0 .148.066.148.147v7.014c0 .081-.066.147-.148.147H220.99c-.082 0-.148.065-.148.146v16.746c0 .081.066.147.148.147h16.862c.082 0 .148.065.148.146v7.014c0 .081-.066.147-.148.147h-24.204c-.082 0-.148-.066-.148-.147V10.647c0-.081.066-.147.148-.147zm-139.654 0c.082 0 .148.066.148.147v48.41c.006.077.07.136.147.136h16.87c.038 0 .075.015.1.043.027.028.04.066.037.103v7.014c.003.038-.01.076-.036.103-.026.028-.063.044-.1.044H91.136c-.038 0-.075-.016-.1-.044-.027-.027-.04-.065-.037-.103V10.647c-.003-.038.01-.076.036-.103.026-.028.063-.044.1-.044zm45.514 0c7.623.025 13.788 5.935 13.788 13.216v29.568c0 7.286-6.172 13.197-13.8 13.216h-.365c-7.641 0-13.835-5.917-13.835-13.216V23.716c0-7.299 6.194-13.216 13.835-13.216zm-.188 6.755l-.298.006c-1.581.071-3.082.703-4.206 1.778-1.193 1.142-1.862 2.691-1.859 4.305v30.323c0 3.357 2.849 6.078 6.363 6.078l.297-.006c1.581-.068 3.084-.697 4.21-1.77 1.195-1.14 1.867-2.688 1.867-4.302V23.344c0-1.615-.672-3.164-1.867-4.306-1.195-1.142-2.817-1.783-4.507-1.783zM50.046 1.874c2.994-2.589 7.586-2.483 10.446.24 2.86 2.722 2.986 7.108.286 9.975l-11.02 10.525 11.02 10.514c2.963 2.83 2.963 7.42 0 10.25-2.964 2.83-7.768 2.83-10.732 0L33.718 27.782c-2.957-2.871-2.957-7.477 0-10.348z" transform="translate(-61 -263) translate(61 263)"/>
                </g>
            </g>
        </g>
    </g>
</svg>
