<svg width="96" height="96" viewBox="0 0 96 96" fill="none" xmlns="http://www.w3.org/2000/svg">
<path d="M44.4627 12.5881C44.4627 12.6543 44.4595 12.7205 44.453 12.7863C44.4465 12.852 44.4368 12.9177 44.4239 12.9826C44.4109 13.0474 44.3947 13.1117 44.3757 13.1752C44.3563 13.2386 44.334 13.3006 44.3086 13.3622C44.2831 13.4233 44.2549 13.483 44.2239 13.5414C44.1924 13.5997 44.1586 13.6566 44.1215 13.7117C44.085 13.7668 44.0456 13.8201 44.0035 13.871C43.9614 13.9224 43.9169 13.9714 43.8702 14.0182C43.8234 14.065 43.7743 14.1094 43.7229 14.1515C43.6715 14.1932 43.6183 14.233 43.5632 14.2696C43.5081 14.3066 43.4516 14.3404 43.3928 14.3714C43.3345 14.4029 43.2748 14.4312 43.2137 14.4566C43.1521 14.4821 43.0901 14.5043 43.0266 14.5233C42.9632 14.5427 42.8989 14.5585 42.834 14.5714C42.7688 14.5844 42.7035 14.5941 42.6373 14.6006C42.5715 14.6071 42.5053 14.6103 42.4391 14.6103C42.3729 14.6103 42.3067 14.6071 42.241 14.6006C42.1748 14.5941 42.1095 14.5844 42.0442 14.5714C41.9794 14.5585 41.9151 14.5427 41.8516 14.5233C41.7882 14.5043 41.7262 14.4821 41.6646 14.4566C41.6035 14.4312 41.5438 14.4029 41.485 14.3714C41.4266 14.3404 41.3702 14.3066 41.3151 14.2696C41.26 14.233 41.2067 14.1932 41.1553 14.1515C41.104 14.1094 41.0549 14.065 41.0081 14.0182C40.9614 13.9714 40.9169 13.9224 40.8748 13.871C40.8327 13.8201 40.7933 13.7668 40.7567 13.7117C40.7197 13.6566 40.6859 13.5997 40.6544 13.5414C40.6234 13.483 40.5947 13.4233 40.5697 13.3622C40.5442 13.3006 40.522 13.2386 40.5026 13.1752C40.4836 13.1117 40.4674 13.0474 40.4544 12.9826C40.4415 12.9177 40.4317 12.852 40.4252 12.7863C40.4188 12.7205 40.4155 12.6543 40.4155 12.5881C40.4155 12.5219 40.4188 12.4557 40.4252 12.39C40.4317 12.3238 40.4415 12.2585 40.4544 12.1932C40.4674 12.1284 40.4836 12.0645 40.5026 12.0011C40.522 11.9377 40.5442 11.8752 40.5697 11.814C40.5947 11.7529 40.6234 11.6932 40.6544 11.6344C40.6859 11.5761 40.7197 11.5196 40.7567 11.4645C40.7933 11.4094 40.8327 11.3562 40.8748 11.3048C40.9169 11.2539 40.9614 11.2048 41.0081 11.158C41.0549 11.1113 41.104 11.0668 41.1553 11.0247C41.2067 10.9826 41.26 10.9432 41.3151 10.9062C41.3702 10.8696 41.4266 10.8353 41.485 10.8043C41.5438 10.7733 41.6035 10.7446 41.6646 10.7196C41.7262 10.6941 41.7882 10.6719 41.8516 10.6525C41.9151 10.6335 41.9794 10.6173 42.0442 10.6043C42.1095 10.5914 42.1748 10.5816 42.241 10.5752C42.3067 10.5687 42.3729 10.5654 42.4391 10.5654C42.5053 10.5654 42.5715 10.5687 42.6373 10.5752C42.7035 10.5816 42.7688 10.5914 42.834 10.6043C42.8989 10.6173 42.9632 10.6335 43.0266 10.6525C43.0901 10.6719 43.1521 10.6941 43.2137 10.7196C43.2748 10.7446 43.3345 10.7733 43.3928 10.8043C43.4516 10.8353 43.5081 10.8696 43.5632 10.9062C43.6183 10.9432 43.6715 10.9826 43.7229 11.0247C43.7743 11.0668 43.8234 11.1113 43.8702 11.158C43.9169 11.2048 43.9614 11.2539 44.0035 11.3048C44.0456 11.3562 44.085 11.4094 44.1215 11.4645C44.1586 11.5196 44.1924 11.5761 44.2239 11.6344C44.2549 11.6932 44.2831 11.7529 44.3086 11.814C44.334 11.8752 44.3563 11.9377 44.3757 12.0011C44.3947 12.0645 44.4109 12.1284 44.4239 12.1932C44.4368 12.2585 44.4465 12.3238 44.453 12.39C44.4595 12.4557 44.4627 12.5219 44.4627 12.5881Z" fill="white"/>
<path d="M55.5924 16.1279H65.2049C69.1164 16.1279 72.2873 19.2969 72.2873 23.2066V77.8136C72.2873 81.7228 69.1164 84.8923 65.2049 84.8923H20.6854C16.7738 84.8923 13.6025 81.7228 13.6025 77.8136V23.2066C13.6025 19.2969 16.7738 16.1279 20.6854 16.1279H28.7799" fill="#EAA871"/>
<path d="M37.8863 19.1619H55.8895C56.0261 18.6795 56.0988 18.1707 56.0988 17.6448C56.0988 14.5726 53.6081 12.0832 50.534 12.0832C50.0016 12.0832 49.4886 12.1619 49.002 12.3013C48.8502 8.80544 45.9747 6.01562 42.4395 6.01562C38.9043 6.01562 36.0289 8.80544 35.877 12.3013C35.3905 12.1619 34.8775 12.0832 34.3451 12.0832C31.271 12.0832 28.7803 14.5726 28.7803 17.6448C28.7803 18.1707 28.853 18.6795 28.9895 19.1619H37.8863Z" fill="#8F9EB6"/>
<path d="M44.4627 12.5881C44.4627 12.6543 44.4595 12.7205 44.453 12.7863C44.4465 12.852 44.4368 12.9177 44.4239 12.9826C44.4109 13.0474 44.3947 13.1117 44.3757 13.1752C44.3563 13.2386 44.334 13.3006 44.3086 13.3622C44.2831 13.4233 44.2549 13.483 44.2239 13.5414C44.1924 13.5997 44.1586 13.6566 44.1215 13.7117C44.085 13.7668 44.0456 13.8201 44.0035 13.871C43.9614 13.9224 43.9169 13.9714 43.8702 14.0182C43.8234 14.065 43.7743 14.1094 43.7229 14.1515C43.6715 14.1932 43.6183 14.233 43.5632 14.2696C43.5081 14.3066 43.4516 14.3404 43.3928 14.3714C43.3345 14.4029 43.2748 14.4312 43.2137 14.4566C43.1521 14.4821 43.0901 14.5043 43.0266 14.5233C42.9632 14.5427 42.8989 14.5585 42.834 14.5714C42.7688 14.5844 42.7035 14.5941 42.6373 14.6006C42.5715 14.6071 42.5053 14.6103 42.4391 14.6103C42.3729 14.6103 42.3067 14.6071 42.241 14.6006C42.1748 14.5941 42.1095 14.5844 42.0442 14.5714C41.9794 14.5585 41.9151 14.5427 41.8516 14.5233C41.7882 14.5043 41.7262 14.4821 41.6646 14.4566C41.6035 14.4312 41.5438 14.4029 41.485 14.3714C41.4266 14.3404 41.3702 14.3066 41.3151 14.2696C41.26 14.233 41.2067 14.1932 41.1553 14.1515C41.104 14.1094 41.0549 14.065 41.0081 14.0182C40.9614 13.9714 40.9169 13.9224 40.8748 13.871C40.8327 13.8201 40.7933 13.7668 40.7567 13.7117C40.7197 13.6566 40.6859 13.5997 40.6544 13.5414C40.6234 13.483 40.5947 13.4233 40.5697 13.3622C40.5442 13.3006 40.522 13.2386 40.5026 13.1752C40.4836 13.1117 40.4674 13.0474 40.4544 12.9826C40.4415 12.9177 40.4317 12.852 40.4252 12.7863C40.4188 12.7205 40.4155 12.6543 40.4155 12.5881C40.4155 12.5219 40.4188 12.4557 40.4252 12.39C40.4317 12.3238 40.4415 12.2585 40.4544 12.1932C40.4674 12.1284 40.4836 12.0645 40.5026 12.0011C40.522 11.9377 40.5442 11.8752 40.5697 11.814C40.5947 11.7529 40.6234 11.6932 40.6544 11.6344C40.6859 11.5761 40.7197 11.5196 40.7567 11.4645C40.7933 11.4094 40.8327 11.3562 40.8748 11.3048C40.9169 11.2539 40.9614 11.2048 41.0081 11.158C41.0549 11.1113 41.104 11.0668 41.1553 11.0247C41.2067 10.9826 41.26 10.9432 41.3151 10.9062C41.3702 10.8696 41.4266 10.8353 41.485 10.8043C41.5438 10.7733 41.6035 10.7446 41.6646 10.7196C41.7262 10.6941 41.7882 10.6719 41.8516 10.6525C41.9151 10.6335 41.9794 10.6173 42.0442 10.6043C42.1095 10.5914 42.1748 10.5816 42.241 10.5752C42.3067 10.5687 42.3729 10.5654 42.4391 10.5654C42.5053 10.5654 42.5715 10.5687 42.6373 10.5752C42.7035 10.5816 42.7688 10.5914 42.834 10.6043C42.8989 10.6173 42.9632 10.6335 43.0266 10.6525C43.0901 10.6719 43.1521 10.6941 43.2137 10.7196C43.2748 10.7446 43.3345 10.7733 43.3928 10.8043C43.4516 10.8353 43.5081 10.8696 43.5632 10.9062C43.6183 10.9432 43.6715 10.9826 43.7229 11.0247C43.7743 11.0668 43.8234 11.1113 43.8702 11.158C43.9169 11.2048 43.9614 11.2539 44.0035 11.3048C44.0456 11.3562 44.085 11.4094 44.1215 11.4645C44.1586 11.5196 44.1924 11.5761 44.2239 11.6344C44.2549 11.6932 44.2831 11.7529 44.3086 11.814C44.334 11.8752 44.3563 11.9377 44.3757 12.0011C44.3947 12.0645 44.4109 12.1284 44.4239 12.1932C44.4368 12.2585 44.4465 12.3238 44.453 12.39C44.4595 12.4557 44.4627 12.5219 44.4627 12.5881Z" fill="white"/>
<path d="M66.2167 75.2851C66.2167 76.961 64.8579 78.3189 63.1815 78.3189H23.2149C21.5385 78.3189 20.1797 76.961 20.1797 75.2851V26.7457C20.1797 25.0698 21.5385 23.7119 23.2149 23.7119H63.1815C64.8579 23.7119 66.2167 25.0698 66.2167 26.7457V75.2851Z" fill="#FEFDEF"/>
<path d="M54.7483 46.8126C54.6488 46.6839 54.0752 46.0478 54.0752 46.0478V42.3598C54.0752 36.1339 49.0701 31.2959 42.9747 31.2959C42.9645 31.2959 42.9557 31.2968 42.9455 31.2968C42.9354 31.2968 42.9261 31.2959 42.9159 31.2959C36.821 31.2959 31.8155 36.1339 31.8155 42.3598V46.0478C31.8155 46.0478 31.2418 46.6839 31.1428 46.8126C30.978 47.0297 30.821 47.3593 30.8048 47.8135C30.7946 48.0876 31.4543 51.5501 31.6455 52.1445C31.8562 52.8121 32.277 53.3593 32.8275 53.5431V54.0385C32.8275 55.2686 33.403 56.4598 33.8321 57.1121C35.1192 59.0704 37.0687 60.5047 38.8983 61.4228C38.8983 61.4936 38.8983 61.5626 38.8983 61.6329C38.8983 63.6871 36.8747 64.414 36.8747 64.414C36.8747 64.414 37.8863 68.7116 42.9455 68.7116C48.0043 68.7116 49.0164 64.414 49.0164 64.414C49.0164 64.414 46.9928 63.6556 46.9928 61.6329C46.9928 61.5626 46.9928 61.4936 46.9928 61.4228C48.8219 60.5047 50.7729 59.0704 52.059 57.1121C52.4877 56.4598 53.0636 55.2686 53.0636 54.0385V53.5431C53.6141 53.3593 54.0349 52.8121 54.2451 52.1436C54.4363 51.5491 55.096 48.0866 55.0863 47.8126C55.0687 47.3593 54.9131 47.0297 54.7483 46.8126Z" fill="#EAD6C7"/>
<path d="M59.1078 71.3833L59.1018 71.3772C58.5786 69.0596 56.9212 67.142 54.6722 66.2666L49.0161 64.4147L48.1388 64.1592L48.1328 64.174C48.1235 64.1893 47.136 65.6791 42.9453 65.6791C38.7624 65.6791 37.7698 64.1953 37.7597 64.18L37.7416 64.162L36.8745 64.4147L31.2185 66.2675C28.9689 67.1444 27.312 69.0606 26.7888 71.3782L26.7828 71.3842C26.6277 72.0902 27.174 72.7578 27.9106 72.7578H57.9805C58.7161 72.7578 59.2624 72.0902 59.1078 71.3833Z" fill="#78CDD4"/>
<path d="M33.8141 48.4873C33.6571 48.4873 33.5053 48.4095 33.4141 48.2739C31.4715 46.6799 30.4497 44.2582 30.4497 41.2822C30.4497 35.3795 35.2951 29.2734 43.4048 29.2734C47.5705 29.2734 49.9358 31.1109 50.7747 32.7896C53.4955 33.2021 55.4414 36.7031 55.4414 41.2822C55.4414 46.1572 52.4807 48.3091 52.3553 48.3994C52.2076 48.5035 52.0154 48.5165 51.8534 48.4318C51.6937 48.3475 51.5942 48.1799 51.5965 47.9998C51.5965 47.9693 51.6145 44.9832 49.6747 42.8021C48.4599 41.4359 48.0085 40.4489 47.8437 39.4892C46.6002 41.6957 44.4631 43.6836 41.5034 43.6836C41.3182 43.6836 41.1506 43.5776 41.0705 43.4119C40.9904 43.2447 41.0127 43.048 41.1284 42.9031C42.1409 41.6383 42.6641 40.2151 42.8562 39.21C39.6127 41.016 37.1418 45.3151 37.1154 45.3614C37.0414 45.492 36.9099 45.5808 36.7613 45.6012C36.6164 45.6202 36.4627 45.5707 36.3576 45.4646C36.3252 45.4322 35.7483 44.8438 35.4428 43.7072C34.3094 45.9864 34.2946 47.9836 34.2946 48.0068C34.2946 48.2183 34.1557 48.4054 33.9534 48.467C33.9071 48.4813 33.8604 48.4873 33.8141 48.4873Z" fill="#B77748"/>
<path d="M82.4056 75.285C82.4056 75.5253 82.3996 75.7651 82.388 76.0045C82.3764 76.2443 82.3584 76.4836 82.3352 76.7225C82.3116 76.9614 82.282 77.1994 82.2468 77.4369C82.2116 77.6739 82.1704 77.9105 82.1237 78.1457C82.0769 78.3813 82.0246 78.6151 81.9663 78.848C81.9079 79.0809 81.8436 79.3119 81.7741 79.5415C81.7042 79.7711 81.6288 79.9989 81.5482 80.2248C81.4672 80.4508 81.3806 80.6748 81.2889 80.8966C81.1968 81.1184 81.0996 81.3373 80.9973 81.5545C80.8945 81.7711 80.7866 81.9855 80.6732 82.1971C80.5602 82.4086 80.4417 82.6174 80.3186 82.8235C80.195 83.0295 80.0667 83.2318 79.9334 83.4313C79.7996 83.6309 79.6616 83.8272 79.5186 84.0198C79.3755 84.2128 79.2278 84.4017 79.0755 84.5873C78.9232 84.7725 78.7663 84.9545 78.6051 85.1323C78.444 85.31 78.2783 85.4836 78.1084 85.6536C77.9389 85.823 77.7649 85.9887 77.5871 86.1498C77.4093 86.311 77.2274 86.4674 77.0417 86.6198C76.8561 86.7721 76.6672 86.9198 76.4741 87.0628C76.2811 87.2054 76.0852 87.3438 75.8852 87.4772C75.6857 87.6105 75.4829 87.7387 75.2769 87.8619C75.0709 87.9855 74.8621 88.1036 74.6505 88.217C74.4389 88.3299 74.2241 88.4378 74.0075 88.5401C73.7903 88.6429 73.5709 88.7401 73.3491 88.8318C73.1269 88.9239 72.9033 89.01 72.6769 89.0911C72.451 89.1721 72.2232 89.2471 71.9936 89.317C71.7635 89.3864 71.5325 89.4503 71.2991 89.5086C71.0663 89.567 70.832 89.6198 70.5968 89.6665C70.3612 89.7133 70.1246 89.754 69.8871 89.7897C69.6496 89.8249 69.4116 89.854 69.1727 89.8776C68.9334 89.9012 68.694 89.9188 68.4542 89.9304C68.2144 89.9424 67.9746 89.948 67.7343 89.948C67.4945 89.948 67.2547 89.9424 67.0149 89.9304C66.7751 89.9188 66.5352 89.9012 66.2963 89.8776C66.0575 89.854 65.8195 89.8249 65.582 89.7897C65.3445 89.754 65.1079 89.7133 64.8723 89.6665C64.6366 89.6198 64.4028 89.567 64.1695 89.5086C63.9366 89.4503 63.7056 89.3864 63.4755 89.317C63.2459 89.2471 63.0181 89.1721 62.7922 89.0911C62.5658 89.01 62.3417 88.9239 62.12 88.8318C61.8982 88.7401 61.6788 88.6429 61.4616 88.5401C61.245 88.4378 61.0301 88.3299 60.8186 88.217C60.607 88.1036 60.3982 87.9855 60.1922 87.8619C59.9862 87.7387 59.7834 87.6105 59.5838 87.4772C59.3838 87.3438 59.1876 87.2054 58.995 87.0623C58.8019 86.9198 58.613 86.7721 58.4274 86.6198C58.2417 86.4674 58.0598 86.311 57.882 86.1498C57.7042 85.9887 57.5301 85.823 57.3602 85.6536C57.1908 85.4836 57.0251 85.31 56.8639 85.1323C56.7028 84.9545 56.5459 84.7725 56.3936 84.5873C56.2413 84.4017 56.0936 84.2128 55.9505 84.0198C55.8075 83.8272 55.6695 83.6309 55.5357 83.4313C55.4024 83.2318 55.2741 83.0295 55.1505 82.8235C55.0274 82.6174 54.9088 82.4086 54.7959 82.1971C54.6825 81.9855 54.5746 81.7711 54.4718 81.5545C54.3695 81.3373 54.2718 81.1184 54.1801 80.8966C54.088 80.6748 54.0019 80.4508 53.9209 80.2248C53.8399 79.9989 53.7649 79.7711 53.695 79.5415C53.6255 79.3119 53.5612 79.0809 53.5028 78.848C53.4445 78.6151 53.3922 78.3813 53.3454 78.1457C53.2982 77.9105 53.2575 77.6739 53.2223 77.4369C53.1871 77.1994 53.1575 76.9614 53.1338 76.7225C53.1102 76.4836 53.0926 76.2443 53.0811 76.0045C53.069 75.7651 53.0635 75.5253 53.0635 75.285C53.0635 75.0452 53.069 74.8054 53.0811 74.5656C53.0926 74.3258 53.1102 74.0869 53.1338 73.848C53.1575 73.6091 53.1871 73.3711 53.2223 73.1336C53.2575 72.8961 53.2982 72.66 53.3454 72.4244C53.3922 72.1892 53.4445 71.9549 53.5028 71.7225C53.5612 71.4897 53.6255 71.2582 53.695 71.0286C53.7649 70.7989 53.8399 70.5711 53.9209 70.3452C54.0019 70.1193 54.088 69.8957 54.1801 69.6739C54.2718 69.4522 54.3695 69.2327 54.4718 69.0161C54.5746 68.7989 54.6825 68.5846 54.7959 68.373C54.9088 68.1614 55.0274 67.9526 55.1505 67.7471C55.2741 67.5411 55.4024 67.3383 55.5357 67.1387C55.6695 66.9392 55.8075 66.7434 55.9505 66.5503C56.0936 66.3577 56.2413 66.1684 56.3936 65.9832C56.5459 65.7975 56.7028 65.6161 56.8639 65.4383C57.0251 65.2605 57.1908 65.0864 57.3602 64.917C57.5301 64.7471 57.7042 64.5818 57.882 64.4207C58.0598 64.2596 58.2417 64.1026 58.4274 63.9503C58.613 63.7985 58.8019 63.6508 58.995 63.5077C59.1876 63.3647 59.3838 63.2267 59.5838 63.0934C59.7834 62.96 59.9862 62.8318 60.1922 62.7082C60.3982 62.585 60.607 62.4665 60.8186 62.3536C61.0301 62.2406 61.245 62.1327 61.4616 62.0299C61.6788 61.9272 61.8982 61.8299 62.12 61.7383C62.3417 61.6466 62.5658 61.56 62.7922 61.4795C63.0181 61.3985 63.2459 61.323 63.4755 61.2536C63.7056 61.1841 63.9366 61.1198 64.1695 61.0614C64.4028 61.0031 64.6366 60.9508 64.8723 60.904C65.1079 60.8573 65.3445 60.8161 65.582 60.7809C65.8195 60.7457 66.0575 60.7161 66.2963 60.6929C66.5352 60.6693 66.7751 60.6517 67.0149 60.6397C67.2547 60.6281 67.4945 60.6221 67.7343 60.6221C67.9746 60.6221 68.2144 60.6281 68.4542 60.6397C68.694 60.6517 68.9334 60.6693 69.1727 60.6929C69.4116 60.7161 69.6496 60.7457 69.8871 60.7809C70.1246 60.8161 70.3612 60.8573 70.5968 60.904C70.832 60.9508 71.0663 61.0031 71.2991 61.0614C71.5325 61.1198 71.7635 61.1841 71.9936 61.2536C72.2232 61.323 72.451 61.3985 72.6769 61.4795C72.9033 61.56 73.1269 61.6466 73.3491 61.7383C73.5709 61.8299 73.7903 61.9272 74.0075 62.0299C74.2241 62.1327 74.4389 62.2406 74.6505 62.3536C74.8621 62.4665 75.0709 62.585 75.2769 62.7082C75.4829 62.8318 75.6857 62.96 75.8852 63.0934C76.0852 63.2267 76.2811 63.3647 76.4741 63.5077C76.6672 63.6508 76.8561 63.7985 77.0417 63.9503C77.2274 64.1026 77.4093 64.2596 77.5871 64.4207C77.7649 64.5818 77.9389 64.7471 78.1084 64.917C78.2783 65.0864 78.444 65.2605 78.6051 65.4383C78.7663 65.6161 78.9232 65.7975 79.0755 65.9832C79.2278 66.1684 79.3755 66.3577 79.5186 66.5503C79.6616 66.7434 79.7996 66.9392 79.9334 67.1387C80.0667 67.3383 80.195 67.5411 80.3186 67.7471C80.4417 67.9526 80.5602 68.1614 80.6732 68.373C80.7866 68.5846 80.8945 68.7989 80.9973 69.0161C81.0996 69.2327 81.1968 69.4522 81.2889 69.6739C81.3806 69.8957 81.4672 70.1193 81.5482 70.3452C81.6288 70.5711 81.7042 70.7989 81.7741 71.0286C81.8436 71.2582 81.9075 71.4897 81.9658 71.7225C82.0246 71.9549 82.0769 72.1892 82.1237 72.4244C82.1704 72.66 82.2116 72.8961 82.2468 73.1336C82.282 73.3711 82.3116 73.6091 82.3352 73.848C82.3584 74.0869 82.3764 74.3258 82.388 74.5656C82.3996 74.8054 82.4056 75.0452 82.4056 75.285Z" fill="#60BE92"/>
<path d="M42.9158 62.6446C40.9603 62.6446 36.251 60.796 33.832 57.1122L34.6779 56.5566C36.8339 59.8423 41.2515 61.633 42.9158 61.633C44.6482 61.633 49.0242 59.89 51.214 56.5566L52.0598 57.1122C49.6394 60.796 44.8931 62.6446 42.9158 62.6446Z" fill="#1F212B"/>
<path d="M53.3792 72.7571H27.9107C27.5547 72.7571 27.225 72.6001 27.0051 72.3251C26.8102 72.0835 26.725 71.7812 26.7667 71.4756C26.7695 71.4552 26.7875 71.3807 26.7926 71.3612C27.3139 69.0538 28.9704 67.1437 31.2195 66.2668L36.8746 64.414C36.9454 64.389 38.8982 63.671 38.8982 61.633V61.4228C36.7482 60.3436 34.9491 58.8126 33.832 57.1122C33.3463 56.3728 32.8273 55.1774 32.8273 54.0386V53.5432C32.3009 53.3682 31.8699 52.8575 31.6454 52.1436C31.4533 51.5469 30.8236 48.2483 30.8056 47.8358C30.8227 47.3284 30.9977 47.0034 31.1417 46.8136C31.2093 46.7256 31.4847 46.4159 31.6648 46.2168L32.4162 46.8932C32.2547 47.0733 32.0047 47.3515 31.9459 47.4274C31.9033 47.4839 31.8246 47.6173 31.8162 47.8316C31.8357 48.127 32.45 51.3399 32.6097 51.8372C32.7482 52.277 32.9792 52.5288 33.1482 52.5844L33.494 52.6997C33.7005 52.7686 33.8389 52.9617 33.8389 53.1793V54.0386C33.8389 54.9548 34.2903 55.9682 34.6778 56.5566C35.6986 58.1122 37.3593 59.5186 39.3533 60.5186L39.6315 60.6585C39.8014 60.7455 39.9097 60.9205 39.9097 61.1112V61.633C39.9097 64.3756 37.3125 65.3312 37.2014 65.371L31.5593 67.2173C29.65 67.9617 28.2264 69.6038 27.7755 71.6001C27.8218 71.7265 27.8621 71.7455 27.9107 71.7455H53.3792V72.7571Z" fill="#1F212B"/>
<path d="M55.1879 67.6308C54.9157 67.4734 54.6277 67.3336 54.3309 67.2183L48.6809 65.3688C48.5504 65.3202 45.9805 64.322 45.9805 61.6331V61.1114C45.9805 60.9206 46.0888 60.7456 46.2596 60.6595L46.5379 60.5201C48.5314 59.5197 50.1907 58.1123 51.2124 56.5581C51.5999 55.9683 52.0513 54.9549 52.0513 54.0387V53.1794C52.0513 52.9618 52.1902 52.7688 52.3962 52.7002L52.7416 52.585C52.9106 52.528 53.142 52.2752 53.2795 51.8373C53.4374 51.3489 54.0527 48.1484 54.074 47.8058C54.0661 47.6197 53.9888 47.4859 53.9434 47.4262L53.7541 47.1947C53.561 46.959 53.2907 46.6294 53.1976 46.503L54.0082 45.8975C54.0971 46.0169 54.3541 46.3294 54.5374 46.5526L54.7481 46.8104C54.8934 47.0026 55.0684 47.3294 55.086 47.8127C55.0666 48.2456 54.4314 51.5655 54.2448 52.1438C54.0203 52.8567 53.5893 53.3674 53.0633 53.5433V54.0387C53.0633 55.1776 52.5444 56.3729 52.0587 57.1123C50.9416 58.8127 49.1416 60.3438 46.9925 61.4229V61.6331C46.9925 63.6303 48.9332 64.384 49.0161 64.4141L54.6707 66.266C55.0425 66.4104 55.3782 66.5711 55.6957 66.7563L55.1879 67.6308Z" fill="#1F212B"/>
<path d="M45.4748 66.4731C45.2363 66.4731 45.0248 66.3046 44.978 66.0615C44.9266 65.7874 45.1067 65.5226 45.3808 65.4712C47.0525 65.1546 47.7798 64.5559 48.0146 64.3134C48.209 64.112 48.5294 64.1078 48.7298 64.3013C48.9312 64.4953 48.9363 64.8157 48.7419 65.0161C48.3655 65.4046 47.4553 66.1083 45.5692 66.4643C45.5377 66.4703 45.5053 66.4731 45.4748 66.4731Z" fill="#1F212B"/>
<path d="M42.9455 66.6897C39.296 66.6897 37.7437 65.641 37.1437 65.016C36.9506 64.8147 36.9566 64.4943 37.1589 64.3012C37.3613 64.1091 37.6812 64.1151 37.8742 64.316C38.2668 64.7258 39.5488 65.6785 42.9455 65.6785C43.0779 65.6785 43.2001 65.6744 43.3247 65.6702L43.4372 65.666C43.6872 65.6795 43.9492 65.8776 43.958 66.1568C43.9663 66.4359 43.7469 66.6684 43.4673 66.6776L43.358 66.6804C43.2228 66.6855 43.089 66.6897 42.9455 66.6897Z" fill="#1F212B"/>
<path d="M51.1266 44.6544C50.9391 44.6544 50.7604 44.5503 50.672 44.3716C50.5192 44.0591 50.3433 43.7586 50.1502 43.4767C49.9924 43.2461 50.0507 42.9313 50.2817 42.7739C50.5132 42.616 50.828 42.6757 50.9849 42.9054C51.2053 43.2267 51.4058 43.5706 51.5799 43.9253C51.703 44.1762 51.5998 44.4785 51.3479 44.6021C51.2771 44.6382 51.2011 44.6544 51.1266 44.6544Z" fill="#1F212B"/>
<path d="M49.0919 41.782C48.9266 41.782 48.765 41.701 48.6678 41.5533C48.178 40.8061 47.9382 40.163 47.8211 39.5362C47.4849 40.1186 47.0993 40.6695 46.6836 41.1519C46.4993 41.3635 46.1808 41.3857 45.9692 41.2047C45.7576 41.0214 45.7345 40.7028 45.9169 40.4903C47.0206 39.2103 47.5576 37.8209 47.7368 37.2839C47.815 37.0482 48.0535 36.9056 48.2974 36.945C48.5423 36.9857 48.7224 37.1968 48.7224 37.4445V37.6834C48.7192 38.9482 48.7173 39.7839 49.5146 40.9991C49.6673 41.2329 49.6016 41.5464 49.3678 41.6991C49.2831 41.7547 49.1859 41.782 49.0919 41.782Z" fill="#1F212B"/>
<path d="M33.839 48.4873C33.6732 48.4873 33.5144 48.4054 33.4181 48.2628C31.4783 46.6739 30.4565 44.2521 30.4565 41.2762C30.4575 35.3767 35.3001 29.2734 43.4038 29.2734C47.5593 29.2734 49.9246 31.104 50.7704 32.7818C53.4903 33.2045 55.4329 36.7021 55.4329 41.2748C55.4329 46.1503 52.4695 48.304 52.344 48.3943C52.188 48.5035 51.9848 48.5174 51.8167 48.4285C51.6477 48.3406 51.5436 48.1646 51.5454 47.9744C51.5454 47.9674 51.5519 47.2031 51.3139 46.1804C51.2501 45.9086 51.419 45.6364 51.6913 45.573C51.9653 45.51 52.2357 45.6781 52.2996 45.9498C52.3806 46.2957 52.4362 46.6146 52.4746 46.8915C53.2649 45.9975 54.4223 44.1906 54.4223 41.2748C54.4223 37.0795 52.7283 33.9174 50.3954 33.7554C50.2028 33.7424 50.0352 33.6211 49.9621 33.442C49.3653 31.9869 47.2899 30.285 43.4038 30.285C35.9334 30.285 31.4695 35.873 31.4695 41.2762C31.4695 42.9355 31.8274 45.1776 33.4292 46.9045C33.5982 45.7619 34.0607 43.8637 35.3357 41.9535C35.4589 41.7674 35.6894 41.6845 35.9033 41.7503C36.1167 41.8151 36.2621 42.0114 36.2621 42.2345C36.2621 43.1146 36.482 43.7595 36.6922 44.1762C37.6445 42.6906 40.1255 39.2202 43.2306 37.935C43.3866 37.8702 43.5644 37.8873 43.7052 37.9813C43.8459 38.0753 43.9297 38.2332 43.9297 38.4021C43.9297 39.4276 43.4945 41.0619 42.5547 42.5818C43.1001 42.4702 43.6283 42.2702 44.1334 41.9841C44.3751 41.8466 44.6848 41.9313 44.8232 42.1739C44.9607 42.417 44.876 42.7253 44.6329 42.8637C43.6575 43.417 42.6065 43.698 41.5084 43.698C41.3144 43.698 41.1371 43.5869 41.0524 43.4119C40.9681 43.2369 40.9917 43.0285 41.113 42.8767C42.1014 41.642 42.6204 40.2568 42.82 39.2619C39.6153 41.0748 37.182 45.3119 37.1556 45.3586C37.0778 45.4961 36.9403 45.5892 36.7834 45.61C36.6288 45.6295 36.4686 45.5781 36.3575 45.4665C36.3251 45.4341 35.7686 44.866 35.457 43.7697C34.3602 46.0095 34.345 47.9582 34.345 47.9818C34.345 48.204 34.1991 48.4012 33.9866 48.466C33.9371 48.4799 33.8876 48.4873 33.839 48.4873Z" fill="#1F212B"/>
<mask id="mask0_1908_5997" style="mask-type:luminance" maskUnits="userSpaceOnUse" x="28" y="5" width="30" height="16">
<path d="M28.2075 5.00391H57.7186V20.2664H28.2075V5.00391Z" fill="white"/>
</mask>
<g mask="url(#mask0_1908_5997)">
<path d="M56.3957 20.1724H29.4957C29.0434 20.1724 28.6457 19.872 28.5221 19.4372C28.3582 18.8576 28.2744 18.2539 28.2744 17.6442C28.2744 14.0201 31.2249 11.071 34.8513 11.071C35.0707 11.071 35.2902 11.0821 35.5087 11.1058C36.199 7.60344 39.2689 5.00391 42.9457 5.00391C46.6226 5.00391 49.6925 7.60344 50.3823 11.1058C50.6008 11.0821 50.8202 11.071 51.0402 11.071C54.6665 11.071 57.6165 14.0201 57.6165 17.6442C57.6165 18.2539 57.5327 18.8576 57.3689 19.4372C57.2452 19.872 56.848 20.1724 56.3957 20.1724ZM30.3253 18.1497H55.5647C55.5832 17.9831 55.592 17.8141 55.592 17.6442C55.592 15.1354 53.5494 13.0937 51.0392 13.0937C50.6221 13.0937 50.2013 13.1544 49.7855 13.2729C49.4869 13.3567 49.1661 13.3021 48.9152 13.121C48.6633 12.94 48.5096 12.6539 48.4952 12.3442C48.3679 9.36224 45.9295 7.02613 42.9457 7.02613C39.9619 7.02613 37.5235 9.36224 37.3939 12.3442C37.3804 12.6539 37.2258 12.94 36.974 13.121C36.723 13.3021 36.4022 13.3576 36.1036 13.2729C35.6888 13.1544 35.2679 13.0937 34.8513 13.0937C32.3411 13.0937 30.298 15.1354 30.298 17.6442C30.298 17.8141 30.3073 17.9831 30.3253 18.1497Z" fill="#1F212B"/>
</g>
<path d="M42.9452 15.1166C41.5507 15.1166 40.4155 13.9823 40.4155 12.5888C40.4155 11.1953 41.5507 10.0605 42.9452 10.0605C44.3391 10.0605 45.4743 11.1953 45.4743 12.5888C45.4743 13.9823 44.3391 15.1166 42.9452 15.1166ZM42.9452 11.0717C42.1081 11.0717 41.4271 11.7522 41.4271 12.5888C41.4271 13.4249 42.1081 14.1055 42.9452 14.1055C43.7817 14.1055 44.4627 13.4249 44.4627 12.5888C44.4627 11.7522 43.7817 11.0717 42.9452 11.0717Z" fill="#1F212B"/>
<path d="M53.3794 78.8242H23.215C21.2623 78.8242 19.6738 77.2367 19.6738 75.2848V71.2399C19.6738 70.9608 19.9007 70.7344 20.1798 70.7344C20.459 70.7344 20.6859 70.9608 20.6859 71.2399V75.2848C20.6859 76.6784 21.8211 77.8131 23.215 77.8131H53.3794C53.6585 77.8131 53.8849 78.0395 53.8849 78.3186C53.8849 78.5978 53.6585 78.8242 53.3794 78.8242Z" fill="#1F212B"/>
<path d="M65.7109 61.269C65.4317 61.269 65.2053 61.0426 65.2053 60.7635V26.7454C65.2053 25.3519 64.0701 24.2172 62.6757 24.2172H23.215C21.8211 24.2172 20.6859 25.3519 20.6859 26.7454V56.0713C20.6859 56.3505 20.459 56.5769 20.1798 56.5769C19.9007 56.5769 19.6738 56.3505 19.6738 56.0713V26.7454C19.6738 24.7936 21.2623 23.2061 23.215 23.2061H62.6757C64.6285 23.2061 66.2169 24.7936 66.2169 26.7454V60.7635C66.2169 61.0426 65.9905 61.269 65.7109 61.269Z" fill="#1F212B"/>
<path d="M20.1798 63.6556C19.9007 63.6556 19.6738 63.4292 19.6738 63.1501V59.1052C19.6738 58.826 19.9007 58.5996 20.1798 58.5996C20.459 58.5996 20.6859 58.826 20.6859 59.1052V63.1501C20.6859 63.4292 20.459 63.6556 20.1798 63.6556Z" fill="#1F212B"/>
<path d="M20.1798 68.712C19.9007 68.712 19.6738 68.4857 19.6738 68.2065V66.1843C19.6738 65.9051 19.9007 65.6787 20.1798 65.6787C20.459 65.6787 20.6859 65.9051 20.6859 66.1843V68.2065C20.6859 68.4857 20.459 68.712 20.1798 68.712Z" fill="#1F212B"/>
<mask id="mask1_1908_5997" style="mask-type:luminance" maskUnits="userSpaceOnUse" x="12" y="15" width="46" height="71">
<path d="M12.582 15.0518H57.7186V85.9258H12.582V15.0518Z" fill="white"/>
</mask>
<g mask="url(#mask1_1908_5997)">
<path d="M56.6047 85.9033H20.6858C16.2223 85.9033 12.5913 82.2741 12.5913 77.8134V23.2065C12.5913 18.7458 16.2223 15.1162 20.6858 15.1162H29.4964C30.0547 15.1162 30.5084 15.5695 30.5084 16.1278C30.5084 16.6857 30.0547 17.1389 29.4964 17.1389H20.6858C17.3376 17.1389 14.6149 19.8602 14.6149 23.2065V77.8134C14.6149 81.1597 17.3376 83.881 20.6858 83.881H56.6047C57.1631 83.881 57.6163 84.3338 57.6163 84.8921C57.6163 85.4505 57.1631 85.9033 56.6047 85.9033Z" fill="#1F212B"/>
</g>
<path d="M72.2877 62.3565C71.7293 62.3565 71.2761 61.9037 71.2761 61.3454V23.2065C71.2761 19.8602 68.5534 17.1389 65.2053 17.1389H56.6048C56.0465 17.1389 55.5928 16.6857 55.5928 16.1278C55.5928 15.5695 56.0465 15.1162 56.6048 15.1162H65.2053C69.6682 15.1162 73.2997 18.7458 73.2997 23.2065V61.3454C73.2997 61.9037 72.8465 62.3565 72.2877 62.3565Z" fill="#1F212B"/>
<mask id="mask2_1908_5997" style="mask-type:luminance" maskUnits="userSpaceOnUse" x="52" y="59" width="32" height="32">
<path d="M52.0298 59.4961H83.4265V90.9595H52.0298V59.4961Z" fill="white"/>
</mask>
<g mask="url(#mask2_1908_5997)">
<path d="M67.7346 90.9599C59.0869 90.9599 52.0518 83.9285 52.0518 75.2854C52.0518 66.6423 59.0869 59.6113 67.7346 59.6113C76.3828 59.6113 83.418 66.6423 83.418 75.2854C83.418 83.9285 76.3828 90.9599 67.7346 90.9599ZM67.7346 61.6336C60.2031 61.6336 54.0754 67.7576 54.0754 75.2854C54.0754 82.8132 60.2031 88.9373 67.7346 88.9373C75.2666 88.9373 81.3944 82.8132 81.3944 75.2854C81.3944 67.7576 75.2666 61.6336 67.7346 61.6336Z" fill="#1F212B"/>
</g>
<path d="M65.7108 80.8473C65.5955 80.8473 65.4812 80.808 65.3872 80.7297L59.3164 75.6737C59.102 75.4945 59.0724 75.176 59.2516 74.9607C59.4307 74.7473 59.7497 74.7181 59.965 74.8959L65.6979 79.6709L76.502 69.8538C76.7085 69.6667 77.0289 69.6811 77.2173 69.8885C77.4053 70.0959 77.3895 70.4154 77.183 70.6033L66.0529 80.7158C65.9548 80.8038 65.8335 80.8473 65.7108 80.8473Z" fill="#1F212B"/>
</svg>
