<svg width="40" height="40" viewBox="0 0 40 40" fill="none" xmlns="http://www.w3.org/2000/svg">
<path d="M23.753 11C24.3497 11 24.922 11.2371 25.344 11.659C25.7659 12.081 26.003 12.6533 26.003 13.25L26.002 14.003H26.752C27.614 14.0035 28.4405 14.346 29.0502 14.9554C29.6599 15.5647 30.0029 16.391 30.004 17.253L30.007 23.25C30.0071 23.5453 29.9491 23.8378 29.8362 24.1107C29.7233 24.3836 29.5577 24.6316 29.349 24.8406C29.1402 25.0495 28.8924 25.2153 28.6196 25.3284C28.3468 25.4416 28.0543 25.4999 27.759 25.5H26V26.75C26 27.3467 25.7629 27.919 25.341 28.341C24.919 28.7629 24.3467 29 23.75 29H16.25C15.6533 29 15.081 28.7629 14.659 28.341C14.2371 27.919 14 27.3467 14 26.75V25.5H12.25C11.6533 25.5 11.081 25.2629 10.659 24.841C10.2371 24.419 10 23.8467 10 23.25V17.254C10 16.392 10.3424 15.5654 10.9519 14.9559C11.5614 14.3464 12.388 14.004 13.25 14.004L13.999 14.003L14 13.25C14 12.6533 14.2371 12.081 14.659 11.659C15.081 11.2371 15.6533 11 16.25 11H23.753ZM23.75 21.5H16.25C16.0511 21.5 15.8603 21.579 15.7197 21.7197C15.579 21.8603 15.5 22.0511 15.5 22.25V26.75C15.5 27.164 15.836 27.5 16.25 27.5H23.75C23.9489 27.5 24.1397 27.421 24.2803 27.2803C24.421 27.1397 24.5 26.9489 24.5 26.75V22.25C24.5 22.0511 24.421 21.8603 24.2803 21.7197C24.1397 21.579 23.9489 21.5 23.75 21.5ZM26.752 15.504H13.25C12.7859 15.504 12.3408 15.6884 12.0126 16.0166C11.6844 16.3448 11.5 16.7899 11.5 17.254V23.25C11.5 23.664 11.836 24 12.25 24H14V22.25C14 21.6533 14.2371 21.081 14.659 20.659C15.081 20.2371 15.6533 20 16.25 20H23.75C24.3467 20 24.919 20.2371 25.341 20.659C25.7629 21.081 26 21.6533 26 22.25V24H27.783C27.9773 23.9935 28.1614 23.9117 28.2965 23.772C28.4316 23.6322 28.5071 23.4454 28.507 23.251L28.504 17.254C28.5029 16.7898 28.318 16.345 27.9896 16.017C27.6612 15.689 27.2162 15.5045 26.752 15.504ZM23.752 12.5H16.25C16.0511 12.5 15.8603 12.579 15.7197 12.7197C15.579 12.8603 15.5 13.0511 15.5 13.25L15.499 14.003H24.502V13.25C24.502 13.0511 24.423 12.8603 24.2823 12.7197C24.1417 12.579 23.9509 12.5 23.752 12.5Z" fill="#212121"/>
</svg>
