<svg width="120" height="120" viewBox="0 0 120 120" fill="none" xmlns="http://www.w3.org/2000/svg">
<rect width="120" height="120" rx="60" fill="#E6E8FF"/>
<path d="M98.6946 83.2634C98.6742 82.5786 98.5427 81.8958 98.2992 81.2523C97.4506 77.8097 95.2205 75.0254 93.5247 71.9898C91.9066 67.8796 88.802 64.7249 86.1687 61.2671C84.1687 58.5888 82.6228 55.6166 81.3784 52.5198C80.7228 50.6448 79.521 49.0643 78.5492 47.355C77.0645 43.5638 75.2103 39.9365 73.6622 36.174C72.9136 34.3018 72.1511 32.4351 71.3927 30.5675C70.7219 28.8124 70.3719 26.9523 69.6339 25.2208C69.3932 24.6597 69.1728 24.0893 68.9497 23.5199C68.7025 22.8874 68.4501 22.2574 68.1664 21.6411C68.0464 21.38 67.9224 21.1212 67.7881 20.8671C67.6441 20.6509 67.5052 20.4324 67.3682 20.2124C66.5867 18.955 65.9159 17.6347 65.2696 16.3078C65.2381 16.2435 65.2066 16.1796 65.1756 16.1152C64.9326 15.8629 64.6751 15.8847 64.4256 16.0259C64.0552 16.2351 63.7034 16.7106 63.4441 16.9611C62.5765 17.8486 61.7001 18.7296 60.8488 19.6347C60.1886 19.3949 59.6682 18.8777 59.0576 18.5407C58.1946 18.0087 57.1876 17.7749 56.3335 17.2259C56.3187 17.2189 56.3057 17.2161 56.2914 17.2106C56.0742 17.1217 55.9062 17.1578 55.7719 17.2694C55.4608 17.5282 55.3265 18.1731 55.1497 18.4958C54.6312 19.53 54.2339 20.6097 53.8589 21.7013C52.7872 20.9425 51.5589 20.4661 50.4455 19.7736C50.1224 19.605 49.7242 19.1208 49.3927 19.5217C48.6543 20.5319 48.4275 21.8106 47.977 22.9583C46.9534 21.8166 45.8585 20.5694 44.2298 20.4435C43.921 20.355 43.5497 20.1564 43.3136 20.4911C42.965 20.9458 43.0585 21.5013 43.0955 22.0305C43.1191 22.9546 43.0029 23.893 42.8011 24.7939C41.3066 24.2384 39.7196 23.9074 38.327 23.1027C36.7015 21.9578 37.2816 25.018 37.1654 25.8379C36.3219 24.9268 35.258 23.9786 34.065 23.6152C32.6839 23.7874 32.2085 28.0888 31.5214 29.3013C29.8617 28.3416 28.4636 27.0365 26.8881 25.9708C26.8839 25.9666 26.8798 25.9634 26.8756 25.9597C26.6275 25.7273 26.408 25.6444 26.2386 25.6759C26.2367 25.7884 26.2358 25.9004 26.2344 26.0124C26.2367 26.0759 26.2395 26.1393 26.2418 26.2027C26.2488 26.4018 26.2562 26.6004 26.265 26.7995C26.4765 28.63 26.6589 30.4638 26.8585 32.2953C26.9219 32.8245 26.9923 33.3523 27.0617 33.8805C27.133 34.4231 27.2043 34.9661 27.2788 35.5087C27.333 35.9041 27.3872 36.2995 27.4418 36.6953C27.4501 36.7555 27.4585 36.8157 27.4668 36.8759C28.4006 41.3546 29.5057 45.8018 30.6279 50.2333C31.3483 52.8823 32.5247 55.3523 33.6168 57.8578C29.3534 59.6967 25.2909 62.1685 23.1076 66.3124C21.3775 69.7337 21.3057 73.9425 22.8085 77.4601C23.721 79.9828 25.6599 81.893 26.9353 84.212C28.8122 87.6564 30.9381 91.0286 33.527 93.9796C33.99 94.5421 34.4599 95.0995 34.7941 95.7509C34.8626 95.8337 34.9238 95.937 34.9844 96.0439C35.1238 96.2888 35.2636 96.5546 35.4997 96.6527C35.7765 97.0148 36.0992 97.3175 36.4122 97.4981C36.5367 97.5698 36.6599 97.6245 36.7775 97.6527C36.8663 97.6754 36.9501 97.6842 37.0279 97.6805C37.4802 97.6587 37.7474 97.2203 37.8094 96.7411C37.8224 96.6411 37.8275 96.5398 37.8224 96.4393C39.0603 95.8203 40.252 95.012 41.5057 94.4069C41.5441 94.3884 41.5821 94.3685 41.6201 94.3499C42.1779 94.0661 42.7307 93.7731 43.2816 93.4763C43.3696 93.4291 43.4566 93.381 43.5446 93.3333C43.9988 94.0768 44.4543 94.8198 44.9386 95.5448C48.4381 101.158 50.3427 103.825 57.3608 104.129C57.4992 104.132 57.6372 104.133 57.7742 104.13C59.639 104.098 61.389 103.547 63.0918 102.812C64.4136 102.498 65.6839 101.87 66.9941 101.529C69.4349 100.806 71.6126 99.5393 73.8664 98.4036C76.1497 97.505 78.5557 96.9916 80.8756 96.212C83.1876 95.2999 85.3052 93.9953 87.2789 92.4944C89.6631 90.8499 92.489 90.1259 95.0131 88.7476C95.8089 88.4259 96.6446 88.0851 97.2113 87.4129C98.2455 86.2847 98.7395 84.7694 98.6946 83.2634Z" fill="#F2F8DB"/>
<mask id="mask0_624_3629" style="mask-type:luminance" maskUnits="userSpaceOnUse" x="21" y="15" width="78" height="90">
<path d="M21.6001 15.793H98.8043V104.208H21.6001V15.793Z" fill="white"/>
</mask>
<g mask="url(#mask0_624_3629)">
<path d="M26.181 26.2924L26.1709 26.0151L26.1755 25.6235L26.2269 25.6137C26.3672 25.5873 26.6033 25.6179 26.919 25.9137L26.9922 25.9823L26.8667 26.0318C26.7088 26.0943 26.5505 26.1573 26.3908 26.2165L26.3903 26.217L26.181 26.2924ZM37.4121 96.9012C37.0931 97.0744 36.7648 97.2443 36.4477 97.4082L36.2792 97.4952L36.3801 97.5536C36.5172 97.6327 36.6463 97.6869 36.7616 97.7142C36.8403 97.735 36.9176 97.7452 36.9926 97.7452C37.0056 97.7452 37.0185 97.7448 37.031 97.7443C37.4667 97.7235 37.7968 97.3327 37.8723 96.7494L37.8894 96.6193L37.7764 96.6869C37.6556 96.7596 37.5343 96.8313 37.4121 96.9012ZM56.2801 17.2762L56.5459 17.2461L56.3153 17.1522C56.0926 17.0605 55.8959 17.0841 55.7315 17.2211L55.5667 17.3577L55.7792 17.3332C55.9463 17.3137 56.113 17.2948 56.2801 17.2762ZM64.5584 16.3957L64.5676 16.4545L64.6269 16.4489C64.8477 16.4281 65.0695 16.3994 65.2778 16.3716L65.3653 16.3596L65.2324 16.0878L65.2209 16.0716C64.9857 15.8276 64.7074 15.7938 64.3945 15.9711L64.3051 16.0216L64.3898 16.079C64.4787 16.1387 64.5338 16.2424 64.5584 16.3957ZM54.5755 44.2758C54.8306 45.3674 55.0949 46.4961 55.4607 47.5781L55.4797 47.635L55.5375 47.6193C57.4273 47.1063 58.7204 46.4188 59.6074 45.4559L59.6102 45.4522C59.9209 45.0605 59.8561 44.5693 59.7936 44.0938C59.775 43.9545 59.7574 43.823 59.7496 43.6948C59.7139 43.1758 59.5098 42.7897 59.144 42.5466C58.2204 41.9346 56.576 42.4258 56.0963 42.5906C55.4898 42.7725 54.8875 43.0049 54.3783 43.2082L54.3269 43.2285L54.3398 43.2823C54.4204 43.6128 54.4977 43.9443 54.5755 44.2758ZM50.907 37.4563L50.8857 37.4086L50.8348 37.4202C50.3908 37.5225 49.9519 37.6498 49.531 37.7989L49.5209 37.8031C49.2968 37.9285 49.0579 38.0531 48.8273 38.173C47.8727 38.6707 46.8857 39.185 46.2561 40.0535L46.2459 40.0744C45.9482 41.1966 46.0232 42.5434 47.1246 42.9568C47.5547 43.1276 47.9718 43.2003 48.3783 43.2003C49.5801 43.2003 50.6889 42.5642 51.7699 41.9438C52.0338 41.7924 52.3065 41.636 52.5723 41.4943L52.6204 41.4688L52.6023 41.417C52.2162 40.3309 51.7338 39.273 51.2672 38.2503C51.1468 37.9855 51.026 37.7211 50.907 37.4563ZM97.2588 87.4554C96.6787 88.1429 95.8065 88.4957 95.0366 88.8073C93.9963 89.3758 92.8806 89.842 91.8014 90.2929C90.2801 90.929 88.707 91.5864 87.3144 92.5471C85.1209 94.2156 83.0213 95.4346 80.8991 96.2716C79.9454 96.592 78.9653 96.8711 78.0176 97.141C76.65 97.5304 75.2361 97.9332 73.8899 98.4633C73.4431 98.6883 72.9945 98.9211 72.5463 99.154C70.788 100.067 68.9695 101.011 67.0116 101.591C66.3894 101.753 65.7662 101.983 65.163 102.206C64.4945 102.453 63.8033 102.709 63.1065 102.874C61.0621 103.757 59.4144 104.166 57.7755 104.194C57.7153 104.195 57.6551 104.196 57.5949 104.196C57.5167 104.196 57.438 104.195 57.3593 104.193C50.3537 103.89 48.4723 101.333 44.8843 95.579C44.3963 94.8489 43.9329 94.0915 43.5218 93.4184L43.2727 93.5536L43.2394 93.5244C42.613 92.9767 42.0681 92.3221 41.5408 91.6892L41.4213 91.5457C41.019 91.0498 40.6264 90.5267 40.2209 89.9457C39.6292 88.9915 39.0468 88.0147 38.4834 87.0697C37.3898 85.2364 36.2593 83.3406 35.031 81.554L35.019 81.5332C33.9732 79.992 32.8565 78.4897 31.9028 77.2253L31.8894 77.2073C31.2338 76.1836 30.6232 75.1077 30.0329 74.0674L29.9537 73.9281C29.9338 73.9086 29.9139 73.8878 29.894 73.8661C29.8315 73.7985 29.7797 73.7262 29.7292 73.6563L29.7093 73.6281C29.6227 73.5077 29.5352 73.3878 29.4468 73.2688C29.3343 73.1174 29.2246 72.9633 29.1148 72.8096C29.0491 72.7179 28.9834 72.6258 28.9172 72.5341C28.5736 72.0619 28.2037 71.6119 27.8871 71.2341L27.8343 71.1725C27.6653 70.9744 27.4903 70.7693 27.3348 70.5536C27.15 70.2948 27.0023 70.0989 26.8556 69.9184C26.8255 69.885 26.7935 69.8508 26.7598 69.8165L26.5593 69.6276C26.3917 69.4855 26.2037 69.3392 25.9523 69.1554C25.8685 69.0998 25.7778 69.0452 25.6685 68.9841L25.5871 68.9452C25.3635 68.8401 25.1352 68.7526 24.9611 68.6883C24.8723 68.6596 24.7801 68.6318 24.6875 68.6086C24.6065 68.5952 24.5204 68.5841 24.4338 68.5753C24.3394 68.5702 24.2398 68.5684 24.1445 68.5679L24.125 68.5711C24.0723 68.6161 24.0181 68.6494 23.9607 68.6739C23.8996 68.7008 23.8371 68.7253 23.7746 68.7498L23.7093 68.7781C23.6898 68.8073 23.6602 68.8452 23.632 68.8836C23.5968 68.9411 23.5616 69.0012 23.5264 69.0633C23.5019 69.2151 23.4547 69.341 23.3829 69.4475L23.3528 69.561C23.2922 69.8804 23.2491 70.1448 23.2185 70.3897C22.6982 72.3198 23.5963 74.3554 24.3889 76.1512L24.4676 76.3299C24.6459 76.6855 24.8579 76.8373 25.0653 76.7535C25.3477 76.6392 25.5676 76.0998 25.4213 75.6332C25.2885 75.1332 25.101 74.6549 24.919 74.1924C24.6514 73.5123 24.3755 72.8091 24.2713 72.0318C24.2602 71.5781 24.2954 71.0267 24.669 70.7248C24.7227 70.6924 24.7648 70.6605 24.8028 70.6248L24.8148 70.6133L24.8315 70.6091C24.9357 70.5841 25.0528 70.5679 25.1787 70.5619C25.381 70.5503 25.5741 70.5813 25.7746 70.6526C26.0125 70.7373 26.2204 70.8906 26.3871 71.0137C26.3945 71.0188 26.4033 71.0262 26.4121 71.0327C26.4389 71.048 26.4736 71.0698 26.5074 71.091L26.5241 71.1012C26.7037 71.2147 26.8908 71.3651 27.0963 71.5619C27.2875 71.7452 27.476 71.9563 27.656 72.1906C27.7935 72.3702 27.9269 72.5522 28.0602 72.7341C28.1695 72.8832 28.2783 73.0318 28.3894 73.179C28.4537 73.2651 28.5185 73.3503 28.5834 73.436C28.832 73.7633 29.0889 74.1022 29.3172 74.4559C29.5547 74.8262 29.7875 75.2086 30.0125 75.5781L30.2195 75.9054L30.2199 75.9267L30.2241 75.9239C30.444 76.2735 30.6681 76.6202 30.8917 76.9665C31.1 77.2887 31.3074 77.6105 31.5125 77.935C31.8107 78.4091 32.0986 78.9003 32.3778 79.3758L32.4685 79.5309C32.6625 79.8369 32.8375 80.1151 33 80.4077C33.013 80.4304 33.0246 80.4554 33.0357 80.4799L33.2014 80.7485C33.276 80.8693 33.3505 80.9897 33.4241 81.1105C33.494 81.2248 33.5625 81.3401 33.6311 81.4559L33.7158 81.5873C33.7866 81.698 33.8579 81.8086 33.9283 81.9198C34.4463 82.735 34.9551 83.5522 35.4408 84.3485C35.8639 85.0424 36.2769 85.7364 36.6644 86.3873C37.5635 87.8971 38.6102 89.6508 39.657 91.3596C39.7014 91.4188 39.7463 91.4781 39.7917 91.5383V91.535L39.7959 91.5443C39.8741 91.6475 39.9533 91.7522 40.032 91.8568C40.0686 91.9045 40.1047 91.9526 40.1408 92.0008L40.1778 92.0373L40.1635 92.0299C40.331 92.2522 40.4982 92.4744 40.6625 92.6985C40.7185 92.7739 40.7741 92.8498 40.8292 92.9258L40.9227 93.054L40.8408 93.0818C40.3746 93.2397 39.9093 93.4012 39.4449 93.5647C38.7658 93.8364 38.1398 94.2378 37.5348 94.6258C37.1959 94.8429 36.8454 95.0674 36.4875 95.2684C36.0098 95.5184 35.5297 95.7897 35.0172 96.0989L34.9611 96.1323L34.9292 96.0758C34.8695 95.9711 34.8107 95.8707 34.7449 95.7915C34.4232 95.1674 33.9778 94.6272 33.5473 94.1049L33.4778 94.0202C31.1908 91.4133 29.0935 88.3059 26.8792 84.2429C26.3773 83.3304 25.7616 82.466 25.1658 81.6299C24.2505 80.3452 23.3037 79.0165 22.7486 77.4823C21.2116 73.885 21.3241 69.6975 23.051 66.2836C24.901 62.7721 28.1348 60.1619 33.5329 57.8248C33.3695 57.4508 33.2042 57.0772 33.0394 56.704C32.1227 54.6309 31.1746 52.4873 30.5662 50.2503C29.4898 45.9994 28.3588 41.467 27.4042 36.8887L27.3718 36.6535L27.4199 36.636C28.1875 36.3498 28.7723 36.1225 29.3148 35.8989C29.4885 35.8184 29.6644 35.7387 29.8417 35.6614C29.7199 35.3494 29.6107 35.0855 29.4986 34.835C29.4236 34.7762 29.3533 34.6971 29.2982 34.6082C29.1912 34.6508 29.0848 34.6948 28.9783 34.7392C28.5857 34.923 28.2315 35.0975 27.8977 35.2711C27.7111 35.3684 27.5176 35.4647 27.3065 35.566L27.2278 35.604L27.2158 35.5174C27.1412 34.9748 27.0695 34.4318 26.9982 33.8887L26.9926 33.8443L27.0329 33.8239C27.4236 33.6248 27.807 33.4309 28.1977 33.2485C28.7667 32.9823 29.3741 32.7929 29.9611 32.61L30.0611 32.5785C30.3287 32.4952 30.5982 32.4012 30.8584 32.3105C31.176 32.2003 31.5047 32.0855 31.8338 31.9883C32.1167 31.9054 32.4065 31.8304 32.6871 31.7573L32.7255 31.7475C32.9973 31.6767 33.2653 31.5772 33.5246 31.4809L33.5769 31.4614L33.8176 31.3605C34.5783 31.0406 35.3648 30.7105 36.1537 30.4165L36.1542 30.416H36.1547C36.4324 30.3096 36.7093 30.2003 36.9866 30.0906C37.4264 29.917 37.8811 29.7369 38.3334 29.5716C38.738 29.4253 39.156 29.2735 39.5755 29.1318C39.7681 29.0665 39.9598 29.0008 40.1528 28.9332C40.1806 28.923 40.2088 28.9137 40.2371 28.9049L40.2672 28.8929C40.2871 28.885 40.307 28.8772 40.3273 28.8711C40.4644 28.823 40.6033 28.7711 40.7422 28.7198L40.931 28.6498C41.7644 28.342 42.4959 28.0577 43.1672 27.7804L44.3551 27.2878C44.4764 27.2373 44.5973 27.1855 44.7185 27.1336C44.9431 27.0373 45.175 26.9373 45.4079 26.8485C45.7755 26.7063 46.1445 26.567 46.513 26.4272C46.9473 26.2633 47.3811 26.0989 47.8139 25.9309L48.2315 25.7679C48.8158 25.5401 49.4204 25.3045 50.0199 25.0864C50.8084 24.8008 51.6107 24.5531 52.4051 24.3498C52.7236 24.2674 53.0449 24.1799 53.3602 24.0901L53.4533 24.0619C53.8102 23.9535 54.1662 23.8457 54.5236 23.7415C54.8014 23.6605 55.0811 23.585 55.3611 23.5096C55.4991 23.4725 55.6371 23.4355 55.775 23.3975C56.213 23.2707 56.6019 23.1475 56.963 23.0211C57.3523 22.8855 57.7417 22.7285 58.0848 22.5897C58.8537 22.2804 59.657 21.985 60.4727 21.7119C61.3653 21.4119 62.1523 21.173 62.8787 20.9809C63.2412 20.885 63.6181 20.8258 63.9824 20.7679L64.5727 20.6735C64.8551 20.6281 65.1385 20.5832 65.4209 20.5327C65.9968 20.4304 66.5801 20.31 67.1445 20.1938L67.3991 20.1415L67.4227 20.179C67.575 20.4244 67.7121 20.6383 67.8412 20.8318C67.9621 21.0596 68.0824 21.3068 68.2241 21.6147L68.2584 21.6883L68.1783 21.7035C67.6042 21.8147 67.0311 21.9281 66.4584 22.0443C65.8482 22.1684 65.35 22.2591 64.8903 22.3295C64.3172 22.417 63.8051 22.5063 63.3255 22.6022C62.8797 22.7211 62.3991 22.8619 61.8223 23.0434C61.9061 23.2341 61.969 23.4346 62.0306 23.6285L62.0394 23.6573C62.1065 23.8698 62.1732 24.0813 62.2371 24.2952C62.2991 24.5012 62.3602 24.7077 62.4204 24.9142C62.9574 24.7873 63.4959 24.6647 64.0343 24.5424C65.0936 24.3017 66.1889 24.0526 67.257 23.7711C67.8213 23.6693 68.3797 23.5651 68.938 23.4577L68.9898 23.4475L69.076 23.6684C69.2727 24.1716 69.4764 24.692 69.6926 25.1961C70.0986 26.1485 70.3917 27.154 70.6755 28.1267C70.9088 28.9267 71.15 29.754 71.4519 30.5452L71.9292 31.7193C72.5195 33.1707 73.1297 34.6711 73.7213 36.1508C74.4213 37.8517 75.1973 39.5545 75.9477 41.2008C76.8556 43.1943 77.7949 45.2549 78.6084 47.3323C78.8936 47.8323 79.2084 48.3378 79.513 48.8267C80.2324 49.9818 80.976 51.1762 81.4385 52.4994C82.8014 55.8897 84.3658 58.7461 86.2199 61.229C86.8533 62.0614 87.526 62.8901 88.1764 63.692C90.2292 66.2216 92.3523 68.8378 93.5838 71.9665C94.0519 72.8036 94.5741 73.6429 95.0787 74.4545C96.3903 76.5633 97.7463 78.7438 98.3611 81.2373C98.6033 81.8762 98.7375 82.56 98.7584 83.2619C98.8051 84.8355 98.2588 86.3642 97.2588 87.4554ZM89.0616 81.7077C88.6491 81.7077 88.5158 82.3424 88.5158 82.6498C88.5158 82.9573 88.6491 83.5924 89.0616 83.5924C89.4741 83.5924 89.6079 82.9573 89.6079 82.6498C89.6079 82.3424 89.4741 81.7077 89.0616 81.7077ZM86.7764 82.2443C86.3635 82.2443 86.2301 82.879 86.2301 83.186C86.2301 83.4934 86.3635 84.1276 86.7764 84.1276C87.1889 84.1276 87.3223 83.4934 87.3223 83.186C87.3223 82.879 87.1889 82.2443 86.7764 82.2443ZM85.1264 83.2086L85.1236 83.2068C84.9699 83.0998 84.8236 83.0457 84.6903 83.0457C84.6199 83.0457 84.5533 83.061 84.4917 83.0915C84.2713 83.2012 84.125 83.498 84.1102 83.8661C84.094 84.2776 84.2528 84.8235 84.7482 85.1211L84.7686 85.1406C84.9621 85.4336 85.1593 85.5693 85.3297 85.5336C85.5209 85.4938 85.6866 85.2355 85.751 84.8744C85.8537 84.3036 85.7 83.567 85.1264 83.2086ZM65.1607 94.8934L65.1611 94.8869C65.1866 94.4971 64.9912 94.1878 64.7843 93.86C64.6204 93.6003 64.451 93.3318 64.3945 93.0156C64.2977 92.792 64.1561 92.6679 63.9922 92.6679C63.9686 92.6679 63.9449 92.6707 63.9209 92.6758C63.6815 92.7267 63.4195 93.0503 63.426 93.4336C63.3713 94.1059 63.6153 94.8151 64.1723 95.6091C64.2746 95.7739 64.4412 95.9498 64.6667 95.8684C64.9644 95.7605 65.2144 95.2716 65.1616 94.8998L65.1607 94.8934ZM67.5394 92.6711L67.5278 92.6559L67.5264 92.6373C67.4936 92.1406 67.2084 91.8267 66.9528 91.81C66.9449 91.8096 66.9375 91.8096 66.9301 91.8096C66.701 91.8096 66.5195 92.0392 66.4422 92.4309C66.3246 93.1105 66.5283 93.8628 67.0172 94.5461C67.1162 94.7346 67.2723 94.8272 67.4454 94.8156C67.6412 94.7994 67.813 94.6517 67.8824 94.4397C68.219 93.7471 67.8116 93.035 67.5394 92.6711ZM32.1019 34.3693C32.0815 34.3073 32.0602 34.2448 32.038 34.1823C31.8834 34.0948 31.7602 33.9605 31.6852 33.7998C31.5449 33.8471 31.4051 33.8961 31.2653 33.9448C31.1709 33.9776 31.076 34.011 30.9815 34.0434L31.0028 34.0864C31.0866 34.2577 31.1824 34.4568 31.2611 34.6605C31.3074 34.7813 31.3537 34.9026 31.3991 35.0244C31.6672 34.9225 31.9357 34.823 32.2056 34.7258C32.1723 34.6068 32.1375 34.4878 32.1019 34.3693ZM66.0908 38.1272L66.0871 38.167C66.0445 38.6063 65.8454 39.0549 65.6528 39.4883C65.3093 40.2614 64.9852 40.992 65.4561 41.692C65.5704 41.8485 65.7093 41.8637 65.8051 41.8489C65.9797 41.8221 66.1449 41.6735 66.2079 41.4869C66.2875 41.2915 66.3699 41.0975 66.4528 40.9022C66.944 39.7452 67.4523 38.5489 67.3209 37.3086C67.0963 36.2767 66.0607 35.8934 65.0588 35.523C64.7829 35.4207 64.5223 35.3244 64.2834 35.2156C64.0672 35.136 63.8528 35.0285 63.6459 34.9244C63.3486 34.7758 63.0422 34.6221 62.7195 34.5485C62.3931 34.6188 62.263 34.911 62.2139 35.0799C62.088 35.5156 62.207 36.0795 62.4792 36.3387C63.0834 36.7934 63.7963 37.0864 64.4861 37.3698C65.0135 37.5864 65.5588 37.8105 66.0561 38.1063L66.0908 38.1272ZM43.1135 30.8674C43.0903 30.8049 43.0667 30.742 43.0431 30.6795L43.0352 30.6623C42.9477 30.4684 42.8574 30.2684 42.7607 30.0748C42.7148 29.9809 42.6778 29.8887 42.65 29.7998L42.6181 29.8123C42.4153 29.891 42.2116 29.9665 42.0074 30.042L41.8084 30.116L41.8227 30.1767C41.9079 30.4614 42.0079 30.7503 42.1051 31.0299L42.176 31.2355L43.1135 30.8674ZM58.8709 25.8753C58.8588 25.8309 58.8463 25.7864 58.8338 25.7424L58.8065 25.6586C58.7306 25.4216 58.6519 25.1767 58.5667 24.9397L58.5144 24.7952C58.482 24.7054 58.4496 24.616 58.4167 24.5272L58.3801 24.4304C58.3635 24.3869 58.3468 24.3429 58.3306 24.2989C58.2074 24.3471 58.0848 24.3948 57.9611 24.442C57.9963 24.542 58.0324 24.642 58.0681 24.7415C58.2144 25.1503 58.3653 25.5725 58.4875 26.0003C58.5125 25.992 58.5371 25.9841 58.5621 25.9762C58.6644 25.942 58.7676 25.9082 58.8709 25.8753ZM72.0473 77.5438C73.5255 76.791 75.125 76.2517 76.6723 75.7299C78.5223 75.1063 80.4357 74.4614 82.1408 73.448C82.4264 73.2369 82.6111 72.8651 82.6426 72.4318C82.6764 71.9637 82.5218 71.4994 82.2385 71.2188C82.1524 71.1466 82.0301 71.0948 81.9121 71.0948C81.8454 71.0948 81.7801 71.111 81.7232 71.1498C80.9459 71.6086 80.1227 72.0036 79.3264 72.3855C78.463 72.7998 77.5704 73.2285 76.7394 73.736C74.6505 75.0165 72.3639 75.9591 70.1519 76.8707C68.9496 77.3665 67.7061 77.8785 66.5093 78.4397C65.2922 79.0346 63.6815 79.8091 62.025 80.5184C61.6371 80.7378 61 80.9202 60.326 81.1128C59.0519 81.4772 57.6079 81.8897 57.2223 82.7063C57.0792 83.0086 57.0908 83.3429 57.2584 83.7276C57.3181 83.9114 57.4736 84.0637 57.6385 84.104C57.7232 84.1248 57.8477 84.1248 57.9653 84.0096L58.2602 83.7211L58.1361 83.9535C61.9088 82.8119 65.4505 80.9637 68.8769 79.1758C69.913 78.6346 70.9852 78.0753 72.0473 77.5438ZM54.75 101.13C54.9348 101.255 55.1088 101.372 55.2667 101.492C55.8903 101.812 56.4061 101.859 56.7482 101.623C57.0963 101.382 57.2588 100.844 57.1829 100.183L57.1824 100.175C57.1824 99.9452 57.1773 99.7082 57.1672 99.4707L57.1593 99.4494C57.057 99.161 56.9375 98.8684 56.7963 98.5605L56.6264 98.2142C56.3908 97.735 56.1477 97.2392 55.9297 96.7415C55.9135 96.7045 55.8977 96.667 55.882 96.6295L55.8426 96.5364C55.6139 96.1489 55.3963 95.817 55.181 95.529C53.5806 93.3179 51.8093 91.2614 50.1329 89.3438C47.0727 84.9068 44.8398 81.0887 43.1014 77.3235C42.3704 75.5545 41.3033 73.9378 40.2723 72.3739C39.5523 71.2832 38.8084 70.1554 38.1829 68.9841C36.7361 66.2193 35.6431 63.285 34.732 60.7512C34.45 59.9915 34.125 59.1911 33.6806 58.1637C33.1611 58.398 32.6148 58.6512 32.0949 58.942L32.1223 58.9961C32.163 59.0762 32.2037 59.1563 32.2426 59.2378C32.4209 59.6082 32.5727 59.9466 32.707 60.2735L32.832 60.5767C32.9482 60.8573 33.0681 61.1471 33.1778 61.436L33.2866 61.7216C33.4014 62.0211 33.5158 62.3211 33.6311 62.6207L33.813 63.0948C34.0482 63.7096 34.2917 64.3448 34.5463 64.9637C34.6 65.0943 34.6528 65.2253 34.7051 65.3568C34.8153 65.6304 34.9292 65.9137 35.051 66.1864L35.2685 66.6725C35.313 66.729 35.363 66.7989 35.4125 66.8702C35.4352 66.9022 35.4579 66.936 35.4797 66.9702L35.6079 67.1679C35.65 67.236 35.6908 67.304 35.7306 67.3721C35.7491 67.404 35.7676 67.4364 35.7852 67.4684L35.7912 67.4772C35.8857 67.6457 35.9755 67.8202 36.0588 67.9966C36.2051 68.3054 36.3607 68.6161 36.5111 68.9165C36.7315 69.3563 36.9588 69.8114 37.1621 70.2698C37.2236 70.4086 37.2834 70.548 37.3412 70.6878C37.8023 71.4364 38.2227 72.1188 38.6533 72.7952C39.7723 74.5054 40.7486 76.3415 41.6926 78.117C42.276 79.2147 42.8797 80.3494 43.5107 81.4429C43.931 82.26 44.344 83.0494 44.7385 83.7924C45.1283 84.317 45.4699 84.8952 45.8005 85.454C45.9028 85.6281 46.0056 85.8017 46.1098 85.9744L46.3213 86.3012C46.7727 86.998 47.2394 87.7184 47.6551 88.4559C47.8824 88.8586 48.1232 89.2623 48.3565 89.6526C48.6139 90.0832 48.8797 90.5285 49.1283 90.9744L49.1408 90.998C49.2199 91.1387 49.3005 91.2864 49.3815 91.4346C49.4662 91.5892 49.551 91.7443 49.6371 91.8985C50.1 92.6869 50.5107 93.3373 51.0061 93.9434C51.1255 94.079 51.2519 94.2114 51.3778 94.3443C51.463 94.4336 51.5477 94.523 51.6315 94.6142L51.8875 94.8906C52.0324 95.048 52.1778 95.2054 52.3246 95.3623C52.4366 95.4758 52.5588 95.5864 52.6773 95.6934C52.8033 95.8073 52.9334 95.9253 53.0556 96.0498C53.3232 96.3225 53.569 96.6225 53.807 96.9128L53.9065 97.0341C54.0811 97.2457 54.2366 97.4748 54.3871 97.6966C54.4537 97.7943 54.5199 97.892 54.588 97.9887C54.776 98.2554 54.9588 98.5313 55.1357 98.7985L55.4463 99.261C55.4644 99.3128 55.4824 99.3605 55.5033 99.4082L55.6181 99.6707L55.4028 99.4818C55.1639 99.2711 54.8912 99.0998 54.6269 98.9341C54.5417 98.8809 54.4565 98.8272 54.3718 98.7721L54.3574 98.7591C54.1394 98.4952 53.9144 98.3494 53.7283 98.3494C53.7079 98.3494 53.6875 98.3512 53.6681 98.3549C53.5107 98.3841 53.3866 98.5304 53.2996 98.7906C52.9311 99.9026 53.8973 100.555 54.75 101.13ZM40.594 46.6198L40.6181 46.5716C41.057 45.6873 42.0838 43.2364 41.5681 42.5253C41.4556 42.3688 41.2736 42.3091 41.0125 42.3424C40.6181 42.7651 40.4422 43.3272 40.2565 43.9221C40.1241 44.3461 39.9866 44.785 39.7621 45.1637C39.6667 45.4202 39.4773 45.6012 39.294 45.7758C39.0977 45.9633 38.9121 46.1406 38.8463 46.3998C38.5028 47.4915 39.2047 47.9031 40.0167 48.3799C40.1051 48.4313 40.1945 48.4836 40.2829 48.5373C40.4528 48.6656 40.6172 48.7929 40.781 48.9207C41.6977 49.6327 42.6449 50.3698 43.8084 50.623C44.2389 50.6693 44.3801 50.1721 44.4121 50.0174C44.5148 49.5198 44.3602 48.8841 43.9736 48.7674C42.9746 48.5651 42.1991 47.9211 41.4491 47.2975C41.1857 47.079 40.9139 46.8531 40.6375 46.6512L40.594 46.6198ZM57.9653 36.3424C57.857 35.9614 57.4213 35.0818 55.6491 35.1582L55.6422 35.1586L55.6352 35.1573C54.5412 34.9637 53.0403 35.029 51.5176 35.3378L51.4662 35.348L51.4463 35.2994C51.1829 34.6591 50.9653 34.0924 50.7806 33.5674C50.7556 33.3586 50.7713 33.1383 50.7875 32.9054C50.8287 32.3313 50.8704 31.7378 50.3459 31.4924C50.3445 31.4924 50.3435 31.4924 50.3422 31.4924C50.188 31.4924 50.0621 31.5489 49.9561 31.6637C49.5093 32.1508 49.5848 33.5077 49.6699 34.273C49.7982 34.7003 49.95 35.1438 50.1324 35.6174L50.1565 35.6809L50.0917 35.7012C47.0977 36.6285 45.3352 38.2434 45.2565 40.1318C45.15 41.5596 45.3287 43.4267 46.7848 44.2276C48.907 45.242 51.0385 44.5461 53.2162 43.6762L53.2806 43.6508L53.301 43.717C53.7153 45.0827 54.1797 46.4508 54.6283 47.7735L54.651 47.8401L54.5824 47.8559C54.3635 47.9063 54.1454 47.9531 53.931 47.9985C52.0741 48.2466 50.4579 48.2637 48.9861 48.0512C48.7167 48.0332 48.6329 48.3443 48.6144 48.4397C48.5556 48.7429 48.6519 49.1202 48.8894 49.1989C49.4209 49.2809 49.9769 49.3795 50.5148 49.4748C51.5486 49.6582 52.6181 49.8475 53.6667 49.9522C54.1973 50.0128 54.7528 50.0207 55.3209 49.9753L55.3727 49.9711L55.3871 50.0216C55.4931 50.3934 55.576 50.786 55.6556 51.166C55.8468 52.0762 56.0449 53.0179 56.5829 53.7299C56.7959 53.7864 56.9672 53.7267 57.0917 53.5531C57.3551 53.1873 57.3181 52.4721 57.1042 52.1656C56.7977 51.367 56.5223 50.5823 56.2922 49.9188L56.2686 49.8494L56.3403 49.835C59.1959 49.2795 60.9699 47.6137 61.0861 45.3795C61.0852 43.8619 60.819 41.8262 59.5542 40.766C58.788 40.1244 57.7385 39.917 56.4371 40.1461C55.5412 40.3605 54.6417 40.642 53.7662 40.9823L53.7028 41.0068L53.6829 40.9415C53.2848 39.6619 52.7681 38.4188 52.2727 37.2559L52.2394 37.1772L52.3241 37.1679C53.8732 36.9938 55.5172 37.0855 57.0783 37.4327L57.0977 37.4373L57.1111 37.4517C57.2903 37.6452 57.4741 37.6957 57.6454 37.6003C57.9278 37.4415 58.1236 36.8985 57.9653 36.3424ZM63.901 66.6934C63.8598 66.4892 63.7422 66.2137 63.5473 66.111C63.4486 66.0596 63.3394 66.0586 63.2227 66.1086C62.3093 66.479 61.4139 66.9267 60.5482 67.3591C60.3699 67.4485 60.1912 67.5373 60.0121 67.6262L59.5755 67.8448C58.0713 68.5975 56.5153 69.3758 54.8861 69.9137C54.5602 70.0299 54.2352 70.1605 53.9209 70.2869C53.457 70.4739 52.9769 70.6665 52.4741 70.8202C52.2116 70.9485 52.0991 71.2063 52.0528 71.3994C51.963 71.773 52.0473 72.2295 52.2574 72.5133C52.7255 72.8651 53.325 72.604 53.9047 72.3508C54.1936 72.2248 54.4667 72.1054 54.7264 72.0568C56.5056 71.492 58.1741 70.5998 59.788 69.7369C61.0023 69.0878 62.2579 68.4165 63.5561 67.886C63.9047 67.673 63.9824 67.1323 63.901 66.6934ZM54.2213 76.9924C57.2778 76.5633 60.1148 74.9966 62.8588 73.4818C63.2704 73.2545 63.6792 73.029 64.0852 72.8091C64.4662 72.5971 64.5681 71.8272 64.3806 71.3688C64.3088 71.1924 64.1306 70.9133 63.7542 71.0123C61.6051 72.3086 59.2306 73.4022 56.494 74.3554C56.2797 74.4327 56.0658 74.5137 55.8523 74.5943C55.3 74.8031 54.7292 75.0188 54.144 75.1716C53.8769 75.3596 53.7218 75.7674 53.7574 76.1915C53.7885 76.5665 53.9616 76.8642 54.2213 76.9924ZM71.7204 56.6892C71.6792 56.486 71.5681 56.1211 71.2912 55.9725C71.0116 55.8707 70.7352 56.0285 70.4426 56.1948C70.2584 56.2994 70.0681 56.4077 69.8699 56.4498C68.8436 56.8651 67.7857 57.3091 66.7625 57.7387C64.5806 58.6549 62.3241 59.6026 60.1 60.3873C57.9486 61.0832 55.9148 62.0619 53.9477 63.0091C52.5357 63.6887 51.075 64.392 49.5991 64.9748L49.5699 64.9864L49.5431 64.9707C49.432 64.9049 49.3352 64.8786 49.251 64.8786C49.076 64.8786 48.9565 64.9938 48.8797 65.1128C48.5917 65.561 48.6121 66.4989 49.0135 66.7795C50.0824 67.2647 51.6644 66.3262 53.0598 65.4989C53.6037 65.1762 54.1176 64.8716 54.5417 64.6929C55.5107 64.1596 56.5542 63.7299 57.5635 63.3142C58.1486 63.073 58.7537 62.8239 59.338 62.5568C59.9801 62.2568 60.6278 61.9341 61.2542 61.6221C63.2065 60.6489 65.225 59.6424 67.4093 59.1716C67.8019 59.017 68.338 58.9304 68.9061 58.8383C69.9255 58.6735 71.0811 58.4864 71.5436 57.8248C71.7523 57.5258 71.8102 57.1545 71.7204 56.6892ZM70.2681 51.9443C70.1625 51.8452 70.038 51.7957 69.8963 51.7957C69.8255 51.7957 69.7505 51.8077 69.6713 51.8327C67.1037 53.286 64.3505 54.642 61.2667 55.9744L61.2621 55.9758C59.3181 56.648 57.4023 57.4813 55.5505 58.2873C53.7139 59.0864 51.8148 59.9128 49.8866 60.5823C49.6769 60.6938 49.2593 60.8373 48.7755 61.0045C47.7894 61.3443 46.2991 61.8577 46.2806 62.2901C46.1815 62.6272 46.1815 63.111 46.3681 63.4133C46.4611 63.5651 46.5922 63.6586 46.757 63.6911C50.532 62.7077 54.1023 60.9383 57.5551 59.2272C59.3681 58.329 61.2426 57.3998 63.1223 56.5971C64.0588 56.236 65.0348 55.9434 65.9778 55.661C67.2806 55.2702 68.6278 54.8665 69.8764 54.279C70.188 54.1906 70.4232 53.885 70.5324 53.4373C70.6732 52.8591 70.5598 52.2174 70.2681 51.9443ZM56.8848 26.5068L56.819 26.2827C56.7718 26.1258 56.7232 25.9633 56.6672 25.8077C56.6311 25.7054 56.5922 25.6035 56.5537 25.5012C56.4894 25.3313 56.4236 25.1568 56.3676 24.9813C56.1269 25.0494 55.8848 25.1137 55.6426 25.1776C55.4787 25.2211 55.3144 25.2647 55.151 25.3096C54.8695 25.391 54.588 25.4753 54.306 25.5596C53.9973 25.6522 53.6885 25.7443 53.3787 25.8336C53.1723 25.8929 52.9602 25.9461 52.7551 25.9971L52.5371 26.0522C52.3148 26.1091 52.0903 26.1767 51.8736 26.2415L51.7505 26.2785C51.0635 26.4952 50.3394 26.7554 49.4727 27.0966C48.6982 27.3998 47.9093 27.6985 47.1723 27.9758C46.7912 28.1198 46.4111 28.2647 46.0315 28.411C45.8074 28.4975 45.582 28.5943 45.3639 28.6878C45.2385 28.7415 45.113 28.7952 44.9871 28.8475L44.6936 28.9693C44.5477 29.0299 44.4014 29.0906 44.2556 29.1508C44.2755 29.2216 44.2866 29.2934 44.2875 29.3656C44.319 29.4341 44.3519 29.5022 44.3843 29.5702C44.4704 29.7498 44.5588 29.9355 44.6306 30.1262L44.6806 30.2582C46.057 29.7323 47.1334 29.3545 48.163 29.0355C49.4713 28.6443 50.8061 28.266 52.0968 27.9008C53.669 27.4554 55.2945 26.9952 56.8848 26.5068ZM40.5047 31.5452C40.4727 31.4526 40.4398 31.3596 40.4084 31.266L40.2857 30.9003C40.2616 30.8295 40.2398 30.7586 40.2199 30.6869L40.0676 30.7397C39.8505 30.8147 39.6329 30.8897 39.4162 30.9651C38.8172 31.1836 38.2116 31.4184 37.6255 31.6457C37.1616 31.8258 36.6973 32.0059 36.2315 32.1799C35.7792 32.3596 35.3218 32.5522 34.8797 32.7383L34.476 32.9077C34.1973 33.0253 33.8723 33.1591 33.544 33.2577L33.488 33.2744C33.6236 33.5633 33.719 33.8753 33.801 34.1739C34.2611 34.0207 34.7227 33.8698 35.1843 33.7188C36.026 33.4438 36.8959 33.1596 37.7459 32.8614C38.5982 32.5855 39.5084 32.2619 40.6074 31.8438C40.5741 31.7443 40.5394 31.6452 40.5047 31.5452ZM80.5662 88.0781C81.4912 87.7142 82.4709 87.2429 82.6741 86.5276C82.7778 86.1623 82.6644 85.7549 82.338 85.316C82.2718 85.267 82.194 85.2461 82.1088 85.2461C81.8292 85.2461 81.463 85.4711 81.1061 85.6906C80.7973 85.8804 80.5051 86.06 80.2561 86.1068C80.0135 86.2133 79.7408 86.3049 79.4769 86.3938C78.8732 86.5961 78.2496 86.8059 77.7926 87.2559C77.6176 87.5489 77.5713 88.0267 77.6917 88.3804C77.7477 88.5448 77.8658 88.7596 78.1102 88.861C78.6098 88.7971 79.1158 88.6026 79.6051 88.4142C79.9195 88.2934 80.2445 88.1684 80.5662 88.0781ZM60.7889 25.3193C60.7436 25.1656 60.6977 25.0119 60.651 24.8582L60.6005 24.6887C60.5116 24.3887 60.4195 24.079 60.3033 23.786C60.2945 23.7818 60.2857 23.7781 60.2773 23.7735C60.2 23.7364 60.1292 23.6864 60.0662 23.6248C60.0107 23.6448 59.9551 23.6647 59.9 23.685C59.9463 23.8198 59.9959 23.9522 60.0454 24.085C60.0787 24.1758 60.113 24.266 60.1459 24.3573C60.225 24.5795 60.2977 24.8031 60.3709 25.0313C60.4102 25.154 60.4477 25.2772 60.4829 25.4008C60.5848 25.3735 60.6871 25.3461 60.7889 25.3193ZM69.4797 90.5304C69.3843 90.4211 69.2843 90.3661 69.1811 90.3661C69.1426 90.3661 69.1037 90.3739 69.0648 90.3887C68.8292 90.4795 68.6209 90.8383 68.6278 91.1415C68.5329 91.6142 69.2889 93.4568 69.7246 93.6452C70.0417 93.5864 70.2523 93.4387 70.351 93.2063C70.6186 92.5748 70.0496 91.3707 69.4797 90.5304ZM74.5209 89.6017C74.4375 89.4735 74.3616 89.3272 74.2885 89.186C74.1088 88.8383 73.9232 88.4785 73.5945 88.3128C73.425 88.3008 73.2834 88.3596 73.1773 88.4915C72.9505 88.773 72.9181 89.3383 73.0306 89.6906C73.0973 89.8133 73.1611 89.9586 73.2287 90.1123C73.4148 90.5369 73.6079 90.9762 73.9695 91.1846C74.1676 91.1952 74.3338 91.1128 74.4519 90.9397C74.6903 90.5892 74.6848 89.9461 74.5209 89.6017ZM71.8986 92.0198C72.0561 92.2202 72.2172 92.3156 72.3648 92.291C72.5315 92.2642 72.6912 92.0795 72.7926 91.7975C72.9287 91.4179 72.9459 90.8693 72.7098 90.5989C72.5496 90.4341 72.4718 90.198 72.3968 89.9693C72.288 89.6392 72.1857 89.3267 71.8473 89.2693C71.5815 89.3711 71.4047 89.5531 71.3213 89.811C71.1037 90.4841 71.5473 91.5008 71.8986 92.0198ZM75.9269 90.6494C76.0463 90.8216 76.1917 90.8392 76.2936 90.8239C76.4834 90.7961 76.6607 90.6387 76.7246 90.4415C77.0922 89.6994 76.6195 89.0235 76.2024 88.4272L76.0871 88.2591C75.8959 87.8017 75.6588 87.5373 75.4361 87.5341C75.4348 87.5341 75.4334 87.5341 75.432 87.5341C75.2936 87.5341 75.1644 87.6429 75.0774 87.8332C74.8505 88.3304 74.8894 89.4911 75.9269 90.6494ZM30.1699 75.9577L30.206 75.935H30.1903L30.1699 75.9577Z" fill="#F2F8DB"/>
</g>
<path d="M33.5689 31.5998C33.3064 31.697 33.0351 31.7979 32.7573 31.8702L32.7189 31.8803C32.4392 31.9526 32.1503 32.0276 31.8693 32.11C31.5434 32.2063 31.2165 32.3202 30.9003 32.4303C30.6388 32.5215 30.3684 32.616 30.0994 32.6998L29.999 32.7308C29.4156 32.9127 28.8124 33.1007 28.2513 33.3632C27.8624 33.5452 27.4804 33.7382 27.0902 33.9368L27.0101 33.9776L26.9642 33.6313C26.9064 33.1887 26.848 32.7461 26.7953 32.303C26.7212 31.6262 26.6503 30.9502 26.579 30.2739C26.4591 29.1373 26.3351 27.9614 26.2017 26.8063C26.1925 26.603 26.1851 26.4039 26.1781 26.2049L26.1763 26.1581L26.3466 26.0965C26.5054 26.0377 26.6624 25.9752 26.8198 25.9132L26.8888 25.8859L26.9179 25.9123C27.567 26.3535 28.1906 26.8359 28.7934 27.3026C29.6517 27.9664 30.5378 28.6526 31.4966 29.2132C31.7152 28.7928 31.9189 28.0428 32.1337 27.2507C32.5888 25.5725 33.105 23.6706 34.0573 23.5516L34.0707 23.5502L34.0837 23.5539C35.0429 23.8465 36.0355 24.5461 37.1147 25.6905C37.1235 25.509 37.1156 25.2646 37.1064 24.991C37.0777 24.1428 37.0425 23.0868 37.5013 22.8391C37.7156 22.7234 37.9971 22.7928 38.3633 23.0507C39.2971 23.5896 40.3448 23.922 41.3582 24.2433C41.8184 24.3891 42.2934 24.5401 42.7545 24.709C42.9601 23.7683 43.0531 22.8683 43.0318 22.0322C43.0277 21.9771 43.023 21.9183 43.0184 21.86C42.9786 21.3762 42.9378 20.8762 43.2628 20.4526C43.4883 20.1331 43.8281 20.2456 44.1017 20.3364C44.1513 20.3526 44.1999 20.3683 44.2471 20.3822C45.8517 20.5049 46.9698 21.7396 47.955 22.8382C48.0772 22.5164 48.1846 22.1813 48.2892 21.8553C48.5517 21.0377 48.8235 20.1924 49.3411 19.484C49.6341 19.1299 49.9698 19.3706 50.2402 19.5637C50.323 19.6229 50.4017 19.6789 50.4749 19.7174C50.9573 20.0169 51.4656 20.2794 51.9578 20.5327C52.5846 20.8558 53.2318 21.1891 53.8258 21.6007C54.1772 20.5813 54.5744 19.5002 55.0925 18.4674C55.1508 18.3604 55.2054 18.2164 55.2628 18.0641C55.3795 17.7539 55.5119 17.4026 55.7314 17.2206L55.7457 17.2081L55.7647 17.2063C55.9314 17.1868 56.099 17.1678 56.2656 17.1493L56.2999 17.1452L56.3147 17.1512C56.3388 17.1595 56.3494 17.1632 56.3605 17.1683C56.8013 17.4512 57.286 17.6521 57.7545 17.8465C58.2031 18.0327 58.6665 18.2252 59.0906 18.4868C59.3314 18.6192 59.5624 18.7831 59.7865 18.9419C60.1147 19.1748 60.454 19.4155 60.8314 19.5604C61.479 18.8725 62.1513 18.1877 62.8017 17.5252C63.0008 17.322 63.1999 17.1192 63.3985 16.9164C63.4758 16.8414 63.5615 16.747 63.6522 16.6465C63.874 16.4007 64.1258 16.1225 64.3943 15.9706L64.4286 15.9512L64.461 15.9734C64.5661 16.0442 64.6369 16.1595 64.6726 16.316C64.8721 16.2961 65.0721 16.2702 65.261 16.2452L65.3064 16.2387L65.3263 16.2799C65.9429 17.5452 66.623 18.8928 67.4221 20.1789L67.4703 20.2563L67.1698 20.3183C66.6045 20.4345 66.0203 20.5549 65.4429 20.6572C65.1596 20.7081 64.8758 20.7535 64.5925 20.7989L64.0017 20.8933C63.6406 20.9507 63.2675 21.0095 62.9115 21.1035C62.1874 21.2952 61.4027 21.5331 60.5128 21.8317C59.6999 22.1044 58.8985 22.3989 58.1323 22.7072C57.7878 22.8465 57.3971 23.0044 57.0045 23.141C56.6415 23.2678 56.2503 23.3919 55.8096 23.5197C55.6707 23.5577 55.5323 23.5952 55.3939 23.6322C55.1147 23.7072 54.836 23.7822 54.5587 23.8632C54.2017 23.9669 53.8462 24.0752 53.4897 24.1831L53.3957 24.2118C53.0786 24.3026 52.7559 24.3901 52.4365 24.4729C51.6457 24.6748 50.8476 24.9215 50.0633 25.2058C49.4647 25.4234 48.861 25.6586 48.2772 25.8864L47.8596 26.0489C47.4267 26.2174 46.992 26.3817 46.5578 26.5461C46.1892 26.6854 45.8207 26.8248 45.4531 26.9669C45.2226 27.0549 44.9915 27.1539 44.7684 27.2498C44.6471 27.3021 44.5258 27.3539 44.4036 27.4049L43.2152 27.8975C42.5425 28.1757 41.8101 28.4604 40.9744 28.7688L40.786 28.8387C40.6466 28.8905 40.5073 28.9424 40.3665 28.9919C40.3471 28.9979 40.3309 29.0039 40.3147 29.0104L40.279 29.0243C40.248 29.0345 40.2212 29.0433 40.1948 29.0526C40.0017 29.1206 39.8091 29.1864 39.6161 29.2521C39.1976 29.3933 38.7804 29.5447 38.3767 29.691C37.9263 29.8558 37.4721 30.035 37.0332 30.2086C36.724 30.3308 36.4147 30.453 36.1045 30.5711L36.104 30.5715V30.5706C35.349 30.8544 34.5957 31.1711 33.8665 31.4771L33.5689 31.5998ZM37.7869 32.9813C38.654 32.7007 39.5828 32.3697 40.7096 31.9405L40.7661 31.9188L40.7346 31.8225C40.699 31.716 40.6619 31.6095 40.6249 31.503C40.5925 31.4104 40.5605 31.3178 40.529 31.2252L40.4059 30.859C40.3758 30.7692 40.349 30.6789 40.3249 30.5877L40.3073 30.5215L40.0263 30.6188C39.8087 30.6938 39.5911 30.7688 39.373 30.8447C38.7721 31.0641 38.1661 31.2989 37.5795 31.5266C37.1156 31.7063 36.6522 31.8864 36.1855 32.0604C35.7314 32.241 35.273 32.434 34.83 32.6206L34.4263 32.7901C34.1503 32.9063 33.8295 33.0382 33.5068 33.1354L33.3064 33.1961L33.3587 33.2993C33.5078 33.6081 33.6087 33.9493 33.6957 34.272L33.7133 34.3373L33.7772 34.3155C34.2587 34.1549 34.7411 33.997 35.2235 33.8396C36.0656 33.5641 36.9365 33.2794 37.7869 32.9813ZM32.2235 34.3308C32.1999 34.2586 32.1749 34.1877 32.1499 34.1164L32.1415 34.0928L32.1198 34.0813C31.9633 33.9989 31.8429 33.8623 31.78 33.697L31.7582 33.6396L31.7003 33.6595C31.5411 33.7132 31.3818 33.7688 31.2235 33.8239C31.1059 33.8651 30.9888 33.9058 30.8712 33.9461L30.8017 33.9702L30.8883 34.1424C30.9712 34.3109 31.0656 34.5067 31.142 34.7058C31.1962 34.8461 31.2499 34.9868 31.3022 35.1285L31.3244 35.1891L31.3846 35.166C31.6897 35.0489 31.9966 34.9354 32.304 34.8252L32.3596 34.8053L32.3439 34.7479C32.305 34.609 32.2652 34.4706 32.2235 34.3308ZM29.6078 34.7692L29.5846 34.7387C29.5017 34.6748 29.4314 34.5919 29.3823 34.4984L29.3559 34.4479L29.3027 34.4688C29.1777 34.5183 29.0536 34.5692 28.9267 34.6225C28.53 34.8081 28.1744 34.9831 27.8388 35.1577C27.6531 35.2544 27.461 35.3502 27.2513 35.4512L27.2091 35.4711L27.3897 36.7822L27.4638 36.7544C28.2332 36.4683 28.8189 36.2405 29.3656 36.0151C29.5591 35.9252 29.7531 35.8382 29.948 35.753L30.004 35.7285L29.9823 35.6715C29.8508 35.3327 29.7346 35.0502 29.6078 34.7692ZM41.3869 93.6998L41.0184 93.1868C41.0128 93.1789 41.0073 93.1711 40.998 93.1567L40.8439 92.9456L40.7994 92.9604C40.3328 93.1188 39.867 93.2808 39.3999 93.4452C38.7068 93.7225 38.0758 94.1266 37.4656 94.5178C37.1286 94.7345 36.7795 94.9581 36.4267 95.1563C35.9485 95.4063 35.4656 95.6789 34.9513 95.9891L34.898 96.0215L34.9522 96.116C35.0865 96.3535 35.2253 96.5993 35.4587 96.7044C35.7429 97.0729 36.0693 97.3739 36.38 97.553L36.4101 97.5702L36.5059 97.5206C36.824 97.3563 37.1527 97.1859 37.474 97.0118C37.5976 96.9415 37.7198 96.8688 37.842 96.7956L37.8679 96.7799L37.8721 96.7493C37.8841 96.6567 37.8892 96.5655 37.8869 96.4776C38.4642 96.1873 39.0402 95.8512 39.5976 95.5262C40.2267 95.16 40.8772 94.7803 41.5332 94.4637L41.5976 94.4327L41.5355 94.3345C41.5721 94.1123 41.5184 93.8827 41.3869 93.6998ZM60.773 24.8211L60.7226 24.6516C60.63 24.3405 60.5341 24.0188 60.411 23.7127L60.4008 23.6868L60.3744 23.6771C60.3605 23.672 60.3476 23.666 60.3337 23.659C60.2573 23.622 60.1888 23.5711 60.13 23.5077L60.1013 23.4771L60.0619 23.491C59.9744 23.522 59.8865 23.5535 59.7994 23.5859L59.749 23.6044L59.7587 23.6572C59.7601 23.6655 59.7624 23.6734 59.767 23.6896C59.817 23.8373 59.8716 23.9831 59.9258 24.1289C59.9596 24.2188 59.9934 24.309 60.0258 24.3998C60.1045 24.6202 60.1767 24.8424 60.2499 25.0697C60.2948 25.2109 60.3374 25.3526 60.3772 25.4956L60.3943 25.5563L60.4554 25.5396C60.5985 25.5007 60.7416 25.4627 60.8851 25.4252L60.9485 25.4086L60.9295 25.3452C60.8777 25.1706 60.8258 24.9956 60.773 24.8211ZM69.0087 23.4965C68.7846 22.9239 68.5207 22.259 68.224 21.6141L68.2031 21.5688L68.154 21.578C67.5795 21.6896 67.0059 21.803 66.4328 21.9192C65.8244 22.0428 65.3281 22.1331 64.8707 22.2035C64.2957 22.291 63.7818 22.3808 63.2962 22.478C62.8272 22.6026 62.3244 22.7507 61.7152 22.9433L61.6457 22.9651L61.6767 23.0308C61.7721 23.2336 61.8415 23.4535 61.9087 23.6664L61.9179 23.6952C61.9846 23.9067 62.0513 24.1183 62.1152 24.3313C62.1823 24.5563 62.249 24.7817 62.3152 25.0072L62.3318 25.0651L62.3906 25.0512C62.9471 24.9197 63.5045 24.7928 64.0619 24.666C65.1226 24.4248 66.2189 24.1757 67.2846 23.8952C67.8439 23.7942 68.4031 23.6896 68.9615 23.5822L69.0369 23.5678L69.0087 23.4965ZM61.2684 23.4095L61.2508 23.3952L61.2638 23.4077L61.2466 23.4002L61.2443 23.4044L61.2434 23.4039L61.2443 23.4049L61.2416 23.4104L61.3411 23.485L61.3568 23.4637L61.3564 23.4632L61.3596 23.4586L61.3253 23.4377L61.3642 23.4484L61.2684 23.4095ZM58.955 25.7049L58.9277 25.6192C58.8513 25.3813 58.7726 25.135 58.6865 24.8956L58.6341 24.7512C58.6013 24.6614 58.5689 24.5715 58.536 24.4822L58.499 24.3845C58.4749 24.322 58.4503 24.2581 58.4281 24.1942L58.4064 24.1317L58.3448 24.1558C58.1814 24.2202 58.0179 24.2836 57.854 24.3461L57.798 24.3674L57.8156 24.4243C57.8203 24.4391 57.824 24.4544 57.8272 24.4697L57.8485 24.5391L57.8591 24.535C57.8888 24.6178 57.9184 24.7012 57.948 24.784C58.1008 25.2114 58.2591 25.653 58.3828 26.0984L58.4008 26.1627L58.4647 26.1414C58.5096 26.1262 58.555 26.1114 58.6013 26.0965C58.723 26.0563 58.8453 26.016 58.9675 25.9776L59.0253 25.959L59.0096 25.9002C58.992 25.8354 58.9744 25.7711 58.955 25.7049ZM43.1605 30.6303L43.1513 30.6095C43.0628 30.4146 42.9721 30.2137 42.8749 30.0183C42.8207 29.9077 42.78 29.8002 42.7531 29.6984L42.7351 29.6289L42.5716 29.6933C42.3698 29.7715 42.1665 29.847 41.9633 29.9225L41.6587 30.0359L41.6999 30.2095C41.7865 30.4998 41.8874 30.7905 41.9846 31.0715L42.0985 31.4021L43.2753 30.9396L43.254 30.8817C43.224 30.7989 43.1934 30.7164 43.1605 30.6303ZM56.7869 25.7641C56.7503 25.6614 56.7115 25.5586 56.6726 25.4558C56.6017 25.2688 56.529 25.0757 56.4707 24.884L56.4527 24.8239L56.3925 24.8414C56.1328 24.9155 55.8712 24.985 55.6101 25.0539C55.4457 25.0979 55.2809 25.1414 55.1161 25.1864C54.8337 25.2683 54.5513 25.3526 54.2693 25.4373C53.961 25.5294 53.6527 25.622 53.3434 25.7109C53.1392 25.7697 52.9281 25.8225 52.7244 25.8734L52.5054 25.9285C52.2804 25.9864 52.055 26.0539 51.8369 26.1192L51.7133 26.1563C51.0221 26.3743 50.2953 26.6354 49.4258 26.9776C48.6522 27.2803 47.8638 27.5789 47.1272 27.8567C46.7462 28.0002 46.3656 28.1452 45.9855 28.2914C45.7591 28.3789 45.5328 28.4762 45.3133 28.5702C45.1883 28.6239 45.0633 28.6776 44.9378 28.7294L44.6443 28.8512C44.4804 28.9192 44.3165 28.9877 44.1522 29.0553L44.0957 29.0785L44.1165 29.1359C44.1457 29.2155 44.1605 29.297 44.1601 29.3785L44.1596 29.3924L44.1656 29.4058C44.1994 29.4789 44.2341 29.5516 44.2693 29.6248C44.354 29.8021 44.4415 29.985 44.5119 30.1706L44.6064 30.422L44.6661 30.3993C46.0684 29.8627 47.1587 29.4794 48.1999 29.1567C49.5068 28.766 50.8411 28.3882 52.1314 28.0225C53.724 27.5715 55.3707 27.1053 56.9804 26.6104L57.0392 26.5924L56.9406 26.2456C56.8929 26.0868 56.8439 25.9234 56.7869 25.7641Z" fill="#FFA857"/>
<path d="M58.0385 84.1153C57.9469 84.1986 57.8381 84.2417 57.7237 84.2417C57.6857 84.2417 57.6469 84.2371 57.608 84.2273C57.3996 84.1764 57.2112 83.9935 57.1394 83.7723C56.9612 83.3635 56.9496 82.9843 57.107 82.6519C57.5177 81.7829 58.9908 81.3616 60.2908 80.9903C60.958 80.7996 61.5876 80.6195 61.9686 80.4042C63.6288 79.6931 65.2376 78.9195 66.4543 78.3246C67.6547 77.7621 68.8996 77.2486 70.1033 76.7528C72.3107 75.8431 74.5927 74.9023 76.6728 73.6273C77.5094 73.1162 78.4052 72.6861 79.2714 72.2704C80.0649 71.8898 80.8857 71.4959 81.6552 71.0417C81.8714 70.8954 82.1543 70.9815 82.3246 71.1246C82.6418 71.4385 82.8066 71.9292 82.7695 72.4403C82.7353 72.9111 82.532 73.3167 82.2112 73.5537C80.489 74.5773 78.5691 75.2246 76.7131 75.85C75.17 76.3704 73.5746 76.9084 72.1052 77.657L72.1047 77.6574C71.0432 78.1885 69.9719 78.7477 68.9357 79.288C65.4635 81.1 61.8732 82.9736 58.0385 84.1153ZM57.9992 103.501L57.7932 103.771L58.0603 103.619L58.0936 103.585L58.0927 103.406L57.9992 103.501ZM58.1723 102.919L58.3112 102.763L58.289 102.963L58.27 102.96L58.2867 102.983L58.2487 103.243L58.1339 102.969L58.1723 102.919ZM58.226 102.954L58.2394 102.961L58.2473 102.957L58.226 102.954ZM46.7482 63.8185L46.7617 63.8213L46.7751 63.8176C50.5682 62.8315 54.1487 61.057 57.6117 59.3412C59.4228 58.4435 61.2959 57.5153 63.1705 56.7148C64.1001 56.356 65.0732 56.0644 66.0145 55.7824C67.3219 55.3908 68.6732 54.9852 69.9209 54.3977C70.2677 54.3 70.5357 53.9607 70.6561 53.4672C70.7881 52.9273 70.7265 52.1991 70.3552 51.851C70.1631 51.6718 69.9135 51.6227 69.6209 51.7167C67.045 53.1723 64.2959 54.5269 61.2209 55.8556C59.2719 56.5292 57.3543 57.3635 55.4996 58.1704C53.6654 58.9685 51.7686 59.7935 49.8362 60.4658C49.626 60.576 49.2126 60.7185 48.7339 60.8838C47.2844 61.3834 46.1742 61.8037 46.1561 62.269C46.0547 62.607 46.0441 63.1301 46.2598 63.4797C46.3756 63.6676 46.5399 63.782 46.7482 63.8185ZM54.1848 77.1153L54.2015 77.1232L54.22 77.1204C57.307 76.6922 60.1607 75.1162 62.9205 73.5931C63.3316 73.3658 63.7399 73.1403 64.1464 72.9204C64.601 72.6676 64.7103 71.8385 64.4987 71.3204C64.3478 70.9519 64.0617 70.7954 63.7121 70.8917L63.6959 70.8986C61.5529 72.1922 59.1834 73.2834 56.4515 74.2352C56.2357 74.313 56.0214 74.394 55.807 74.475C55.2547 74.6838 54.6834 74.9 54.101 75.051L54.0811 75.0602C53.7672 75.2732 53.5904 75.7213 53.6307 76.2014C53.6663 76.631 53.8737 76.9727 54.1848 77.1153ZM69.8274 56.3292C68.7987 56.7454 67.739 57.1908 66.7135 57.6209C64.5334 58.5366 62.2788 59.4829 60.0589 60.2667C57.901 60.9644 55.8631 61.9454 53.8927 62.894C52.4918 63.5685 51.0427 64.2662 49.5807 64.8449C49.2603 64.6699 48.9677 64.7408 48.7728 65.0435C48.4533 65.5408 48.4783 66.5607 48.951 66.8894C49.1746 66.9912 49.4172 67.0361 49.6723 67.0361C50.7168 67.0357 51.9825 66.2857 53.1246 65.6079C53.6649 65.2875 54.1751 64.9852 54.5973 64.807C55.5658 64.2741 56.6057 63.8454 57.6117 63.4315C58.1982 63.1898 58.8047 62.9398 59.3913 62.6718C60.0353 62.3713 60.6839 62.0482 61.3112 61.7357C63.2561 60.7658 65.2677 59.7635 67.4464 59.2931C67.8357 59.1398 68.3654 59.0547 68.926 58.9639C69.9709 58.7945 71.1547 58.6033 71.6478 57.8977C71.8746 57.5736 71.9408 57.1584 71.8455 56.6644C71.7996 56.438 71.6742 56.0334 71.3432 55.8561C71.0006 55.7315 70.6844 55.9102 70.3793 56.0838C70.2024 56.1848 70.0191 56.2889 69.8274 56.3292ZM59.8482 69.8486C61.0594 69.2014 62.3121 68.5315 63.6043 68.0033L63.6135 67.9986C64.051 67.7329 64.1094 67.1167 64.026 66.6685C63.9769 66.425 63.8408 66.1213 63.6061 65.9982C63.4723 65.9278 63.3265 65.925 63.1732 65.9908C62.257 66.363 61.3594 66.8111 60.4913 67.2449C60.3131 67.3343 60.1344 67.4232 59.9557 67.5121L59.5186 67.7306C58.0182 68.481 56.4668 69.2579 54.845 69.7931C54.5149 69.9102 54.1885 70.0417 53.8732 70.1685C53.4121 70.3542 52.9348 70.5459 52.4279 70.7014C52.1807 70.8213 52.0038 71.0584 51.9293 71.369C51.8288 71.7871 51.9219 72.2801 52.1612 72.5963L52.1732 72.6084C52.3654 72.756 52.5723 72.8135 52.7871 72.8135C53.1626 72.8135 53.5635 72.6385 53.9557 72.4672C54.2394 72.3435 54.507 72.2264 54.7612 72.1792C56.5533 71.6102 58.2283 70.7148 59.8482 69.8486ZM89.0617 81.5801C88.5709 81.5801 88.3885 82.2361 88.3885 82.6496C88.3885 83.063 88.5709 83.719 89.0617 83.719C89.5524 83.719 89.7348 83.063 89.7348 82.6496C89.7348 82.2361 89.5524 81.5801 89.0617 81.5801ZM82.4228 85.2199C82.0705 84.9486 81.5464 85.2704 81.0394 85.582C80.7408 85.7658 80.4589 85.9394 80.233 85.9815L80.2195 85.9857C79.9682 86.094 79.6978 86.1852 79.4362 86.2727C78.8191 86.4801 78.1811 86.694 77.6936 87.1773C77.4876 87.5176 77.4376 88.0292 77.5714 88.4209C77.6658 88.6982 77.8413 88.8931 78.0793 88.9852L78.0941 88.9908L78.1098 88.9889C78.6302 88.9255 79.1492 88.726 79.651 88.5329C79.9626 88.413 80.2848 88.2889 80.6066 88.1986C81.5672 87.8209 82.5779 87.331 82.7964 86.5621C82.9121 86.1547 82.7904 85.7074 82.4348 85.2324L82.4228 85.2199ZM85.1955 83.1014C84.8478 82.8593 84.5899 82.9005 84.4353 82.9773C84.1728 83.1074 83.9996 83.4459 83.9834 83.8602C83.9658 84.3051 84.1371 84.8949 84.6705 85.2227C84.9075 85.5755 85.12 85.6658 85.2756 85.6658C85.3043 85.6658 85.3307 85.663 85.3552 85.6574C85.602 85.607 85.8015 85.3153 85.8765 84.8968C85.9867 84.2843 85.8186 83.4917 85.1955 83.1014ZM64.8922 93.7917C64.7348 93.5426 64.5719 93.2848 64.52 92.9931L64.5158 92.9792C64.3186 92.5158 64.0149 92.525 63.8941 92.551C63.5644 92.6213 63.2918 93.0264 63.2992 93.4292C63.2418 94.126 63.4936 94.8625 64.0663 95.6787C64.232 95.9473 64.4121 96.0158 64.5533 96.0158C64.6145 96.0158 64.6682 96.0028 64.7103 95.9875C65.0626 95.8602 65.3487 95.3121 65.2885 94.8949C65.3168 94.4639 65.1006 94.1222 64.8922 93.7917ZM76.2047 88.2098C75.9899 87.6963 75.7182 87.4107 75.4385 87.4065C75.4362 87.406 75.4344 87.406 75.432 87.406C75.2413 87.406 75.0705 87.5422 74.9617 87.7801C74.7209 88.3074 74.7538 89.5283 75.8293 90.731C75.932 90.8773 76.0742 90.9551 76.2353 90.9551C76.2603 90.9551 76.2862 90.9533 76.3117 90.9496C76.5478 90.9148 76.7672 90.7223 76.8422 90.4889C77.2394 89.688 76.7441 88.9792 76.3066 88.3537L76.2047 88.2098ZM86.7765 82.1172C86.2857 82.1172 86.1029 82.7727 86.1029 83.1857C86.1029 83.5991 86.2857 84.2542 86.7765 84.2542C87.2668 84.2542 87.4496 83.5991 87.4496 83.1857C87.4496 82.7727 87.2668 82.1172 86.7765 82.1172ZM74.402 89.1269C74.2107 88.7574 74.0131 88.375 73.6399 88.1931L73.6182 88.1866C73.3996 88.1672 73.2131 88.244 73.0779 88.4111C72.8172 88.7348 72.7876 89.3473 72.914 89.7394C72.983 89.8685 73.0455 90.0116 73.1121 90.163C73.3094 90.6121 73.5131 91.076 73.92 91.3023L73.9459 91.3102C73.9654 91.3116 73.9848 91.3125 74.0038 91.3125C74.2316 91.3125 74.4223 91.2088 74.557 91.0107C74.8279 90.613 74.8149 89.9181 74.6297 89.5357C74.5487 89.4116 74.4774 89.2732 74.402 89.1269ZM66.9607 91.6829C66.6455 91.6672 66.4107 91.9334 66.3172 92.4056L66.3168 92.4074C66.1932 93.1222 66.4052 93.9084 66.9089 94.6125C67.0191 94.8227 67.2047 94.944 67.4117 94.944C67.4265 94.944 67.4413 94.9431 67.4561 94.9422C67.7029 94.9213 67.9177 94.7403 68.0006 94.4871C68.2672 93.9389 68.1436 93.2727 67.6524 92.6098C67.607 92.0334 67.264 91.7023 66.9607 91.6829ZM69.0191 90.2699C68.7367 90.3783 68.4955 90.7824 68.5006 91.1371C68.401 91.6764 69.2066 93.5986 69.6973 93.7709L69.7131 93.7764L69.7293 93.7736C70.101 93.7088 70.3496 93.5348 70.4682 93.2556C70.8399 92.3797 69.7959 90.7695 69.5783 90.4496C69.4131 90.2584 69.2145 90.194 69.0191 90.2699ZM72.5177 89.9292C72.4001 89.5718 72.2788 89.2019 71.8496 89.1408L71.8339 89.1385L71.8186 89.144C71.5061 89.2584 71.2978 89.4699 71.2001 89.7718C70.9686 90.488 71.4283 91.551 71.7959 92.0945C71.9672 92.3121 72.1422 92.4218 72.3172 92.4218C72.3399 92.4218 72.3626 92.4204 72.3853 92.4167C72.6015 92.3815 72.7936 92.1713 72.9126 91.8403C73.0649 91.4153 73.0765 90.8232 72.802 90.5116C72.6617 90.3672 72.5885 90.1449 72.5177 89.9292Z" fill="#82A1FD"/>
<path d="M44.5368 50.0427C44.4451 50.4872 44.1896 50.7524 43.8609 50.7524C43.8368 50.7524 43.8127 50.7506 43.7877 50.7478L43.7817 50.7469C42.59 50.4876 41.6308 49.7423 40.703 49.021C40.5396 48.8936 40.3761 48.7663 40.2118 48.6423C40.1289 48.5927 40.0405 48.5409 39.9525 48.489C39.1289 48.0061 38.3511 47.5497 38.7238 46.3649C38.7979 46.0733 39.0058 45.8751 39.2067 45.6835C39.3886 45.5099 39.5604 45.346 39.6451 45.114C39.8687 44.7362 40.0039 44.3029 40.1349 43.8839C40.3197 43.2941 40.5099 42.6844 40.9359 42.2386L40.9511 42.2224L40.9729 42.2191C41.2928 42.1728 41.5271 42.2506 41.6715 42.4501C42.2923 43.3075 40.9516 46.1724 40.7553 46.5798C41.0201 46.7756 41.2794 46.9909 41.5303 47.1997C42.2683 47.8126 43.0317 48.4469 44.0053 48.6441C44.4697 48.7835 44.6535 49.4798 44.5368 50.0427ZM67.4465 37.2886C67.2062 36.1811 66.0891 35.7682 65.1035 35.4034C64.8298 35.302 64.571 35.2066 64.3322 35.0978C64.1178 35.0186 63.9072 34.9131 63.703 34.8108C63.3951 34.6561 63.0771 34.4969 62.7335 34.421L62.721 34.4182L62.7081 34.421C62.4104 34.4788 62.1914 34.7006 62.0919 35.0441C61.9511 35.5307 62.0845 36.1409 62.4002 36.4381C63.0178 36.9038 63.74 37.2006 64.4382 37.4876C64.9488 37.6974 65.4761 37.914 65.9562 38.1946C65.9076 38.6015 65.7192 39.0256 65.5368 39.4362C65.1947 40.2071 64.8405 41.0043 65.3521 41.7649C65.4553 41.9061 65.5937 41.9807 65.7484 41.9807C65.7734 41.9807 65.7988 41.9788 65.8247 41.9747C66.047 41.9404 66.2488 41.7617 66.328 41.5293C66.4058 41.3386 66.4877 41.1464 66.5701 40.952C67.0678 39.7798 67.5826 38.5682 67.4465 37.2886ZM61.2132 45.383C61.0947 47.6631 59.3113 49.364 56.4368 49.946C56.6613 50.5936 56.9275 51.3501 57.216 52.1061C57.4502 52.439 57.4914 53.2154 57.1956 53.627C57.1072 53.7497 56.9604 53.8779 56.7331 53.8779C56.6706 53.8779 56.6021 53.8682 56.5275 53.8464L56.5072 53.8404L56.4947 53.8242C55.9294 53.0867 55.7271 52.1237 55.5312 51.1918C55.4553 50.8311 55.3771 50.4589 55.2789 50.1061C54.7206 50.1474 54.1738 50.1381 53.6535 50.0784C52.6002 49.9737 51.5289 49.7839 50.4928 49.5997C49.9553 49.5043 49.3997 49.4061 48.8599 49.3219C48.5386 49.2168 48.421 48.77 48.49 48.4154C48.5516 48.0964 48.7525 47.9089 48.9997 47.9247C50.4646 48.1362 52.0692 48.1186 53.9099 47.8728C54.097 47.8335 54.2905 47.7918 54.4854 47.7474C54.0502 46.4659 53.6025 45.1427 53.1993 43.82C51.0164 44.6881 48.878 45.3691 46.7266 44.3409C45.2085 43.5057 45.0206 41.5872 45.1298 40.1242C45.2104 38.1946 46.9803 36.5469 49.9891 35.5997C49.8169 35.1464 49.6715 34.72 49.546 34.2978C49.4562 33.5001 49.3817 32.1015 49.8627 31.5774C49.9965 31.4321 50.1673 31.3612 50.3618 31.3654L50.3863 31.371C51.0048 31.6497 50.9572 32.3214 50.915 32.9145C50.8988 33.1413 50.8835 33.3557 50.9039 33.5395C51.0803 34.0349 51.291 34.5839 51.5442 35.2024C53.0646 34.8997 54.5609 34.8376 55.6576 35.0321C57.5002 34.9511 57.971 35.8969 58.0882 36.3071C58.2493 36.8733 58.0785 37.5029 57.7076 37.7112C57.491 37.8335 57.2456 37.7751 57.0317 37.5524C55.5192 37.2182 53.9275 37.1251 52.4234 37.2849C52.9016 38.4085 53.3965 39.6052 53.784 40.839C54.6447 40.508 55.528 40.233 56.4113 40.0219L56.415 40.021C57.7567 39.783 58.84 40.0015 59.6359 40.6686C60.9386 41.7599 61.2127 43.8344 61.2132 45.383ZM51.1516 38.3029C51.0382 38.0538 50.9247 37.8052 50.8127 37.5561C50.391 37.6552 49.9743 37.777 49.5734 37.9186C49.3572 38.0404 49.1178 38.1649 48.8863 38.2858C47.9484 38.7747 46.9789 39.2802 46.3664 40.1182C46.2632 40.5131 45.8627 42.3474 47.1706 42.8376L47.1715 42.8381C48.8169 43.4913 50.2859 42.6483 51.7067 41.833C51.9558 41.6904 52.2122 41.5432 52.4641 41.4075C52.0831 40.345 51.6099 39.3071 51.1516 38.3029ZM59.6673 44.1108C59.6493 43.9751 59.6312 43.8349 59.6229 43.7029C59.59 43.2256 59.4048 42.8724 59.0738 42.6524C58.1979 42.0724 56.603 42.5506 56.1354 42.7112C55.5516 42.8862 54.9724 43.1085 54.4766 43.3057C54.5525 43.6186 54.6261 43.9325 54.6993 44.2464C54.9497 45.3159 55.2085 46.4214 55.5622 47.4802C57.3951 46.9756 58.6516 46.3048 59.5122 45.371C59.7877 45.0224 59.7266 44.5585 59.6673 44.1108Z" fill="#01B695"/>
<path d="M56.821 101.727C56.6872 101.82 56.4955 101.898 56.2307 101.898C55.9654 101.898 55.627 101.82 55.1992 101.599C55.0344 101.476 54.8622 101.359 54.6793 101.236C53.789 100.635 52.7798 99.9543 53.1789 98.7502C53.2821 98.4428 53.439 98.2677 53.6451 98.2298C53.8853 98.1863 54.1789 98.3455 54.4492 98.6705C54.5307 98.7233 54.6127 98.7752 54.6946 98.8261C54.8779 98.9414 55.0654 99.0585 55.2446 99.1909L55.0298 98.8687C54.8534 98.6025 54.671 98.327 54.4839 98.0622C54.4154 97.9645 54.3488 97.8664 54.2821 97.7677C54.133 97.5488 53.9789 97.3219 53.8085 97.1145L53.7089 96.9937C53.4724 96.7057 53.2284 96.4076 52.9645 96.1386C52.8451 96.0168 52.7168 95.9002 52.5918 95.7877C52.4724 95.6793 52.3488 95.5678 52.233 95.4502C52.0849 95.2923 51.9395 95.1344 51.7941 94.977L51.5381 94.7002C51.4548 94.6099 51.3701 94.5205 51.2858 94.4316C51.1585 94.2978 51.0316 94.164 50.9089 94.0261C50.3775 93.3752 49.9307 92.6497 49.5265 91.9617C49.4395 91.8057 49.3548 91.6506 49.2701 91.4951C49.227 91.4168 49.1839 91.3381 49.1409 91.2599V91.3238L49.0187 91.0395L49.0335 91.0312L49.0182 91.0372C48.7696 90.5923 48.5039 90.1478 48.2474 89.7178C48.0136 89.3265 47.7719 88.9224 47.5441 88.5187C47.1307 87.7844 46.665 87.0654 46.2145 86.3701L46.002 86.0418C45.8964 85.8668 45.7937 85.6928 45.6909 85.5187C45.3622 84.9627 45.0224 84.3872 44.6312 83.8599C44.2312 83.1085 43.8182 82.3187 43.3992 81.5039C42.7682 80.4108 42.1645 79.2752 41.5802 78.1765C40.6376 76.4039 39.6626 74.5701 38.5464 72.864C38.1145 72.1863 37.6941 71.5034 37.2284 70.7451C37.1659 70.5978 37.1071 70.4594 37.0455 70.321C36.8437 69.8654 36.6168 69.4122 36.3974 68.9733C36.2464 68.6719 36.0904 68.3608 35.9437 68.0506C35.8631 67.8798 35.7761 67.7103 35.6844 67.5469L35.6784 67.5377C35.6599 67.5039 35.6404 67.4701 35.6205 67.4358C35.5816 67.3691 35.5418 67.302 35.5001 67.2358L35.3728 67.0395C35.3515 67.0057 35.3302 66.9742 35.308 66.9432C35.2594 66.8724 35.2103 66.8039 35.1594 66.7363L34.9349 66.2381C34.8122 65.9631 34.6978 65.6789 34.5872 65.4039C34.5344 65.2728 34.4821 65.1418 34.4284 65.0117C34.1733 64.3918 33.9298 63.7557 33.6941 63.14L33.5122 62.6664C33.3969 62.3664 33.2826 62.0668 33.1677 61.7668L33.0589 61.4812C32.9497 61.1941 32.8302 60.9048 32.7145 60.6252L32.5895 60.3215C32.4557 59.9974 32.3048 59.6608 32.1279 59.2928C32.089 59.2122 32.0492 59.133 32.0089 59.0534L31.927 58.8904L31.9793 58.8608C32.5395 58.5437 33.1302 58.2719 33.6872 58.021L33.746 57.9941L33.7714 58.0534C34.2302 59.1122 34.5631 59.9303 34.8515 60.7076C35.7613 63.2377 36.8529 66.1673 38.2955 68.9247C38.9177 70.09 39.6599 71.2154 40.3784 72.3039C41.4131 73.8724 42.4835 75.4946 43.2182 77.2724C44.9525 81.0289 47.1816 84.8404 50.233 89.2659C51.9071 91.1793 53.6802 93.2386 55.2835 95.4534C55.5011 95.7446 55.7214 96.0802 55.9562 96.4789L55.9997 96.5802C56.015 96.6173 56.0302 96.6539 56.046 96.6904C56.2631 97.1858 56.5062 97.6798 56.7409 98.1576L56.9113 98.5062C57.0548 98.8187 57.1756 99.1145 57.2812 99.4122L57.2946 99.465C57.3048 99.7043 57.3094 99.9432 57.3094 100.175C57.3909 100.877 57.208 101.46 56.821 101.727ZM41.6386 91.6076L41.5196 91.4645C41.1201 90.9719 40.7293 90.4511 40.3275 89.8756C39.7381 88.9252 39.1557 87.9488 38.5927 87.0043C37.4983 85.1691 36.3668 83.2715 35.1404 81.4895L35.1307 81.4742C34.077 79.9182 32.9589 78.414 31.9969 77.1381C31.3432 76.1173 30.7335 75.0432 30.1437 74.0048L30.0599 73.8566L30.0478 73.8418C30.0275 73.8228 30.0076 73.8015 29.9863 73.7784C29.9302 73.7178 29.883 73.6515 29.833 73.5821L29.8127 73.5534C29.7256 73.4326 29.6381 73.3122 29.5492 73.1928C29.4367 73.0418 29.3279 72.8886 29.2182 72.7358C29.1529 72.6432 29.0867 72.5511 29.0205 72.4594C28.6742 71.984 28.3029 71.5316 27.9844 71.152L27.9312 71.0895C27.764 70.8932 27.5909 70.6904 27.4381 70.4789C27.252 70.2187 27.1029 70.021 26.9525 69.8358C26.9191 69.7988 26.8858 69.7631 26.8497 69.7261L26.6441 69.5326C26.4714 69.3863 26.2812 69.2381 26.0252 69.0511C25.9363 68.9918 25.8427 68.9353 25.7275 68.871L25.6414 68.8298C25.4136 68.7228 25.1816 68.634 25.0029 68.5682C24.8974 68.5335 24.8043 68.5066 24.7136 68.484C24.6247 68.4691 24.5363 68.4576 24.4437 68.4483C24.3437 68.4428 24.2437 68.4404 24.1344 68.4414L24.0701 68.4502L24.0557 68.4627C24.0085 68.5048 23.9613 68.5353 23.9103 68.5566C23.8497 68.5835 23.7886 68.6071 23.7279 68.6312L23.6427 68.6701L23.6219 68.689C23.59 68.7279 23.5589 68.7678 23.5265 68.8122C23.4858 68.8784 23.4474 68.9437 23.4099 69.0103L23.4025 69.0321C23.3807 69.1742 23.3381 69.2895 23.2719 69.384L23.2289 69.533C23.1668 69.8594 23.1233 70.1265 23.0941 70.365C22.564 72.3303 23.4714 74.3877 24.2724 76.2025L24.3525 76.3844C24.6511 76.9803 24.9835 76.9238 25.1127 76.8715C25.4849 76.721 25.6974 76.089 25.5437 75.5974C25.4099 75.0932 25.2205 74.6117 25.0372 74.146C24.7728 73.4728 24.4997 72.777 24.3983 72.0215C24.3881 71.6039 24.4187 71.0909 24.7414 70.8289C24.7909 70.8002 24.8363 70.7664 24.8775 70.7289C24.9701 70.708 25.0733 70.6941 25.1853 70.689C25.3696 70.6793 25.5478 70.7062 25.7316 70.7728C25.9363 70.8451 26.108 70.9659 26.3127 71.1168C26.3191 71.1215 26.3256 71.1265 26.3395 71.1372C26.3738 71.1571 26.4071 71.1779 26.44 71.1988L26.4566 71.209C26.6289 71.3178 26.8089 71.4631 27.0085 71.6539C27.1951 71.8321 27.3789 72.039 27.5552 72.2682C27.6918 72.4465 27.8247 72.6279 27.958 72.8094C28.0673 72.9585 28.1765 73.108 28.2877 73.2553C28.3525 73.3414 28.4173 73.427 28.4821 73.5127C28.7293 73.8386 28.9849 74.1752 29.2099 74.5247C29.4469 74.8937 29.6793 75.2752 29.9043 75.6441L30.0775 75.9265L30.0765 75.9275C30.0816 75.9363 30.0867 75.9451 30.0923 75.9534L30.1164 75.9918C30.3367 76.3414 30.5608 76.6886 30.7849 77.0358C30.9927 77.3571 31.2006 77.6789 31.4048 78.0029C31.702 78.4752 31.9895 78.9659 32.2677 79.4404L32.3603 79.5974C32.5543 79.9029 32.7279 80.1798 32.889 80.4696C32.9002 80.489 32.9099 80.5099 32.9228 80.5386L33.0932 80.815C33.1677 80.9353 33.2418 81.0557 33.3154 81.177C33.3853 81.2904 33.4534 81.4057 33.5228 81.5228L33.6089 81.6562C33.6798 81.7664 33.7511 81.877 33.821 81.9881C34.3386 82.8025 34.8469 83.6187 35.3326 84.4145C35.7548 85.108 36.1682 85.8015 36.5552 86.4525C37.4543 87.9622 38.5015 89.7164 39.552 91.4307C39.5714 91.4566 39.5909 91.4826 39.6103 91.5085H39.6099L39.6117 91.5372L39.6131 91.539V91.5775H39.6414L39.671 91.6261L39.6714 91.6265L39.6784 91.6224L39.7909 91.8191L39.79 91.8201L39.7918 91.8446L39.8089 91.8529L40.0492 92.2585L39.9946 92.0418L40.0687 92.1159C40.2335 92.334 40.3983 92.5534 40.5603 92.7742C40.6164 92.8492 40.6714 92.9252 40.7265 93.0006L40.8927 93.2275C40.8997 93.2395 40.908 93.2511 40.9154 93.2617L41.2839 93.7747C41.4002 93.9358 41.4446 94.1404 41.4062 94.3358L41.4011 94.3608L41.4826 94.4886L41.6492 94.4071C42.1344 94.1599 42.6626 93.8826 43.3117 93.5321L43.3927 93.4886L43.3233 93.4284C42.7043 92.8872 42.1626 92.2367 41.6386 91.6076Z" fill="#000001"/>
</svg>
