<svg width="96" height="96" viewBox="0 0 96 96" fill="none" xmlns="http://www.w3.org/2000/svg">
<mask id="mask0_959_7551" style="mask-type:luminance" maskUnits="userSpaceOnUse" x="3" y="6" width="84" height="84">
<path d="M3.3606 6.15039H86.874V89.5995H3.3606V6.15039Z" fill="white"/>
</mask>
<g mask="url(#mask0_959_7551)">
<path d="M81.6869 47.8418C81.6869 68.0474 65.2235 84.4798 45.0064 84.4293C24.9462 84.3798 8.56101 67.995 8.51101 47.9349C8.46009 27.7177 24.893 11.2534 45.099 11.2534C54.4981 11.2534 63.0791 14.8168 69.5661 20.6626L73.1744 17.0534C65.7559 10.2816 55.8893 6.14828 45.0754 6.1543C22.1712 6.1668 3.46194 24.845 3.41148 47.7497C3.36101 70.9663 22.3883 89.8349 45.6629 89.5256C68.5124 89.2219 86.9518 70.3853 86.7851 47.5344C86.7559 43.5585 86.1656 39.7145 85.0925 36.0747L80.8971 40.2705C81.4133 42.714 81.6869 45.2464 81.6869 47.8418Z" fill="#61666B"/>
</g>
<path d="M91.5625 18.0741L87.6237 14.1352C87.0862 13.5981 86.3824 13.3301 85.6783 13.3301C84.9737 13.3301 84.27 13.5981 83.7324 14.1352L43.8426 54.0254L30.1028 40.2856C29.5653 39.7481 28.8616 39.4796 28.1574 39.4796C27.4528 39.4796 26.7487 39.7481 26.2116 40.2856L22.2732 44.2245C21.1987 45.2991 21.1987 47.0412 22.2732 48.1157L41.8968 67.7398C42.4343 68.2764 43.1389 68.5449 43.8426 68.5449C44.5468 68.5449 45.251 68.2764 45.788 67.7398L91.5625 21.9653C92.6371 20.8907 92.6371 19.1486 91.5625 18.0741Z" fill="#14C782"/>
</svg>
