<svg width="96" height="96" viewBox="0 0 96 96" fill="none" xmlns="http://www.w3.org/2000/svg">
<mask id="mask0_12727_9702" style="mask-type:luminance" maskUnits="userSpaceOnUse" x="14" y="12" width="57" height="72">
<path d="M14.3857 12.4443H70.4001V83.5555H14.3857V12.4443Z" fill="white"/>
</mask>
<g mask="url(#mask0_12727_9702)">
<path d="M62.9191 12.5215H47.9857C47.9857 14.584 46.1191 18.1266 42.3857 18.1266C38.6524 18.1266 36.7857 14.584 36.7857 12.5215H21.8524C17.7293 12.5215 14.3857 15.8678 14.3857 19.9946V76.0451C14.3857 80.1724 17.7293 83.5187 21.8524 83.5187H62.9191C67.0427 83.5187 70.3857 80.1724 70.3857 76.0451V19.9946C70.3857 15.8678 67.0427 12.5215 62.9191 12.5215Z" fill="#455A64"/>
</g>
<path d="M62.9192 77.914H21.8525C20.8224 77.914 19.9858 77.077 19.9858 76.0455V19.995C19.9858 18.964 20.8224 18.127 21.8525 18.127H62.9192C63.9497 18.127 64.7858 18.964 64.7858 19.995V76.0455C64.7858 77.077 63.9497 77.914 62.9192 77.914Z" fill="white"/>
<path d="M46.1189 12.5215C46.1189 14.584 44.4486 16.2581 42.3856 16.2581C40.3231 16.2581 38.6523 14.584 38.6523 12.5215H34.9189V19.9946C34.9189 22.0594 36.5898 23.7317 38.6523 23.7317H46.1189C48.1819 23.7317 49.8523 22.0594 49.8523 19.9946V12.5215H46.1189Z" fill="#90A4AE"/>
<mask id="mask1_12727_9702" style="mask-type:luminance" maskUnits="userSpaceOnUse" x="34" y="5" width="16" height="16">
<path d="M34.8442 5.04297H49.8961V20.03H34.8442V5.04297Z" fill="white"/>
</mask>
<g mask="url(#mask1_12727_9702)">
<path d="M42.3856 5.04883C38.268 5.04883 34.9189 8.40022 34.9189 12.522C34.9189 16.6437 38.268 19.9951 42.3856 19.9951C46.5037 19.9951 49.8523 16.6437 49.8523 12.522C49.8523 8.40022 46.5037 5.04883 42.3856 5.04883ZM42.3856 16.2586C40.325 16.2586 38.6523 14.5845 38.6523 12.522C38.6523 10.4595 40.325 8.7854 42.3856 8.7854C44.4467 8.7854 46.1189 10.4595 46.1189 12.522C46.1189 14.5845 44.4467 16.2586 42.3856 16.2586Z" fill="#90A4AE"/>
</g>
<path d="M42.3854 61.1366C37.915 61.1366 37.7188 54.5602 37.7188 54.5602V48.9551H47.0521V54.5602C47.0521 54.5602 46.8563 61.1366 42.3854 61.1366Z" fill="#FF9800"/>
<path d="M52.6523 43.35C52.6523 44.381 51.8162 45.218 50.7856 45.218C49.7555 45.218 48.9189 44.381 48.9189 43.35C48.9189 42.3185 49.7555 41.4814 50.7856 41.4814C51.8162 41.4814 52.6523 42.3185 52.6523 43.35Z" fill="#FFA726"/>
<path d="M35.8525 43.35C35.8525 44.381 35.0164 45.218 33.9858 45.218C32.9557 45.218 32.1191 44.381 32.1191 43.35C32.1191 42.3185 32.9557 41.4814 33.9858 41.4814C35.0164 41.4814 35.8525 42.3185 35.8525 43.35Z" fill="#FFA726"/>
<path d="M50.7858 37.7447C50.7858 30.6114 33.9858 33.1017 33.9858 37.7447V44.2841C33.9858 48.9267 37.7474 52.6915 42.3858 52.6915C47.0247 52.6915 50.7858 48.9267 50.7858 44.2841V37.7447Z" fill="#FFB74D"/>
<path d="M42.3856 29.3369C36.7147 29.3369 33.0522 33.9365 33.0522 39.6128V41.7462L34.9189 43.3494V38.6786L46.1189 34.9415L49.8522 38.6786V43.3494L51.7189 41.724V39.6128C51.7189 35.8536 50.7485 32.1263 46.1189 31.205L45.1856 29.3369H42.3856Z" fill="#424242"/>
<path d="M45.1855 43.3493C45.1855 43.865 45.6036 44.2836 46.1189 44.2836C46.6323 44.2836 47.0522 43.865 47.0522 43.3493C47.0522 42.8336 46.6323 42.415 46.1189 42.415C45.6036 42.415 45.1855 42.8336 45.1855 43.3493Z" fill="#784719"/>
<path d="M37.7188 43.3493C37.7188 43.865 38.1368 44.2836 38.6521 44.2836C39.1655 44.2836 39.5854 43.865 39.5854 43.3493C39.5854 42.8336 39.1655 42.415 38.6521 42.415C38.1368 42.415 37.7188 42.8336 37.7188 43.3493Z" fill="#784719"/>
<path d="M47.0521 54.5596C47.0521 54.5596 45.4151 56.4276 42.3855 56.4276C39.354 56.4276 37.7188 54.5596 37.7188 54.5596C37.7188 54.5596 27.4521 56.4147 27.4521 66.7036H57.3188C57.3188 56.4522 47.0521 54.5596 47.0521 54.5596Z" fill="#2196F3"/>
<mask id="mask2_12727_9702" style="mask-type:luminance" maskUnits="userSpaceOnUse" x="44" y="53" width="38" height="38">
<path d="M44.2075 53.5703H81.5858V90.9981H44.2075V53.5703Z" fill="white"/>
</mask>
<g mask="url(#mask2_12727_9702)">
<path d="M81.5858 72.3083C81.5858 82.6273 73.2288 90.9917 62.9191 90.9917C52.6098 90.9917 44.2524 82.6273 44.2524 72.3083C44.2524 61.9894 52.6098 53.625 62.9191 53.625C73.2288 53.625 81.5858 61.9894 81.5858 72.3083Z" fill="#F44336"/>
</g>
<path d="M72.8186 78.2536L68.8589 82.2171L53.0195 66.3638L56.9793 62.4004L72.8186 78.2536Z" fill="white"/>
<path d="M56.9778 82.2157L53.0181 78.2522L68.8565 62.4004L72.8162 66.3638L56.9778 82.2157Z" fill="white"/>
</svg>
