<svg width="20" height="20" viewBox="0 0 20 20" fill="none" xmlns="http://www.w3.org/2000/svg">
<path d="M4.16667 2.5H12.5C12.942 2.5 13.366 2.67559 13.6785 2.98816C13.9911 3.30072 14.1667 3.72464 14.1667 4.16667V17.5H4.16667C3.72464 17.5 3.30072 17.3244 2.98816 17.0118C2.67559 16.6993 2.5 16.2754 2.5 15.8333V4.16667C2.5 3.72464 2.67559 3.30072 2.98816 2.98816C3.30072 2.67559 3.72464 2.5 4.16667 2.5V2.5Z" stroke="#616161" stroke-width="1.7" stroke-linecap="round" stroke-linejoin="round"/>
<path d="M14.1665 10H17.4998V15.8333C17.4998 16.2754 17.3242 16.6993 17.0117 17.0118C16.6991 17.3244 16.2752 17.5 15.8332 17.5H14.1665V10Z" stroke="#616161" stroke-width="1.7" stroke-linecap="round" stroke-linejoin="round"/>
<path d="M5.8335 6.66602H10.8335" stroke="#616161" stroke-width="1.7" stroke-linecap="round" stroke-linejoin="round"/>
<path d="M5.8335 10H10.8335" stroke="#616161" stroke-width="1.7" stroke-linecap="round" stroke-linejoin="round"/>
<path d="M5.8335 13.334H8.3335" stroke="#616161" stroke-width="1.7" stroke-linecap="round" stroke-linejoin="round"/>
</svg>
