<svg width="96" height="96" viewBox="0 0 96 96" fill="none" xmlns="http://www.w3.org/2000/svg">
<path d="M86.6946 71.2634C86.6742 70.5786 86.5427 69.8958 86.2992 69.2523C85.4506 65.8097 83.2205 63.0254 81.5247 59.9898C79.9066 55.8796 76.802 52.7249 74.1687 49.2671C72.1687 46.5888 70.6228 43.6166 69.3784 40.5198C68.7228 38.6448 67.521 37.0643 66.5492 35.355C65.0645 31.5638 63.2103 27.9365 61.6622 24.174C60.9136 22.3018 60.1511 20.4351 59.3927 18.5675C58.7219 16.8124 58.3719 14.9523 57.6339 13.2208C57.3932 12.6597 57.1728 12.0893 56.9497 11.5199C56.7025 10.8874 56.4501 10.2574 56.1664 9.64115C56.0464 9.38004 55.9224 9.12124 55.7881 8.86707C55.6441 8.65087 55.5052 8.43235 55.3682 8.21244C54.5867 6.95504 53.9159 5.63467 53.2696 4.30781C53.2381 4.24346 53.2066 4.17957 53.1756 4.11522C52.9326 3.86291 52.6751 3.88467 52.4256 4.02587C52.0552 4.23513 51.7034 4.71059 51.4441 4.96105C50.5765 5.84855 49.7001 6.72957 48.8488 7.63467C48.1886 7.39485 47.6682 6.87772 47.0576 6.54068C46.1946 6.00874 45.1876 5.77494 44.3335 5.22587C44.3187 5.21892 44.3057 5.21615 44.2914 5.21059C44.0742 5.1217 43.9062 5.15781 43.7719 5.26939C43.4608 5.52818 43.3265 6.17309 43.1497 6.49578C42.6312 7.53004 42.2339 8.60967 41.8589 9.70133C40.7872 8.94254 39.5589 8.46615 38.4455 7.77355C38.1224 7.60504 37.7242 7.12078 37.3927 7.5217C36.6543 8.53189 36.4275 9.81059 35.977 10.9583C34.9534 9.81661 33.8585 8.56939 32.2298 8.44346C31.921 8.35504 31.5497 8.15642 31.3136 8.49115C30.965 8.94578 31.0585 9.50133 31.0955 10.0305C31.1191 10.9546 31.0029 11.893 30.8011 12.7939C29.3066 12.2384 27.7196 11.9074 26.327 11.1027C24.7015 9.95781 25.2816 13.018 25.1654 13.8379C24.3219 12.9268 23.258 11.9786 22.065 11.6152C20.6839 11.7874 20.2085 16.0888 19.5214 17.3013C17.8617 16.3416 16.4636 15.0365 14.8881 13.9708C14.8839 13.9666 14.8798 13.9634 14.8756 13.9597C14.6275 13.7273 14.408 13.6444 14.2386 13.6759C14.2367 13.7884 14.2358 13.9004 14.2344 14.0124C14.2367 14.0759 14.2395 14.1393 14.2418 14.2027C14.2488 14.4018 14.2562 14.6004 14.265 14.7995C14.4765 16.63 14.6589 18.4638 14.8585 20.2953C14.9219 20.8245 14.9923 21.3523 15.0617 21.8805C15.133 22.4231 15.2043 22.9661 15.2788 23.5087C15.333 23.9041 15.3872 24.2995 15.4418 24.6953C15.4501 24.7555 15.4585 24.8157 15.4668 24.8759C16.4006 29.3546 17.5057 33.8018 18.6279 38.2333C19.3483 40.8823 20.5247 43.3523 21.6168 45.8578C17.3534 47.6967 13.2909 50.1685 11.1076 54.3124C9.37746 57.7337 9.3057 61.9425 10.8085 65.4601C11.721 67.9828 13.6599 69.893 14.9353 72.212C16.8122 75.6564 18.9381 79.0286 21.527 81.9796C21.99 82.5421 22.4599 83.0995 22.7941 83.7509C22.8626 83.8337 22.9238 83.937 22.9844 84.0439C23.1238 84.2888 23.2636 84.5546 23.4997 84.6527C23.7765 85.0148 24.0992 85.3175 24.4122 85.4981C24.5367 85.5698 24.6599 85.6245 24.7775 85.6527C24.8663 85.6754 24.9501 85.6842 25.0279 85.6805C25.4802 85.6587 25.7474 85.2203 25.8094 84.7411C25.8224 84.6411 25.8275 84.5398 25.8224 84.4393C27.0603 83.8203 28.252 83.012 29.5057 82.4069C29.5441 82.3884 29.5821 82.3685 29.6201 82.3499C30.1779 82.0661 30.7307 81.7731 31.2816 81.4763C31.3696 81.4291 31.4566 81.381 31.5446 81.3333C31.9988 82.0768 32.4543 82.8198 32.9386 83.5448C36.4381 89.1578 38.3427 91.8254 45.3608 92.1291C45.4992 92.1323 45.6372 92.1328 45.7742 92.1305C47.639 92.0976 49.389 91.5472 51.0918 90.8124C52.4136 90.4976 53.6839 89.8703 54.9941 89.5291C57.4349 88.8064 59.6126 87.5393 61.8664 86.4036C64.1497 85.505 66.5557 84.9916 68.8756 84.212C71.1876 83.2999 73.3052 81.9953 75.2789 80.4944C77.6631 78.8499 80.489 78.1259 83.0131 76.7476C83.8089 76.4259 84.6446 76.0851 85.2113 75.4129C86.2455 74.2847 86.7395 72.7694 86.6946 71.2634Z" fill="#F2F8DB"/>
<mask id="mask0_902_7215" style="mask-type:luminance" maskUnits="userSpaceOnUse" x="9" y="3" width="78" height="90">
<path d="M9.6001 3.79297H86.8043V92.2078H9.6001V3.79297Z" fill="white"/>
</mask>
<g mask="url(#mask0_902_7215)">
<path d="M14.181 14.2924L14.1709 14.0151L14.1755 13.6235L14.2269 13.6137C14.3672 13.5873 14.6033 13.6179 14.919 13.9137L14.9922 13.9823L14.8667 14.0318C14.7088 14.0943 14.5505 14.1573 14.3908 14.2165L14.3903 14.217L14.181 14.2924ZM25.4121 84.9012C25.0931 85.0744 24.7648 85.2443 24.4477 85.4082L24.2792 85.4952L24.3801 85.5536C24.5172 85.6327 24.6463 85.6869 24.7616 85.7142C24.8403 85.735 24.9176 85.7452 24.9926 85.7452C25.0056 85.7452 25.0185 85.7448 25.031 85.7443C25.4667 85.7235 25.7968 85.3327 25.8723 84.7494L25.8894 84.6193L25.7764 84.6869C25.6556 84.7596 25.5343 84.8313 25.4121 84.9012ZM44.2801 5.27623L44.5459 5.24614L44.3153 5.15216C44.0926 5.06049 43.8959 5.0841 43.7315 5.22114L43.5667 5.35771L43.7792 5.33318C43.9463 5.31373 44.113 5.29475 44.2801 5.27623ZM52.5584 4.39568L52.5676 4.45447L52.6269 4.44892C52.8477 4.42808 53.0695 4.39938 53.2778 4.3716L53.3653 4.35957L53.2324 4.08781L53.2209 4.0716C52.9857 3.82762 52.7074 3.79383 52.3945 3.97114L52.3051 4.0216L52.3898 4.07901C52.4787 4.13873 52.5338 4.24244 52.5584 4.39568ZM42.5755 32.2758C42.8306 33.3674 43.0949 34.4961 43.4607 35.5781L43.4797 35.635L43.5375 35.6193C45.4273 35.1063 46.7204 34.4188 47.6074 33.4559L47.6102 33.4522C47.9209 33.0605 47.8561 32.5693 47.7936 32.0938C47.775 31.9545 47.7574 31.823 47.7496 31.6948C47.7139 31.1758 47.5098 30.7897 47.144 30.5466C46.2204 29.9346 44.576 30.4258 44.0963 30.5906C43.4898 30.7725 42.8875 31.0049 42.3783 31.2082L42.3269 31.2285L42.3398 31.2823C42.4204 31.6128 42.4977 31.9443 42.5755 32.2758ZM38.907 25.4563L38.8857 25.4086L38.8348 25.4202C38.3908 25.5225 37.9519 25.6498 37.531 25.7989L37.5209 25.8031C37.2968 25.9285 37.0579 26.0531 36.8273 26.173C35.8727 26.6707 34.8857 27.185 34.2561 28.0535L34.2459 28.0744C33.9482 29.1966 34.0232 30.5434 35.1246 30.9568C35.5547 31.1276 35.9718 31.2003 36.3783 31.2003C37.5801 31.2003 38.6889 30.5642 39.7699 29.9438C40.0338 29.7924 40.3065 29.636 40.5723 29.4943L40.6204 29.4688L40.6023 29.417C40.2162 28.3309 39.7338 27.273 39.2672 26.2503C39.1468 25.9855 39.026 25.7211 38.907 25.4563ZM85.2588 75.4554C84.6787 76.1429 83.8065 76.4957 83.0366 76.8073C81.9963 77.3758 80.8806 77.842 79.8014 78.2929C78.2801 78.929 76.707 79.5864 75.3144 80.5471C73.1209 82.2156 71.0213 83.4346 68.8991 84.2716C67.9454 84.592 66.9653 84.8711 66.0176 85.141C64.65 85.5304 63.2361 85.9332 61.8899 86.4633C61.4431 86.6883 60.9945 86.9211 60.5463 87.154C58.788 88.067 56.9695 89.011 55.0116 89.5906C54.3894 89.7526 53.7662 89.9832 53.163 90.2059C52.4945 90.4531 51.8033 90.7086 51.1065 90.8744C49.0621 91.7573 47.4144 92.1656 45.7755 92.1943C45.7153 92.1952 45.6551 92.1957 45.5949 92.1957C45.5167 92.1957 45.438 92.1948 45.3593 92.1929C38.3537 91.8897 36.4723 89.3327 32.8843 83.579C32.3963 82.8489 31.9329 82.0915 31.5218 81.4184L31.2727 81.5536L31.2394 81.5244C30.613 80.9767 30.0681 80.3221 29.5408 79.6892L29.4213 79.5457C29.019 79.0498 28.6264 78.5267 28.2209 77.9457C27.6292 76.9915 27.0468 76.0147 26.4834 75.0697C25.3898 73.2364 24.2593 71.3406 23.031 69.554L23.019 69.5332C21.9732 67.992 20.8565 66.4897 19.9028 65.2253L19.8894 65.2073C19.2338 64.1836 18.6232 63.1077 18.0329 62.0674L17.9537 61.9281C17.9338 61.9086 17.9139 61.8878 17.894 61.8661C17.8315 61.7985 17.7797 61.7262 17.7292 61.6563L17.7093 61.6281C17.6227 61.5077 17.5352 61.3878 17.4468 61.2688C17.3343 61.1174 17.2246 60.9633 17.1148 60.8096C17.0491 60.7179 16.9834 60.6258 16.9172 60.5341C16.5736 60.0619 16.2037 59.6119 15.8871 59.2341L15.8343 59.1725C15.6653 58.9744 15.4903 58.7693 15.3348 58.5536C15.15 58.2948 15.0023 58.0989 14.8556 57.9184C14.8255 57.885 14.7935 57.8508 14.7598 57.8165L14.5593 57.6276C14.3917 57.4855 14.2037 57.3392 13.9523 57.1554C13.8685 57.0998 13.7778 57.0452 13.6685 56.9841L13.5871 56.9452C13.3635 56.8401 13.1352 56.7526 12.9611 56.6883C12.8723 56.6596 12.7801 56.6318 12.6875 56.6086C12.6065 56.5952 12.5204 56.5841 12.4338 56.5753C12.3394 56.5702 12.2398 56.5684 12.1445 56.5679L12.125 56.5711C12.0723 56.6161 12.0181 56.6494 11.9607 56.6739C11.8996 56.7008 11.8371 56.7253 11.7746 56.7498L11.7093 56.7781C11.6898 56.8073 11.6602 56.8452 11.632 56.8836C11.5968 56.9411 11.5616 57.0012 11.5264 57.0633C11.5019 57.2151 11.4547 57.341 11.3829 57.4475L11.3528 57.561C11.2922 57.8804 11.2491 58.1448 11.2185 58.3897C10.6982 60.3198 11.5963 62.3554 12.3889 64.1512L12.4676 64.3299C12.6459 64.6855 12.8579 64.8373 13.0653 64.7535C13.3477 64.6392 13.5676 64.0998 13.4213 63.6332C13.2885 63.1332 13.101 62.6549 12.919 62.1924C12.6514 61.5123 12.3755 60.8091 12.2713 60.0318C12.2602 59.5781 12.2954 59.0267 12.669 58.7248C12.7227 58.6924 12.7648 58.6605 12.8028 58.6248L12.8148 58.6133L12.8315 58.6091C12.9357 58.5841 13.0528 58.5679 13.1787 58.5619C13.381 58.5503 13.5741 58.5813 13.7746 58.6526C14.0125 58.7373 14.2204 58.8906 14.3871 59.0137C14.3945 59.0188 14.4033 59.0262 14.4121 59.0327C14.4389 59.048 14.4736 59.0698 14.5074 59.091L14.5241 59.1012C14.7037 59.2147 14.8908 59.3651 15.0963 59.5619C15.2875 59.7452 15.476 59.9563 15.656 60.1906C15.7935 60.3702 15.9269 60.5522 16.0602 60.7341C16.1695 60.8832 16.2783 61.0318 16.3894 61.179C16.4537 61.2651 16.5185 61.3503 16.5834 61.436C16.832 61.7633 17.0889 62.1022 17.3172 62.4559C17.5547 62.8262 17.7875 63.2086 18.0125 63.5781L18.2195 63.9054L18.2199 63.9267L18.2241 63.9239C18.444 64.2735 18.6681 64.6202 18.8917 64.9665C19.1 65.2887 19.3074 65.6105 19.5125 65.935C19.8107 66.4091 20.0986 66.9003 20.3778 67.3758L20.4685 67.5309C20.6625 67.8369 20.8375 68.1151 21 68.4077C21.013 68.4304 21.0246 68.4554 21.0357 68.4799L21.2014 68.7485C21.276 68.8693 21.3505 68.9897 21.4241 69.1105C21.494 69.2248 21.5625 69.3401 21.6311 69.4559L21.7158 69.5873C21.7866 69.698 21.8579 69.8086 21.9283 69.9198C22.4463 70.735 22.9551 71.5522 23.4408 72.3485C23.8639 73.0424 24.2769 73.7364 24.6644 74.3873C25.5635 75.8971 26.6102 77.6508 27.657 79.3596C27.7014 79.4188 27.7463 79.4781 27.7917 79.5383V79.535L27.7959 79.5443C27.8741 79.6475 27.9533 79.7522 28.032 79.8568C28.0686 79.9045 28.1047 79.9526 28.1408 80.0008L28.1778 80.0373L28.1635 80.0299C28.331 80.2522 28.4982 80.4744 28.6625 80.6985C28.7185 80.7739 28.7741 80.8498 28.8292 80.9258L28.9227 81.054L28.8408 81.0818C28.3746 81.2397 27.9093 81.4012 27.4449 81.5647C26.7658 81.8364 26.1398 82.2378 25.5348 82.6258C25.1959 82.8429 24.8454 83.0674 24.4875 83.2684C24.0098 83.5184 23.5297 83.7897 23.0172 84.0989L22.9611 84.1323L22.9292 84.0758C22.8695 83.9711 22.8107 83.8707 22.7449 83.7915C22.4232 83.1674 21.9778 82.6272 21.5473 82.1049L21.4778 82.0202C19.1908 79.4133 17.0935 76.3059 14.8792 72.2429C14.3773 71.3304 13.7616 70.466 13.1658 69.6299C12.2505 68.3452 11.3037 67.0165 10.7486 65.4823C9.2116 61.885 9.3241 57.6975 11.051 54.2836C12.901 50.7721 16.1348 48.1619 21.5329 45.8248C21.3695 45.4508 21.2042 45.0772 21.0394 44.704C20.1227 42.6309 19.1746 40.4873 18.5662 38.2503C17.4898 33.9994 16.3588 29.467 15.4042 24.8887L15.3718 24.6535L15.4199 24.636C16.1875 24.3498 16.7723 24.1225 17.3148 23.8989C17.4885 23.8184 17.6644 23.7387 17.8417 23.6614C17.7199 23.3494 17.6107 23.0855 17.4986 22.835C17.4236 22.7762 17.3533 22.6971 17.2982 22.6082C17.1912 22.6508 17.0848 22.6948 16.9783 22.7392C16.5857 22.923 16.2315 23.0975 15.8977 23.2711C15.7111 23.3684 15.5176 23.4647 15.3065 23.566L15.2278 23.604L15.2158 23.5174C15.1412 22.9748 15.0695 22.4318 14.9982 21.8887L14.9926 21.8443L15.0329 21.8239C15.4236 21.6248 15.807 21.4309 16.1977 21.2485C16.7667 20.9823 17.3741 20.7929 17.9611 20.61L18.0611 20.5785C18.3287 20.4952 18.5982 20.4012 18.8584 20.3105C19.176 20.2003 19.5047 20.0855 19.8338 19.9883C20.1167 19.9054 20.4065 19.8304 20.6871 19.7573L20.7255 19.7475C20.9973 19.6767 21.2653 19.5772 21.5246 19.4809L21.5769 19.4614L21.8176 19.3605C22.5783 19.0406 23.3648 18.7105 24.1537 18.4165L24.1542 18.416H24.1547C24.4324 18.3096 24.7093 18.2003 24.9866 18.0906C25.4264 17.917 25.8811 17.7369 26.3334 17.5716C26.738 17.4253 27.156 17.2735 27.5755 17.1318C27.7681 17.0665 27.9598 17.0008 28.1528 16.9332C28.1806 16.923 28.2088 16.9137 28.2371 16.9049L28.2672 16.8929C28.2871 16.885 28.307 16.8772 28.3273 16.8711C28.4644 16.823 28.6033 16.7711 28.7422 16.7198L28.931 16.6498C29.7644 16.342 30.4959 16.0577 31.1672 15.7804L32.3551 15.2878C32.4764 15.2373 32.5973 15.1855 32.7185 15.1336C32.9431 15.0373 33.175 14.9373 33.4079 14.8485C33.7755 14.7063 34.1445 14.567 34.513 14.4272C34.9473 14.2633 35.3811 14.0989 35.8139 13.9309L36.2315 13.7679C36.8158 13.5401 37.4204 13.3045 38.0199 13.0864C38.8084 12.8008 39.6107 12.5531 40.4051 12.3498C40.7236 12.2674 41.0449 12.1799 41.3602 12.0901L41.4533 12.0619C41.8102 11.9535 42.1662 11.8457 42.5236 11.7415C42.8014 11.6605 43.0811 11.585 43.3611 11.5096C43.4991 11.4725 43.6371 11.4355 43.775 11.3975C44.213 11.2707 44.6019 11.1475 44.963 11.0211C45.3523 10.8855 45.7417 10.7285 46.0848 10.5897C46.8537 10.2804 47.657 9.98503 48.4727 9.71188C49.3653 9.41188 50.1523 9.17299 50.8787 8.98086C51.2412 8.88503 51.6181 8.82577 51.9824 8.7679L52.5727 8.67346C52.8551 8.62809 53.1385 8.58318 53.4209 8.53271C53.9968 8.4304 54.5801 8.31003 55.1445 8.19383L55.3991 8.14151L55.4227 8.17901C55.575 8.42438 55.7121 8.63827 55.8412 8.83179C55.9621 9.05957 56.0824 9.30679 56.2241 9.61466L56.2584 9.68827L56.1783 9.70355C55.6042 9.81466 55.0311 9.92808 54.4584 10.0443C53.8482 10.1684 53.35 10.2591 52.8903 10.3295C52.3172 10.417 51.8051 10.5063 51.3255 10.6022C50.8797 10.7211 50.3991 10.8619 49.8223 11.0434C49.9061 11.2341 49.969 11.4346 50.0306 11.6285L50.0394 11.6573C50.1065 11.8698 50.1732 12.0813 50.2371 12.2952C50.2991 12.5012 50.3602 12.7077 50.4204 12.9142C50.9574 12.7873 51.4959 12.6647 52.0343 12.5424C53.0936 12.3017 54.1889 12.0526 55.257 11.7711C55.8213 11.6693 56.3797 11.5651 56.938 11.4577L56.9898 11.4475L57.076 11.6684C57.2727 12.1716 57.4764 12.692 57.6926 13.1961C58.0986 14.1485 58.3917 15.154 58.6755 16.1267C58.9088 16.9267 59.15 17.754 59.4519 18.5452L59.9292 19.7193C60.5195 21.1707 61.1297 22.6711 61.7213 24.1508C62.4213 25.8517 63.1973 27.5545 63.9477 29.2008C64.8556 31.1943 65.7949 33.2549 66.6084 35.3323C66.8936 35.8323 67.2084 36.3378 67.513 36.8267C68.2324 37.9818 68.976 39.1762 69.4385 40.4994C70.8014 43.8897 72.3658 46.7461 74.2199 49.229C74.8533 50.0614 75.526 50.8901 76.1764 51.692C78.2292 54.2216 80.3523 56.8378 81.5838 59.9665C82.0519 60.8036 82.5741 61.6429 83.0787 62.4545C84.3903 64.5633 85.7463 66.7438 86.3611 69.2373C86.6033 69.8762 86.7375 70.56 86.7584 71.2619C86.8051 72.8355 86.2588 74.3642 85.2588 75.4554ZM77.0616 69.7077C76.6491 69.7077 76.5158 70.3424 76.5158 70.6498C76.5158 70.9573 76.6491 71.5924 77.0616 71.5924C77.4741 71.5924 77.6079 70.9573 77.6079 70.6498C77.6079 70.3424 77.4741 69.7077 77.0616 69.7077ZM74.7764 70.2443C74.3635 70.2443 74.2301 70.879 74.2301 71.186C74.2301 71.4934 74.3635 72.1276 74.7764 72.1276C75.1889 72.1276 75.3223 71.4934 75.3223 71.186C75.3223 70.879 75.1889 70.2443 74.7764 70.2443ZM73.1264 71.2086L73.1236 71.2068C72.9699 71.0998 72.8236 71.0457 72.6903 71.0457C72.6199 71.0457 72.5533 71.061 72.4917 71.0915C72.2713 71.2012 72.125 71.498 72.1102 71.8661C72.094 72.2776 72.2528 72.8235 72.7482 73.1211L72.7686 73.1406C72.9621 73.4336 73.1593 73.5693 73.3297 73.5336C73.5209 73.4938 73.6866 73.2355 73.751 72.8744C73.8537 72.3036 73.7 71.567 73.1264 71.2086ZM53.1607 82.8934L53.1611 82.8869C53.1866 82.4971 52.9912 82.1878 52.7843 81.86C52.6204 81.6003 52.451 81.3318 52.3945 81.0156C52.2977 80.792 52.1561 80.6679 51.9922 80.6679C51.9686 80.6679 51.9449 80.6707 51.9209 80.6758C51.6815 80.7267 51.4195 81.0503 51.426 81.4336C51.3713 82.1059 51.6153 82.8151 52.1723 83.6091C52.2746 83.7739 52.4412 83.9498 52.6667 83.8684C52.9644 83.7605 53.2144 83.2716 53.1616 82.8998L53.1607 82.8934ZM55.5394 80.6711L55.5278 80.6559L55.5264 80.6373C55.4936 80.1406 55.2084 79.8267 54.9528 79.81C54.9449 79.8096 54.9375 79.8096 54.9301 79.8096C54.701 79.8096 54.5195 80.0392 54.4422 80.4309C54.3246 81.1105 54.5283 81.8628 55.0172 82.5461C55.1162 82.7346 55.2723 82.8272 55.4454 82.8156C55.6412 82.7994 55.813 82.6517 55.8824 82.4397C56.219 81.7471 55.8116 81.035 55.5394 80.6711ZM20.1019 22.3693C20.0815 22.3073 20.0602 22.2448 20.038 22.1823C19.8834 22.0948 19.7602 21.9605 19.6852 21.7998C19.5449 21.8471 19.4051 21.8961 19.2653 21.9448C19.1709 21.9776 19.076 22.011 18.9815 22.0434L19.0028 22.0864C19.0866 22.2577 19.1824 22.4568 19.2611 22.6605C19.3074 22.7813 19.3537 22.9026 19.3991 23.0244C19.6672 22.9225 19.9357 22.823 20.2056 22.7258C20.1723 22.6068 20.1375 22.4878 20.1019 22.3693ZM54.0908 26.1272L54.0871 26.167C54.0445 26.6063 53.8454 27.0549 53.6528 27.4883C53.3093 28.2614 52.9852 28.992 53.4561 29.692C53.5704 29.8485 53.7093 29.8637 53.8051 29.8489C53.9797 29.8221 54.1449 29.6735 54.2079 29.4869C54.2875 29.2915 54.3699 29.0975 54.4528 28.9022C54.944 27.7452 55.4523 26.5489 55.3209 25.3086C55.0963 24.2767 54.0607 23.8934 53.0588 23.523C52.7829 23.4207 52.5223 23.3244 52.2834 23.2156C52.0672 23.136 51.8528 23.0285 51.6459 22.9244C51.3486 22.7758 51.0422 22.6221 50.7195 22.5485C50.3931 22.6188 50.263 22.911 50.2139 23.0799C50.088 23.5156 50.207 24.0795 50.4792 24.3387C51.0834 24.7934 51.7963 25.0864 52.4861 25.3698C53.0135 25.5864 53.5588 25.8105 54.0561 26.1063L54.0908 26.1272ZM31.1135 18.8674C31.0903 18.8049 31.0667 18.742 31.0431 18.6795L31.0352 18.6623C30.9477 18.4684 30.8574 18.2684 30.7607 18.0748C30.7148 17.9809 30.6778 17.8887 30.65 17.7998L30.6181 17.8123C30.4153 17.891 30.2116 17.9665 30.0074 18.042L29.8084 18.116L29.8227 18.1767C29.9079 18.4614 30.0079 18.7503 30.1051 19.0299L30.176 19.2355L31.1135 18.8674ZM46.8709 13.8753C46.8588 13.8309 46.8463 13.7864 46.8338 13.7424L46.8065 13.6586C46.7306 13.4216 46.6519 13.1767 46.5667 12.9397L46.5144 12.7952C46.482 12.7054 46.4496 12.616 46.4167 12.5272L46.3801 12.4304C46.3635 12.3869 46.3468 12.3429 46.3306 12.2989C46.2074 12.3471 46.0848 12.3948 45.9611 12.442C45.9963 12.542 46.0324 12.642 46.0681 12.7415C46.2144 13.1503 46.3653 13.5725 46.4875 14.0003C46.5125 13.992 46.5371 13.9841 46.5621 13.9762C46.6644 13.942 46.7676 13.9082 46.8709 13.8753ZM60.0473 65.5438C61.5255 64.791 63.125 64.2517 64.6723 63.7299C66.5223 63.1063 68.4357 62.4614 70.1408 61.448C70.4264 61.2369 70.6111 60.8651 70.6426 60.4318C70.6764 59.9637 70.5218 59.4994 70.2385 59.2188C70.1524 59.1466 70.0301 59.0948 69.9121 59.0948C69.8454 59.0948 69.7801 59.111 69.7232 59.1498C68.9459 59.6086 68.1227 60.0036 67.3264 60.3855C66.463 60.7998 65.5704 61.2285 64.7394 61.736C62.6505 63.0165 60.3639 63.9591 58.1519 64.8707C56.9496 65.3665 55.7061 65.8785 54.5093 66.4397C53.2922 67.0346 51.6815 67.8091 50.025 68.5184C49.6371 68.7378 49 68.9202 48.326 69.1128C47.0519 69.4772 45.6079 69.8897 45.2223 70.7063C45.0792 71.0086 45.0908 71.3429 45.2584 71.7276C45.3181 71.9114 45.4736 72.0637 45.6385 72.104C45.7232 72.1248 45.8477 72.1248 45.9653 72.0096L46.2602 71.7211L46.1361 71.9535C49.9088 70.8119 53.4505 68.9637 56.8769 67.1758C57.913 66.6346 58.9852 66.0753 60.0473 65.5438ZM42.75 89.1304C42.9348 89.2549 43.1088 89.3721 43.2667 89.492C43.8903 89.8123 44.4061 89.8591 44.7482 89.6225C45.0963 89.3823 45.2588 88.8443 45.1829 88.1827L45.1824 88.1753C45.1824 87.9452 45.1773 87.7082 45.1672 87.4707L45.1593 87.4494C45.057 87.161 44.9375 86.8684 44.7963 86.5605L44.6264 86.2142C44.3908 85.735 44.1477 85.2392 43.9297 84.7415C43.9135 84.7045 43.8977 84.667 43.882 84.6295L43.8426 84.5364C43.6139 84.1489 43.3963 83.817 43.181 83.529C41.5806 81.3179 39.8093 79.2614 38.1329 77.3438C35.0727 72.9068 32.8398 69.0887 31.1014 65.3235C30.3704 63.5545 29.3033 61.9378 28.2723 60.3739C27.5523 59.2832 26.8084 58.1554 26.1829 56.9841C24.7361 54.2193 23.6431 51.285 22.732 48.7512C22.45 47.9915 22.125 47.1911 21.6806 46.1637C21.1611 46.398 20.6148 46.6512 20.0949 46.942L20.1223 46.9961C20.163 47.0762 20.2037 47.1563 20.2426 47.2378C20.4209 47.6082 20.5727 47.9466 20.707 48.2735L20.832 48.5767C20.9482 48.8573 21.0681 49.1471 21.1778 49.436L21.2866 49.7216C21.4014 50.0211 21.5158 50.3211 21.6311 50.6207L21.813 51.0948C22.0482 51.7096 22.2917 52.3448 22.5463 52.9637C22.6 53.0943 22.6528 53.2253 22.7051 53.3568C22.8153 53.6304 22.9292 53.9137 23.051 54.1864L23.2685 54.6725C23.313 54.729 23.363 54.7989 23.4125 54.8702C23.4352 54.9022 23.4579 54.936 23.4797 54.9702L23.6079 55.1679C23.65 55.236 23.6908 55.304 23.7306 55.3721C23.7491 55.404 23.7676 55.4364 23.7852 55.4684L23.7912 55.4772C23.8857 55.6457 23.9755 55.8202 24.0588 55.9966C24.2051 56.3054 24.3607 56.6161 24.5111 56.9165C24.7315 57.3563 24.9588 57.8114 25.1621 58.2698C25.2236 58.4086 25.2834 58.548 25.3412 58.6878C25.8023 59.4364 26.2227 60.1188 26.6533 60.7952C27.7723 62.5054 28.7486 64.3415 29.6926 66.117C30.276 67.2147 30.8797 68.3494 31.5107 69.4429C31.931 70.26 32.344 71.0494 32.7385 71.7924C33.1283 72.317 33.4699 72.8952 33.8005 73.454C33.9028 73.6281 34.0056 73.8017 34.1098 73.9744L34.3213 74.3012C34.7727 74.998 35.2394 75.7184 35.6551 76.4559C35.8824 76.8586 36.1232 77.2623 36.3565 77.6526C36.6139 78.0832 36.8797 78.5285 37.1283 78.9744L37.1408 78.998C37.2199 79.1387 37.3005 79.2864 37.3815 79.4346C37.4662 79.5892 37.551 79.7443 37.6371 79.8985C38.1 80.6869 38.5107 81.3373 39.0061 81.9434C39.1255 82.079 39.2519 82.2114 39.3778 82.3443C39.463 82.4336 39.5477 82.523 39.6315 82.6142L39.8875 82.8906C40.0324 83.048 40.1778 83.2054 40.3246 83.3623C40.4366 83.4758 40.5588 83.5864 40.6773 83.6934C40.8033 83.8073 40.9334 83.9253 41.0556 84.0498C41.3232 84.3225 41.569 84.6225 41.807 84.9128L41.9065 85.0341C42.0811 85.2457 42.2366 85.4748 42.3871 85.6966C42.4537 85.7943 42.5199 85.892 42.588 85.9887C42.776 86.2554 42.9588 86.5313 43.1357 86.7985L43.4463 87.261C43.4644 87.3128 43.4824 87.3605 43.5033 87.4082L43.6181 87.6707L43.4028 87.4818C43.1639 87.2711 42.8912 87.0998 42.6269 86.9341C42.5417 86.8809 42.4565 86.8272 42.3718 86.7721L42.3574 86.7591C42.1394 86.4952 41.9144 86.3494 41.7283 86.3494C41.7079 86.3494 41.6875 86.3512 41.6681 86.3549C41.5107 86.3841 41.3866 86.5304 41.2996 86.7906C40.9311 87.9026 41.8973 88.5549 42.75 89.1304ZM28.594 34.6198L28.6181 34.5716C29.057 33.6873 30.0838 31.2364 29.5681 30.5253C29.4556 30.3688 29.2736 30.3091 29.0125 30.3424C28.6181 30.7651 28.4422 31.3272 28.2565 31.9221C28.1241 32.3461 27.9866 32.785 27.7621 33.1637C27.6667 33.4202 27.4773 33.6012 27.294 33.7758C27.0977 33.9633 26.9121 34.1406 26.8463 34.3998C26.5028 35.4915 27.2047 35.9031 28.0167 36.3799C28.1051 36.4313 28.1945 36.4836 28.2829 36.5373C28.4528 36.6656 28.6172 36.7929 28.781 36.9207C29.6977 37.6327 30.6449 38.3698 31.8084 38.623C32.2389 38.6693 32.3801 38.1721 32.4121 38.0174C32.5148 37.5198 32.3602 36.8841 31.9736 36.7674C30.9746 36.5651 30.1991 35.9211 29.4491 35.2975C29.1857 35.079 28.9139 34.8531 28.6375 34.6512L28.594 34.6198ZM45.9653 24.3424C45.857 23.9614 45.4213 23.0818 43.6491 23.1582L43.6422 23.1586L43.6352 23.1573C42.5412 22.9637 41.0403 23.029 39.5176 23.3378L39.4662 23.348L39.4463 23.2994C39.1829 22.6591 38.9653 22.0924 38.7806 21.5674C38.7556 21.3586 38.7713 21.1383 38.7875 20.9054C38.8287 20.3313 38.8704 19.7378 38.3459 19.4924C38.3445 19.4924 38.3435 19.4924 38.3422 19.4924C38.188 19.4924 38.0621 19.5489 37.9561 19.6637C37.5093 20.1508 37.5848 21.5077 37.6699 22.273C37.7982 22.7003 37.95 23.1438 38.1324 23.6174L38.1565 23.6809L38.0917 23.7012C35.0977 24.6285 33.3352 26.2434 33.2565 28.1318C33.15 29.5596 33.3287 31.4267 34.7848 32.2276C36.907 33.242 39.0385 32.5461 41.2162 31.6762L41.2806 31.6508L41.301 31.717C41.7153 33.0827 42.1797 34.4508 42.6283 35.7735L42.651 35.8401L42.5824 35.8559C42.3635 35.9063 42.1454 35.9531 41.931 35.9985C40.0741 36.2466 38.4579 36.2637 36.9861 36.0512C36.7167 36.0332 36.6329 36.3443 36.6144 36.4397C36.5556 36.7429 36.6519 37.1202 36.8894 37.1989C37.4209 37.2809 37.9769 37.3795 38.5148 37.4748C39.5486 37.6582 40.6181 37.8475 41.6667 37.9522C42.1973 38.0128 42.7528 38.0207 43.3209 37.9753L43.3727 37.9711L43.3871 38.0216C43.4931 38.3934 43.576 38.786 43.6556 39.166C43.8468 40.0762 44.0449 41.0179 44.5829 41.7299C44.7959 41.7864 44.9672 41.7267 45.0917 41.5531C45.3551 41.1873 45.3181 40.4721 45.1042 40.1656C44.7977 39.367 44.5223 38.5823 44.2922 37.9188L44.2686 37.8494L44.3403 37.835C47.1959 37.2795 48.9699 35.6137 49.0861 33.3795C49.0852 31.8619 48.819 29.8262 47.5542 28.766C46.788 28.1244 45.7385 27.917 44.4371 28.1461C43.5412 28.3605 42.6417 28.642 41.7662 28.9823L41.7028 29.0068L41.6829 28.9415C41.2848 27.6619 40.7681 26.4188 40.2727 25.2559L40.2394 25.1772L40.3241 25.1679C41.8732 24.9938 43.5172 25.0855 45.0783 25.4327L45.0977 25.4373L45.1111 25.4517C45.2903 25.6452 45.4741 25.6957 45.6454 25.6003C45.9278 25.4415 46.1236 24.8985 45.9653 24.3424ZM51.901 54.6934C51.8598 54.4892 51.7422 54.2137 51.5473 54.111C51.4486 54.0596 51.3394 54.0586 51.2227 54.1086C50.3093 54.479 49.4139 54.9267 48.5482 55.3591C48.3699 55.4485 48.1912 55.5373 48.0121 55.6262L47.5755 55.8448C46.0713 56.5975 44.5153 57.3758 42.8861 57.9137C42.5602 58.0299 42.2352 58.1605 41.9209 58.2869C41.457 58.4739 40.9769 58.6665 40.4741 58.8202C40.2116 58.9485 40.0991 59.2063 40.0528 59.3994C39.963 59.773 40.0473 60.2295 40.2574 60.5133C40.7255 60.8651 41.325 60.604 41.9047 60.3508C42.1936 60.2248 42.4667 60.1054 42.7264 60.0568C44.5056 59.492 46.1741 58.5998 47.788 57.7369C49.0023 57.0878 50.2579 56.4165 51.5561 55.886C51.9047 55.673 51.9824 55.1323 51.901 54.6934ZM42.2213 64.9924C45.2778 64.5633 48.1148 62.9966 50.8588 61.4818C51.2704 61.2545 51.6792 61.029 52.0852 60.8091C52.4662 60.5971 52.5681 59.8272 52.3806 59.3688C52.3088 59.1924 52.1306 58.9133 51.7542 59.0123C49.6051 60.3086 47.2306 61.4022 44.494 62.3554C44.2797 62.4327 44.0658 62.5137 43.8523 62.5943C43.3 62.8031 42.7292 63.0188 42.144 63.1716C41.8769 63.3596 41.7218 63.7674 41.7574 64.1915C41.7885 64.5665 41.9616 64.8642 42.2213 64.9924ZM59.7204 44.6892C59.6792 44.486 59.5681 44.1211 59.2912 43.9725C59.0116 43.8707 58.7352 44.0285 58.4426 44.1948C58.2584 44.2994 58.0681 44.4077 57.8699 44.4498C56.8436 44.8651 55.7857 45.3091 54.7625 45.7387C52.5806 46.6549 50.3241 47.6026 48.1 48.3873C45.9486 49.0832 43.9148 50.0619 41.9477 51.0091C40.5357 51.6887 39.075 52.392 37.5991 52.9748L37.5699 52.9864L37.5431 52.9707C37.432 52.9049 37.3352 52.8786 37.251 52.8786C37.076 52.8786 36.9565 52.9938 36.8797 53.1128C36.5917 53.561 36.6121 54.4989 37.0135 54.7795C38.0824 55.2647 39.6644 54.3262 41.0598 53.4989C41.6037 53.1762 42.1176 52.8716 42.5417 52.6929C43.5107 52.1596 44.5542 51.7299 45.5635 51.3142C46.1486 51.073 46.7537 50.8239 47.338 50.5568C47.9801 50.2568 48.6278 49.9341 49.2542 49.6221C51.2065 48.6489 53.225 47.6424 55.4093 47.1716C55.8019 47.017 56.338 46.9304 56.9061 46.8383C57.9255 46.6735 59.0811 46.4864 59.5436 45.8248C59.7523 45.5258 59.8102 45.1545 59.7204 44.6892ZM58.2681 39.9443C58.1625 39.8452 58.038 39.7957 57.8963 39.7957C57.8255 39.7957 57.7505 39.8077 57.6713 39.8327C55.1037 41.286 52.3505 42.642 49.2667 43.9744L49.2621 43.9758C47.3181 44.648 45.4023 45.4813 43.5505 46.2873C41.7139 47.0864 39.8148 47.9128 37.8866 48.5823C37.6769 48.6938 37.2593 48.8373 36.7755 49.0045C35.7894 49.3443 34.2991 49.8577 34.2806 50.2901C34.1815 50.6272 34.1815 51.111 34.3681 51.4133C34.4611 51.5651 34.5922 51.6586 34.757 51.6911C38.532 50.7077 42.1023 48.9383 45.5551 47.2272C47.3681 46.329 49.2426 45.3998 51.1223 44.5971C52.0588 44.236 53.0348 43.9434 53.9778 43.661C55.2806 43.2702 56.6278 42.8665 57.8764 42.279C58.188 42.1906 58.4232 41.885 58.5324 41.4373C58.6732 40.8591 58.5598 40.2174 58.2681 39.9443ZM44.8848 14.5068L44.819 14.2827C44.7718 14.1258 44.7232 13.9633 44.6672 13.8077C44.6311 13.7054 44.5922 13.6035 44.5537 13.5012C44.4894 13.3313 44.4236 13.1568 44.3676 12.9813C44.1269 13.0494 43.8848 13.1137 43.6426 13.1776C43.4787 13.2211 43.3144 13.2647 43.151 13.3096C42.8695 13.391 42.588 13.4753 42.306 13.5596C41.9973 13.6522 41.6885 13.7443 41.3787 13.8336C41.1723 13.8929 40.9602 13.9461 40.7551 13.9971L40.5371 14.0522C40.3148 14.1091 40.0903 14.1767 39.8736 14.2415L39.7505 14.2785C39.0635 14.4952 38.3394 14.7554 37.4727 15.0966C36.6982 15.3998 35.9093 15.6985 35.1723 15.9758C34.7912 16.1198 34.4111 16.2647 34.0315 16.411C33.8074 16.4975 33.582 16.5943 33.3639 16.6878C33.2385 16.7415 33.113 16.7952 32.9871 16.8475L32.6936 16.9693C32.5477 17.0299 32.4014 17.0906 32.2556 17.1508C32.2755 17.2216 32.2866 17.2934 32.2875 17.3656C32.319 17.4341 32.3519 17.5022 32.3843 17.5702C32.4704 17.7498 32.5588 17.9355 32.6306 18.1262L32.6806 18.2582C34.057 17.7323 35.1334 17.3545 36.163 17.0355C37.4713 16.6443 38.8061 16.266 40.0968 15.9008C41.669 15.4554 43.2945 14.9952 44.8848 14.5068ZM28.5047 19.5452C28.4727 19.4526 28.4398 19.3596 28.4084 19.266L28.2857 18.9003C28.2616 18.8295 28.2398 18.7586 28.2199 18.6869L28.0676 18.7397C27.8505 18.8147 27.6329 18.8897 27.4162 18.9651C26.8172 19.1836 26.2116 19.4184 25.6255 19.6457C25.1616 19.8258 24.6973 20.0059 24.2315 20.1799C23.7792 20.3596 23.3218 20.5522 22.8797 20.7383L22.476 20.9077C22.1973 21.0253 21.8723 21.1591 21.544 21.2577L21.488 21.2744C21.6236 21.5633 21.719 21.8753 21.801 22.1739C22.2611 22.0207 22.7227 21.8698 23.1843 21.7188C24.026 21.4438 24.8959 21.1596 25.7459 20.8614C26.5982 20.5855 27.5084 20.2619 28.6074 19.8438C28.5741 19.7443 28.5394 19.6452 28.5047 19.5452ZM68.5662 76.0781C69.4912 75.7142 70.4709 75.2429 70.6741 74.5276C70.7778 74.1623 70.6644 73.7549 70.338 73.316C70.2718 73.267 70.194 73.2461 70.1088 73.2461C69.8292 73.2461 69.463 73.4711 69.1061 73.6906C68.7973 73.8804 68.5051 74.06 68.2561 74.1068C68.0135 74.2133 67.7408 74.3049 67.4769 74.3938C66.8732 74.5961 66.2496 74.8059 65.7926 75.2559C65.6176 75.5489 65.5713 76.0267 65.6917 76.3804C65.7477 76.5448 65.8658 76.7596 66.1102 76.861C66.6098 76.7971 67.1158 76.6026 67.6051 76.4142C67.9195 76.2934 68.2445 76.1684 68.5662 76.0781ZM48.7889 13.3193C48.7436 13.1656 48.6977 13.0119 48.651 12.8582L48.6005 12.6887C48.5116 12.3887 48.4195 12.079 48.3033 11.786C48.2945 11.7818 48.2857 11.7781 48.2773 11.7735C48.2 11.7364 48.1292 11.6864 48.0662 11.6248C48.0107 11.6448 47.9551 11.6647 47.9 11.685C47.9463 11.8198 47.9959 11.9522 48.0454 12.085C48.0787 12.1758 48.113 12.266 48.1459 12.3573C48.225 12.5795 48.2977 12.8031 48.3709 13.0313C48.4102 13.154 48.4477 13.2772 48.4829 13.4008C48.5848 13.3735 48.6871 13.3461 48.7889 13.3193ZM57.4797 78.5304C57.3843 78.4211 57.2843 78.3661 57.1811 78.3661C57.1426 78.3661 57.1037 78.3739 57.0648 78.3887C56.8292 78.4795 56.6209 78.8383 56.6278 79.1415C56.5329 79.6142 57.2889 81.4568 57.7246 81.6452C58.0417 81.5864 58.2523 81.4387 58.351 81.2063C58.6186 80.5748 58.0496 79.3707 57.4797 78.5304ZM62.5209 77.6017C62.4375 77.4735 62.3616 77.3272 62.2885 77.186C62.1088 76.8383 61.9232 76.4785 61.5945 76.3128C61.425 76.3008 61.2834 76.3596 61.1773 76.4915C60.9505 76.773 60.9181 77.3383 61.0306 77.6906C61.0973 77.8133 61.1611 77.9586 61.2287 78.1123C61.4148 78.5369 61.6079 78.9762 61.9695 79.1846C62.1676 79.1952 62.3338 79.1128 62.4519 78.9397C62.6903 78.5892 62.6848 77.9461 62.5209 77.6017ZM59.8986 80.0198C60.0561 80.2202 60.2172 80.3156 60.3648 80.291C60.5315 80.2642 60.6912 80.0795 60.7926 79.7975C60.9287 79.4179 60.9459 78.8693 60.7098 78.5989C60.5496 78.4341 60.4718 78.198 60.3968 77.9693C60.288 77.6392 60.1857 77.3267 59.8473 77.2693C59.5815 77.3711 59.4047 77.5531 59.3213 77.811C59.1037 78.4841 59.5473 79.5008 59.8986 80.0198ZM63.9269 78.6494C64.0463 78.8216 64.1917 78.8392 64.2936 78.8239C64.4834 78.7961 64.6607 78.6387 64.7246 78.4415C65.0922 77.6994 64.6195 77.0235 64.2024 76.4272L64.0871 76.2591C63.8959 75.8017 63.6588 75.5373 63.4361 75.5341C63.4348 75.5341 63.4334 75.5341 63.432 75.5341C63.2936 75.5341 63.1644 75.6429 63.0774 75.8332C62.8505 76.3304 62.8894 77.4911 63.9269 78.6494ZM18.1699 63.9577L18.206 63.935H18.1903L18.1699 63.9577Z" fill="#F2F8DB"/>
</g>
<path d="M21.5689 19.5998C21.3064 19.697 21.0351 19.7979 20.7573 19.8702L20.7189 19.8803C20.4392 19.9526 20.1503 20.0276 19.8693 20.11C19.5434 20.2063 19.2165 20.3202 18.9003 20.4303C18.6388 20.5215 18.3684 20.616 18.0994 20.6998L17.999 20.7308C17.4156 20.9127 16.8124 21.1007 16.2513 21.3632C15.8624 21.5452 15.4804 21.7382 15.0902 21.9368L15.0101 21.9776L14.9642 21.6313C14.9064 21.1887 14.848 20.7461 14.7953 20.303C14.7212 19.6262 14.6503 18.9502 14.579 18.2739C14.4591 17.1373 14.3351 15.9614 14.2017 14.8063C14.1925 14.603 14.1851 14.4039 14.1781 14.2049L14.1763 14.1581L14.3466 14.0965C14.5054 14.0377 14.6624 13.9752 14.8198 13.9132L14.8888 13.8859L14.9179 13.9123C15.567 14.3535 16.1906 14.8359 16.7934 15.3026C17.6517 15.9664 18.5378 16.6526 19.4966 17.2132C19.7152 16.7928 19.9189 16.0428 20.1337 15.2507C20.5888 13.5725 21.105 11.6706 22.0573 11.5516L22.0707 11.5502L22.0837 11.5539C23.0429 11.8465 24.0355 12.5461 25.1147 13.6905C25.1235 13.509 25.1156 13.2646 25.1064 12.991C25.0777 12.1428 25.0425 11.0868 25.5013 10.8391C25.7156 10.7234 25.9971 10.7928 26.3633 11.0507C27.2971 11.5896 28.3448 11.922 29.3582 12.2433C29.8184 12.3891 30.2934 12.5401 30.7545 12.709C30.9601 11.7683 31.0531 10.8683 31.0318 10.0322C31.0277 9.9771 31.023 9.9183 31.0184 9.85997C30.9786 9.37617 30.9378 8.87617 31.2628 8.45256C31.4883 8.13312 31.8281 8.24562 32.1017 8.33636C32.1513 8.35256 32.1999 8.3683 32.2471 8.38219C33.8517 8.50488 34.9698 9.7396 35.955 10.8382C36.0772 10.5164 36.1846 10.1813 36.2892 9.85534C36.5517 9.03775 36.8235 8.19238 37.3411 7.48404C37.6341 7.12988 37.9698 7.37062 38.2402 7.56367C38.323 7.62293 38.4017 7.67895 38.4749 7.71738C38.9573 8.01691 39.4656 8.27941 39.9578 8.53265C40.5846 8.8558 41.2318 9.18913 41.8258 9.60071C42.1772 8.58126 42.5744 7.50025 43.0925 6.46738C43.1508 6.36043 43.2054 6.21645 43.2628 6.06413C43.3795 5.75395 43.5119 5.40256 43.7314 5.22062L43.7457 5.20812L43.7647 5.20626C43.9314 5.18682 44.099 5.16784 44.2656 5.14932L44.2999 5.14515L44.3147 5.15117C44.3388 5.15951 44.3494 5.16321 44.3605 5.1683C44.8013 5.45117 45.286 5.6521 45.7545 5.84654C46.2031 6.03265 46.6665 6.22525 47.0906 6.48682C47.3314 6.61923 47.5624 6.78312 47.7865 6.94191C48.1147 7.17478 48.454 7.41552 48.8314 7.56043C49.479 6.87247 50.1513 6.18775 50.8017 5.52525C51.0008 5.32201 51.1999 5.11923 51.3985 4.91645C51.4758 4.84145 51.5615 4.74701 51.6522 4.64654C51.874 4.40071 52.1258 4.12247 52.3943 3.97062L52.4286 3.95117L52.461 3.97339C52.5661 4.04423 52.6369 4.15951 52.6726 4.31599C52.8721 4.29608 53.0721 4.27015 53.261 4.24515L53.3064 4.23867L53.3263 4.27988C53.9429 5.54515 54.623 6.89284 55.4221 8.17895L55.4703 8.25626L55.1698 8.3183C54.6045 8.4345 54.0203 8.55488 53.4429 8.65719C53.1596 8.70812 52.8758 8.75349 52.5925 8.79886L52.0017 8.8933C51.6406 8.95071 51.2675 9.00951 50.9115 9.10349C50.1874 9.29515 49.4027 9.53312 48.5128 9.83173C47.6999 10.1044 46.8985 10.3989 46.1323 10.7072C45.7878 10.8465 45.3971 11.0044 45.0045 11.141C44.6415 11.2678 44.2503 11.3919 43.8096 11.5197C43.6707 11.5577 43.5323 11.5952 43.3939 11.6322C43.1147 11.7072 42.836 11.7822 42.5587 11.8632C42.2017 11.9669 41.8462 12.0752 41.4897 12.1831L41.3957 12.2118C41.0786 12.3026 40.7559 12.3901 40.4365 12.4729C39.6457 12.6748 38.8476 12.9215 38.0633 13.2058C37.4647 13.4234 36.861 13.6586 36.2772 13.8864L35.8596 14.0489C35.4267 14.2174 34.992 14.3817 34.5578 14.5461C34.1892 14.6854 33.8207 14.8248 33.4531 14.9669C33.2226 15.0549 32.9915 15.1539 32.7684 15.2498C32.6471 15.3021 32.5258 15.3539 32.4036 15.4049L31.2152 15.8975C30.5425 16.1757 29.8101 16.4604 28.9744 16.7688L28.786 16.8387C28.6466 16.8905 28.5073 16.9424 28.3665 16.9919C28.3471 16.9979 28.3309 17.0039 28.3147 17.0104L28.279 17.0243C28.248 17.0345 28.2212 17.0433 28.1948 17.0526C28.0017 17.1206 27.8091 17.1864 27.6161 17.2521C27.1976 17.3933 26.7804 17.5447 26.3767 17.691C25.9263 17.8558 25.4721 18.035 25.0332 18.2086C24.724 18.3308 24.4147 18.453 24.1045 18.5711L24.104 18.5715V18.5706C23.349 18.8544 22.5957 19.1711 21.8665 19.4771L21.5689 19.5998ZM25.7869 20.9813C26.654 20.7007 27.5828 20.3697 28.7096 19.9405L28.7661 19.9188L28.7346 19.8225C28.699 19.716 28.6619 19.6095 28.6249 19.503C28.5925 19.4104 28.5605 19.3178 28.529 19.2252L28.4059 18.859C28.3758 18.7692 28.349 18.6789 28.3249 18.5877L28.3073 18.5215L28.0263 18.6188C27.8087 18.6938 27.5911 18.7688 27.373 18.8447C26.7721 19.0641 26.1661 19.2989 25.5795 19.5266C25.1156 19.7063 24.6522 19.8864 24.1855 20.0604C23.7314 20.241 23.273 20.434 22.83 20.6206L22.4263 20.7901C22.1503 20.9063 21.8295 21.0382 21.5068 21.1354L21.3064 21.1961L21.3587 21.2993C21.5078 21.6081 21.6087 21.9493 21.6957 22.272L21.7133 22.3373L21.7772 22.3155C22.2587 22.1549 22.7411 21.997 23.2235 21.8396C24.0656 21.5641 24.9365 21.2794 25.7869 20.9813ZM20.2235 22.3308C20.1999 22.2586 20.1749 22.1877 20.1499 22.1164L20.1415 22.0928L20.1198 22.0813C19.9633 21.9989 19.8429 21.8623 19.78 21.697L19.7582 21.6396L19.7003 21.6595C19.5411 21.7132 19.3818 21.7688 19.2235 21.8239C19.1059 21.8651 18.9888 21.9058 18.8712 21.9461L18.8017 21.9702L18.8883 22.1424C18.9712 22.3109 19.0656 22.5067 19.142 22.7058C19.1962 22.8461 19.2499 22.9868 19.3022 23.1285L19.3244 23.1891L19.3846 23.166C19.6897 23.0489 19.9966 22.9354 20.304 22.8252L20.3596 22.8053L20.3439 22.7479C20.305 22.609 20.2652 22.4706 20.2235 22.3308ZM17.6078 22.7692L17.5846 22.7387C17.5017 22.6748 17.4314 22.5919 17.3823 22.4984L17.3559 22.4479L17.3027 22.4688C17.1777 22.5183 17.0536 22.5692 16.9267 22.6225C16.53 22.8081 16.1744 22.9831 15.8388 23.1577C15.6531 23.2544 15.461 23.3502 15.2513 23.4512L15.2091 23.4711L15.3897 24.7822L15.4638 24.7544C16.2332 24.4683 16.8189 24.2405 17.3656 24.0151C17.5591 23.9252 17.7531 23.8382 17.948 23.753L18.004 23.7285L17.9823 23.6715C17.8508 23.3327 17.7346 23.0502 17.6078 22.7692ZM29.3869 81.6998L29.0184 81.1868C29.0128 81.1789 29.0073 81.1711 28.998 81.1567L28.8439 80.9456L28.7994 80.9604C28.3328 81.1188 27.867 81.2808 27.3999 81.4452C26.7068 81.7225 26.0758 82.1266 25.4656 82.5178C25.1286 82.7345 24.7795 82.9581 24.4267 83.1563C23.9485 83.4063 23.4656 83.6789 22.9513 83.9891L22.898 84.0215L22.9522 84.116C23.0865 84.3535 23.2253 84.5993 23.4587 84.7044C23.7429 85.0729 24.0693 85.3739 24.38 85.553L24.4101 85.5702L24.5059 85.5206C24.824 85.3563 25.1527 85.1859 25.474 85.0118C25.5976 84.9415 25.7198 84.8688 25.842 84.7956L25.8679 84.7799L25.8721 84.7493C25.8841 84.6567 25.8892 84.5655 25.8869 84.4776C26.4642 84.1873 27.0402 83.8512 27.5976 83.5262C28.2267 83.16 28.8772 82.7803 29.5332 82.4637L29.5976 82.4327L29.5355 82.3345C29.5721 82.1123 29.5184 81.8827 29.3869 81.6998ZM48.773 12.8211L48.7226 12.6516C48.63 12.3405 48.5341 12.0188 48.411 11.7127L48.4008 11.6868L48.3744 11.6771C48.3605 11.672 48.3476 11.666 48.3337 11.659C48.2573 11.622 48.1888 11.5711 48.13 11.5077L48.1013 11.4771L48.0619 11.491C47.9744 11.522 47.8865 11.5535 47.7994 11.5859L47.749 11.6044L47.7587 11.6572C47.7601 11.6655 47.7624 11.6734 47.767 11.6896C47.817 11.8373 47.8716 11.9831 47.9258 12.1289C47.9596 12.2188 47.9934 12.309 48.0258 12.3998C48.1045 12.6202 48.1767 12.8424 48.2499 13.0697C48.2948 13.2109 48.3374 13.3526 48.3772 13.4956L48.3943 13.5563L48.4554 13.5396C48.5985 13.5007 48.7416 13.4627 48.8851 13.4252L48.9485 13.4086L48.9295 13.3452C48.8777 13.1706 48.8258 12.9956 48.773 12.8211ZM57.0087 11.4965C56.7846 10.9239 56.5207 10.259 56.224 9.61413L56.2031 9.56876L56.154 9.57802C55.5795 9.6896 55.0059 9.80302 54.4328 9.91923C53.8244 10.0428 53.3281 10.1331 52.8707 10.2035C52.2957 10.291 51.7818 10.3808 51.2962 10.478C50.8272 10.6026 50.3244 10.7507 49.7152 10.9433L49.6457 10.9651L49.6767 11.0308C49.7721 11.2336 49.8415 11.4535 49.9087 11.6664L49.9179 11.6952C49.9846 11.9067 50.0513 12.1183 50.1152 12.3313C50.1823 12.5563 50.249 12.7817 50.3152 13.0072L50.3318 13.0651L50.3906 13.0512C50.9471 12.9197 51.5045 12.7928 52.0619 12.666C53.1226 12.4248 54.2189 12.1757 55.2846 11.8952C55.8439 11.7942 56.4031 11.6896 56.9615 11.5822L57.0369 11.5678L57.0087 11.4965ZM49.2684 11.4095L49.2508 11.3952L49.2638 11.4077L49.2466 11.4002L49.2443 11.4044L49.2434 11.4039L49.2443 11.4049L49.2416 11.4104L49.3411 11.485L49.3568 11.4637L49.3564 11.4632L49.3596 11.4586L49.3253 11.4377L49.3642 11.4484L49.2684 11.4095ZM46.955 13.7049L46.9277 13.6192C46.8513 13.3813 46.7726 13.135 46.6865 12.8956L46.6341 12.7512C46.6013 12.6614 46.5689 12.5715 46.536 12.4822L46.499 12.3845C46.4749 12.322 46.4503 12.2581 46.4281 12.1942L46.4064 12.1317L46.3448 12.1558C46.1814 12.2202 46.0179 12.2836 45.854 12.3461L45.798 12.3674L45.8156 12.4243C45.8203 12.4391 45.824 12.4544 45.8272 12.4697L45.8485 12.5391L45.8591 12.535C45.8888 12.6178 45.9184 12.7012 45.948 12.784C46.1008 13.2114 46.2591 13.653 46.3828 14.0984L46.4008 14.1627L46.4647 14.1414C46.5096 14.1262 46.555 14.1114 46.6013 14.0965C46.723 14.0563 46.8453 14.016 46.9675 13.9776L47.0253 13.959L47.0096 13.9002C46.992 13.8354 46.9744 13.7711 46.955 13.7049ZM31.1605 18.6303L31.1513 18.6095C31.0628 18.4146 30.9721 18.2137 30.8749 18.0183C30.8207 17.9077 30.78 17.8002 30.7531 17.6984L30.7351 17.6289L30.5716 17.6933C30.3698 17.7715 30.1665 17.847 29.9633 17.9225L29.6587 18.0359L29.6999 18.2095C29.7865 18.4998 29.8874 18.7905 29.9846 19.0715L30.0985 19.4021L31.2753 18.9396L31.254 18.8817C31.224 18.7989 31.1934 18.7164 31.1605 18.6303ZM44.7869 13.7641C44.7503 13.6614 44.7115 13.5586 44.6726 13.4558C44.6017 13.2688 44.529 13.0757 44.4707 12.884L44.4527 12.8239L44.3925 12.8414C44.1328 12.9155 43.8712 12.985 43.6101 13.0539C43.4457 13.0979 43.2809 13.1414 43.1161 13.1864C42.8337 13.2683 42.5513 13.3526 42.2693 13.4373C41.961 13.5294 41.6527 13.622 41.3434 13.7109C41.1392 13.7697 40.9281 13.8225 40.7244 13.8734L40.5054 13.9285C40.2804 13.9864 40.055 14.0539 39.8369 14.1192L39.7133 14.1563C39.0221 14.3743 38.2953 14.6354 37.4258 14.9776C36.6522 15.2803 35.8638 15.5789 35.1272 15.8567C34.7462 16.0002 34.3656 16.1452 33.9855 16.2914C33.7591 16.3789 33.5328 16.4762 33.3133 16.5702C33.1883 16.6239 33.0633 16.6776 32.9378 16.7294L32.6443 16.8512C32.4804 16.9192 32.3165 16.9877 32.1522 17.0553L32.0957 17.0785L32.1165 17.1359C32.1457 17.2155 32.1605 17.297 32.1601 17.3785L32.1596 17.3924L32.1656 17.4058C32.1994 17.4789 32.2341 17.5516 32.2693 17.6248C32.354 17.8021 32.4415 17.985 32.5119 18.1706L32.6064 18.422L32.6661 18.3993C34.0684 17.8627 35.1587 17.4794 36.1999 17.1567C37.5068 16.766 38.8411 16.3882 40.1314 16.0225C41.724 15.5715 43.3707 15.1053 44.9804 14.6104L45.0392 14.5924L44.9406 14.2456C44.8929 14.0868 44.8439 13.9234 44.7869 13.7641Z" fill="#FFA857"/>
<path d="M46.0385 72.1153C45.9469 72.1986 45.8381 72.2417 45.7237 72.2417C45.6857 72.2417 45.6469 72.2371 45.608 72.2273C45.3996 72.1764 45.2112 71.9935 45.1394 71.7723C44.9612 71.3635 44.9496 70.9843 45.107 70.6519C45.5177 69.7829 46.9908 69.3616 48.2908 68.9903C48.958 68.7996 49.5876 68.6195 49.9686 68.4042C51.6288 67.6931 53.2376 66.9195 54.4543 66.3246C55.6547 65.7621 56.8996 65.2486 58.1033 64.7528C60.3107 63.8431 62.5927 62.9023 64.6728 61.6273C65.5094 61.1162 66.4052 60.6861 67.2714 60.2704C68.0649 59.8898 68.8857 59.4959 69.6552 59.0417C69.8714 58.8954 70.1543 58.9815 70.3246 59.1246C70.6418 59.4385 70.8066 59.9292 70.7695 60.4403C70.7353 60.9111 70.532 61.3167 70.2112 61.5537C68.489 62.5773 66.5691 63.2246 64.7131 63.85C63.17 64.3704 61.5746 64.9084 60.1052 65.657L60.1047 65.6574C59.0432 66.1885 57.9719 66.7477 56.9357 67.288C53.4635 69.1 49.8732 70.9736 46.0385 72.1153ZM45.9992 91.5014L45.7932 91.7709L46.0603 91.6185L46.0936 91.5852L46.0927 91.406L45.9992 91.5014ZM46.1723 90.919L46.3112 90.7625L46.289 90.963L46.27 90.9602L46.2867 90.9834L46.2487 91.2426L46.1339 90.9685L46.1723 90.919ZM46.226 90.9542L46.2394 90.9607L46.2473 90.957L46.226 90.9542ZM34.7482 51.8185L34.7617 51.8213L34.7751 51.8176C38.5682 50.8315 42.1487 49.057 45.6117 47.3412C47.4228 46.4435 49.2959 45.5153 51.1705 44.7148C52.1001 44.356 53.0732 44.0644 54.0145 43.7824C55.3219 43.3908 56.6732 42.9852 57.9209 42.3977C58.2677 42.3 58.5357 41.9607 58.6561 41.4672C58.7881 40.9273 58.7265 40.1991 58.3552 39.851C58.1631 39.6718 57.9135 39.6227 57.6209 39.7167C55.045 41.1723 52.2959 42.5269 49.2209 43.8556C47.2719 44.5292 45.3543 45.3635 43.4996 46.1704C41.6654 46.9685 39.7686 47.7935 37.8362 48.4658C37.626 48.576 37.2126 48.7185 36.7339 48.8838C35.2844 49.3834 34.1742 49.8037 34.1561 50.269C34.0547 50.607 34.0441 51.1301 34.2598 51.4797C34.3756 51.6676 34.5399 51.782 34.7482 51.8185ZM42.1848 65.1153L42.2015 65.1232L42.22 65.1204C45.307 64.6922 48.1607 63.1162 50.9205 61.5931C51.3316 61.3658 51.7399 61.1403 52.1464 60.9204C52.601 60.6676 52.7103 59.8385 52.4987 59.3204C52.3478 58.9519 52.0617 58.7954 51.7121 58.8917L51.6959 58.8986C49.5529 60.1922 47.1834 61.2834 44.4515 62.2352C44.2357 62.313 44.0214 62.394 43.807 62.475C43.2547 62.6838 42.6834 62.9 42.101 63.051L42.0811 63.0602C41.7672 63.2732 41.5904 63.7213 41.6307 64.2014C41.6663 64.631 41.8737 64.9727 42.1848 65.1153ZM57.8274 44.3292C56.7987 44.7454 55.739 45.1908 54.7135 45.6209C52.5334 46.5366 50.2788 47.4829 48.0589 48.2667C45.901 48.9644 43.8631 49.9454 41.8927 50.894C40.4918 51.5685 39.0427 52.2662 37.5807 52.8449C37.2603 52.6699 36.9677 52.7408 36.7728 53.0435C36.4533 53.5408 36.4783 54.5607 36.951 54.8894C37.1746 54.9912 37.4172 55.0361 37.6723 55.0361C38.7168 55.0357 39.9825 54.2857 41.1246 53.6079C41.6649 53.2875 42.1751 52.9852 42.5973 52.807C43.5658 52.2741 44.6057 51.8454 45.6117 51.4315C46.1982 51.1898 46.8047 50.9398 47.3913 50.6718C48.0353 50.3713 48.6839 50.0482 49.3112 49.7357C51.2561 48.7658 53.2677 47.7635 55.4464 47.2931C55.8357 47.1398 56.3654 47.0547 56.926 46.9639C57.9709 46.7945 59.1547 46.6033 59.6478 45.8977C59.8746 45.5736 59.9408 45.1584 59.8455 44.6644C59.7996 44.438 59.6742 44.0334 59.3432 43.8561C59.0006 43.7315 58.6844 43.9102 58.3793 44.0838C58.2024 44.1848 58.0191 44.2889 57.8274 44.3292ZM47.8482 57.8486C49.0594 57.2014 50.3121 56.5315 51.6043 56.0033L51.6135 55.9986C52.051 55.7329 52.1094 55.1167 52.026 54.6685C51.9769 54.425 51.8408 54.1213 51.6061 53.9982C51.4723 53.9278 51.3265 53.925 51.1732 53.9908C50.257 54.363 49.3594 54.8111 48.4913 55.2449C48.3131 55.3343 48.1344 55.4232 47.9557 55.5121L47.5186 55.7306C46.0182 56.481 44.4668 57.2579 42.845 57.7931C42.5149 57.9102 42.1885 58.0417 41.8732 58.1685C41.4121 58.3542 40.9348 58.5459 40.4279 58.7014C40.1807 58.8213 40.0038 59.0584 39.9293 59.369C39.8288 59.7871 39.9219 60.2801 40.1612 60.5963L40.1732 60.6084C40.3654 60.756 40.5723 60.8135 40.7871 60.8135C41.1626 60.8135 41.5635 60.6385 41.9557 60.4672C42.2394 60.3435 42.507 60.2264 42.7612 60.1792C44.5533 59.6102 46.2283 58.7148 47.8482 57.8486ZM77.0617 69.5801C76.5709 69.5801 76.3885 70.2361 76.3885 70.6496C76.3885 71.063 76.5709 71.719 77.0617 71.719C77.5524 71.719 77.7348 71.063 77.7348 70.6496C77.7348 70.2361 77.5524 69.5801 77.0617 69.5801ZM70.4228 73.2199C70.0705 72.9486 69.5464 73.2704 69.0394 73.582C68.7408 73.7658 68.4589 73.9394 68.233 73.9815L68.2195 73.9857C67.9682 74.094 67.6978 74.1852 67.4362 74.2727C66.8191 74.4801 66.1811 74.694 65.6936 75.1773C65.4876 75.5176 65.4376 76.0292 65.5714 76.4209C65.6658 76.6982 65.8413 76.8931 66.0793 76.9852L66.0941 76.9908L66.1098 76.9889C66.6302 76.9255 67.1492 76.726 67.651 76.5329C67.9626 76.413 68.2848 76.2889 68.6066 76.1986C69.5672 75.8209 70.5779 75.331 70.7964 74.5621C70.9121 74.1547 70.7904 73.7074 70.4348 73.2324L70.4228 73.2199ZM73.1955 71.1014C72.8478 70.8593 72.5899 70.9005 72.4353 70.9773C72.1728 71.1074 71.9996 71.4459 71.9834 71.8602C71.9658 72.3051 72.1371 72.8949 72.6705 73.2227C72.9075 73.5755 73.12 73.6658 73.2756 73.6658C73.3043 73.6658 73.3307 73.663 73.3552 73.6574C73.602 73.607 73.8015 73.3153 73.8765 72.8968C73.9867 72.2843 73.8186 71.4917 73.1955 71.1014ZM52.8922 81.7917C52.7348 81.5426 52.5719 81.2848 52.52 80.9931L52.5158 80.9792C52.3186 80.5158 52.0149 80.525 51.8941 80.551C51.5644 80.6213 51.2918 81.0264 51.2992 81.4292C51.2418 82.126 51.4936 82.8625 52.0663 83.6787C52.232 83.9473 52.4121 84.0158 52.5533 84.0158C52.6145 84.0158 52.6682 84.0028 52.7103 83.9875C53.0626 83.8602 53.3487 83.3121 53.2885 82.8949C53.3168 82.4639 53.1006 82.1222 52.8922 81.7917ZM64.2047 76.2098C63.9899 75.6963 63.7182 75.4107 63.4385 75.4065C63.4362 75.406 63.4344 75.406 63.432 75.406C63.2413 75.406 63.0705 75.5422 62.9617 75.7801C62.7209 76.3074 62.7538 77.5283 63.8293 78.731C63.932 78.8773 64.0742 78.9551 64.2353 78.9551C64.2603 78.9551 64.2862 78.9533 64.3117 78.9496C64.5478 78.9148 64.7672 78.7223 64.8422 78.4889C65.2394 77.688 64.7441 76.9792 64.3066 76.3537L64.2047 76.2098ZM74.7765 70.1172C74.2857 70.1172 74.1029 70.7727 74.1029 71.1857C74.1029 71.5991 74.2857 72.2542 74.7765 72.2542C75.2668 72.2542 75.4496 71.5991 75.4496 71.1857C75.4496 70.7727 75.2668 70.1172 74.7765 70.1172ZM62.402 77.1269C62.2107 76.7574 62.0131 76.375 61.6399 76.1931L61.6182 76.1866C61.3996 76.1672 61.2131 76.244 61.0779 76.4111C60.8172 76.7348 60.7876 77.3473 60.914 77.7394C60.983 77.8685 61.0455 78.0116 61.1121 78.163C61.3094 78.6121 61.5131 79.076 61.92 79.3023L61.9459 79.3102C61.9654 79.3116 61.9848 79.3125 62.0038 79.3125C62.2316 79.3125 62.4223 79.2088 62.557 79.0107C62.8279 78.613 62.8149 77.9181 62.6297 77.5357C62.5487 77.4116 62.4774 77.2732 62.402 77.1269ZM54.9607 79.6829C54.6455 79.6672 54.4107 79.9334 54.3172 80.4056L54.3168 80.4074C54.1932 81.1222 54.4052 81.9084 54.9089 82.6125C55.0191 82.8227 55.2047 82.944 55.4117 82.944C55.4265 82.944 55.4413 82.9431 55.4561 82.9422C55.7029 82.9213 55.9177 82.7403 56.0006 82.4871C56.2672 81.9389 56.1436 81.2727 55.6524 80.6098C55.607 80.0334 55.264 79.7023 54.9607 79.6829ZM57.0191 78.2699C56.7367 78.3783 56.4955 78.7824 56.5006 79.1371C56.401 79.6764 57.2066 81.5986 57.6973 81.7709L57.7131 81.7764L57.7293 81.7736C58.101 81.7088 58.3496 81.5348 58.4682 81.2556C58.8399 80.3797 57.7959 78.7695 57.5783 78.4496C57.4131 78.2584 57.2145 78.194 57.0191 78.2699ZM60.5177 77.9292C60.4001 77.5718 60.2788 77.2019 59.8496 77.1408L59.8339 77.1385L59.8186 77.144C59.5061 77.2584 59.2978 77.4699 59.2001 77.7718C58.9686 78.488 59.4283 79.551 59.7959 80.0945C59.9672 80.3121 60.1422 80.4218 60.3172 80.4218C60.3399 80.4218 60.3626 80.4204 60.3853 80.4167C60.6015 80.3815 60.7936 80.1713 60.9126 79.8403C61.0649 79.4153 61.0765 78.8232 60.802 78.5116C60.6617 78.3672 60.5885 78.1449 60.5177 77.9292Z" fill="#82A1FD"/>
<path d="M32.5368 38.0427C32.4451 38.4872 32.1896 38.7524 31.8609 38.7524C31.8368 38.7524 31.8127 38.7506 31.7877 38.7478L31.7817 38.7469C30.59 38.4876 29.6308 37.7423 28.703 37.021C28.5396 36.8936 28.3761 36.7663 28.2118 36.6423C28.1289 36.5927 28.0405 36.5409 27.9525 36.489C27.1289 36.0061 26.3511 35.5497 26.7238 34.3649C26.7979 34.0733 27.0058 33.8751 27.2067 33.6835C27.3886 33.5099 27.5604 33.346 27.6451 33.114C27.8687 32.7362 28.0039 32.3029 28.1349 31.8839C28.3197 31.2941 28.5099 30.6844 28.9359 30.2386L28.9511 30.2224L28.9729 30.2191C29.2928 30.1728 29.5271 30.2506 29.6715 30.4501C30.2923 31.3075 28.9516 34.1724 28.7553 34.5798C29.0201 34.7756 29.2794 34.9909 29.5303 35.1997C30.2683 35.8126 31.0317 36.4469 32.0053 36.6441C32.4697 36.7835 32.6535 37.4798 32.5368 38.0427ZM55.4465 25.2886C55.2062 24.1811 54.0891 23.7682 53.1035 23.4034C52.8298 23.302 52.571 23.2066 52.3322 23.0978C52.1178 23.0186 51.9072 22.9131 51.703 22.8108C51.3951 22.6561 51.0771 22.4969 50.7335 22.421L50.721 22.4182L50.7081 22.421C50.4104 22.4788 50.1914 22.7006 50.0919 23.0441C49.9511 23.5307 50.0845 24.1409 50.4002 24.4381C51.0178 24.9038 51.74 25.2006 52.4382 25.4876C52.9488 25.6974 53.4761 25.914 53.9562 26.1946C53.9076 26.6015 53.7192 27.0256 53.5368 27.4362C53.1947 28.2071 52.8405 29.0043 53.3521 29.7649C53.4553 29.9061 53.5937 29.9807 53.7484 29.9807C53.7734 29.9807 53.7988 29.9788 53.8247 29.9747C54.047 29.9404 54.2488 29.7617 54.328 29.5293C54.4058 29.3386 54.4877 29.1464 54.5701 28.952C55.0678 27.7798 55.5826 26.5682 55.4465 25.2886ZM49.2132 33.383C49.0947 35.6631 47.3113 37.364 44.4368 37.946C44.6613 38.5936 44.9275 39.3501 45.216 40.1061C45.4502 40.439 45.4914 41.2154 45.1956 41.627C45.1072 41.7497 44.9604 41.8779 44.7331 41.8779C44.6706 41.8779 44.6021 41.8682 44.5275 41.8464L44.5072 41.8404L44.4947 41.8242C43.9294 41.0867 43.7271 40.1237 43.5312 39.1918C43.4553 38.8311 43.3771 38.4589 43.2789 38.1061C42.7206 38.1474 42.1738 38.1381 41.6535 38.0784C40.6002 37.9737 39.5289 37.7839 38.4928 37.5997C37.9553 37.5043 37.3997 37.4061 36.8599 37.3219C36.5386 37.2168 36.421 36.77 36.49 36.4154C36.5516 36.0964 36.7525 35.9089 36.9997 35.9247C38.4646 36.1362 40.0692 36.1186 41.9099 35.8728C42.097 35.8335 42.2905 35.7918 42.4854 35.7474C42.0502 34.4659 41.6025 33.1427 41.1993 31.82C39.0164 32.6881 36.878 33.3691 34.7266 32.3409C33.2085 31.5057 33.0206 29.5872 33.1298 28.1242C33.2104 26.1946 34.9803 24.5469 37.9891 23.5997C37.8169 23.1464 37.6715 22.72 37.546 22.2978C37.4562 21.5001 37.3817 20.1015 37.8627 19.5774C37.9965 19.4321 38.1673 19.3612 38.3618 19.3654L38.3863 19.371C39.0048 19.6497 38.9572 20.3214 38.915 20.9145C38.8988 21.1413 38.8835 21.3557 38.9039 21.5395C39.0803 22.0349 39.291 22.5839 39.5442 23.2024C41.0646 22.8997 42.5609 22.8376 43.6576 23.0321C45.5002 22.9511 45.971 23.8969 46.0882 24.3071C46.2493 24.8733 46.0785 25.5029 45.7076 25.7112C45.491 25.8335 45.2456 25.7751 45.0317 25.5524C43.5192 25.2182 41.9275 25.1251 40.4234 25.2849C40.9016 26.4085 41.3965 27.6052 41.784 28.839C42.6447 28.508 43.528 28.233 44.4113 28.0219L44.415 28.021C45.7567 27.783 46.84 28.0015 47.6359 28.6686C48.9386 29.7599 49.2127 31.8344 49.2132 33.383ZM39.1516 26.3029C39.0382 26.0538 38.9247 25.8052 38.8127 25.5561C38.391 25.6552 37.9743 25.777 37.5734 25.9186C37.3572 26.0404 37.1178 26.1649 36.8863 26.2858C35.9484 26.7747 34.9789 27.2802 34.3664 28.1182C34.2632 28.5131 33.8627 30.3474 35.1706 30.8376L35.1715 30.8381C36.8169 31.4913 38.2859 30.6483 39.7067 29.833C39.9558 29.6904 40.2122 29.5432 40.4641 29.4075C40.0831 28.345 39.6099 27.3071 39.1516 26.3029ZM47.6673 32.1108C47.6493 31.9751 47.6312 31.8349 47.6229 31.7029C47.59 31.2256 47.4048 30.8724 47.0738 30.6524C46.1979 30.0724 44.603 30.5506 44.1354 30.7112C43.5516 30.8862 42.9724 31.1085 42.4766 31.3057C42.5525 31.6186 42.6261 31.9325 42.6993 32.2464C42.9497 33.3159 43.2085 34.4214 43.5622 35.4802C45.3951 34.9756 46.6516 34.3048 47.5122 33.371C47.7877 33.0224 47.7266 32.5585 47.6673 32.1108Z" fill="#01B695"/>
<path d="M44.821 89.7275C44.6872 89.8196 44.4955 89.8978 44.2307 89.8978C43.9654 89.8978 43.627 89.8196 43.1992 89.5992C43.0344 89.4756 42.8622 89.359 42.6793 89.2358C41.789 88.6349 40.7798 87.9543 41.1789 86.7502C41.2821 86.4428 41.439 86.2677 41.6451 86.2298C41.8853 86.1863 42.1789 86.3455 42.4492 86.6705C42.5307 86.7233 42.6127 86.7752 42.6946 86.8261C42.8779 86.9414 43.0654 87.0585 43.2446 87.1909L43.0298 86.8687C42.8534 86.6025 42.671 86.327 42.4839 86.0622C42.4154 85.9645 42.3488 85.8664 42.2821 85.7677C42.133 85.5488 41.9789 85.3219 41.8085 85.1145L41.7089 84.9937C41.4724 84.7057 41.2284 84.4076 40.9645 84.1386C40.8451 84.0168 40.7168 83.9002 40.5918 83.7877C40.4724 83.6793 40.3488 83.5678 40.233 83.4502C40.0849 83.2923 39.9395 83.1344 39.7941 82.977L39.5381 82.7002C39.4548 82.6099 39.3701 82.5205 39.2858 82.4316C39.1585 82.2978 39.0316 82.164 38.9089 82.0261C38.3775 81.3752 37.9307 80.6497 37.5265 79.9617C37.4395 79.8057 37.3548 79.6506 37.2701 79.4951C37.227 79.4168 37.1839 79.3381 37.1409 79.2599V79.3238L37.0187 79.0395L37.0335 79.0312L37.0182 79.0372C36.7696 78.5923 36.5039 78.1478 36.2474 77.7178C36.0136 77.3265 35.7719 76.9224 35.5441 76.5187C35.1307 75.7844 34.665 75.0654 34.2145 74.3701L34.002 74.0418C33.8964 73.8668 33.7937 73.6928 33.6909 73.5187C33.3622 72.9627 33.0224 72.3872 32.6312 71.8599C32.2312 71.1085 31.8182 70.3187 31.3992 69.5039C30.7682 68.4108 30.1645 67.2752 29.5802 66.1765C28.6376 64.4039 27.6626 62.5701 26.5464 60.864C26.1145 60.1863 25.6941 59.5034 25.2284 58.7451C25.1659 58.5978 25.1071 58.4594 25.0455 58.321C24.8437 57.8654 24.6168 57.4122 24.3974 56.9733C24.2464 56.6719 24.0904 56.3608 23.9437 56.0506C23.8631 55.8798 23.7761 55.7103 23.6844 55.5469L23.6784 55.5377C23.6599 55.5039 23.6404 55.4701 23.6205 55.4358C23.5816 55.3691 23.5418 55.302 23.5001 55.2358L23.3728 55.0395C23.3515 55.0057 23.3302 54.9742 23.308 54.9432C23.2594 54.8724 23.2103 54.8039 23.1594 54.7363L22.9349 54.2381C22.8122 53.9631 22.6978 53.6789 22.5872 53.4039C22.5344 53.2728 22.4821 53.1418 22.4284 53.0117C22.1733 52.3918 21.9298 51.7557 21.6941 51.14L21.5122 50.6664C21.3969 50.3664 21.2826 50.0668 21.1677 49.7668L21.0589 49.4812C20.9497 49.1941 20.8302 48.9048 20.7145 48.6252L20.5895 48.3215C20.4557 47.9974 20.3048 47.6608 20.1279 47.2928C20.089 47.2122 20.0492 47.133 20.0089 47.0534L19.927 46.8904L19.9793 46.8608C20.5395 46.5437 21.1302 46.2719 21.6872 46.021L21.746 45.9941L21.7714 46.0534C22.2302 47.1122 22.5631 47.9303 22.8515 48.7076C23.7613 51.2377 24.8529 54.1673 26.2955 56.9247C26.9177 58.09 27.6599 59.2154 28.3784 60.3039C29.4131 61.8724 30.4835 63.4946 31.2182 65.2724C32.9525 69.0289 35.1816 72.8404 38.233 77.2659C39.9071 79.1793 41.6802 81.2386 43.2835 83.4534C43.5011 83.7446 43.7214 84.0802 43.9562 84.4789L43.9997 84.5802C44.015 84.6173 44.0302 84.6539 44.046 84.6904C44.2631 85.1858 44.5062 85.6798 44.7409 86.1576L44.9113 86.5062C45.0548 86.8187 45.1756 87.1145 45.2812 87.4122L45.2946 87.465C45.3048 87.7043 45.3094 87.9432 45.3094 88.1752C45.3909 88.877 45.208 89.4599 44.821 89.7275ZM29.6386 79.6076L29.5196 79.4645C29.1201 78.9719 28.7293 78.4511 28.3275 77.8756C27.7381 76.9252 27.1557 75.9488 26.5927 75.0043C25.4983 73.1691 24.3668 71.2715 23.1404 69.4895L23.1307 69.4742C22.077 67.9182 20.9589 66.414 19.9969 65.1381C19.3432 64.1173 18.7335 63.0432 18.1437 62.0048L18.0599 61.8566L18.0478 61.8418C18.0275 61.8228 18.0076 61.8015 17.9863 61.7784C17.9302 61.7178 17.883 61.6515 17.833 61.5821L17.8127 61.5534C17.7256 61.4326 17.6381 61.3122 17.5492 61.1928C17.4367 61.0418 17.3279 60.8886 17.2182 60.7358C17.1529 60.6432 17.0867 60.5511 17.0205 60.4594C16.6742 59.984 16.3029 59.5316 15.9844 59.152L15.9312 59.0895C15.764 58.8932 15.5909 58.6904 15.4381 58.4789C15.252 58.2187 15.1029 58.021 14.9525 57.8358C14.9191 57.7988 14.8858 57.7631 14.8497 57.7261L14.6441 57.5326C14.4714 57.3863 14.2812 57.2381 14.0252 57.0511C13.9363 56.9918 13.8427 56.9353 13.7275 56.871L13.6414 56.8298C13.4136 56.7228 13.1816 56.634 13.0029 56.5682C12.8974 56.5335 12.8043 56.5066 12.7136 56.484C12.6247 56.4691 12.5363 56.4576 12.4437 56.4483C12.3437 56.4428 12.2437 56.4404 12.1344 56.4414L12.0701 56.4502L12.0557 56.4627C12.0085 56.5048 11.9613 56.5353 11.9103 56.5566C11.8497 56.5835 11.7886 56.6071 11.7279 56.6312L11.6427 56.6701L11.6219 56.689C11.59 56.7279 11.5589 56.7678 11.5265 56.8122C11.4858 56.8784 11.4474 56.9437 11.4099 57.0103L11.4025 57.0321C11.3807 57.1742 11.3381 57.2895 11.2719 57.384L11.2289 57.533C11.1668 57.8594 11.1233 58.1265 11.0941 58.365C10.564 60.3303 11.4714 62.3877 12.2724 64.2025L12.3525 64.3844C12.6511 64.9803 12.9835 64.9238 13.1127 64.8715C13.4849 64.721 13.6974 64.089 13.5437 63.5974C13.4099 63.0932 13.2205 62.6117 13.0372 62.146C12.7728 61.4728 12.4997 60.777 12.3983 60.0215C12.3881 59.6039 12.4187 59.0909 12.7414 58.8289C12.7909 58.8002 12.8363 58.7664 12.8775 58.7289C12.9701 58.708 13.0733 58.6941 13.1853 58.689C13.3696 58.6793 13.5478 58.7062 13.7316 58.7728C13.9363 58.8451 14.108 58.9659 14.3127 59.1168C14.3191 59.1215 14.3256 59.1265 14.3395 59.1372C14.3738 59.1571 14.4071 59.1779 14.44 59.1988L14.4566 59.209C14.6289 59.3178 14.8089 59.4631 15.0085 59.6539C15.1951 59.8321 15.3789 60.039 15.5552 60.2682C15.6918 60.4465 15.8247 60.6279 15.958 60.8094C16.0673 60.9585 16.1765 61.108 16.2877 61.2553C16.3525 61.3414 16.4173 61.427 16.4821 61.5127C16.7293 61.8386 16.9849 62.1752 17.2099 62.5247C17.4469 62.8937 17.6793 63.2752 17.9043 63.6441L18.0775 63.9265L18.0765 63.9275C18.0816 63.9363 18.0867 63.9451 18.0923 63.9534L18.1164 63.9918C18.3367 64.3414 18.5608 64.6886 18.7849 65.0358C18.9927 65.3571 19.2006 65.6789 19.4048 66.0029C19.702 66.4752 19.9895 66.9659 20.2677 67.4404L20.3603 67.5974C20.5543 67.9029 20.7279 68.1798 20.889 68.4696C20.9002 68.489 20.9099 68.5099 20.9228 68.5386L21.0932 68.815C21.1677 68.9353 21.2418 69.0557 21.3154 69.177C21.3853 69.2904 21.4534 69.4057 21.5228 69.5228L21.6089 69.6562C21.6798 69.7664 21.7511 69.877 21.821 69.9881C22.3386 70.8025 22.8469 71.6187 23.3326 72.4145C23.7548 73.108 24.1682 73.8015 24.5552 74.4525C25.4543 75.9622 26.5015 77.7164 27.552 79.4307C27.5714 79.4566 27.5909 79.4826 27.6103 79.5085H27.6099L27.6117 79.5372L27.6131 79.539V79.5775H27.6414L27.671 79.6261L27.6714 79.6265L27.6784 79.6224L27.7909 79.8191L27.79 79.8201L27.7918 79.8446L27.8089 79.8529L28.0492 80.2585L27.9946 80.0418L28.0687 80.1159C28.2335 80.334 28.3983 80.5534 28.5603 80.7742C28.6164 80.8492 28.6714 80.9252 28.7265 81.0006L28.8927 81.2275C28.8997 81.2395 28.908 81.2511 28.9154 81.2617L29.2839 81.7747C29.4002 81.9358 29.4446 82.1404 29.4062 82.3358L29.4011 82.3608L29.4826 82.4886L29.6492 82.4071C30.1344 82.1599 30.6626 81.8826 31.3117 81.5321L31.3927 81.4886L31.3233 81.4284C30.7043 80.8872 30.1626 80.2367 29.6386 79.6076Z" fill="#000001"/>
</svg>
