<svg width="143" height="143" viewBox="0 0 143 143" fill="none" xmlns="http://www.w3.org/2000/svg">
<mask id="mask0_40_10541" style="mask-type:luminance" maskUnits="userSpaceOnUse" x="9" y="44" width="7" height="52">
<path d="M9.4375 44.8418H15.7124V95.5097H9.4375V44.8418Z" fill="white"/>
</mask>
<g mask="url(#mask0_40_10541)">
<path d="M14.9788 95.3626C14.7222 95.3626 14.4788 95.2116 14.3726 94.9612C13.4258 92.731 12.6003 90.4214 11.9182 88.0981C11.8155 87.7492 12.0155 87.3837 12.3644 87.2809C12.7127 87.1788 13.0789 87.3781 13.1809 87.7271C13.8492 90.0022 14.6574 92.2627 15.5843 94.4468C15.7263 94.7812 15.5705 95.1681 15.236 95.3095C15.1519 95.3453 15.0643 95.3626 14.9788 95.3626ZM10.9211 81.5446C10.6066 81.5446 10.328 81.3184 10.2728 80.9978C9.86455 78.6165 9.58939 76.1801 9.4556 73.756C9.43561 73.3933 9.71352 73.083 10.0763 73.063C10.4397 73.043 10.75 73.3209 10.77 73.6836C10.9011 76.0573 11.1707 78.4434 11.5707 80.775C11.6321 81.1336 11.3914 81.4736 11.0328 81.535C10.9955 81.5419 10.9576 81.5446 10.9211 81.5446ZM10.1238 67.1646C10.1107 67.1646 10.0976 67.1646 10.0845 67.1639C9.7218 67.1426 9.44457 66.8315 9.46595 66.4681C9.60663 64.0448 9.88869 61.6083 10.3038 59.2278C10.3659 58.8699 10.7073 58.6299 11.0652 58.6926C11.4231 58.7547 11.6631 59.0961 11.6003 59.454C11.1941 61.7856 10.9176 64.171 10.7804 66.5447C10.7597 66.8943 10.4693 67.1646 10.1238 67.1646ZM12.6003 52.977C12.5382 52.977 12.4755 52.9681 12.4127 52.9495C12.0644 52.846 11.8658 52.4798 11.9693 52.1309C12.6582 49.8096 13.4906 47.5021 14.4436 45.2747C14.5871 44.9402 14.974 44.785 15.3077 44.9285C15.6422 45.0712 15.7974 45.4581 15.6539 45.7926C14.7209 47.9738 13.9057 50.2323 13.2313 52.5053C13.1465 52.7915 12.8844 52.977 12.6003 52.977Z" fill="#1C418C"/>
</g>
<path d="M72.7531 133.612C71.8476 133.612 70.9304 133.593 70.0284 133.555C69.6656 133.54 69.3836 133.233 69.3988 132.87C69.4139 132.506 69.7215 132.223 70.0842 132.24C70.9676 132.277 71.8655 132.296 72.7531 132.296C74.2413 132.296 75.7447 132.243 77.2218 132.138C77.5846 132.111 77.8997 132.385 77.9252 132.747C77.9514 133.11 77.6784 133.425 77.3156 133.451C75.8074 133.558 74.2723 133.612 72.7531 133.612ZM62.8798 132.84C62.8453 132.84 62.8108 132.837 62.7763 132.832C60.3813 132.453 57.9848 131.93 55.6539 131.279C55.3036 131.181 55.0994 130.818 55.1974 130.468C55.2953 130.118 55.658 129.913 56.0084 130.011C58.2903 130.649 60.6364 131.161 62.9818 131.532C63.3404 131.588 63.5859 131.925 63.5287 132.284C63.4777 132.608 63.1977 132.84 62.8798 132.84ZM84.4208 132.53C84.1105 132.53 83.8339 132.309 83.7746 131.992C83.707 131.635 83.9422 131.291 84.2994 131.224C86.631 130.785 88.9599 130.206 91.2218 129.502C91.5694 129.394 91.9384 129.588 92.0466 129.935C92.1542 130.282 91.9604 130.651 91.6135 130.759C89.3026 131.479 86.9241 132.07 84.5435 132.518C84.5022 132.525 84.4608 132.53 84.4208 132.53ZM98.1677 128.25C97.9153 128.25 97.6739 128.105 97.5657 127.859C97.4181 127.527 97.5677 127.138 97.9001 126.99C100.066 126.03 102.201 124.931 104.245 123.725C104.558 123.54 104.961 123.644 105.146 123.958C105.331 124.271 105.227 124.674 104.914 124.859C102.826 126.091 100.646 127.213 98.4339 128.194C98.347 128.232 98.2567 128.25 98.1677 128.25ZM110.571 120.935C110.371 120.935 110.175 120.845 110.045 120.674C109.826 120.384 109.883 119.972 110.173 119.752C112.064 118.321 113.892 116.765 115.609 115.126C115.872 114.875 116.288 114.885 116.539 115.148C116.79 115.411 116.781 115.828 116.518 116.079C114.766 117.752 112.898 119.341 110.968 120.802C110.848 120.891 110.709 120.935 110.571 120.935ZM120.987 110.99C120.838 110.99 120.689 110.94 120.566 110.837C120.287 110.605 120.249 110.19 120.481 109.911C122 108.087 123.428 106.156 124.726 104.173C124.926 103.869 125.334 103.783 125.638 103.983C125.942 104.182 126.027 104.589 125.828 104.894C124.502 106.919 123.044 108.89 121.493 110.753C121.363 110.909 121.176 110.99 120.987 110.99Z" fill="#1C418C"/>
<mask id="mask1_40_10541" style="mask-type:luminance" maskUnits="userSpaceOnUse" x="55" y="6" width="63" height="20">
<path d="M55.2578 6.78223H117.048V25.7751H55.2578V6.78223Z" fill="white"/>
</mask>
<g mask="url(#mask1_40_10541)">
<path d="M116.219 25.6084C116.055 25.6084 115.891 25.5478 115.764 25.425C114.053 23.7803 112.229 22.2176 110.343 20.7804C110.054 20.5597 109.998 20.1473 110.219 19.8577C110.439 19.5687 110.852 19.5129 111.141 19.7336C113.067 21.2011 114.929 22.7969 116.676 24.4754C116.938 24.7278 116.946 25.1443 116.694 25.4064C116.565 25.5409 116.393 25.6084 116.219 25.6084ZM104.763 16.8785C104.649 16.8785 104.533 16.8489 104.428 16.7861C102.387 15.5731 100.256 14.4669 98.0928 13.498C97.7611 13.3497 97.6121 12.9601 97.7611 12.6284C97.9093 12.2967 98.299 12.1477 98.6307 12.2967C100.84 13.2856 103.017 14.4159 105.101 15.6544C105.413 15.8406 105.516 16.2448 105.33 16.5572C105.207 16.764 104.988 16.8785 104.763 16.8785ZM91.6186 10.9933C91.5531 10.9933 91.4862 10.9836 91.4207 10.9629C89.1594 10.2506 86.8306 9.663 84.4996 9.21613C84.1424 9.14786 83.9086 8.80305 83.9769 8.44582C84.0452 8.08929 84.39 7.85482 84.7472 7.92309C87.1285 8.37962 89.5063 8.97959 91.8158 9.70714C92.1627 9.8161 92.3551 10.1857 92.2462 10.5326C92.1579 10.8133 91.8986 10.9933 91.6186 10.9933ZM56.0279 10.3609C55.739 10.3609 55.4741 10.1699 55.3935 9.87748C55.2969 9.52715 55.5024 9.1651 55.8527 9.06786C58.1857 8.42444 60.5836 7.90999 62.98 7.53897C63.3386 7.48311 63.6751 7.7293 63.731 8.0886C63.7868 8.44789 63.5407 8.78443 63.1814 8.84029C60.8353 9.20303 58.4871 9.70714 56.2031 10.3375C56.1445 10.3533 56.0858 10.3609 56.0279 10.3609ZM77.4724 8.281C77.4558 8.281 77.4393 8.28031 77.4227 8.27962C75.8794 8.16446 74.3077 8.10653 72.7526 8.10653C72.7519 8.10653 72.7512 8.10653 72.7499 8.10653C71.9313 8.10653 71.1024 8.12239 70.2858 8.1548C69.9224 8.16859 69.6162 7.88585 69.6024 7.52242C69.5879 7.15899 69.8714 6.85348 70.2341 6.839C71.0679 6.80659 71.914 6.79004 72.7499 6.79004C72.7512 6.79004 72.7519 6.79004 72.7526 6.79004C74.3401 6.79004 75.9449 6.84935 77.5207 6.96658C77.8834 6.99348 78.1551 7.30932 78.1282 7.67207C78.1027 8.01757 77.8138 8.281 77.4724 8.281Z" fill="#1C418C"/>
</g>
<path d="M118.816 70.2013C118.816 70.955 118.798 71.7088 118.76 72.4619C118.723 73.2149 118.668 73.9666 118.594 74.7169C118.52 75.4672 118.428 76.2155 118.318 76.9617C118.207 77.7071 118.078 78.4499 117.931 79.1898C117.784 79.9291 117.618 80.6649 117.436 81.3959C117.252 82.1276 117.052 82.8538 116.832 83.5758C116.614 84.2972 116.377 85.013 116.123 85.7233C115.87 86.4329 115.598 87.1363 115.31 87.8329C115.021 88.5294 114.716 89.2183 114.393 89.9003C114.071 90.5817 113.732 91.2554 113.377 91.9202C113.021 92.585 112.65 93.2409 112.263 93.8877C111.875 94.5346 111.472 95.1718 111.053 95.7987C110.634 96.4255 110.2 97.0421 109.751 97.6476C109.302 98.253 108.838 98.8475 108.36 99.4302C107.882 100.013 107.39 100.584 106.884 101.143C106.377 101.701 105.858 102.247 105.325 102.78C104.791 103.313 104.245 103.833 103.687 104.34C103.129 104.846 102.558 105.338 101.975 105.817C101.392 106.295 100.799 106.759 100.192 107.208C99.5869 107.657 98.9711 108.091 98.3442 108.51C97.7173 108.929 97.0808 109.333 96.434 109.72C95.7878 110.108 95.132 110.479 94.4672 110.835C93.8024 111.19 93.1293 111.529 92.4473 111.852C91.7659 112.174 91.077 112.479 90.3805 112.768C89.6839 113.056 88.9812 113.328 88.2716 113.582C87.5613 113.836 86.8461 114.072 86.1248 114.292C85.4035 114.51 84.6766 114.712 83.9456 114.894C83.2146 115.078 82.4788 115.243 81.7395 115.39C81.0002 115.537 80.2575 115.666 79.512 115.776C78.7665 115.887 78.0183 115.98 77.268 116.054C76.5177 116.127 75.7667 116.183 75.0136 116.22C74.2605 116.257 73.5068 116.275 72.753 116.275C71.9993 116.275 71.2462 116.257 70.4931 116.22C69.7401 116.183 68.9884 116.127 68.2381 116.054C67.4878 115.98 66.7402 115.887 65.9947 115.776C65.2486 115.666 64.5058 115.537 63.7666 115.39C63.0273 115.243 62.2922 115.078 61.5612 114.894C60.8295 114.712 60.1033 114.51 59.382 114.292C58.6606 114.072 57.9448 113.836 57.2352 113.582C56.5255 113.328 55.8221 113.056 55.1256 112.768C54.4291 112.479 53.7402 112.174 53.0588 111.852C52.3775 111.529 51.7044 111.19 51.0396 110.835C50.3748 110.479 49.719 110.108 49.0721 109.72C48.4259 109.333 47.7887 108.929 47.1619 108.51C46.535 108.091 45.9192 107.657 45.3137 107.208C44.7082 106.759 44.1137 106.295 43.531 105.817C42.9483 105.338 42.3779 104.846 41.8194 104.34C41.2608 103.833 40.7153 103.313 40.1822 102.78C39.6491 102.247 39.1291 101.701 38.623 101.143C38.1168 100.584 37.6244 100.013 37.1465 99.4302C36.6679 98.8475 36.2045 98.253 35.7555 97.6476C35.3059 97.0421 34.8721 96.4255 34.4535 95.7987C34.0349 95.1718 33.6315 94.5346 33.2439 93.8877C32.8563 93.2409 32.4846 92.585 32.1295 91.9202C31.7743 91.2554 31.435 90.5817 31.113 89.9003C30.7909 89.2183 30.4854 88.5294 30.1965 87.8329C29.9082 87.1363 29.6372 86.4329 29.3834 85.7226C29.1289 85.013 28.8924 84.2972 28.6738 83.5758C28.4552 82.8538 28.2538 82.1276 28.0711 81.3959C27.8876 80.6649 27.7228 79.9291 27.5752 79.1898C27.4283 78.4499 27.2994 77.7071 27.189 76.9617C27.0787 76.2155 26.9863 75.4672 26.9125 74.7169C26.8387 73.9666 26.7828 73.2149 26.7463 72.4619C26.709 71.7088 26.6904 70.955 26.6904 70.2013C26.6904 69.4468 26.709 68.6931 26.7463 67.94C26.7828 67.1869 26.8387 66.4353 26.9125 65.685C26.9863 64.9346 27.0787 64.1864 27.189 63.4402C27.2994 62.6948 27.4283 61.952 27.5752 61.2121C27.7228 60.4728 27.8876 59.7377 28.0711 59.006C28.2538 58.2743 28.4552 57.5481 28.6738 56.8261C28.8924 56.1047 29.1289 55.3889 29.3834 54.6793C29.6372 53.969 29.9082 53.2656 30.1965 52.569C30.4854 51.8725 30.7909 51.1836 31.113 50.5015C31.435 49.8202 31.7743 49.1464 32.1295 48.4816C32.4846 47.8168 32.8563 47.161 33.2439 46.5142C33.6315 45.8673 34.0349 45.2308 34.4535 44.6032C34.8721 43.9763 35.3059 43.3605 35.7555 42.7543C36.2045 42.1488 36.6679 41.5544 37.1465 40.9717C37.6244 40.3889 38.1168 39.8179 38.623 39.2593C39.1291 38.7007 39.6491 38.1546 40.1822 37.6215C40.7153 37.0884 41.2608 36.5684 41.8194 36.0622C42.3779 35.5561 42.9483 35.0637 43.531 34.5851C44.1137 34.1065 44.7082 33.643 45.3137 33.1941C45.9192 32.7445 46.535 32.3107 47.1619 31.8914C47.7887 31.4728 48.4259 31.0694 49.0721 30.6818C49.719 30.2942 50.3748 29.9225 51.0396 29.5674C51.7044 29.2115 52.3775 28.8729 53.0588 28.5502C53.7402 28.2281 54.4291 27.9226 55.1256 27.6337C55.8221 27.3454 56.5255 27.0744 57.2352 26.8199C57.9448 26.5661 58.6606 26.3296 59.382 26.111C60.1033 25.8917 60.8295 25.691 61.5612 25.5076C62.2922 25.3241 63.0273 25.1593 63.7666 25.0117C64.5058 24.8648 65.2486 24.7359 65.9947 24.6255C66.7402 24.5145 67.4878 24.4228 68.2381 24.3483C68.9884 24.2745 69.7401 24.2194 70.4931 24.1821C71.2462 24.1456 71.9993 24.127 72.753 24.127C73.5068 24.127 74.2605 24.1456 75.0136 24.1821C75.7667 24.2194 76.5177 24.2745 77.268 24.3483C78.0183 24.4228 78.7665 24.5145 79.512 24.6255C80.2575 24.7359 81.0002 24.8648 81.7395 25.0117C82.4788 25.1593 83.2146 25.3241 83.9456 25.5076C84.6766 25.691 85.4035 25.8917 86.1248 26.111C86.8461 26.3296 87.5613 26.5661 88.2716 26.8199C88.9812 27.0744 89.6839 27.3454 90.3805 27.6337C91.077 27.9226 91.7659 28.2281 92.4473 28.5502C93.1293 28.8729 93.8024 29.2115 94.4672 29.5674C95.132 29.9225 95.7878 30.2942 96.434 30.6818C97.0808 31.0694 97.7173 31.4728 98.3442 31.8914C98.9711 32.3107 99.5869 32.7445 100.192 33.1941C100.799 33.643 101.392 34.1065 101.975 34.5851C102.558 35.0637 103.129 35.5561 103.687 36.0622C104.245 36.5684 104.791 37.0884 105.325 37.6215C105.858 38.1546 106.377 38.7007 106.884 39.2593C107.39 39.8179 107.882 40.3889 108.36 40.9717C108.838 41.5544 109.302 42.1488 109.751 42.7543C110.2 43.3605 110.634 43.9763 111.053 44.6032C111.472 45.2308 111.875 45.8673 112.263 46.5142C112.65 47.161 113.021 47.8168 113.377 48.4816C113.732 49.1464 114.071 49.8202 114.394 50.5015C114.716 51.1836 115.021 51.8725 115.31 52.569C115.598 53.2656 115.87 53.969 116.123 54.6793C116.377 55.3889 116.614 56.1047 116.832 56.8261C117.052 57.5481 117.252 58.2743 117.436 59.006C117.618 59.7377 117.784 60.4728 117.931 61.2121C118.078 61.952 118.207 62.6948 118.318 63.4402C118.428 64.1864 118.52 64.9346 118.594 65.685C118.668 66.4353 118.723 67.1869 118.76 67.94C118.798 68.6931 118.816 69.4468 118.816 70.2013Z" fill="#DDE2FF"/>
<path d="M70.4145 59.3057H73.4654V17.9395H47.3032V55.9293L70.4145 59.3057Z" fill="white"/>
<path d="M73.4653 59.965H70.4144C70.051 59.965 69.7565 59.6705 69.7565 59.3064C69.7565 58.943 70.051 58.6485 70.4144 58.6485H72.8067V18.5987H47.961V55.93C47.961 56.2934 47.6666 56.5879 47.3031 56.5879C46.939 56.5879 46.6445 56.2934 46.6445 55.93V17.9401C46.6445 17.5767 46.939 17.2822 47.3031 17.2822H73.4653C73.8287 17.2822 74.1239 17.5767 74.1239 17.9401V59.3064C74.1239 59.6705 73.8287 59.965 73.4653 59.965Z" fill="#1C418C"/>
<path d="M68.056 35.9524H60.2695C59.3109 35.9524 58.5337 35.1759 58.5337 34.2173V26.1108C58.5337 25.1522 59.3109 24.375 60.2695 24.375H68.056C69.0146 24.375 69.7911 25.1522 69.7911 26.1108V34.2173C69.7911 35.1759 69.0146 35.9524 68.056 35.9524Z" fill="#3045B3"/>
<path d="M68.0562 36.6107H60.2697C58.9497 36.6107 57.876 35.5369 57.876 34.217V26.1105C57.876 24.7905 58.9497 23.7168 60.2697 23.7168H68.0562C69.3761 23.7168 70.4499 24.7905 70.4499 26.1105V34.217C70.4499 35.5369 69.3761 36.6107 68.0562 36.6107ZM60.2697 25.0333C59.6752 25.0333 59.1925 25.5167 59.1925 26.1105V34.217C59.1925 34.8107 59.6752 35.2942 60.2697 35.2942H68.0562C68.6499 35.2942 69.1334 34.8107 69.1334 34.217V26.1105C69.1334 25.5167 68.6499 25.0333 68.0562 25.0333H60.2697Z" fill="#1C418C"/>
<path d="M63.6507 33.4527C63.4527 33.4527 63.2645 33.3637 63.1396 33.2093L60.5805 30.0515C60.3522 29.7694 60.3956 29.355 60.6777 29.126C60.9604 28.897 61.3749 28.9405 61.6039 29.2226L63.5789 31.6597L66.6726 26.6599C66.8643 26.3503 67.2698 26.2551 67.5794 26.4461C67.8884 26.6372 67.9842 27.0433 67.7925 27.3523L64.2106 33.141C64.0982 33.3224 63.9051 33.4382 63.6927 33.452C63.6782 33.4527 63.6644 33.4527 63.6507 33.4527Z" fill="#1C418C"/>
<path d="M68.056 50.0324H60.2695C59.3109 50.0324 58.5337 49.2552 58.5337 48.2967V40.1902C58.5337 39.2316 59.3109 38.4551 60.2695 38.4551H68.056C69.0146 38.4551 69.7911 39.2316 69.7911 40.1902V48.2967C69.7911 49.2552 69.0146 50.0324 68.056 50.0324Z" fill="white"/>
<path d="M68.0562 50.6907H60.2697C58.9497 50.6907 57.876 49.617 57.876 48.2971V40.1906C57.876 38.8706 58.9497 37.7969 60.2697 37.7969H68.0562C69.3761 37.7969 70.4499 38.8706 70.4499 40.1906V48.2971C70.4499 49.617 69.3761 50.6907 68.0562 50.6907ZM60.2697 39.1134C59.6752 39.1134 59.1925 39.5968 59.1925 40.1906V48.2971C59.1925 48.8908 59.6752 49.3742 60.2697 49.3742H68.0562C68.6499 49.3742 69.1334 48.8908 69.1334 48.2971V40.1906C69.1334 39.5968 68.6499 39.1134 68.0562 39.1134H60.2697Z" fill="#1C418C"/>
<path d="M66.9195 47.3396C66.7505 47.3396 66.5823 47.2754 66.454 47.1472L61.188 41.8819C60.9308 41.6247 60.9308 41.2074 61.188 40.9502C61.4453 40.6937 61.8618 40.6937 62.119 40.9502L67.385 46.2162C67.6415 46.4734 67.6415 46.8899 67.385 47.1472C67.256 47.2754 67.0878 47.3396 66.9195 47.3396Z" fill="#1C418C"/>
<path d="M61.6535 47.3396C61.4853 47.3396 61.317 47.2754 61.188 47.1472C60.9308 46.8899 60.9308 46.4734 61.188 46.2162L66.4533 40.9502C66.7105 40.6937 67.1278 40.6937 67.385 40.9502C67.6415 41.2074 67.6415 41.6247 67.385 41.8819L62.119 47.1472C61.9908 47.2754 61.8225 47.3396 61.6535 47.3396Z" fill="#1C418C"/>
<path d="M33.7853 50.2471L31.591 52.1125L20.5356 69.6475H67.4223C69.2657 69.6475 70.7601 68.1538 70.7601 66.3104V61.8403C70.7601 61.8403 70.627 57.8481 67.0272 56.615C63.4267 55.3813 56.7856 53.8531 53.7982 51.1201L53.0127 50.2471H33.7853Z" fill="white"/>
<path d="M32.1465 29.3383C32.1465 29.3383 33.0933 23.9696 33.9981 23.8234C34.9029 23.6779 35.9429 25.6185 39.3034 25.282C42.6639 24.9454 44.6617 22.1263 47.6981 22.789C50.7352 23.4517 53.1613 25.1992 53.833 29.3383V36.72C53.833 36.72 52.7841 41.4412 50.629 43.4404C50.629 43.4404 51.218 49.2987 53.0124 50.247L43.508 56.8204L33.785 50.247L36.6856 44.9541L32.1465 29.3383Z" fill="white"/>
<path d="M43.0792 47.7542C41.0275 47.7542 39.0428 47.1494 37.3401 46.004C37.0381 45.8012 36.9581 45.3923 37.1608 45.0902C37.3636 44.7889 37.7732 44.7089 38.0746 44.9116C39.5593 45.9102 41.2896 46.4377 43.0792 46.4377C45.8377 46.4377 48.4017 45.1964 50.1126 43.0324L51.2071 41.6483C52.4532 40.0718 53.1401 38.0968 53.1401 36.0872V29.3386C53.1401 28.9751 53.4345 28.6807 53.798 28.6807C54.1614 28.6807 54.4566 28.9751 54.4566 29.3386V36.0872C54.4566 38.3919 53.669 40.6566 52.2401 42.4648L51.1457 43.8489C50.1885 45.0592 48.9492 46.0543 47.5603 46.7267C46.1714 47.3991 44.6219 47.7542 43.0792 47.7542Z" fill="#1C418C"/>
<path d="M31.0744 28.6583C31.0744 28.6583 27.6263 13.3983 37.8982 11.9308C45.6606 10.8219 47.6805 14.8658 47.6805 14.8658C47.6805 14.8658 55.3657 14.0659 55.996 21.2241C56.3436 25.175 53.8333 29.3389 53.8333 29.3389L52.8879 26.8666C51.4245 23.0399 46.8047 21.5427 43.3731 23.7826C42.4677 24.3736 41.4677 24.9074 40.2381 25.1536C35.7432 26.0529 33.0067 22.6916 33.0067 22.6916L33.9984 23.824C33.9984 23.824 32.4764 26.7446 32.5178 28.9644L31.0744 28.6583Z" fill="#3045B3"/>
<path d="M53.8333 29.997C53.814 29.997 53.7947 29.9963 53.7747 29.9943C53.5243 29.9722 53.3078 29.8088 53.2181 29.5736L52.2727 27.1013C51.6472 25.4648 50.3328 24.2166 48.6666 23.6759C46.9998 23.1353 45.2013 23.3753 43.7331 24.3338C42.9186 24.8649 41.7994 25.5124 40.367 25.7986C38.3685 26.1986 36.3762 25.8627 34.6046 24.8276C34.5094 24.7724 34.417 24.7159 34.328 24.6593C33.9156 25.5669 33.1481 27.4627 33.1757 28.9516C33.1798 29.1522 33.0915 29.3433 32.937 29.4715C32.7819 29.5991 32.5778 29.6495 32.3812 29.6081L30.9378 29.3019C30.6868 29.2488 30.4889 29.0536 30.4323 28.8033C30.4117 28.7123 29.931 26.5551 29.8669 23.7566C29.8289 22.1036 29.9455 20.5706 30.2144 19.1996C30.5558 17.4549 31.1468 15.9653 31.9695 14.7709C33.3177 12.8144 35.2811 11.6393 37.8051 11.2786C39.6443 11.0159 41.3297 11.0138 42.8145 11.2731C44.0262 11.4841 45.1103 11.8682 46.035 12.4158C47.1019 13.0461 47.7205 13.7571 48.0267 14.1847C49.0942 14.1481 51.9816 14.2336 54.1533 16.0246C55.6166 17.2314 56.4573 18.9617 56.6518 21.1664C57.0138 25.2835 54.5043 29.5012 54.3967 29.6784C54.2774 29.877 54.0622 29.997 53.8333 29.997ZM31.635 28.104L31.9005 28.1599C32.0861 26.4868 32.846 24.7118 33.2143 23.9277L32.6081 23.236C32.5405 23.1608 32.5026 23.1153 32.4964 23.107C32.2695 22.8284 32.3074 22.4201 32.5819 22.1884C32.8564 21.9567 33.2653 21.9878 33.5018 22.2574L33.5874 22.3553C33.7839 22.5705 34.3839 23.1815 35.3107 23.7153C36.81 24.578 38.4244 24.8442 40.1091 24.5076C41.3208 24.2649 42.298 23.698 43.0131 23.2305C44.8172 22.0533 47.0253 21.7595 49.0735 22.4236C51.1196 23.087 52.734 24.6207 53.503 26.631L53.9222 27.7275C54.6057 26.2475 55.5525 23.698 55.3401 21.2816C55.178 19.441 54.4967 18.0142 53.3154 17.0404C51.081 15.197 47.7819 15.5163 47.7488 15.5198C47.4729 15.5488 47.2136 15.4115 47.0929 15.1619C47.0653 15.1108 46.5785 14.2405 45.2799 13.4992C43.4862 12.4744 40.9656 12.1572 37.9913 12.582C35.8459 12.8882 34.1846 13.8764 33.0536 15.5177C30.2786 19.5451 31.313 26.3703 31.635 28.104Z" fill="#1C418C"/>
<path d="M66.8142 70.7952H19.7116C19.3482 70.7952 19.0537 70.5008 19.0537 70.1374C19.0537 69.7732 19.3482 69.4788 19.7116 69.4788H66.8142C68.6272 69.4788 70.1016 68.0037 70.1016 66.1906V61.8405C70.1016 59.7613 68.7803 57.9117 66.8135 57.238L56.9519 53.8588C54.9823 53.1844 53.2114 51.7893 51.9645 49.9307C50.8556 48.2763 50.2012 46.3261 50.097 44.3827C50.0867 44.3379 50.0819 44.291 50.0819 44.2427V43.8317C50.0819 43.4683 50.3763 43.1738 50.7405 43.1738C51.1039 43.1738 51.3984 43.4683 51.3984 43.8317C51.3984 47.7329 53.9134 51.4258 57.3788 52.6134L67.2404 55.9925C69.7395 56.8483 71.4188 59.1986 71.4188 61.8405V66.1906C71.4188 68.7298 69.3527 70.7952 66.8142 70.7952Z" fill="#1C418C"/>
<path d="M31.5917 52.7717C31.3806 52.7717 31.1731 52.6703 31.0462 52.4821C30.8421 52.1814 30.9207 51.7718 31.2213 51.5683C32.6937 50.5704 33.8198 49.1684 34.4784 47.5147C34.6129 47.1768 34.9956 47.012 35.3336 47.1465C35.6715 47.2809 35.8363 47.6637 35.7018 48.0016C34.9453 49.9015 33.6516 51.5118 31.9606 52.6579C31.8475 52.7345 31.7186 52.7717 31.5917 52.7717Z" fill="#1C418C"/>
<path d="M43.5082 57.4792C43.3792 57.4792 43.2503 57.4413 43.1393 57.3661L33.417 50.7927C33.1156 50.5892 33.0363 50.1796 33.2397 49.8782C33.4439 49.5776 33.8528 49.4983 34.1542 49.7017L43.5103 56.0276L52.2223 50.2058C52.5243 50.0037 52.9333 50.0851 53.1353 50.3872C53.3374 50.6899 53.256 51.0989 52.954 51.3002L43.8737 57.3682C43.7627 57.442 43.6358 57.4792 43.5082 57.4792Z" fill="#1C418C"/>
<path d="M41.2662 55.3054L36.5182 59.3411L31.5908 52.1125L33.7852 50.2471L41.2662 55.3054Z" fill="#C7CDFF"/>
<path d="M36.5184 59.9992C36.4887 59.9992 36.4591 59.9971 36.4301 59.9937C36.2453 59.9689 36.0791 59.8661 35.9743 59.7116L31.0469 52.483C30.8573 52.2051 30.9083 51.8286 31.1649 51.6106L33.3592 49.7459C33.5848 49.5542 33.9096 49.5363 34.1544 49.7018L41.6354 54.7601C41.8057 54.8753 41.9126 55.0636 41.9237 55.2691C41.9354 55.4746 41.8499 55.6739 41.6926 55.807L36.9446 59.8427C36.8246 59.9447 36.6736 59.9992 36.5184 59.9992ZM32.4683 52.2306L36.6494 58.3655L40.1796 55.3649L33.8309 51.0727L32.4683 52.2306Z" fill="#1C418C"/>
<path d="M54.9407 52.3835L50.6154 59.228L45.3735 55.5744L53.0125 50.2471L54.9407 52.3835Z" fill="#C7CDFF"/>
<path d="M50.6152 59.8867C50.4822 59.8867 50.3504 59.8461 50.2387 59.7681L44.9969 56.1145C44.8204 55.9911 44.7148 55.7897 44.7148 55.5745C44.7148 55.3594 44.8204 55.1573 44.9969 55.0346L52.6358 49.7072C52.9076 49.5176 53.2786 49.5597 53.5006 49.8059L55.4288 51.943C55.6267 52.1616 55.6543 52.4857 55.4971 52.7354L51.1718 59.5799C51.0759 59.7316 50.9221 59.8378 50.7456 59.8736C50.7028 59.8819 50.6587 59.8867 50.6152 59.8867ZM46.5244 55.5739L50.427 58.2944L54.1171 52.454L52.9124 51.1196L46.5244 55.5739Z" fill="#1C418C"/>
<path d="M43.5082 70.3065C43.1441 70.3065 42.8496 70.0121 42.8496 69.648V56.821C42.8496 56.4576 43.1441 56.1631 43.5082 56.1631C43.8716 56.1631 44.1661 56.4576 44.1661 56.821V69.648C44.1661 70.0121 43.8716 70.3065 43.5082 70.3065Z" fill="#1C418C"/>
<path d="M26.6758 61.7796V37.6973L32.6327 37.7835V61.7796C32.6327 63.3864 31.2997 64.6884 29.6543 64.6884C28.0095 64.6884 26.6758 63.3864 26.6758 61.7796Z" fill="#C7CDFF"/>
<path d="M29.6544 65.3474C27.6497 65.3474 26.0181 63.7475 26.0181 61.78V37.6977C26.0181 37.5212 26.0884 37.3522 26.2139 37.2288C26.3394 37.1047 26.5098 37.0364 26.6856 37.0391L32.6426 37.126C33.0026 37.1309 33.2915 37.424 33.2915 37.7839V61.78C33.2915 63.7468 31.6599 65.3474 29.6544 65.3474ZM27.3346 38.3653V61.78C27.3346 63.0213 28.3752 64.0309 29.6544 64.0309C30.9337 64.0309 31.975 63.0213 31.975 61.78V38.4329L27.3346 38.3653Z" fill="#1C418C"/>
<path d="M38.2087 32.1045C38.3487 32.2445 38.4852 32.3879 38.6183 32.5341C38.7514 32.681 38.8804 32.8307 39.0059 32.9838C39.1314 33.1369 39.2534 33.2934 39.3714 33.452C39.4893 33.6113 39.6031 33.7734 39.7134 33.9375C39.8231 34.1023 39.9293 34.2692 40.0313 34.4396C40.1327 34.6092 40.2306 34.7816 40.3237 34.9561C40.4168 35.1306 40.5058 35.3078 40.5906 35.4864C40.6754 35.6657 40.7554 35.8464 40.8313 36.0292C40.9072 36.2126 40.9782 36.3967 41.0451 36.5836C41.112 36.7698 41.174 36.9581 41.2313 37.147C41.2892 37.3367 41.3416 37.5277 41.3899 37.7194C41.4382 37.9118 41.4816 38.1049 41.5202 38.2987C41.5588 38.4932 41.5926 38.6883 41.6216 38.8842C41.6506 39.08 41.6747 39.2766 41.694 39.4731C41.7133 39.6704 41.7278 39.8676 41.7381 40.0655C41.7478 40.2634 41.7526 40.4614 41.7526 40.6593C41.7526 40.8572 41.7478 41.0551 41.7381 41.253C41.7285 41.451 41.7133 41.6482 41.694 41.8454C41.6747 42.042 41.6506 42.2385 41.6216 42.4344C41.5926 42.6302 41.5588 42.8254 41.5202 43.0198C41.4816 43.2136 41.4382 43.4067 41.3899 43.5991C41.3416 43.7908 41.2892 43.9819 41.2313 44.1715C41.174 44.3612 41.112 44.5487 41.0451 44.7349C40.9789 44.9218 40.9072 45.1066 40.8313 45.2894C40.7554 45.4721 40.6754 45.6535 40.5906 45.8321C40.5065 46.0114 40.4175 46.188 40.3237 46.3624C40.2306 46.5369 40.1327 46.7093 40.0313 46.8797C39.9293 47.0493 39.8238 47.2162 39.7134 47.381C39.6038 47.5458 39.4893 47.7072 39.3714 47.8665C39.2534 48.0258 39.1321 48.1817 39.0066 48.3348C38.8804 48.4879 38.7514 48.6375 38.6183 48.7844C38.4852 48.9313 38.3487 49.0747 38.2087 49.2147C38.0687 49.3547 37.9259 49.4913 37.779 49.6237C37.6321 49.7568 37.4825 49.8864 37.3294 50.0119C37.1763 50.1374 37.0204 50.2595 36.8611 50.3774C36.7018 50.4953 36.5405 50.6091 36.3756 50.7188C36.2108 50.8291 36.0439 50.9353 35.8736 51.0367C35.704 51.1388 35.5315 51.236 35.3571 51.3298C35.1826 51.4229 35.0061 51.5119 34.8268 51.5967C34.6475 51.6815 34.4668 51.7615 34.284 51.8374C34.1013 51.9132 33.9165 51.9842 33.7296 52.0511C33.5434 52.1173 33.3558 52.1794 33.1661 52.2373C32.9765 52.2946 32.7855 52.3477 32.5938 52.3953C32.4014 52.4435 32.2083 52.487 32.0145 52.5256C31.82 52.5642 31.6248 52.598 31.429 52.627C31.2331 52.6566 31.0366 52.6808 30.8401 52.7001C30.6428 52.7194 30.4456 52.7339 30.2477 52.7435C30.0497 52.7532 29.8518 52.758 29.6539 52.758C29.456 52.758 29.2581 52.7532 29.0601 52.7435C28.8622 52.7339 28.665 52.7194 28.4678 52.7001C28.2712 52.6808 28.0747 52.6566 27.8788 52.627C27.683 52.598 27.4878 52.5642 27.2933 52.5256C27.0995 52.487 26.9064 52.4435 26.714 52.3959C26.5223 52.3477 26.3313 52.2946 26.1417 52.2373C25.9527 52.1801 25.7644 52.118 25.5782 52.0511C25.3913 51.9842 25.2072 51.9132 25.0238 51.8374C24.841 51.7615 24.6604 51.6815 24.481 51.5967C24.3024 51.5119 24.1252 51.4229 23.9507 51.3298C23.7763 51.2367 23.6038 51.1388 23.4342 51.0367C23.2639 50.9353 23.097 50.8291 22.9322 50.7195C22.7673 50.6091 22.606 50.4953 22.4467 50.3774C22.2874 50.2595 22.1315 50.1374 21.9784 50.0119C21.8253 49.8864 21.6757 49.7575 21.5288 49.6244C21.3819 49.4913 21.2391 49.3547 21.0991 49.2147C20.9591 49.0747 20.8226 48.9313 20.6895 48.7844C20.5564 48.6382 20.4268 48.4879 20.3013 48.3348C20.1757 48.1817 20.0544 48.0258 19.9364 47.8672C19.8185 47.7079 19.704 47.5458 19.5944 47.3817C19.484 47.2169 19.3785 47.0493 19.2765 46.8797C19.1744 46.71 19.0772 46.5376 18.9841 46.3631C18.8903 46.1887 18.8013 46.0114 18.7165 45.8328C18.6324 45.6535 18.5517 45.4728 18.4758 45.2894C18.4007 45.1066 18.3289 44.9218 18.262 44.7356C18.1958 44.5494 18.1338 44.3612 18.0758 44.1715C18.0186 43.9826 17.9655 43.7915 17.9179 43.5998C17.8696 43.4074 17.8262 43.2143 17.7876 43.0198C17.749 42.8261 17.7152 42.6309 17.6862 42.4351C17.6572 42.2392 17.6331 42.0427 17.6131 41.8454C17.5938 41.6489 17.5793 41.451 17.5697 41.2537C17.56 41.0558 17.5552 40.8579 17.5552 40.66C17.5552 40.462 17.56 40.2641 17.5697 40.0662C17.5793 39.8683 17.5938 39.671 17.6131 39.4738C17.6324 39.2766 17.6572 39.08 17.6862 38.8842C17.7152 38.6883 17.749 38.4939 17.7876 38.2994C17.8262 38.1049 17.8696 37.9118 17.9179 37.7201C17.9655 37.5277 18.0186 37.3374 18.0758 37.1477C18.1338 36.9581 18.1958 36.7705 18.262 36.5836C18.3289 36.3974 18.4 36.2126 18.4758 36.0298C18.5517 35.8471 18.6317 35.6657 18.7165 35.4871C18.8013 35.3078 18.8903 35.1313 18.9834 34.9568C19.0772 34.7816 19.1744 34.6099 19.2765 34.4396C19.3778 34.2699 19.484 34.1023 19.5937 33.9382C19.704 33.7734 19.8178 33.6113 19.9358 33.4527C20.0537 33.2934 20.1757 33.1376 20.3013 32.9845C20.4268 32.8314 20.5564 32.6817 20.6888 32.5348C20.8219 32.3879 20.9585 32.2445 21.0985 32.1045C21.2384 31.9645 21.3819 31.828 21.5288 31.6949C21.6757 31.5625 21.8253 31.4328 21.9784 31.3073C22.1315 31.1818 22.2874 31.0597 22.4467 30.9418C22.6053 30.8239 22.7673 30.7101 22.9322 30.5998C23.0963 30.4901 23.2639 30.3839 23.4335 30.2825C23.6032 30.1805 23.7756 30.0832 23.95 29.9894C24.1252 29.8963 24.3017 29.8074 24.481 29.7226C24.6597 29.6377 24.8403 29.5577 25.0238 29.4819C25.2065 29.406 25.3913 29.335 25.5775 29.2681C25.7637 29.2012 25.952 29.1391 26.1417 29.0819C26.3313 29.0247 26.5216 28.9716 26.714 28.9233C26.9058 28.8757 27.0989 28.8323 27.2933 28.7936C27.4871 28.755 27.6823 28.7212 27.8781 28.6916C28.074 28.6626 28.2705 28.6385 28.4678 28.6192C28.665 28.5999 28.8622 28.5854 29.0601 28.5757C29.2574 28.5661 29.4553 28.5605 29.6532 28.5605C29.8518 28.5605 30.0497 28.5654 30.247 28.5757C30.4449 28.5854 30.6421 28.5999 30.8394 28.6192C31.0366 28.6385 31.2331 28.6626 31.429 28.6916C31.6248 28.7205 31.82 28.7543 32.0138 28.7936C32.2083 28.8323 32.4014 28.875 32.5931 28.9233C32.7855 28.9716 32.9758 29.024 33.1655 29.0819C33.3551 29.1391 33.5434 29.2012 33.7296 29.2681C33.9158 29.335 34.1006 29.406 34.2833 29.4819C34.4668 29.5577 34.6475 29.6377 34.8261 29.7226C35.0054 29.8067 35.1819 29.8963 35.3571 29.9894C35.5315 30.0825 35.704 30.1805 35.8736 30.2818C36.0432 30.3839 36.2108 30.4894 36.375 30.5998C36.5398 30.7094 36.7018 30.8239 36.8605 30.9418C37.0198 31.0597 37.1756 31.1811 37.3287 31.3073C37.4818 31.4328 37.6321 31.5618 37.7783 31.6949C37.9252 31.828 38.0687 31.9645 38.2087 32.1045Z" fill="#C7CDFF"/>
<path d="M29.6546 53.4163C27.9333 53.4163 26.2623 53.0791 24.6893 52.4136C23.1701 51.7709 21.8053 50.8516 20.6343 49.6799C19.4627 48.5089 18.5434 47.1442 17.9007 45.6249C17.2352 44.0519 16.8979 42.381 16.8979 40.6597C16.8979 38.9377 17.2352 37.2667 17.9007 35.6937C18.5434 34.1745 19.4627 32.8097 20.6343 31.6387C21.8053 30.467 23.1701 29.5478 24.6893 28.9051C26.2623 28.2396 27.9333 27.9023 29.6546 27.9023C31.3766 27.9023 33.0475 28.2396 34.6205 28.9051C36.1398 29.5478 37.5039 30.467 38.6755 31.6387C39.8472 32.8097 40.7665 34.1745 41.4092 35.6937C42.0747 37.2667 42.4119 38.9377 42.4119 40.6597C42.4119 42.381 42.0747 44.0519 41.4092 45.6249C40.7665 47.1442 39.8472 48.5089 38.6755 49.6799C37.5039 50.8516 36.1398 51.7709 34.6205 52.4136C33.0475 53.0791 31.3766 53.4163 29.6546 53.4163ZM29.6546 29.2188C23.3466 29.2188 18.2144 34.351 18.2144 40.6597C18.2144 46.9676 23.3466 52.0998 29.6546 52.0998C35.9632 52.0998 41.0954 46.9676 41.0954 40.6597C41.0954 34.351 35.9632 29.2188 29.6546 29.2188Z" fill="#1C418C"/>
<path d="M38.3575 40.6601C38.3575 40.9449 38.3437 41.229 38.3154 41.5131C38.2879 41.7966 38.2458 42.0779 38.1906 42.3579C38.1348 42.6372 38.0658 42.9131 37.9831 43.1861C37.9003 43.4592 37.8044 43.7268 37.6955 43.9902C37.5858 44.2537 37.4645 44.5109 37.33 44.7626C37.1955 45.0136 37.0493 45.2578 36.8907 45.495C36.7328 45.7322 36.5631 45.9605 36.3824 46.1812C36.2011 46.4012 36.01 46.6122 35.8087 46.8136C35.6073 47.0149 35.3963 47.2066 35.1756 47.3873C34.9556 47.568 34.7267 47.7376 34.4901 47.8963C34.2529 48.0542 34.0088 48.2011 33.757 48.3349C33.506 48.4693 33.2488 48.5914 32.9854 48.7004C32.7219 48.8093 32.4537 48.9052 32.1813 48.9879C31.9082 49.0707 31.6323 49.1397 31.3523 49.1955C31.073 49.2514 30.7917 49.2927 30.5075 49.321C30.2241 49.3486 29.94 49.3624 29.6545 49.3624C29.3697 49.3624 29.0855 49.3486 28.8014 49.321C28.518 49.2927 28.2366 49.2514 27.9566 49.1955C27.6773 49.1397 27.4015 49.0707 27.1284 48.9879C26.856 48.9052 26.5877 48.8093 26.3243 48.7004C26.0609 48.5914 25.8036 48.4693 25.5519 48.3349C25.3009 48.2011 25.0568 48.0542 24.8195 47.8963C24.583 47.7376 24.3541 47.568 24.1334 47.3873C23.9134 47.2066 23.7024 47.0149 23.501 46.8136C23.2996 46.6122 23.1079 46.4012 22.9272 46.1812C22.7465 45.9605 22.5769 45.7322 22.4183 45.495C22.2604 45.2578 22.1135 45.0136 21.9797 44.7626C21.8452 44.5109 21.7231 44.2537 21.6142 43.9902C21.5052 43.7268 21.4094 43.4592 21.3266 43.1861C21.2439 42.9131 21.1749 42.6372 21.119 42.3579C21.0632 42.0779 21.0218 41.7966 20.9935 41.5131C20.9659 41.229 20.9521 40.9449 20.9521 40.6601C20.9521 40.3746 20.9659 40.0904 20.9935 39.807C21.0218 39.5229 21.0632 39.2415 21.119 38.9622C21.1749 38.6822 21.2439 38.4064 21.3266 38.1333C21.4094 37.8609 21.5052 37.5926 21.6142 37.3292C21.7231 37.0658 21.8452 36.8085 21.9797 36.5575C22.1135 36.3058 22.2604 36.0617 22.4183 35.8244C22.5769 35.5879 22.7465 35.3589 22.9272 35.1389C23.1079 34.9183 23.2996 34.7072 23.501 34.5059C23.7024 34.3045 23.9134 34.1135 24.1334 33.9321C24.3541 33.7514 24.583 33.5818 24.8195 33.4239C25.0568 33.2652 25.3009 33.119 25.5519 32.9846C25.8036 32.8501 26.0609 32.7287 26.3243 32.6191C26.5877 32.5101 26.856 32.4143 27.1284 32.3315C27.4015 32.2487 27.6773 32.1798 27.9566 32.1239C28.2366 32.0687 28.518 32.0267 28.8014 31.9991C29.0855 31.9708 29.3697 31.957 29.6545 31.957C29.94 31.957 30.2241 31.9708 30.5075 31.9991C30.7917 32.0267 31.073 32.0687 31.3523 32.1239C31.6323 32.1798 31.9082 32.2487 32.1813 32.3315C32.4537 32.4143 32.7219 32.5101 32.9854 32.6191C33.2488 32.7287 33.506 32.8501 33.757 32.9846C34.0088 33.119 34.2529 33.2652 34.4901 33.4239C34.7267 33.5818 34.9556 33.7514 35.1756 33.9321C35.3963 34.1135 35.6073 34.3045 35.8087 34.5059C36.01 34.7072 36.2011 34.9183 36.3824 35.1389C36.5631 35.3589 36.7328 35.5879 36.8907 35.8244C37.0493 36.0617 37.1955 36.3058 37.33 36.5575C37.4645 36.8085 37.5858 37.0658 37.6955 37.3292C37.8044 37.5926 37.9003 37.8609 37.9831 38.1333C38.0658 38.4064 38.1348 38.6822 38.1906 38.9622C38.2458 39.2415 38.2879 39.5229 38.3154 39.807C38.3437 40.0904 38.3575 40.3746 38.3575 40.6601Z" fill="white"/>
<path d="M29.6544 50.0214C27.1545 50.0214 24.8036 49.0476 23.0354 47.2794C21.2672 45.5112 20.2935 43.161 20.2935 40.6604C20.2935 38.1599 21.2672 35.809 23.0354 34.0408C24.8036 32.2726 27.1545 31.2988 29.6544 31.2988C32.155 31.2988 34.5059 32.2726 36.2741 34.0408C38.0423 35.809 39.016 38.1599 39.016 40.6604C39.016 43.161 38.0423 45.5112 36.2741 47.2794C34.5059 49.0476 32.155 50.0214 29.6544 50.0214ZM29.6544 32.6153C25.2187 32.6153 21.6099 36.2241 21.6099 40.6604C21.6099 45.0961 25.2187 48.7049 29.6544 48.7049C34.0907 48.7049 37.6995 45.0961 37.6995 40.6604C37.6995 36.2241 34.0907 32.6153 29.6544 32.6153Z" fill="#1C418C"/>
<path d="M32.518 29.6218C32.1545 29.6218 31.8594 29.3273 31.8594 28.9639C31.8594 26.3888 33.349 23.4462 33.4124 23.3221C33.5779 22.9979 33.9744 22.8697 34.2979 23.0352C34.622 23.2007 34.7503 23.5972 34.5848 23.9207C34.571 23.9482 33.1759 26.7095 33.1759 28.9639C33.1759 29.3273 32.8814 29.6218 32.518 29.6218Z" fill="#1C418C"/>
<path d="M130.427 101.282H83.838C81.9491 101.282 80.4175 99.7506 80.4175 97.8611V36.8151C80.4175 34.9262 81.9491 33.3945 83.838 33.3945H130.427C132.316 33.3945 133.847 34.9262 133.847 36.8151V97.8611C133.847 99.7506 132.316 101.282 130.427 101.282Z" fill="white"/>
<path d="M130.158 101.94H84.1071C81.71 101.94 79.7598 99.9896 79.7598 97.5918V37.0844C79.7598 34.6866 81.71 32.7363 84.1071 32.7363H103.675C104.039 32.7363 104.334 33.0308 104.334 33.3949C104.334 33.7583 104.039 34.0528 103.675 34.0528H84.1071C82.4362 34.0528 81.0763 35.4128 81.0763 37.0844V97.5918C81.0763 99.2635 82.4362 100.623 84.1071 100.623H130.158C131.83 100.623 133.189 99.2635 133.189 97.5918V57.4386C133.189 57.0752 133.484 56.7807 133.847 56.7807C134.211 56.7807 134.506 57.0752 134.506 57.4386V97.5918C134.506 99.9896 132.555 101.94 130.158 101.94Z" fill="#1C418C"/>
<path d="M133.847 58.0972C133.484 58.0972 133.189 57.8027 133.189 57.4386V37.0844C133.189 35.4128 131.829 34.0528 130.158 34.0528H110.59C110.226 34.0528 109.931 33.7583 109.931 33.3949C109.931 33.0308 110.226 32.7363 110.59 32.7363H130.158C132.555 32.7363 134.506 34.6866 134.506 37.0844V57.4393C134.506 57.8027 134.211 58.0972 133.847 58.0972Z" fill="#1C418C"/>
<path d="M110.158 33.3947C111.394 32.3175 112.11 30.6562 111.859 28.837C111.547 26.5743 109.681 24.7579 107.411 24.5013C104.334 24.1538 101.727 26.5516 101.727 29.559C101.727 31.0914 102.407 32.4616 103.478 33.3947H92.3608V35.5215C92.3608 38.5131 94.7856 40.9378 97.7771 40.9378H115.859C118.851 40.9378 121.275 38.5131 121.275 35.5215V33.3954L110.158 33.3947Z" fill="#C7CDFF"/>
<path d="M115.859 41.5963H97.7775C94.428 41.5963 91.7026 38.8709 91.7026 35.5214V33.3946C91.7026 33.0312 91.9971 32.7367 92.3612 32.7367H102.032C101.41 31.803 101.069 30.6996 101.069 29.559C101.069 27.9232 101.769 26.3605 102.99 25.2702C104.209 24.1806 105.847 23.662 107.485 23.8475C108.728 23.9875 109.916 24.5551 110.829 25.4454C111.743 26.3364 112.341 27.5087 112.512 28.7473C112.708 30.1679 112.375 31.5796 111.605 32.7367H121.276C121.639 32.7367 121.934 33.0312 121.934 33.3946V35.5214C121.934 38.8709 119.209 41.5963 115.859 41.5963ZM93.0191 34.0532V35.5214C93.0191 38.1448 95.1542 40.2798 97.7775 40.2798H115.859C118.483 40.2798 120.618 38.1454 120.618 35.5214V34.0532H110.158C109.884 34.0532 109.638 33.8829 109.542 33.6257C109.445 33.3691 109.519 33.0788 109.726 32.8988C110.86 31.9099 111.414 30.4251 111.207 28.9273C110.937 26.9646 109.309 25.3785 107.338 25.1557C106.053 25.0102 104.821 25.3999 103.867 26.2522C102.926 27.0929 102.386 28.2983 102.386 29.559C102.386 30.8368 102.941 32.054 103.911 32.8988C104.118 33.0788 104.191 33.3691 104.095 33.6257C103.999 33.8829 103.753 34.0532 103.479 34.0532H93.0191Z" fill="#1C418C"/>
<path d="M110.59 46.5947H124.419V60.4237H110.59V46.5947Z" fill="#3045B3"/>
<path d="M124.419 61.082H110.59C110.226 61.082 109.931 60.7875 109.931 60.4241V46.5951C109.931 46.231 110.226 45.9365 110.59 45.9365H124.419C124.782 45.9365 125.077 46.231 125.077 46.5951V60.4241C125.077 60.7875 124.782 61.082 124.419 61.082ZM111.248 59.7655H123.76V47.253H111.248V59.7655Z" fill="#1C418C"/>
<path d="M110.59 82.4238H124.419V96.2521H110.59V82.4238Z" fill="white"/>
<path d="M124.419 96.9111H110.59C110.226 96.9111 109.931 96.6166 109.931 96.2525V82.4242C109.931 82.0601 110.226 81.7656 110.59 81.7656H124.419C124.782 81.7656 125.077 82.0601 125.077 82.4242V96.2525C125.077 96.6166 124.782 96.9111 124.419 96.9111ZM111.248 95.5946H123.76V83.0821H111.248V95.5946Z" fill="#1C418C"/>
<path d="M116.876 57.31C116.681 57.31 116.495 57.2238 116.37 57.0734L113.227 53.3019C112.994 53.0226 113.032 52.6074 113.311 52.3744C113.59 52.142 114.006 52.1792 114.239 52.4592L116.804 55.5377L120.72 49.3842C120.916 49.0773 121.322 48.9869 121.629 49.1821C121.936 49.3773 122.027 49.7841 121.831 50.091L117.431 57.0052C117.318 57.1824 117.128 57.2955 116.918 57.3086C116.903 57.31 116.89 57.31 116.876 57.31Z" fill="#1C418C"/>
<path d="M110.59 64.624H124.419V78.453H110.59V64.624Z" fill="#3045B3"/>
<path d="M124.419 79.1113H110.59C110.226 79.1113 109.931 78.8161 109.931 78.4527V64.6237C109.931 64.2603 110.226 63.9658 110.59 63.9658H124.419C124.782 63.9658 125.077 64.2603 125.077 64.6237V78.4527C125.077 78.8161 124.782 79.1113 124.419 79.1113ZM111.248 77.7941H123.76V65.2823H111.248V77.7941Z" fill="#1C418C"/>
<path d="M116.876 75.34C116.681 75.34 116.495 75.2538 116.37 75.1027L113.227 71.3312C112.994 71.0519 113.032 70.6367 113.311 70.4043C113.59 70.1713 114.006 70.2092 114.239 70.4885L116.804 73.5676L120.72 67.4135C120.916 67.1066 121.322 67.0162 121.629 67.2114C121.936 67.4066 122.027 67.8134 121.831 68.1203L117.431 75.0352C117.318 75.2124 117.128 75.3248 116.918 75.3386C116.903 75.3393 116.89 75.34 116.876 75.34Z" fill="#1C418C"/>
<path d="M103.759 57.2364H86.7592C86.3951 57.2364 86.1006 56.9419 86.1006 56.5778C86.1006 56.2144 86.3951 55.9199 86.7592 55.9199H103.759C104.122 55.9199 104.417 56.2144 104.417 56.5778C104.417 56.9419 104.122 57.2364 103.759 57.2364Z" fill="#1C418C"/>
<path d="M103.759 51.5704H86.7592C86.3951 51.5704 86.1006 51.2759 86.1006 50.9125C86.1006 50.5484 86.3951 50.2539 86.7592 50.2539H103.759C104.122 50.2539 104.417 50.5484 104.417 50.9125C104.417 51.2759 104.122 51.5704 103.759 51.5704Z" fill="#1C418C"/>
<path d="M103.759 75.4952H86.7592C86.3951 75.4952 86.1006 75.2007 86.1006 74.8366C86.1006 74.4732 86.3951 74.1787 86.7592 74.1787H103.759C104.122 74.1787 104.417 74.4732 104.417 74.8366C104.417 75.2007 104.122 75.4952 103.759 75.4952Z" fill="#1C418C"/>
<path d="M103.759 70.4591H86.7592C86.3951 70.4591 86.1006 70.1646 86.1006 69.8005C86.1006 69.437 86.3951 69.1426 86.7592 69.1426H103.759C104.122 69.1426 104.417 69.437 104.417 69.8005C104.417 70.1646 104.122 70.4591 103.759 70.4591Z" fill="#1C418C"/>
<path d="M103.759 93.1251H86.7592C86.3951 93.1251 86.1006 92.8306 86.1006 92.4665C86.1006 92.1031 86.3951 91.8086 86.7592 91.8086H103.759C104.122 91.8086 104.417 92.1031 104.417 92.4665C104.417 92.8306 104.122 93.1251 103.759 93.1251Z" fill="#1C418C"/>
<path d="M103.759 88.088H86.7592C86.3951 88.088 86.1006 87.7935 86.1006 87.4294C86.1006 87.066 86.3951 86.7715 86.7592 86.7715H103.759C104.122 86.7715 104.417 87.066 104.417 87.4294C104.417 87.7935 104.122 88.088 103.759 88.088Z" fill="#1C418C"/>
<path d="M46.1513 134.724C45.6638 134.724 45.1948 134.583 44.8652 134.336C43.7191 133.478 41.3695 131.623 38.511 128.833C35.2546 125.655 32.3044 122.216 29.7425 118.61C26.4316 113.951 23.8131 109.064 21.9587 104.084C20.8898 101.213 20.0616 98.2698 19.4981 95.3375C18.8871 92.1556 18.5713 88.9034 18.5596 85.6718C18.5589 85.3959 18.6968 85.1256 18.9478 84.9111C19.1961 84.6987 19.5457 84.5484 19.9333 84.4884C22.3325 84.116 26.7578 83.1857 31.3293 81.7906C37.2925 79.9707 41.9991 77.8618 45.319 75.5226C45.5403 75.3668 45.8355 75.2812 46.1513 75.2812C46.4672 75.2812 46.7624 75.3668 46.983 75.5226C50.3036 77.8618 55.0102 79.9707 60.9734 81.7906C65.5449 83.1857 69.9695 84.116 72.3694 84.4884C72.7563 84.5484 73.1066 84.6987 73.3549 84.9111C73.6059 85.1256 73.7438 85.3959 73.7424 85.6718C73.7314 88.9034 73.4156 92.1556 72.8039 95.3375C72.2404 98.2698 71.4129 101.213 70.344 104.084C68.4896 109.064 65.8711 113.951 62.5595 118.61C59.9976 122.216 57.0481 125.655 53.7917 128.833C50.9332 131.623 48.5836 133.478 47.4375 134.336C47.1079 134.583 46.6389 134.724 46.1513 134.724Z" fill="white"/>
<mask id="mask2_40_10541" style="mask-type:luminance" maskUnits="userSpaceOnUse" x="17" y="74" width="58" height="62">
<path d="M17.8311 74.501H74.5014V135.35H17.8311V74.501Z" fill="white"/>
</mask>
<g mask="url(#mask2_40_10541)">
<path d="M46.1515 135.382C45.5247 135.382 44.9123 135.192 44.4709 134.862C43.3117 133.995 40.9366 132.119 38.0519 129.304C34.7673 126.098 31.7909 122.628 29.2062 118.991C25.8622 114.285 23.2161 109.347 21.3417 104.313C20.2604 101.408 19.4225 98.4299 18.8522 95.4611C18.2329 92.2385 17.9136 88.9455 17.9019 85.6733C17.8998 85.2016 18.1198 84.7526 18.5198 84.4099C18.8598 84.1195 19.3259 83.9161 19.8321 83.8375C22.2106 83.4679 26.5987 82.5451 31.1371 81.1597C37.0334 79.3605 41.6773 77.2826 44.9406 74.9834C45.2709 74.7503 45.7012 74.6221 46.1515 74.6221C46.6019 74.6221 47.0322 74.7503 47.3625 74.9834C50.6258 77.2826 55.2697 79.3605 61.1653 81.1597C65.7044 82.5451 70.0925 83.4679 72.471 83.8375C72.9771 83.9161 73.4433 84.1195 73.7833 84.4106C74.1833 84.7526 74.4026 85.2009 74.4012 85.6733C74.3895 88.9455 74.0695 92.2392 73.4509 95.4611C72.8806 98.4292 72.0427 101.408 70.9614 104.313C69.087 109.347 66.4409 114.285 63.0969 118.991C60.5115 122.628 57.5358 126.098 54.2511 129.304C51.3665 132.119 48.9907 133.995 47.8321 134.862C47.3908 135.192 46.7784 135.382 46.1515 135.382ZM46.1515 75.9386C45.9729 75.9386 45.8081 75.9827 45.6985 76.0599C42.3214 78.4391 37.5513 80.579 31.5219 82.4196C26.9166 83.8251 22.4554 84.7623 20.0342 85.1381C19.7701 85.1795 19.5301 85.2788 19.3756 85.4105C19.2756 85.4967 19.2184 85.5905 19.2184 85.6684C19.2301 88.8593 19.5418 92.0702 20.1452 95.2121C20.7017 98.1092 21.5196 101.017 22.5761 103.854C24.4098 108.78 27.0021 113.616 30.2799 118.228C32.8184 121.801 35.7431 125.211 38.9712 128.361C41.8028 131.125 44.1268 132.96 45.2599 133.808C45.475 133.969 45.8081 134.065 46.1515 134.065C46.495 134.065 46.8281 133.969 47.0432 133.808C48.1763 132.96 50.5003 131.124 53.3319 128.361C56.56 125.211 59.484 121.801 62.0232 118.228C65.301 113.616 67.8933 108.78 69.727 103.854C70.7835 101.017 71.6013 98.1092 72.1579 95.2121C72.7613 92.0702 73.073 88.8593 73.0847 85.6684C73.0847 85.5905 73.0275 85.4967 72.9268 85.4105C72.773 85.2788 72.533 85.1795 72.2689 85.1381C69.8476 84.7623 65.3865 83.8251 60.7812 82.4196C54.7518 80.579 49.9817 78.4391 46.6046 76.0599C46.495 75.9827 46.3302 75.9386 46.1515 75.9386Z" fill="#1C418C"/>
</g>
<path d="M46.1515 128.653C45.0384 127.765 43.4496 126.417 41.6096 124.622C38.7243 121.805 36.1113 118.76 33.8445 115.57C30.9364 111.477 28.6399 107.196 27.02 102.844C26.0925 100.353 25.3746 97.8018 24.8863 95.2619C24.5001 93.2503 24.2498 91.2062 24.1401 89.1608C26.5862 88.6884 29.9474 87.9078 33.3783 86.8602C38.5781 85.2734 42.8654 83.4356 46.1515 81.3867C49.4375 83.4349 53.7249 85.2734 58.9247 86.8602C62.3555 87.9078 65.7168 88.6884 68.1628 89.1608C68.0532 91.2062 67.8029 93.2503 67.4167 95.2612C66.9284 97.8018 66.2105 100.353 65.2837 102.844C63.6631 107.196 61.3666 111.477 58.4585 115.57C56.1917 118.76 53.5787 121.805 50.6933 124.622C48.8541 126.416 47.2645 127.765 46.1515 128.653Z" fill="#3045B3"/>
<path d="M46.1516 129.312C46.0061 129.312 45.8613 129.264 45.7406 129.168C44.7013 128.338 43.0607 126.958 41.1498 125.093C38.2354 122.249 35.5976 119.173 33.3074 115.951C30.3662 111.812 28.0428 107.479 26.4029 103.073C25.4623 100.548 24.7347 97.962 24.2396 95.3863C23.8486 93.3505 23.5941 91.2685 23.4824 89.1962C23.4651 88.8679 23.692 88.5769 24.0154 88.5149C25.7305 88.1838 29.2028 87.4466 33.186 86.2308C38.323 84.6633 42.5677 82.8455 45.8034 80.8283C46.0165 80.6952 46.2868 80.6952 46.4999 80.8283C49.7349 82.8455 53.9802 84.6633 59.1165 86.2308C63.0998 87.4466 66.5727 88.1838 68.2878 88.5149C68.6105 88.5769 68.8381 88.8679 68.8202 89.1962C68.7092 91.2685 68.454 93.3505 68.063 95.3863C67.5685 97.9613 66.841 100.547 65.9003 103.073C64.2597 107.479 61.9364 111.812 58.9951 115.951C56.7056 119.173 54.0671 122.249 51.1534 125.093C49.2418 126.959 47.6012 128.339 46.5619 129.168C46.4419 129.264 46.2971 129.312 46.1516 129.312ZM24.832 89.6955C24.9533 91.5195 25.1892 93.347 25.5333 95.1373C26.014 97.6413 26.7222 100.157 27.6373 102.614C29.2373 106.912 31.5061 111.143 34.3812 115.189C36.6252 118.347 39.212 121.362 42.0691 124.15C43.7062 125.748 45.1379 126.981 46.1516 127.807C47.1647 126.981 48.5963 125.748 50.2335 124.15C53.0913 121.362 55.6781 118.347 57.9221 115.189C60.7971 111.143 63.066 106.913 64.6666 102.614C65.5817 100.156 66.2893 97.6413 66.7699 95.1373C67.1141 93.347 67.3492 91.5195 67.4713 89.6955C65.5962 89.319 62.3743 88.6018 58.7324 87.4901C53.6671 85.944 49.437 84.1516 46.1516 82.1593C42.8663 84.1516 38.6361 85.944 33.5708 87.4901C29.9283 88.6018 26.707 89.319 24.832 89.6955Z" fill="#1C418C"/>
<path d="M56.787 95.8632C57.5325 96.7915 57.5084 98.1197 56.7298 99.0203L45.7958 111.673C45.691 111.82 45.4903 111.842 45.3593 111.721L37.2197 105.476C36.1321 104.641 35.9342 103.079 36.7783 101.999L36.7797 101.998C37.6162 100.929 39.1589 100.737 40.2319 101.567L44.7448 105.059C44.8752 105.181 45.0758 105.159 45.1807 105.012L52.9831 95.8122C53.9851 94.6309 55.8167 94.655 56.787 95.8632Z" fill="white"/>
<path d="M45.5571 112.458C45.3323 112.458 45.1137 112.378 44.9406 112.229L36.8189 105.999C36.1528 105.487 35.7273 104.746 35.6218 103.913C35.5156 103.08 35.7424 102.256 36.2604 101.594C37.3175 100.242 39.2795 99.9977 40.6346 101.047L44.8889 104.339L52.4809 95.3868C53.0864 94.6731 53.9698 94.2717 54.9057 94.2835C55.8415 94.2959 56.7145 94.7214 57.3 95.451C58.2448 96.6275 58.2145 98.3095 57.2283 99.4508L46.3088 112.087C46.1481 112.294 45.9109 112.427 45.6523 112.453C45.6206 112.456 45.5889 112.458 45.5571 112.458ZM38.7251 101.711C38.1872 101.711 37.6541 101.949 37.2982 102.404C36.9976 102.789 36.8665 103.265 36.9279 103.747C36.9886 104.229 37.2348 104.658 37.621 104.954L45.5047 111.003L56.2318 98.5901C56.8028 97.9295 56.82 96.9564 56.2732 96.2758C55.9346 95.8537 55.4298 95.6075 54.8877 95.5999C54.3457 95.5924 53.8354 95.8254 53.485 96.2385L45.6958 105.423C45.5358 105.631 45.2972 105.766 45.0372 105.792C44.7793 105.818 44.522 105.737 44.3248 105.567L39.8291 102.088C39.5009 101.834 39.1119 101.711 38.7251 101.711Z" fill="#1C418C"/>
</svg>
