<svg width="343" height="228" viewBox="0 0 343 228" fill="none" xmlns="http://www.w3.org/2000/svg">
<rect x="0.5" y="0.5" width="342" height="227" rx="7.5" fill="#F8F9FE"/>
<rect x="0.5" y="0.5" width="342" height="227" rx="7.5" stroke="#E1E4ED"/>
<path d="M310.751 127.576C310.751 128.894 309.874 130.208 308.118 131.23L307.973 131.377L209.392 188.229C205.733 190.278 199.884 190.278 196.228 188.084L170.046 173.029L129.386 149.645L115.489 141.61L93.4055 128.894L35.1928 95.2779L35.0449 95.1328C33.2903 94.1105 32.2666 92.7938 32.2666 91.3321C32.2666 90.0183 33.2903 88.7017 35.0449 87.5315L133.774 30.6805C137.429 28.4893 143.134 28.4893 146.937 30.6805L175.312 47.0491L197.398 59.7636L211.293 67.8015L251.952 91.1843L307.973 123.633C309.874 124.655 310.751 126.114 310.751 127.576Z" fill="#DEDDF2"/>
<path d="M308.125 131.24L290.266 141.544L115.845 40.9181L133.706 30.6158C137.379 28.4965 143.206 28.4965 146.88 30.6158L307.999 123.566C311.672 125.685 311.8 129.121 308.125 131.24Z" fill="#90C3EB"/>
<path d="M254.687 104.844L179.459 61.4424L185.579 57.9121L260.809 101.311L254.687 104.844Z" fill="#3A4851"/>
<path d="M235.338 104.884L179.386 72.6045L185.506 69.0742L241.461 101.354L235.338 104.884Z" fill="#3A4851"/>
<path d="M165.625 77.9655L94.4402 119.035L44.0273 89.9505L115.214 48.8838L165.625 77.9655Z" fill="#B4B2E0"/>
<path d="M119.039 94.8333C111.074 99.4268 97.2216 98.8804 88.091 93.6138C78.9604 88.3458 78.0155 80.3544 85.9773 75.761C93.9378 71.1675 107.796 71.7138 116.923 76.9804C126.053 82.2484 126.999 90.2413 119.039 94.8333Z" fill="#604136"/>
<path d="M113.313 108.148L94.4402 119.035L44.0273 89.9505L62.8969 79.0625C72.3979 81.4747 82.6579 85.6401 92.2856 91.194C101.784 96.6746 109.132 102.666 113.313 108.148Z" fill="#3A4851"/>
<path d="M84.72 95.558C81.4756 93.6851 81.8811 90.4167 85.6297 88.2538L92.7508 84.1461C96.4966 81.986 102.163 81.7494 105.409 83.6223C108.653 85.4952 108.248 88.7635 104.499 90.9265L97.3809 95.0342C93.6324 97.1957 87.9658 97.4309 84.72 95.558Z" fill="#D98B68"/>
<path d="M127.92 87.5709C119.841 92.2306 99.6071 96.3481 91.5298 91.687C83.4539 87.0274 90.5892 75.355 98.6665 70.6939C106.744 66.0356 119.841 66.0356 127.917 70.6939C135.996 75.355 135.996 82.9098 127.92 87.5709Z" fill="#E0AB92"/>
<path d="M127.087 68.7871C127.087 68.7871 121.887 71.5035 127.1 78.8162C136.343 91.7813 92.5898 97.7984 92.5898 97.7984L103.71 108.709L140.959 87.2202C140.959 87.2202 157.039 74.3762 127.087 68.7871Z" fill="#866959"/>
<path d="M131.228 71.1747C131.228 71.1747 126.517 74.1742 113.842 71.1677C91.369 65.8363 80.94 91.0765 80.94 91.0765L62.0254 84.6623L99.2759 63.1735C99.2759 63.1735 121.536 53.895 131.228 71.1747Z" fill="#866959"/>
<path d="M262.698 143.609L169.104 89.6169C167.104 88.4622 167.355 86.4499 169.664 85.1178C171.971 83.7842 175.463 83.642 177.463 84.7939L271.055 138.789C273.054 139.942 272.804 141.958 270.497 143.288C268.188 144.62 264.695 144.764 262.698 143.609Z" fill="#D52741"/>
<path d="M251.179 154.431L150.347 96.2607L160.149 90.6055L260.982 148.776L251.179 154.431Z" fill="#90C3EB"/>
<path d="M159.033 113.546L139.711 102.398L143.095 100.443L162.421 111.592L159.033 113.546Z" fill="#3A4851"/>
<path d="M171.172 120.548L162.681 115.65L166.069 113.695L174.557 118.596L171.172 120.548Z" fill="#3A4851"/>
<path d="M240.542 160.568L214.948 145.803L218.334 143.849L243.927 158.613L240.542 160.568Z" fill="#90C3EB"/>
<path d="M173.232 132.81L130.112 107.933L133.227 106.138L176.344 131.012L173.232 132.81Z" fill="#3A4851"/>
<path d="M174.739 141.489L123.345 111.838L126.457 110.043L177.851 139.694L174.739 141.489Z" fill="#3A4851"/>
<path d="M149.52 134.747L116.577 115.743L119.689 113.947L152.632 132.949L149.52 134.747Z" fill="#3A4851"/>
<path d="M148.044 144.875L107.061 121.235L108.494 120.405L149.479 144.05L148.044 144.875Z" fill="#8986BC"/>
<path d="M143.639 147.417L102.657 123.774L104.091 122.947L145.076 146.589L143.639 147.417Z" fill="#8986BC"/>
<path d="M209.327 178.577L182.146 162.896L176.307 166.263L203.487 181.945L209.327 178.577Z" fill="#8986BC"/>
<mask id="mask0_81_13482" style="mask-type:luminance" maskUnits="userSpaceOnUse" x="32" y="91" width="279" height="107">
<path d="M32.2666 91.0098H310.79V197.448H32.2666V91.0098Z" fill="white"/>
</mask>
<g mask="url(#mask0_81_13482)">
<path d="M310.751 127.576V135.322C310.751 136.637 309.874 137.954 308.118 138.978L290.276 149.208L209.392 195.977C205.733 198.021 199.884 198.021 196.228 195.829L35.0449 102.876C33.2903 101.854 32.2666 100.54 32.2666 99.0784V91.332C32.2666 92.7937 33.2903 94.1104 35.0449 95.1327L35.1928 95.2777L196.228 188.084C199.884 190.278 205.733 190.278 209.392 188.229L290.276 141.61L307.973 131.376L308.118 131.23C309.874 130.208 310.751 128.894 310.751 127.576Z" fill="#B4B2E0"/>
</g>
<path d="M310.75 127.576V135.323C310.75 136.638 309.873 137.954 308.117 138.978L290.275 149.209V141.61L307.972 131.377L308.117 131.23C309.873 130.208 310.75 128.894 310.75 127.576Z" fill="#5C94D5"/>
<path d="M115.525 141.576L93.4463 128.85L115.332 106.981L165.625 77.9659L152.15 70.1914L157.437 64.9121L179.503 77.6435L173.076 84.0676C171.862 84.1929 170.653 84.5449 169.664 85.1181C167.776 86.2052 167.266 87.75 168.232 88.9061L164.197 92.9391L160.149 90.6057L150.347 96.261L157.019 100.111L151.713 105.416L143.094 100.443L139.711 102.398L149.231 107.893L144.486 112.632L133.227 106.138L130.112 107.933L142.207 114.911L139.53 117.584L126.457 110.043L123.345 111.838L137.253 119.862L134.576 122.536L119.689 113.948L116.577 115.743L132.299 124.813L126.382 130.725L108.494 120.406L107.061 121.235L125.333 131.774L123.159 133.945L104.091 122.947L102.657 123.774L122.107 134.997L115.525 141.576Z" fill="#E8E8F6"/>
<path d="M179.503 77.6439L157.437 64.9126L175.312 47.0498L197.398 59.7643L194.248 62.9115L185.579 57.9125L179.459 61.4428L189.767 67.3895L187.138 70.0158L185.506 69.0751L179.386 72.6054L182.658 74.4924L179.503 77.6439Z" fill="#B1D7F3"/>
<path d="M189.767 67.3892L179.459 61.4424L185.579 57.9121L194.248 62.9111L189.767 67.3892Z" fill="#737E82"/>
<path d="M182.658 74.4915L179.386 72.6045L185.506 69.0742L187.138 70.0149L182.658 74.4915Z" fill="#737E82"/>
<path d="M115.332 106.981L127.117 95.2049L140.959 87.2205C140.959 87.2205 146.898 82.4778 144.836 77.5027L152.15 70.1914L165.625 77.966L115.332 106.981Z" fill="#CDCAEA"/>
<path d="M127.117 95.2051L144.836 77.5029C146.898 82.478 140.96 87.2208 140.96 87.2208L127.117 95.2051Z" fill="#A9988C"/>
<path d="M168.232 88.9059C167.266 87.7498 167.775 86.205 169.664 85.1179C170.652 84.5448 171.862 84.1927 173.076 84.0674L168.232 88.9059Z" fill="#DF757F"/>
<path d="M157.019 100.111L150.347 96.2607L160.149 90.6055L164.198 92.9388L157.019 100.111Z" fill="#B1D7F3"/>
<path d="M149.232 107.893L139.711 102.398L143.095 100.443L151.713 105.416L149.232 107.893Z" fill="#737E82"/>
<path d="M142.207 114.911L130.112 107.933L133.227 106.138L144.486 112.632L142.207 114.911Z" fill="#737E82"/>
<path d="M137.253 119.862L123.345 111.838L126.457 110.043L139.53 117.584L137.253 119.862Z" fill="#737E82"/>
<path d="M132.299 124.813L116.577 115.743L119.689 113.947L134.576 122.536L132.299 124.813Z" fill="#737E82"/>
<path d="M125.333 131.773L107.061 121.235L108.494 120.405L126.382 130.724L125.333 131.773Z" fill="#B1AFD1"/>
<path d="M122.107 134.997L102.657 123.774L104.091 122.947L123.159 133.945L122.107 134.997Z" fill="#B1AFD1"/>
<path d="M115.488 141.61L93.4053 128.894L93.4461 128.851L115.525 141.576L115.488 141.61Z" fill="#CDCAEA"/>
<path d="M170.068 173.01L129.438 149.593L136.015 143.021L143.639 147.418L145.075 146.59L137.067 141.969L139.24 139.798L148.044 144.876L149.479 144.051L140.29 138.749L146.206 132.837L149.52 134.748L152.632 132.95L148.487 130.56L151.161 127.886L174.739 141.489L177.851 139.694L153.441 125.608L156.115 122.935L173.232 132.811L176.344 131.012L158.395 120.657L163.142 115.917L171.172 120.548L174.557 118.597L166.068 113.696L164.4 114.658L170.928 108.135L211.54 131.566L177.517 165.566L176.306 166.263L176.63 166.451L170.068 173.01ZM218.72 124.395L178.104 100.963L182.009 97.0612L222.625 120.493L218.72 124.395ZM228.742 114.378L188.128 90.9483L193.412 85.6676L234.026 109.098L228.742 114.378ZM251.924 91.2173L226.16 76.3525L251.952 91.1849L251.924 91.2173Z" fill="#E8E8F6"/>
<path d="M234.026 109.098L193.413 85.6673L196.566 82.5158L235.339 104.885L241.462 101.354L201.047 78.0392L203.676 75.4158L244.288 98.8437L234.026 109.098ZM248.771 94.3671L208.155 70.9364L211.293 67.8018L226.16 76.3522L251.924 91.217L248.771 94.3671Z" fill="#B1D7F3"/>
<path d="M244.288 98.8438L203.676 75.4159L208.155 70.9365L248.771 94.3672L244.288 98.8438Z" fill="#737E82"/>
<path d="M235.338 104.885L196.565 82.5157L201.046 78.0391L241.461 101.354L235.338 104.885Z" fill="#737E82"/>
<path d="M222.626 120.493L182.01 97.0611L188.128 90.9482L228.743 114.378L222.626 120.493Z" fill="#DF757F"/>
<path d="M211.541 131.565L170.929 108.135L178.105 100.963L218.721 124.395L211.541 131.565Z" fill="#B1D7F3"/>
<path d="M171.172 120.548L163.143 115.916L164.4 114.657L166.069 113.695L174.557 118.596L171.172 120.548Z" fill="#737E82"/>
<path d="M173.233 132.81L156.116 122.935L158.396 120.656L176.345 131.012L173.233 132.81Z" fill="#737E82"/>
<path d="M174.739 141.489L151.162 127.886L153.442 125.607L177.851 139.693L174.739 141.489Z" fill="#737E82"/>
<path d="M149.519 134.747L146.206 132.837L148.487 130.56L152.632 132.949L149.519 134.747Z" fill="#737E82"/>
<path d="M148.044 144.876L139.24 139.798L140.291 138.749L149.479 144.051L148.044 144.876Z" fill="#B1AFD1"/>
<path d="M143.64 147.417L136.016 143.021L137.068 141.969L145.076 146.589L143.64 147.417Z" fill="#B1AFD1"/>
<path d="M176.631 166.451L176.307 166.263L177.518 165.566L176.631 166.451Z" fill="#B1AFD1"/>
<path d="M170.046 173.029L129.386 149.645L129.438 149.593L170.068 173.009L170.046 173.029Z" fill="#CDCAEA"/>
</svg>
