<svg width="80" height="80" viewBox="0 0 80 80" fill="none" xmlns="http://www.w3.org/2000/svg">
<path d="M22.4997 39.9985C22.5176 46.5563 21.0022 53.0275 18.0746 58.8956C17.9349 59.1998 17.7354 59.4729 17.4882 59.6986C17.2409 59.9243 16.9508 60.098 16.6351 60.2095C16.3194 60.3209 15.9845 60.3679 15.6504 60.3475C15.3162 60.327 14.9895 60.2397 14.6897 60.0907C14.3899 59.9416 14.1232 59.7339 13.9052 59.4797C13.6872 59.2256 13.5225 58.9303 13.4208 58.6113C13.3191 58.2924 13.2826 57.9562 13.3133 57.6228C13.344 57.2894 13.4413 56.9656 13.5996 56.6706C16.1808 51.493 17.5164 45.7838 17.4996 39.9985C17.4937 36.6248 18.2494 33.2933 19.7104 30.2524C21.1713 27.2115 23.2998 24.5395 25.9372 22.4357C26.1935 22.2305 26.4877 22.0778 26.803 21.9863C27.1183 21.8948 27.4485 21.8664 27.7748 21.9025C28.1012 21.9386 28.4172 22.0387 28.7048 22.1969C28.9925 22.3552 29.2461 22.5685 29.4513 22.8248C29.6565 23.0811 29.8092 23.3753 29.9007 23.6906C29.9922 24.0059 30.0207 24.3361 29.9846 24.6624C29.9485 24.9888 29.8484 25.3048 29.6902 25.5924C29.5319 25.8801 29.3185 26.1337 29.0623 26.3389C27.0105 27.9747 25.3546 30.0527 24.2183 32.4179C23.082 34.7831 22.4945 37.3745 22.4997 39.9985ZM39.9999 37.4984C39.3368 37.4984 38.701 37.7618 38.2321 38.2307C37.7633 38.6995 37.4999 39.3354 37.4999 39.9985C37.4994 49.7386 35.0263 59.3192 30.3123 67.8426C29.9907 68.4227 29.9128 69.1069 30.0956 69.7445C30.2785 70.3822 30.7071 70.921 31.2873 71.2426C31.8675 71.5642 32.5516 71.6421 33.1892 71.4593C33.8269 71.2764 34.3657 70.8478 34.6873 70.2676C39.8111 61.0016 42.4992 50.5867 42.4999 39.9985C42.4999 39.3354 42.2365 38.6995 41.7677 38.2307C41.2988 37.7618 40.6629 37.4984 39.9999 37.4984ZM39.9999 27.4983C36.6846 27.4983 33.5052 28.8153 31.1609 31.1595C28.8167 33.5038 27.4997 36.6832 27.4997 39.9985C27.4997 40.6615 27.7631 41.2974 28.232 41.7663C28.7008 42.2351 29.3367 42.4985 29.9998 42.4985C30.6628 42.4985 31.2987 42.2351 31.7676 41.7663C32.2364 41.2974 32.4998 40.6615 32.4998 39.9985C32.4998 38.0093 33.29 36.1016 34.6965 34.6951C36.1031 33.2886 38.0107 32.4984 39.9999 32.4984C41.989 32.4984 43.8967 33.2886 45.3033 34.6951C46.7098 36.1016 47.5 38.0093 47.5 39.9985C47.5259 49.9391 45.3364 59.7606 41.0905 68.7488C40.9504 69.0466 40.8703 69.369 40.8547 69.6977C40.8392 70.0264 40.8885 70.355 41 70.6646C41.1114 70.9742 41.2827 71.2589 41.5042 71.5023C41.7256 71.7457 41.9928 71.9431 42.2906 72.0833C42.5883 72.2234 42.9107 72.3035 43.2394 72.3191C43.5681 72.3346 43.8967 72.2853 44.2063 72.1738C44.5159 72.0624 44.8006 71.8911 45.044 71.6696C45.2874 71.4482 45.4848 71.181 45.625 70.8832C50.1823 61.2268 52.5309 50.6763 52.5001 39.9985C52.5001 36.6832 51.1831 33.5038 48.8388 31.1595C46.4946 28.8153 43.3151 27.4983 39.9999 27.4983ZM39.9999 7.49805C31.383 7.50715 23.1217 10.9342 17.0287 17.0272C10.9356 23.1203 7.50857 31.3816 7.49947 39.9985C7.50411 43.1204 6.97568 46.2202 5.93695 49.1642C5.71607 49.7896 5.75266 50.477 6.03865 51.0754C6.32465 51.6738 6.83663 52.134 7.46197 52.3549C8.08731 52.5758 8.77478 52.5392 9.37315 52.2532C9.97151 51.9672 10.4318 51.4552 10.6526 50.8299C11.8791 47.3505 12.5037 43.6876 12.4995 39.9985C12.4995 32.7049 15.3969 25.7101 20.5542 20.5528C25.7115 15.3955 32.7063 12.4981 39.9999 12.4981C47.2934 12.4981 54.2883 15.3955 59.4456 20.5528C64.6029 25.7101 67.5003 32.7049 67.5003 39.9985C67.5015 45.7106 66.9479 51.4093 65.8471 57.0143C65.7834 57.3365 65.7839 57.668 65.8483 57.99C65.9128 58.312 66.0401 58.6182 66.2229 58.8909C66.4058 59.1637 66.6406 59.3978 66.9139 59.5799C67.1872 59.7619 67.4937 59.8883 67.8159 59.9519C67.9755 59.9828 68.1377 59.9985 68.3003 59.9987C68.8788 59.9981 69.4392 59.7969 69.886 59.4293C70.3327 59.0618 70.6382 58.5506 70.7503 57.9831C71.9145 52.059 72.5006 46.0359 72.5003 39.9985C72.4904 31.3819 69.0631 23.121 62.9702 17.0282C56.8773 10.9353 48.6165 7.50797 39.9999 7.49805ZM29.4998 47.5517C28.8514 47.4227 28.1783 47.5558 27.6278 47.9218C27.0773 48.2879 26.6941 48.857 26.5622 49.5048C25.5478 54.4975 23.7316 59.293 21.184 63.705C20.8525 64.2794 20.7627 64.9619 20.9344 65.6025C21.1062 66.2431 21.5253 66.7892 22.0997 67.1207C22.674 67.4522 23.3566 67.542 23.9971 67.3703C24.6377 67.1986 25.1838 66.7794 25.5153 66.2051C28.3307 61.3261 30.3359 56.0228 31.4529 50.5017C31.5186 50.1798 31.5202 49.848 31.4575 49.5254C31.3949 49.2029 31.2693 48.8958 31.0879 48.6218C30.9065 48.3478 30.6729 48.1123 30.4004 47.9287C30.1278 47.745 29.8218 47.6169 29.4998 47.5517ZM39.9999 17.4982C39.0597 17.4984 38.1204 17.5568 37.1874 17.6732C36.5418 17.7701 35.9597 18.1157 35.5656 18.6361C35.1714 19.1565 34.9965 19.8104 35.0781 20.4581C35.1597 21.1058 35.4914 21.6959 36.0024 22.1022C36.5133 22.5085 37.1629 22.6989 37.8124 22.6326C40.2753 22.3264 42.7751 22.5467 45.1465 23.2791C47.5178 24.0115 49.7066 25.2392 51.5678 26.8809C53.4291 28.5227 54.9204 30.5411 55.9431 32.8024C56.9658 35.0638 57.4965 37.5166 57.5001 39.9985C57.4994 43.2369 57.299 46.4723 56.9001 49.6861C56.8563 50.0129 56.8775 50.3452 56.9626 50.6638C57.0477 50.9824 57.195 51.281 57.396 51.5424C57.597 51.8039 57.8478 52.0229 58.1338 52.187C58.4198 52.3511 58.7355 52.457 59.0626 52.4986C59.1663 52.5111 59.2707 52.5174 59.3751 52.5174C59.9831 52.5161 60.5698 52.2932 61.0254 51.8906C61.481 51.4879 61.7742 50.9331 61.8502 50.3299C62.2718 46.9086 62.4805 43.4644 62.4752 40.0172C62.4735 34.0529 60.1065 28.3326 55.8932 24.1111C51.6798 19.8896 45.9642 17.5114 39.9999 17.4982ZM58.1033 57.5768C57.7852 57.4946 57.4541 57.4758 57.1288 57.5216C56.8035 57.5674 56.4904 57.6769 56.2074 57.8438C55.9244 58.0107 55.6771 58.2317 55.4796 58.4942C55.2821 58.7567 55.1383 59.0556 55.0563 59.3737C54.6001 61.1519 54.072 62.9363 53.4938 64.6863C53.2823 65.3133 53.3279 65.9986 53.6208 66.592C53.9137 67.1855 54.43 67.6385 55.0563 67.852C55.3129 67.9393 55.5822 67.9836 55.8532 67.9832C56.377 67.9828 56.8875 67.8179 57.3125 67.5117C57.7376 67.2056 58.0557 66.7736 58.222 66.2769C58.847 64.4269 59.4064 62.5269 59.8939 60.6362C59.9777 60.3182 59.9979 59.9867 59.9534 59.6608C59.9089 59.3349 59.8005 59.021 59.6344 58.7371C59.4683 58.4532 59.2479 58.2049 58.9857 58.0063C58.7235 57.8077 58.4247 57.6628 58.1064 57.5799L58.1033 57.5768Z" fill="#212121"/>
</svg>
