<svg width="100" height="100" viewBox="0 0 100 100" fill="none" xmlns="http://www.w3.org/2000/svg">
<mask id="mask0_957_7524" style="mask-type:luminance" maskUnits="userSpaceOnUse" x="3" y="3" width="94" height="94">
<path d="M3.58374 3.58398H96.4541V96.4544H3.58374V3.58398Z" fill="white"/>
</mask>
<g mask="url(#mask0_957_7524)">
<path d="M50.0281 3.60156C24.3886 3.60156 3.60205 24.3862 3.60205 50.0276C3.60205 75.669 24.3886 96.4536 50.0281 96.4536C75.6675 96.4536 96.4541 75.6671 96.4541 50.0276C96.4541 24.3881 75.6675 3.60156 50.0281 3.60156Z" fill="#DD4247"/>
</g>
<mask id="mask1_957_7524" style="mask-type:luminance" maskUnits="userSpaceOnUse" x="3" y="3" width="73" height="74">
<path d="M3.58374 3.58398H75.926V76.2967H3.58374V3.58398Z" fill="white"/>
</mask>
<g mask="url(#mask1_957_7524)">
<path d="M25.466 76.2911C53.3267 76.2911 75.9126 53.7053 75.9126 25.846C75.9145 23.13 75.6984 20.4308 75.2639 17.7495C74.8299 15.0677 74.1827 12.4384 73.3229 9.86174C71.5622 8.8384 69.7417 7.93514 67.8614 7.15244C65.9815 6.36926 64.0578 5.71388 62.0912 5.18485C60.1241 4.6563 58.1314 4.25988 56.1122 3.99465C54.0925 3.72941 52.0647 3.59872 50.0281 3.60161C24.3886 3.60161 3.6021 24.3882 3.6021 50.0276C3.60065 51.0751 3.63441 52.1216 3.70385 53.1671C3.77378 54.2121 3.87891 55.2543 4.01924 56.2921C4.15958 57.3304 4.33512 58.3624 4.54586 59.3886C4.75661 60.4149 5.00159 61.4329 5.28178 62.4423C5.56149 63.4521 5.87544 64.4509 6.22314 65.439C6.57085 66.4271 6.95183 67.4022 7.36608 68.3648C7.78034 69.3269 8.22642 70.2741 8.7053 71.2063C9.18369 72.138 9.69343 73.0528 10.234 73.9498C12.6979 74.7277 15.2066 75.3131 17.7601 75.7057C20.3136 76.0982 22.8821 76.2931 25.466 76.2911Z" fill="#E55353"/>
</g>
<path d="M69.1913 69.192C69.0722 69.3111 68.9478 69.4245 68.8176 69.5311C68.6873 69.6381 68.5523 69.7379 68.412 69.8315C68.2721 69.9251 68.1274 70.0119 67.9789 70.091C67.8304 70.1705 67.6785 70.2424 67.5227 70.307C67.3669 70.3711 67.2088 70.428 67.0477 70.4767C66.8861 70.5255 66.7231 70.5664 66.5577 70.5992C66.3928 70.632 66.2264 70.6571 66.0586 70.6735C65.8908 70.6899 65.7229 70.6981 65.5546 70.6981C65.3858 70.6981 65.218 70.6899 65.0502 70.6735C64.8828 70.6571 64.7165 70.632 64.5511 70.5992C64.3861 70.5664 64.2226 70.5255 64.0616 70.4767C63.9005 70.428 63.7418 70.3711 63.5861 70.307C63.4308 70.2424 63.2784 70.1705 63.1299 70.091C62.9813 70.0119 62.8371 69.9251 62.6968 69.8315C62.5569 69.7379 62.4219 69.6381 62.2917 69.5311C62.1615 69.4245 62.0366 69.3111 61.9175 69.192L50.028 57.303L38.1385 69.192C38.0194 69.3111 37.895 69.4245 37.7643 69.5311C37.6341 69.6381 37.4991 69.7379 37.3592 69.8315C37.2189 69.9251 37.0747 70.0119 36.9262 70.091C36.7776 70.1705 36.6252 70.2424 36.4699 70.307C36.3142 70.3711 36.156 70.428 35.9944 70.4767C35.8334 70.5255 35.6704 70.5664 35.505 70.5992C35.3395 70.632 35.1732 70.6571 35.0058 70.6735C34.838 70.6899 34.6702 70.6981 34.5014 70.6981C34.3331 70.6981 34.1653 70.6899 33.9974 70.6735C33.8301 70.6571 33.6632 70.632 33.4983 70.5992C33.3329 70.5664 33.1699 70.5255 33.0088 70.4767C32.8473 70.428 32.6891 70.3711 32.5333 70.307C32.3775 70.2424 32.2256 70.1705 32.0771 70.091C31.9286 70.0119 31.7844 69.9251 31.644 69.8315C31.5042 69.7379 31.3687 69.6381 31.2385 69.5311C31.1083 69.4245 30.9838 69.3111 30.8647 69.192C30.7456 69.0729 30.6328 68.9485 30.5257 68.8183C30.4191 68.6881 30.3188 68.553 30.2253 68.4127C30.1317 68.2729 30.0454 68.1282 29.9658 67.9796C29.8862 67.8311 29.8144 67.6792 29.7502 67.5234C29.6856 67.3677 29.6292 67.2095 29.58 67.0484C29.5313 66.8869 29.4903 66.7239 29.4575 66.5584C29.4247 66.3935 29.4001 66.2271 29.3832 66.0593C29.3668 65.8915 29.3586 65.7237 29.3586 65.5554C29.3586 65.3866 29.3668 65.2187 29.3832 65.0509C29.4001 64.8836 29.4247 64.7172 29.4575 64.5518C29.4903 64.3869 29.5313 64.2234 29.58 64.0623C29.6292 63.9012 29.6856 63.7426 29.7502 63.5868C29.8144 63.4315 29.8862 63.2791 29.9658 63.1306C30.0454 62.9821 30.1317 62.8379 30.2253 62.6975C30.3188 62.5577 30.4191 62.4226 30.5257 62.2924C30.6328 62.1622 30.7456 62.0373 30.8647 61.9182L42.7542 50.0287L30.8647 38.1393C30.7456 38.0202 30.6328 37.8957 30.5257 37.7655C30.4191 37.6348 30.3188 37.4998 30.2253 37.36C30.1317 37.2196 30.0454 37.0754 29.9658 36.9269C29.8862 36.7784 29.8144 36.626 29.7502 36.4707C29.6856 36.3149 29.6292 36.1567 29.58 35.9952C29.5313 35.8341 29.4903 35.6711 29.4575 35.5057C29.4247 35.3403 29.4001 35.1739 29.3832 35.0066C29.3668 34.8387 29.3586 34.6709 29.3586 34.5021C29.3586 34.3338 29.3668 34.166 29.3832 33.9982C29.4001 33.8308 29.4247 33.664 29.4575 33.499C29.4903 33.3336 29.5313 33.1706 29.58 33.0095C29.6292 32.848 29.6856 32.6898 29.7502 32.534C29.8144 32.3783 29.8862 32.2264 29.9658 32.0778C30.0454 31.9293 30.1317 31.7851 30.2253 31.6448C30.3188 31.5049 30.4191 31.3694 30.5257 31.2392C30.6328 31.109 30.7456 30.9846 30.8647 30.8655C30.9838 30.7463 31.1083 30.6335 31.2385 30.5264C31.3687 30.4198 31.5042 30.3195 31.644 30.226C31.7844 30.1324 31.9286 30.0461 32.0771 29.9665C32.2256 29.887 32.3775 29.8151 32.5333 29.751C32.6891 29.6863 32.8473 29.6299 33.0088 29.5807C33.1699 29.532 33.3329 29.491 33.4983 29.4582C33.6632 29.4254 33.8301 29.4008 33.9974 29.384C34.1653 29.3676 34.3331 29.3594 34.5014 29.3594C34.6702 29.3594 34.838 29.3676 35.0058 29.384C35.1732 29.4008 35.3395 29.4254 35.505 29.4582C35.6704 29.491 35.8334 29.532 35.9944 29.5807C36.156 29.6299 36.3142 29.6863 36.4699 29.751C36.6252 29.8151 36.7776 29.887 36.9262 29.9665C37.0747 30.0461 37.2189 30.1324 37.3592 30.226C37.4991 30.3195 37.6341 30.4198 37.7643 30.5264C37.895 30.6335 38.0194 30.7463 38.1385 30.8655L50.028 42.7549L61.9175 30.8655C62.0366 30.7463 62.1615 30.6335 62.2917 30.5264C62.4219 30.4198 62.5569 30.3195 62.6968 30.226C62.8371 30.1324 62.9813 30.0461 63.1299 29.9665C63.2784 29.887 63.4308 29.8151 63.5861 29.751C63.7418 29.6863 63.9005 29.6299 64.0616 29.5807C64.2226 29.532 64.3861 29.491 64.5511 29.4582C64.7165 29.4254 64.8828 29.4008 65.0502 29.384C65.218 29.3676 65.3858 29.3594 65.5546 29.3594C65.7229 29.3594 65.8908 29.3676 66.0586 29.384C66.2264 29.4008 66.3928 29.4254 66.5577 29.4582C66.7231 29.491 66.8861 29.532 67.0477 29.5807C67.2088 29.6299 67.3669 29.6863 67.5227 29.751C67.6785 29.8151 67.8304 29.887 67.9789 29.9665C68.1274 30.0461 68.2721 30.1324 68.412 30.226C68.5523 30.3195 68.6873 30.4198 68.8176 30.5264C68.9478 30.6335 69.0722 30.7463 69.1913 30.8655C69.3104 30.9846 69.4237 31.109 69.5303 31.2392C69.6374 31.3694 69.7372 31.5049 69.8308 31.6448C69.9243 31.7851 70.0111 31.9293 70.0902 32.0778C70.1698 32.2264 70.2416 32.3783 70.3063 32.534C70.3704 32.6898 70.4273 32.848 70.476 33.0095C70.5247 33.1706 70.5657 33.3336 70.5985 33.499C70.6313 33.664 70.6564 33.8308 70.6728 33.9982C70.6892 34.166 70.6974 34.3338 70.6974 34.5021C70.6974 34.6709 70.6892 34.8387 70.6728 35.0066C70.6564 35.1739 70.6313 35.3403 70.5985 35.5057C70.5657 35.6711 70.5247 35.8341 70.476 35.9952C70.4273 36.1567 70.3704 36.3149 70.3063 36.4707C70.2416 36.626 70.1698 36.7784 70.0902 36.9269C70.0111 37.0754 69.9243 37.2196 69.8308 37.36C69.7372 37.4998 69.6374 37.6348 69.5303 37.7655C69.4237 37.8957 69.3104 38.0202 69.1913 38.1393L57.3023 50.0287L69.1913 61.9182C69.3104 62.0373 69.4237 62.1622 69.5303 62.2924C69.6374 62.4226 69.7372 62.5577 69.8308 62.6975C69.9243 62.8379 70.0111 62.9821 70.0902 63.1306C70.1698 63.2791 70.2416 63.4315 70.3063 63.5868C70.3704 63.7426 70.4273 63.9012 70.476 64.0623C70.5247 64.2234 70.5657 64.3869 70.5985 64.5518C70.6313 64.7172 70.6564 64.8836 70.6728 65.0509C70.6892 65.2187 70.6974 65.3866 70.6974 65.5554C70.6974 65.7237 70.6892 65.8915 70.6728 66.0593C70.6564 66.2271 70.6313 66.3935 70.5985 66.5584C70.5657 66.7239 70.5247 66.8869 70.476 67.0484C70.4273 67.2095 70.3704 67.3677 70.3063 67.5234C70.2416 67.6792 70.1698 67.8311 70.0902 67.9796C70.0111 68.1282 69.9243 68.2729 69.8308 68.4127C69.7372 68.553 69.6374 68.6881 69.5303 68.8183C69.4237 68.9485 69.3104 69.0729 69.1913 69.192Z" fill="white"/>
</svg>
