<svg width="23" height="24" viewBox="0 0 23 24" fill="none" xmlns="http://www.w3.org/2000/svg">
<path d="M9.25 4.125H13.75C13.75 3.52826 13.5129 2.95597 13.091 2.53401C12.669 2.11205 12.0967 1.875 11.5 1.875C10.9033 1.875 10.331 2.11205 9.90901 2.53401C9.48705 2.95597 9.25 3.52826 9.25 4.125ZM7.5625 4.125C7.5625 3.60792 7.66435 3.0959 7.86222 2.61818C8.0601 2.14046 8.35014 1.7064 8.71577 1.34077C9.0814 0.975136 9.51546 0.685102 9.99318 0.487224C10.4709 0.289346 10.9829 0.1875 11.5 0.1875C12.0171 0.1875 12.5291 0.289346 13.0068 0.487224C13.4845 0.685102 13.9186 0.975136 14.2842 1.34077C14.6499 1.7064 14.9399 2.14046 15.1378 2.61818C15.3357 3.0959 15.4375 3.60792 15.4375 4.125H21.9062C22.13 4.125 22.3446 4.21389 22.5029 4.37213C22.6611 4.53036 22.75 4.74497 22.75 4.96875C22.75 5.19253 22.6611 5.40714 22.5029 5.56537C22.3446 5.72361 22.13 5.8125 21.9062 5.8125H20.4212L19.105 19.4374C19.004 20.4814 18.5178 21.4503 17.7411 22.1552C16.9645 22.8601 15.9531 23.2504 14.9043 23.25H8.09575C7.0471 23.2501 6.03599 22.8597 5.25957 22.1548C4.48315 21.4499 3.99708 20.4812 3.89613 19.4374L2.57875 5.8125H1.09375C0.869974 5.8125 0.655362 5.72361 0.497129 5.56537C0.338895 5.40714 0.25 5.19253 0.25 4.96875C0.25 4.74497 0.338895 4.53036 0.497129 4.37213C0.655362 4.21389 0.869974 4.125 1.09375 4.125H7.5625ZM9.8125 9.46875C9.8125 9.24497 9.72361 9.03036 9.56537 8.87213C9.40714 8.71389 9.19253 8.625 8.96875 8.625C8.74497 8.625 8.53036 8.71389 8.37213 8.87213C8.2139 9.03036 8.125 9.24497 8.125 9.46875V17.9062C8.125 18.13 8.2139 18.3446 8.37213 18.5029C8.53036 18.6611 8.74497 18.75 8.96875 18.75C9.19253 18.75 9.40714 18.6611 9.56537 18.5029C9.72361 18.3446 9.8125 18.13 9.8125 17.9062V9.46875ZM14.0312 8.625C14.255 8.625 14.4696 8.71389 14.6279 8.87213C14.7861 9.03036 14.875 9.24497 14.875 9.46875V17.9062C14.875 18.13 14.7861 18.3446 14.6279 18.5029C14.4696 18.6611 14.255 18.75 14.0312 18.75C13.8075 18.75 13.5929 18.6611 13.4346 18.5029C13.2764 18.3446 13.1875 18.13 13.1875 17.9062V9.46875C13.1875 9.24497 13.2764 9.03036 13.4346 8.87213C13.5929 8.71389 13.8075 8.625 14.0312 8.625ZM5.57575 19.2754C5.63643 19.9016 5.92815 20.4828 6.39404 20.9056C6.85993 21.3285 7.46659 21.5626 8.09575 21.5625H14.9043C15.5334 21.5626 16.1401 21.3285 16.606 20.9056C17.0718 20.4828 17.3636 19.9016 17.4243 19.2754L18.727 5.8125H4.273L5.57575 19.2754Z" fill="#B3261E"/>
</svg>
