<svg width="21" height="20" viewBox="0 0 21 20" fill="none" xmlns="http://www.w3.org/2000/svg">
<path fill-rule="evenodd" clip-rule="evenodd" d="M13 1.0415H9.62C8.08833 1.0415 6.875 1.0415 5.92583 1.169C4.94917 1.30067 4.15833 1.57734 3.53417 2.20067C2.91083 2.82484 2.63417 3.61567 2.5025 4.59234C2.375 5.54234 2.375 6.75484 2.375 8.2865V13.3332C2.37502 14.0777 2.64078 14.7977 3.12445 15.3638C3.60812 15.9298 4.27793 16.3046 5.01333 16.4207C5.1275 17.0573 5.34833 17.6007 5.79 18.0432C6.29167 18.5448 6.92333 18.7598 7.67333 18.8615C8.39583 18.9582 9.315 18.9582 10.4542 18.9582H13.0458C14.185 18.9582 15.1042 18.9582 15.8267 18.8615C16.5767 18.7598 17.2083 18.5448 17.71 18.0432C18.2117 17.5415 18.4267 16.9098 18.5283 16.1598C18.625 15.4373 18.625 14.5182 18.625 13.379V9.12067C18.625 7.9815 18.625 7.06234 18.5283 6.33984C18.4267 5.58984 18.2117 4.95817 17.71 4.4565C17.2675 4.01484 16.7242 3.794 16.0875 3.67984C15.9714 2.94443 15.5966 2.27462 15.0306 1.79095C14.4646 1.30728 13.7445 1.04152 13 1.0415ZM14.775 3.559C14.6483 3.189 14.409 2.86789 14.0908 2.64061C13.7725 2.41333 13.3911 2.29127 13 2.2915H9.66667C8.0775 2.2915 6.94917 2.29317 6.09167 2.40817C5.25417 2.52067 4.77083 2.73234 4.41833 3.08484C4.06583 3.43734 3.85417 3.92067 3.74167 4.759C3.62667 5.61567 3.625 6.744 3.625 8.33317V13.3332C3.62476 13.7243 3.74683 14.1057 3.9741 14.4239C4.20138 14.7422 4.5225 14.9815 4.8925 15.1082C4.875 14.5998 4.875 14.0248 4.875 13.379V9.12067C4.875 7.9815 4.875 7.06234 4.9725 6.33984C5.0725 5.58984 5.28917 4.95817 5.79 4.4565C6.29167 3.95484 6.92333 3.73984 7.67333 3.639C8.39583 3.5415 9.315 3.5415 10.4542 3.5415H13.0458C13.6917 3.5415 14.2667 3.5415 14.775 3.559ZM6.67333 5.3415C6.90417 5.11067 7.2275 4.96067 7.84 4.87817C8.46833 4.794 9.30333 4.79234 10.4992 4.79234H12.9992C14.195 4.79234 15.0292 4.794 15.6592 4.87817C16.2708 4.96067 16.5942 5.1115 16.825 5.3415C17.0558 5.57234 17.2058 5.89567 17.2883 6.50817C17.3725 7.1365 17.3742 7.9715 17.3742 9.16734V13.334C17.3742 14.5298 17.3725 15.364 17.2883 15.994C17.2058 16.6057 17.055 16.929 16.825 17.1598C16.5942 17.3907 16.2708 17.5407 15.6583 17.6232C15.0292 17.7073 14.195 17.709 12.9992 17.709H10.4992C9.30333 17.709 8.46833 17.7073 7.83917 17.6232C7.2275 17.5407 6.90417 17.3898 6.67333 17.1598C6.4425 16.929 6.2925 16.6057 6.21 15.9932C6.12583 15.364 6.12417 14.5298 6.12417 13.334V9.16734C6.12417 7.9715 6.12583 7.1365 6.21 6.50734C6.2925 5.89567 6.44333 5.57234 6.67333 5.3415Z" fill="#424242"/>
</svg>
