<svg width="24" height="24" viewBox="0 0 24 24" fill="none" xmlns="http://www.w3.org/2000/svg">
<path d="M20.0308 20.7905C20.4908 21.2505 21.2008 20.5405 20.7408 20.0905L16.9908 16.3305C18.3063 14.8751 19.0334 12.9824 19.0308 11.0205C19.0308 6.63055 15.4608 3.06055 11.0708 3.06055C6.68084 3.06055 3.11084 6.63055 3.11084 11.0205C3.11084 15.4105 6.68084 18.9805 11.0708 18.9805C13.0508 18.9805 14.8808 18.2505 16.2808 17.0405L20.0308 20.7905ZM4.10984 11.0205C4.10984 7.18055 7.23984 4.06055 11.0698 4.06055C14.9098 4.06055 18.0298 7.18055 18.0298 11.0205C18.0298 14.8605 14.9098 17.9805 11.0698 17.9805C7.23984 17.9805 4.10984 14.8605 4.10984 11.0205Z" fill="#212121"/>
</svg>
