<?xml version="1.0" encoding="UTF-8"?>
<svg width="752pt" height="752pt" version="1.1" viewBox="0 0 752 752" xmlns="http://www.w3.org/2000/svg">
 <g>
  <path d="m379.7 265.01h-3.1094v-11.102h-14.801v11.102h-4.2891c-5.8906 0-11.535 2.3359-15.699 6.5-4.1641 4.1641-6.5 9.8086-6.5 15.695v7.4023c0 5.8867 2.3359 11.535 6.5 15.695 4.1641 4.1641 9.8086 6.5039 15.699 6.5039h22.199c1.9609 0 3.8438 0.77734 5.2305 2.168 1.3867 1.3867 2.168 3.2695 2.168 5.2305v7.3984c0 1.9648-0.78125 3.8477-2.168 5.2344-1.3867 1.3867-3.2695 2.168-5.2305 2.168h-22.199c-4.0898 0-7.4023-3.3125-7.4023-7.4023v-7.3984h-14.801v7.3984h0.003907c0 5.8906 2.3359 11.535 6.5 15.699 4.1641 4.1641 9.8086 6.5 15.699 6.5h1.8516v10.508h14.801l-0.003906-10.508h5.5508c5.8867 0 11.531-2.3359 15.695-6.5 4.1641-4.1641 6.5-9.8086 6.5-15.699v-7.3984c0-5.8867-2.3359-11.535-6.5-15.695-4.1641-4.1641-9.8086-6.5039-15.695-6.5039h-22.199c-4.0898 0-7.4023-3.3125-7.4023-7.3984v-7.4023c0-4.0859 3.3125-7.3984 7.4023-7.3984h22.199c1.9609 0 3.8438 0.78125 5.2305 2.168 1.3867 1.3867 2.168 3.2695 2.168 5.2305v7.3984h14.801l-0.003906-7.3984c0-5.8867-2.3359-11.531-6.5-15.695-4.1641-4.1641-9.8086-6.5-15.695-6.5z"/>
  <path d="m300.16 456.14 1.8477 67.855c0.10156 3.1172 2.1484 5.8359 5.1172 6.7969 2.9648 0.96484 6.2188-0.039063 8.1289-2.5039l19.016-24.789 61.27 88.797v-0.003906c1.3828 1.9922 3.6484 3.1797 6.0703 3.1836h0.73828c2.6797-0.26562 5.0039-1.9648 6.0703-4.4414l99.156-231.32 73.551-171.67c1.2422-2.8008 0.63672-6.0742-1.5273-8.2383-2.168-2.168-5.4414-2.7734-8.2383-1.5312l-123.36 53.797c-20.656-21.148-48.895-33.18-78.453-33.43-29.562-0.25391-58 11.297-79.012 32.09-21.016 20.789-32.867 49.105-32.93 78.664v5.5508l-94.344 41.293c-2.5 1.1016-4.1875 3.4961-4.3906 6.2227-0.19922 2.7227 1.1172 5.3398 3.4258 6.8008zm16.059 46.84-0.73828-26.344 9.9141 14.355zm177.74-149.18-93.828 218.96-83.32-119.95 235.31-235.31zm-125.35 22.199c-17.664 0-34.602-7.0156-47.09-19.504-12.492-12.488-19.508-29.43-19.508-47.094 0-17.66 7.0156-34.602 19.508-47.09 12.488-12.488 29.426-19.504 47.09-19.504 17.664 0 34.602 7.0156 47.09 19.504 12.492 12.488 19.508 29.43 19.508 47.09v4.5156l-62.082 62.082zm172.86-168.49-67.41 67.41c-3.6172-11.141-8.9883-21.633-15.91-31.078zm-172.86 5.6953c21.629 0.03125 42.617 7.3516 59.574 20.777s28.895 32.176 33.883 53.219l-12.727 12.727v0.003906c-2.3633-20.348-12.309-39.055-27.855-52.395-15.547-13.336-35.551-20.32-56.023-19.559-20.469 0.76172-39.898 9.2109-54.414 23.668-14.512 14.453-23.043 33.848-23.887 54.316-0.84766 20.465 6.0586 40.496 19.328 56.098 13.273 15.602 31.941 25.625 52.281 28.074l-12.359 12.727c-30.676-7.4766-55.73-29.531-67.035-59.012-11.309-29.484-7.4297-62.637 10.383-88.707 17.809-26.074 47.277-41.746 78.852-41.938zm-109 117.14c3.7461 19.457 12.633 37.551 25.738 52.41 13.102 14.859 29.945 25.941 48.773 32.098l-27.746 27.746-124.39-78.438z"/>
 </g>
</svg>
