<svg width="20" height="20" viewBox="0 0 20 20" fill="none" xmlns="http://www.w3.org/2000/svg">
<path d="M19.3086 0.627986C19.0958 0.416674 18.8288 0.268122 18.5371 0.198657C18.2453 0.129192 17.94 0.141502 17.6548 0.234236L1.19608 5.72424C0.890839 5.82096 0.621103 6.00597 0.420945 6.2559C0.220787 6.50584 0.0991853 6.80948 0.0714981 7.12848C0.043811 7.44749 0.111281 7.76754 0.265385 8.04822C0.41949 8.3289 0.653318 8.55762 0.937335 8.70549L7.76608 12.0805L11.1411 18.9317C11.2767 19.1999 11.4843 19.4251 11.7406 19.582C11.9969 19.739 12.2918 19.8215 12.5923 19.8205H12.7048C13.0267 19.7968 13.334 19.6768 13.5868 19.4762C13.8396 19.2756 14.0262 19.0036 14.1223 18.6955L19.6911 2.28174C19.7905 1.99816 19.8074 1.69217 19.7396 1.39939C19.6719 1.10662 19.5224 0.8391 19.3086 0.627986ZM1.89358 7.27674L16.2598 2.48424L8.28358 10.4605L1.89358 7.27674ZM12.6711 18.043L9.47608 11.653L17.4523 3.67674L12.6711 18.043Z" fill="white"/>
</svg>
