<svg width="20" height="20" viewBox="0 0 20 20" fill="none" xmlns="http://www.w3.org/2000/svg">
<path d="M13.7295 4.50652L15.4937 6.27069M14.8637 2.95236L10.0912 7.72486C9.84457 7.9711 9.67639 8.28484 9.60783 8.62652L9.16699 10.8332L11.3737 10.3915C11.7153 10.3232 12.0287 10.1557 12.2753 9.90902L17.0478 5.13652C17.1912 4.99311 17.305 4.82285 17.3826 4.63547C17.4602 4.44809 17.5002 4.24726 17.5002 4.04444C17.5002 3.84162 17.4602 3.64079 17.3826 3.45341C17.305 3.26603 17.1912 3.09577 17.0478 2.95236C16.9044 2.80894 16.7342 2.69518 16.5468 2.61756C16.3594 2.53995 16.1586 2.5 15.9557 2.5C15.7529 2.5 15.5521 2.53995 15.3647 2.61756C15.1773 2.69518 15.0071 2.80894 14.8637 2.95236Z" stroke="#21307F" stroke-width="2" stroke-linecap="round" stroke-linejoin="round"/>
<path d="M15.8335 12.4993V14.9993C15.8335 15.4414 15.6579 15.8653 15.3453 16.1779C15.0328 16.4904 14.6089 16.666 14.1668 16.666H5.00016C4.55814 16.666 4.13421 16.4904 3.82165 16.1779C3.50909 15.8653 3.3335 15.4414 3.3335 14.9993V5.83268C3.3335 5.39065 3.50909 4.96673 3.82165 4.65417C4.13421 4.34161 4.55814 4.16602 5.00016 4.16602H7.50016" stroke="#21307F" stroke-width="2" stroke-linecap="round" stroke-linejoin="round"/>
</svg>
