<svg width="24" height="24" viewBox="0 0 24 24" fill="none" xmlns="http://www.w3.org/2000/svg">
<path d="M7.28022 17.2653L16.3655 9.64183L16.3873 15.3151C16.3886 15.5806 16.4952 15.8348 16.6839 16.0217C16.8725 16.2086 17.1277 16.3129 17.3932 16.3117C17.6588 16.3104 17.913 16.2037 18.0998 16.0151C18.2867 15.8265 18.391 15.5713 18.3898 15.3057L18.3633 7.49554C18.3584 7.43736 18.3492 7.37962 18.3358 7.32278C18.3037 7.28448 18.2844 7.2615 18.3059 7.1782C18.2669 7.06123 18.2066 6.95248 18.1281 6.85743C18.0481 6.76359 17.9515 6.68535 17.8431 6.62665C17.8109 6.58835 17.7917 6.56537 17.7059 6.57206C17.6522 6.54901 17.597 6.52994 17.5405 6.51501L9.85358 5.13268C9.70899 5.10664 9.56045 5.11278 9.4185 5.15066C9.27656 5.18854 9.14471 5.25723 9.03232 5.35185C8.85304 5.50169 8.73189 5.70957 8.68989 5.93942C8.66629 6.06882 8.66844 6.2016 8.69623 6.33016C8.72402 6.45873 8.77689 6.58054 8.85183 6.68864C8.92677 6.79674 9.0223 6.88899 9.13295 6.96011C9.24359 7.03123 9.36718 7.07982 9.49664 7.10311L15.0799 8.10974L5.99465 15.7332C5.79148 15.9037 5.66435 16.1479 5.64124 16.4121C5.61812 16.6763 5.70091 16.9389 5.87139 17.142C6.04187 17.3452 6.28607 17.4723 6.55028 17.4954C6.81448 17.5186 7.07705 17.4358 7.28022 17.2653Z" fill="#B3261E"/>
</svg>
