<svg width="64" height="64" viewBox="0 0 64 64" fill="none" xmlns="http://www.w3.org/2000/svg">
<rect width="64" height="64" rx="32" fill="#5E72ED"/>
<path d="M28.7747 42.303L28.6149 37.1003L30.4323 39.936L30.6626 40.2954L28.7747 42.303ZM31.1773 39.7482L31.1768 39.7487C31.1769 39.7485 31.1771 39.7484 31.1773 39.7482Z" fill="#35A1C6" stroke="#B3261E" stroke-width="1.33333"/>
<path fill-rule="evenodd" clip-rule="evenodd" d="M38.2617 48.9613C38.1238 48.9613 37.9922 48.8991 37.904 48.7905L28.0227 36.5149C27.8786 36.3364 27.8886 36.0799 28.0456 35.913L49.5524 13.0473C49.6994 12.8903 49.9361 12.8567 50.1214 12.9668C50.3068 13.0772 50.3904 13.3015 50.3228 13.506L38.6974 48.6464C38.6454 48.8058 38.5092 48.9244 38.3437 48.9543C38.3161 48.9589 38.2893 48.9613 38.2617 48.9613Z" fill="#66D2F6"/>
<path fill-rule="evenodd" clip-rule="evenodd" d="M28.3804 36.6863C28.2876 36.6863 28.195 36.6587 28.1153 36.6022L15.2538 27.4944C15.1167 27.3971 15.044 27.2334 15.0631 27.0663C15.0831 26.8994 15.1925 26.7563 15.3488 26.6934L24.4093 23.0661C24.6084 22.9872 33.7737 19.4818 36.6995 18.5254C36.6696 18.3202 36.782 18.1134 36.9828 18.0329L49.7157 12.9355C49.9163 12.8551 50.1445 12.9247 50.2662 13.1032C50.3873 13.2808 50.3688 13.5189 50.2211 13.6759L28.7151 36.5416C28.6254 36.6373 28.5029 36.6863 28.3804 36.6863Z" fill="#42C7F4"/>
<path fill-rule="evenodd" clip-rule="evenodd" d="M34.0318 36.3996C33.9192 36.3996 33.806 36.3581 33.7178 36.2756C33.5332 36.1017 33.5241 35.8107 33.6979 35.6261L36.6343 32.5041C36.8081 32.319 37.0992 32.3105 37.2838 32.4843C37.4684 32.6581 37.4769 32.9484 37.3036 33.133L34.3665 36.2557C34.2761 36.3514 34.1543 36.3996 34.0318 36.3996Z" fill="#B5EAFB"/>
<path fill-rule="evenodd" clip-rule="evenodd" d="M36.1806 38.4191C36.0672 38.4191 35.9546 38.3784 35.8658 38.2949C35.6812 38.1211 35.672 37.8302 35.846 37.6456L38.7823 34.5237C38.9561 34.3385 39.2472 34.33 39.4318 34.5038C39.6164 34.6776 39.6255 34.9679 39.4517 35.1523L36.5153 38.275C36.4249 38.3707 36.3024 38.4191 36.1806 38.4191Z" fill="#B5EAFB"/>
<path fill-rule="evenodd" clip-rule="evenodd" d="M14.1202 47.6321C14.0076 47.6321 13.8943 47.5906 13.8062 47.5073C13.6216 47.3334 13.6125 47.0431 13.7863 46.8585L19.5955 40.6814C19.7693 40.4968 20.0597 40.4883 20.2443 40.6616C20.4296 40.8354 20.4379 41.1263 20.2641 41.3109L14.4549 47.4872C14.3644 47.5838 14.2427 47.6321 14.1202 47.6321Z" fill="#83DBF8"/>
<path fill-rule="evenodd" clip-rule="evenodd" d="M16.2249 49.6121C16.1124 49.6121 15.999 49.5708 15.9103 49.4873C15.7257 49.3135 15.7164 49.0234 15.8902 48.8388L18.7953 45.7497C18.9691 45.5652 19.2594 45.5568 19.444 45.7298C19.6294 45.9036 19.6377 46.1947 19.4647 46.3791L16.5596 49.4674C16.4693 49.5639 16.3476 49.6121 16.2249 49.6121Z" fill="#83DBF8"/>
<path fill-rule="evenodd" clip-rule="evenodd" d="M18.3285 51.5889C18.2159 51.5889 18.1034 51.5475 18.0145 51.4649C17.8291 51.2909 17.8208 51 17.9946 50.8154L23.8038 44.6391C23.9776 44.4537 24.2679 44.4452 24.4525 44.619C24.6379 44.7928 24.6462 45.0831 24.4724 45.2677L18.6632 51.4441C18.5727 51.5405 18.451 51.5889 18.3285 51.5889Z" fill="#83DBF8"/>
<path fill-rule="evenodd" clip-rule="evenodd" d="M30.3808 27.1125C26.3262 27.1125 23.0283 23.8145 23.0283 19.7612C23.0283 15.7074 26.3262 12.4102 30.3808 12.4102C34.4346 12.4102 37.7334 15.7074 37.7334 19.7612C37.7334 23.8145 34.4346 27.1125 30.3808 27.1125Z" fill="#FFC81C"/>
<path fill-rule="evenodd" clip-rule="evenodd" d="M30.3808 13.3105C26.8233 13.3105 23.9282 16.2043 23.9282 19.7617C23.9282 23.3186 26.8233 26.2124 30.3808 26.2124C33.9384 26.2124 36.8333 23.3186 36.8333 19.7617C36.8333 16.2043 33.9384 13.3105 30.3808 13.3105Z" fill="#FEA819"/>
<path fill-rule="evenodd" clip-rule="evenodd" d="M30.3804 25.4951C30.1316 25.4951 29.9302 25.2937 29.9302 25.0449V24.0738C28.8196 23.8626 27.9771 22.8846 27.9771 21.7139C27.9771 21.465 28.1786 21.2636 28.4275 21.2636C28.6755 21.2636 28.8769 21.465 28.8769 21.7139C28.8769 22.5424 29.5517 23.2162 30.3804 23.2162C31.2091 23.2162 31.8831 22.5424 31.8831 21.7139C31.8831 20.8854 31.2091 20.2108 30.3804 20.2108C29.0556 20.2108 27.9771 19.1332 27.9771 17.8086C27.9771 16.6371 28.8196 15.6591 29.9302 15.4479V14.4768C29.9302 14.2287 30.1316 14.0273 30.3804 14.0273C30.6287 14.0273 30.8308 14.2287 30.8308 14.4768V15.4479C31.9414 15.6591 32.7838 16.6371 32.7838 17.8086C32.7838 18.0567 32.5824 18.2581 32.3335 18.2581C32.0853 18.2581 31.8831 18.0567 31.8831 17.8086C31.8831 16.9809 31.2107 16.3071 30.3835 16.3055H30.3773C29.5502 16.3071 28.8771 16.9809 28.8771 17.8086C28.8771 18.6371 29.5517 19.3109 30.3804 19.3109C31.7054 19.3109 32.7838 20.3892 32.7838 21.7139C32.7838 22.8846 31.9414 23.8626 30.8308 24.0738V25.0449C30.8308 25.2937 30.6294 25.4951 30.3804 25.4951Z" fill="#A05822"/>
<path fill-rule="evenodd" clip-rule="evenodd" d="M30.3806 26.2133C33.9383 26.2133 36.8331 23.3196 36.8331 19.7627C36.8331 17.5505 35.7128 15.5941 34.0102 14.4316C35.3521 15.6147 36.1999 17.3452 36.1999 19.2704C36.1999 22.8273 33.3048 25.721 29.7473 25.721C28.4024 25.721 27.1524 25.3074 26.1177 24.6014C27.255 25.6045 28.7479 26.2133 30.3806 26.2133Z" fill="#F07B16"/>
</svg>
