<svg width="18" height="18" viewBox="0 0 18 18" fill="none" xmlns="http://www.w3.org/2000/svg">
<path d="M17.1039 1.47656H0.896316C0.730989 1.47656 0.572433 1.41315 0.455529 1.30028C0.338625 1.18741 0.272949 1.03432 0.272949 0.874691C0.272949 0.715065 0.338625 0.561976 0.455529 0.449103C0.572433 0.33623 0.730989 0.272819 0.896316 0.272819H17.1039C17.2692 0.272819 17.4277 0.33623 17.5446 0.449103C17.6615 0.561976 17.7272 0.715065 17.7272 0.874691C17.7272 1.03432 17.6615 1.18741 17.5446 1.30028C17.4277 1.41315 17.2692 1.47656 17.1039 1.47656Z" fill="#9F9F9E"/>
<path d="M8.9999 2.39185L15.6138 8.77771C15.7159 8.89285 15.7693 9.04095 15.7633 9.19243C15.7572 9.34391 15.6922 9.4876 15.5811 9.59479C15.4701 9.70198 15.3213 9.76477 15.1644 9.77062C15.0075 9.77647 14.8541 9.72495 14.7349 9.62635L9.62327 4.69702V17.1257C9.62327 17.2853 9.55759 17.4384 9.44069 17.5513C9.32378 17.6641 9.16523 17.7275 8.9999 17.7275C8.83457 17.7275 8.67602 17.6641 8.55911 17.5513C8.44221 17.4384 8.37653 17.2853 8.37653 17.1257V4.69702L3.27116 9.62635C3.21528 9.68935 3.14651 9.74052 3.06917 9.77665C2.99183 9.81278 2.90759 9.83308 2.82174 9.83628C2.73589 9.83948 2.65029 9.82551 2.57029 9.79526C2.4903 9.765 2.41765 9.7191 2.3569 9.66044C2.29615 9.60179 2.24861 9.53164 2.21727 9.45441C2.18593 9.37717 2.17146 9.29452 2.17478 9.21163C2.1781 9.12874 2.19912 9.0474 2.23654 8.97273C2.27396 8.89806 2.32696 8.83167 2.39221 8.77771L8.9999 2.39185Z" fill="#9F9F9E"/>
</svg>
